**ABCDEFGHIJKLMNOPQRSTUVWXYZabcdefghijklmnopqrstuvwxyz**************************
**PARASOLID !"#$%&'()*+,-./:;<=>?@[\]^_`{|}~0123456789**************************
**PART1;
MC=AMD64;
MC_MODEL=Intel64 Family 6 Model 142 Stepping 10, GenuineIntel;
MC_ID=unknown;
OS=Windows_NT;
OS_RELEASE=unknown;
FRU=Parasolid Version 31.0, build 282,  2-25-2019;
APPL=SOLIDWORKS 2019-2019115;
SITE=;
USER=unknown;
FORMAT=text;
GUISE=transmit;
KEY=Arruela DIN 127 - A 8.1_;
FILE=Arruela DIN 127 - A 8.1_.x_t;
DATE=Tue Feb  4 09:10:28 2020;
**PART2;
SCH=SCH_3100282_31001;
USFLD_SIZE=0;
**PART3;
**END_OF_HEADER*****************************************************************
T51 : TRANSMIT FILE created by modeller version 310028223 SCH_3100282_31001_1300
6215 0 12 34 CCCCCCI4 mesh1006 0 I8 polyline1008 0 CCCCCCCDI5 owner1040 0 CCCCCC
I13 boundary_mesh1006 0 I17 boundary_polyline1008 0 CCCA16 index_map_offset0 0 1
 dA9 index_map82 0 A17 node_id_index_map82 0 A20 schema_embedding_map82 0 A5 chi
ld12 0 A14 lowest_node_id0 0 1 dA16 mesh_offset_data206 0 Z1 1048 2 3 0 0 0 0 0
 0 1e3 1e-8 0 4 0 1 0 1 1 5 6 7 8 0 0 9 10 11 0 0 0 0 0 0 0 81 255 2 2 1042 12 1
 13 0 0 0 0 14 70 11 CI9 list_type0 0 1 uI10 notransmit0 0 1 lCCCDCCDI12 finger_
index0 0 1 dI12 finger_block1012 0 CZ3 0 4 T1 0 0 9 20 1 15 15 13 255 5 217 0 1
 0 16 0 0 17 0 50 255 6 176 0 16 18 0 0 +-.0016 .008 0 1 -315544362088405e-44 -1
97215226305253e-44 1774937036747275e-45 -852955853770219e-44 -1 30 255 7 800 0 1
0 19 0 0 +-.0016 -.001 -.00733212111192901 1 -315544362088405e-44 -1972152263052
53e-44 29 255 8 794 0 11 20 0 -.0016 -.001 -.00733212111192901 19 8 CCCCCCCA5 ow
ner12 0 Z9 218 0 1 17 0 21 V0 16 255 10 798 0 ?22 0 23 7 0 0 1 18 255 11 792 0 2
4 0 25 8 ?1 17 255 24 0 26 22 27 11 28 29 0 30 +18 25 463 0 31 11 32 20 ?1 17 31
 0 33 34 35 25 36 23 0 37 +18 32 575 0 38 25 39 40 ?1 29 20 464 0 25 40 8 -11200
27791934886e-47 -.001 -.00407921561087423 29 40 641 0 32 41 20 -.0016 -.001 -.00
4079215610873895 29 41 643 0 39 42 40 -488939067758077e-47 .001 -.00407921561087
423 18 39 574 0 43 32 44 41 ?1 29 42 644 0 44 45 41 -.0016 .001 -.00407921561087
3895 18 44 562 0 46 39 47 42 ?1 29 45 910 0 47 48 42 -1130461562298264e-47 .001
 -.00733212111192901 18 47 855 0 49 44 50 45 ?1 29 48 911 0 50 51 45 0 -.001 -.0
0733212111192901 18 50 856 0 22 47 52 48 ?1 29 51 912 0 52 0 48 -.0016 .001 -.00
733212111192901 18 52 854 0 27 50 0 51 ?1 17 27 0 26 24 49 52 53 54 0 28 +15 255
 26 871 0 27 55 0 17 49 0 26 27 22 47 35 56 0 53 +17 53 0 57 43 58 47 27 54 0 59
 -16 54 845 0 ?27 60 56 61 0 0 1 17 28 0 62 46 63 52 24 29 0 58 -15 62 821 0 28
 16 0 17 46 0 62 64 28 44 58 60 0 65 +17 63 0 62 28 64 11 38 66 0 0 +16 29 833 0
 ?24 56 0 67 0 0 1 17 58 0 57 53 65 52 46 60 0 0 -15 57 811 0 53 68 0 17 65 0 57
 58 43 44 69 70 0 71 -16 60 808 0 ?46 66 54 72 0 0 1 16 66 536 0 ?63 70 60 73 0
 0 1 30 72 632 0 60 61 73 0 +-.0016 .001 -.002361789041142955 197215226305253e-4
4 0 1 30 61 900 0 54 74 72 0 --.0016 .001 -.00733212111192901 1 -315544362088405
e-44 -197215226305253e-44 30 73 630 0 66 72 75 0 +-.0016 -.001 -.002361789041142
955 -197215226305253e-44 0 -1 30 75 625 0 70 73 76 0 --.034925 .001 -.0040792156
10873895 -1 315544362088405e-44 197215226305253e-44 16 70 546 0 ?69 77 66 75 0 0
 1 30 76 623 0 77 75 78 0 +-.034925 -.001 -.004079215610873895 -1 31554436208840
5e-44 197215226305253e-44 16 77 535 0 ?79 80 70 76 0 0 1 31 255 78 223 0 81 76 8
2 0 -0 0 0 -1 315544362088405e-44 197215226305253e-44 -1774937036747275e-45 8529
55853770219e-44 1 .0042 16 81 466 0 ?83 84 80 78 0 0 1 31 82 233 0 80 78 85 0 --
.0016 0 0 -1 315544362088405e-44 197215226305253e-44 -1774937036747275e-45 85295
5853770219e-44 1 .0042 16 80 484 0 ?64 81 77 82 0 0 1 30 85 474 0 84 82 19 0 +-1
00974195868289e-46 .001 1991364888915555e-77 -197215226305253e-44 0 -1 16 84 473
 0 ?59 23 81 85 0 0 1 30 19 477 0 23 85 7 0 +-16408306828597e-45 -.001 323596794
4487785e-77 197215226305253e-44 0 1 16 23 796 0 ?31 10 84 19 0 0 1 17 59 0 33 35
 34 47 43 84 0 0 +15 33 816 0 35 86 0 17 35 0 33 31 59 50 49 56 0 36 -17 34 0 33
 59 31 39 83 81 0 0 -17 43 0 57 65 53 39 59 84 0 69 -17 69 0 87 83 71 39 65 70 0
 34 +15 87 38 0 83 88 0 17 83 0 87 79 69 25 34 81 0 0 +17 71 0 87 69 79 44 64 80
 0 0 -17 79 0 87 71 83 32 37 77 0 64 +17 64 0 62 63 46 32 71 80 0 0 +17 37 0 89
 36 38 25 79 77 0 83 -15 89 799 0 30 90 0 17 36 0 89 30 37 50 31 23 0 0 -17 38 0
 89 37 30 32 63 66 0 79 -17 30 0 89 38 36 11 22 10 0 63 -17 22 0 26 49 24 50 30
 10 0 35 +14 255 90 801 91 ?88 68 89 5 92 -0 0 88 68 21 81 1 91 1043 93 90 94 0
 0 95 96 14 88 36 95 1e-8 55 90 87 5 18 -0 0 55 90 21 14 68 812 97 ?90 86 57 5 9
8 -0 0 90 86 21 50 92 617 0 90 99 98 0 +-.0016 -.001 -.002361789041142955 -31554
4362088405e-44 -1 622301527786114e-74 1 -315544362088405e-44 0 13 21 3 0 0 0 0 0
 0 9 16 14 16 823 100 ?86 0 62 5 6 -0 0 86 0 21 81 1 100 1046 93 16 101 0 97 102
 103 14 86 817 102 ?68 16 33 5 104 -0 0 68 16 21 81 1 102 1047 93 86 105 0 100 1
06 107 50 104 12 0 86 98 18 0 +0 .0042 0 -1 315544362088405e-44 197215226305253e
-44 -1774937036747275e-45 852955853770219e-44 1 50 98 615 0 68 92 104 0 +-.0016
 .001 -.002361789041142955 315544362088405e-44 1 -622301527786114e-74 -1 3155443
62088405e-44 0 51 255 18 47 0 88 104 6 0 +-.034925 0 333066907387547e-30 -1 3155
44362088405e-44 197215226305253e-44 .0042 -1774937036747275e-45 852955853770219e
-44 1 80 255 1 93 108 109 9000 1 1 1 1 1 1 1 1 0 FFFFTFTFFFFFFF1 81 1 105 977 11
0 86 0 102 101 111 112 81 1 106 1048 93 55 113 0 102 0 114 82 255 1 107 -2700735
33 14 55 868 106 ?0 88 26 5 99 +0 0 0 88 21 81 1 113 981 110 55 0 106 115 0 116
 82 1 114 -274267837 80 1 110 0 117 8001 0 0 0 0 3 5 0 0 0 FFFFTFTFFFFFFF2 81 1
 115 980 110 88 0 95 94 113 118 83 255 3 116 .647058823529412 .619607843137255 .
588235294117647 81 1 95 1044 93 88 115 0 91 97 119 81 1 94 979 110 90 0 91 111 1
15 120 83 3 118 .647058823529412 .619607843137255 .588235294117647 81 1 111 978
 110 68 0 97 105 94 121 83 3 120 .647058823529412 .619607843137255 .588235294117
647 81 1 97 1045 93 68 111 0 95 100 122 83 3 121 .647058823529412 .6196078431372
55 .588235294117647 82 1 122 -270532285 82 1 119 891879536 79 255 15 117 SDL/TYS
A_COLOUR51 99 893 0 55 0 92 0 +-.0016 -105155158665961e-45 333066907387547e-30 1
 -315544362088405e-44 -197215226305253e-44 .0074 315544362088405e-44 1 0 81 1 10
1 976 110 16 0 100 0 105 123 83 3 112 .647058823529412 .619607843137255 .5882352
94117647 83 3 123 .647058823529412 .619607843137255 .588235294117647 79 14 109 S
WEntUnchanged82 1 103 -269549245 82 1 96 -276102845 16 56 844 0 ?49 54 29 74 0 0
 1 31 74 901 0 56 67 61 0 +0 -1102038684593754e-46 333066907387547e-30 -1 315544
362088405e-44 197215226305253e-44 -315544362088405e-44 -1 0 .0074 31 67 903 0 29
 0 74 0 +-.0016 -105155158665961e-45 333066907387547e-30 1 -315544362088405e-44
 -197215226305253e-44 315544362088405e-44 1 0 .0074 19 17 5 0 1 0 9 5 S0 74 4 CI
16 index_map_offset0 0 1 dCCZ20 15 9 0 0 124 106 113 125 126 127 128 13 2 0 0 0
 0 0 0 0 0 0 0 0 81 2 124 325 129 1 0 125 0 0 130 0 81 2 125 1003 131 1 124 126
 0 0 0 132 81 2 126 1004 133 1 125 127 0 0 0 134 81 1 127 1018 135 1 126 128 0 0
 136 81 2 128 1021 137 1 127 13 0 0 0 138 81 2 13 1027 139 1 128 2 0 0 0 0 80 2
 139 140 141 9000 0 0 0 0 3 5 0 0 0 FFTFFFFFFFFFFF9 1 79 16 141 BODY_RECIPE_2001
80 2 137 142 143 9000 0 0 0 0 3 5 0 0 0 FFTFFFFFFFFFFF9 1 82 1 138 1 79 24 143 B
ODY_IN_LIGHTWEIGHT_PERM80 1 135 144 145 9000 1 1 1 1 1 1 1 1 0 FFTFFFFFFFFFFF1 8
2 1 136 5124626 79 10 145 BODY_MATCH80 2 133 146 147 9000 0 0 0 0 3 5 0 0 0 FFTF
FFFFFFFFFT9 1 82 1 134 116 79 19 147 ENT_TIME_STAMP_200180 2 131 148 149 9000 0
 0 0 0 3 5 0 0 0 FFTFFFFFFFFFFF9 1 82 1 132 84 79 30 149 LAST_BODY_MODIFYING_FEA
TURE_ID80 2 129 150 151 8004 0 0 0 0 3 5 0 0 0 FFTFFFFFFFFFFF2 3 83 1 130 79e2 7
9 16 151 SDL/TYSA_DENSITY80 2 12 152 153 9000 0 0 0 0 3 5 0 0 0 FFTFFFFFFFFFFF9
 1 82 1 14 104 79 12 153 ATOM_ID_20011 0 
