**ABCDEFGHIJKLMNOPQRSTUVWXYZabcdefghijklmnopqrstuvwxyz**************************
**PARASOLID !"#$%&'()*+,-./:;<=>?@[\]^_`{|}~0123456789**************************
**PART1;
MC=AMD64;
MC_MODEL=Intel64 Family 6 Model 142 Stepping 10, GenuineIntel;
MC_ID=unknown;
OS=Windows_NT;
OS_RELEASE=unknown;
FRU=Parasolid Version 31.0, build 282,  2-25-2019;
APPL=SOLIDWORKS 2019-2019115;
SITE=;
USER=unknown;
FORMAT=text;
GUISE=transmit;
KEY=Arruela DIN 125 - A 17_;
FILE=Arruela DIN 125 - A 17_.x_t;
DATE=Tue Feb  4 09:10:20 2020;
**PART2;
SCH=SCH_3100282_31001;
USFLD_SIZE=0;
**PART3;
**END_OF_HEADER*****************************************************************
T51 : TRANSMIT FILE created by modeller version 310028223 SCH_3100282_31001_1300
6215 0 12 34 CCCCCCI4 mesh1006 0 I8 polyline1008 0 CCCCCCCDI5 owner1040 0 CCCCCC
I13 boundary_mesh1006 0 I17 boundary_polyline1008 0 CCCA16 index_map_offset0 0 1
 dA9 index_map82 0 A17 node_id_index_map82 0 A20 schema_embedding_map82 0 A5 chi
ld12 0 A14 lowest_node_id0 0 1 dA16 mesh_offset_data206 0 Z1 5972 2 3 0 0 0 0 0
 0 1e3 1e-8 0 4 0 1 0 1 1 5 6 7 0 0 0 8 9 0 0 0 0 0 0 0 0 81 255 2 2 5968 10 1 1
1 0 0 0 0 12 70 11 CI9 list_type0 0 1 uI10 notransmit0 0 1 lCCCDCCDI12 finger_in
dex0 0 1 dI12 finger_block1012 0 CZ3 0 4 T1 0 0 10 20 1 13 13 13 255 5 217 0 1 0
 14 0 0 15 0 50 255 6 176 0 14 16 0 0 +-.003 .015 0 1 0 0 0 0 -1 31 255 7 239 0
 17 18 0 0 --.003 0 0 -1 0 0 0 0 1 .015 19 8 CCCCCCCA5 owner12 0 Z8 218 0 1 15 0
 19 V0 16 255 9 23 0 ?20 0 21 22 0 0 1 17 255 20 0 23 20 20 0 24 9 0 0 +16 21 9
 0 ?25 9 26 27 0 0 1 31 22 223 0 9 0 27 0 -0 0 0 -1 0 0 0 0 1 .0085 31 27 229 0
 21 22 18 0 +0 0 0 -1 0 0 0 0 1 .015 31 18 233 0 26 27 7 0 --.003 0 0 -1 0 0 0 0
 1 .0085 16 26 42 0 ?28 21 17 18 0 0 1 17 28 0 29 28 28 0 30 26 0 0 +16 17 100 0
 ?31 26 0 7 0 0 1 17 31 0 32 31 31 0 33 17 0 0 +15 255 32 247 0 31 34 35 17 33 0
 36 33 33 0 31 17 0 0 -15 36 166 0 33 14 29 14 255 14 164 37 1e-8 34 0 36 5 6 -0
 0 0 34 19 15 29 167 0 28 14 0 81 1 37 5969 38 14 39 0 0 40 41 14 34 96 40 1e-8
 42 14 32 5 16 +0 0 14 42 19 13 19 3 0 0 0 0 0 0 8 43 14 43 2 44 1e-8 0 42 45 5
 46 -0 0 42 0 19 81 1 44 5971 38 43 47 0 40 48 49 14 42 36 48 1e-8 43 34 23 5 50
 -0 0 34 43 19 15 45 21 0 24 43 51 50 46 12 0 43 0 50 0 +0 .0085 0 -1 0 0 0 0 1
 51 255 50 47 0 42 46 16 0 +-.034925 0 0 -1 0 0 .0085 0 0 1 51 16 107 0 34 50 6
 0 +-.034925 0 0 -1 0 0 .015 0 0 1 17 24 0 45 24 24 0 20 9 0 0 -15 51 7 0 52 43
 0 17 52 0 51 52 52 0 25 21 0 0 -17 25 0 35 25 25 0 52 21 0 0 +15 35 98 0 25 34
 0 81 1 48 5972 38 42 53 0 44 0 54 15 23 245 0 20 42 55 15 55 38 0 30 42 0 17 30
 0 55 30 30 0 28 26 0 0 -80 255 1 38 56 57 9000 1 1 1 1 1 1 1 1 0 FFFFTFTFFFFFFF
1 81 1 53 5677 58 42 0 48 59 47 60 82 255 1 54 999999 80 1 58 0 61 8001 0 0 0 0
 3 5 0 0 0 FFFFTFTFFFFFFF2 81 1 59 5676 58 34 0 40 39 53 62 81 1 47 5678 58 43 0
 44 53 0 63 83 255 3 60 .647058823529412 .619607843137255 .588235294117647 83 3
 63 .647058823529412 .619607843137255 .588235294117647 81 1 40 5970 38 34 59 0 3
7 44 64 81 1 39 5675 58 14 65 37 0 59 66 83 3 62 .647058823529412 .6196078431372
55 .588235294117647 81 1 65 5673 67 14 0 39 0 68 69 83 3 66 .647058823529412 .61
9607843137255 .588235294117647 80 1 67 70 71 8017 0 0 0 0 0 0 0 0 0 TTTTTTTTTTTT
TF3 81 1 68 5674 67 1 72 11 65 0 73 84 255 4 69 NONE81 2 72 3718 74 1 75 68 0 0
 76 0 81 2 11 5957 77 1 68 2 0 0 0 0 84 12 73 Base-Revolve80 2 77 78 79 9000 0 0
 0 0 3 5 0 0 0 FFTFFFFFFFFFFF9 1 79 255 16 79 BODY_RECIPE_200180 2 74 80 81 8004
 0 0 0 0 3 5 0 0 0 FFTFFFFFFFFFFF2 3 81 2 75 273 82 1 83 72 0 0 0 84 83 1 76 79e
2 80 2 82 85 86 9000 0 0 0 0 3 5 0 0 0 FFTFFFFFFFFFFF9 1 81 1 83 261 87 1 88 75
 0 0 89 82 1 84 1 80 1 87 90 91 9000 1 1 1 1 1 1 1 1 0 FFTFFFFFFFFFFF1 81 2 88 2
50 92 1 93 83 0 0 0 94 82 1 89 1055 80 2 92 95 96 9000 0 0 0 0 3 5 0 0 0 FFTFFFF
FFFFFFT9 1 81 2 93 249 97 1 0 88 0 0 0 98 82 1 94 102 80 2 97 99 100 9000 0 0 0
 0 3 5 0 0 0 FFTFFFFFFFFFFF9 1 82 1 98 17 79 30 100 LAST_BODY_MODIFYING_FEATURE_
ID79 19 96 ENT_TIME_STAMP_200179 10 91 BODY_MATCH79 24 86 BODY_IN_LIGHTWEIGHT_PE
RM79 16 81 SDL/TYSA_DENSITY79 13 71 SDL/TYSA_NAME82 1 64 999999 79 15 61 SDL/TYS
A_COLOUR79 14 57 SWEntUnchanged82 1 49 999999 82 1 41 999999 19 15 5 0 1 0 8 5 S
0 74 4 CI16 index_map_offset0 0 1 dCCZ20 13 10 0 0 93 88 83 48 75 72 68 47 11 2
 0 0 0 0 0 0 0 0 0 0 80 2 10 101 102 9000 0 0 0 0 3 5 0 0 0 FFTFFFFFFFFFFF9 1 82
 1 12 101 79 12 102 ATOM_ID_20011 0 
