**ABCDEFGHIJKLMNOPQRSTUVWXYZabcdefghijklmnopqrstuvwxyz**************************
**PARASOLID !"#$%&'()*+,-./:;<=>?@[\]^_`{|}~0123456789**************************
**PART1;
MC=AMD64;
MC_MODEL=Intel64 Family 6 Model 142 Stepping 10, GenuineIntel;
MC_ID=unknown;
OS=Windows_NT;
OS_RELEASE=unknown;
FRU=Parasolid Version 31.0, build 282,  2-25-2019;
APPL=SOLIDWORKS 2019-2019115;
SITE=;
USER=unknown;
FORMAT=text;
GUISE=transmit;
KEY=Arruela DIN 127 - A 6.4_;
FILE=Arruela DIN 127 - A 6.4_.x_t;
DATE=Tue Feb  4 09:10:24 2020;
**PART2;
SCH=SCH_3100282_31001;
USFLD_SIZE=0;
**PART3;
**END_OF_HEADER*****************************************************************
T51 : TRANSMIT FILE created by modeller version 310028223 SCH_3100282_31001_1300
6215 0 12 34 CCCCCCI4 mesh1006 0 I8 polyline1008 0 CCCCCCCDI5 owner1040 0 CCCCCC
I13 boundary_mesh1006 0 I17 boundary_polyline1008 0 CCCA16 index_map_offset0 0 1
 dA9 index_map82 0 A17 node_id_index_map82 0 A20 schema_embedding_map82 0 A5 chi
ld12 0 A14 lowest_node_id0 0 1 dA16 mesh_offset_data206 0 Z1 4255 2 3 0 0 0 0 0
 0 1e3 1e-8 0 4 0 1 0 1 1 5 6 7 8 0 0 9 10 11 0 0 0 0 0 0 0 81 255 2 2 4249 12 1
 13 0 0 0 0 14 70 11 CI9 list_type0 0 1 uI10 notransmit0 0 1 lCCCDCCDI12 finger_
index0 0 1 dI12 finger_block1012 0 CZ3 0 4 T1 0 0 10 20 1 15 15 13 255 5 217 0 1
 0 16 0 0 17 0 50 255 6 176 0 16 18 0 0 +-.0016 .006 0 1 0 0 0 0 -1 30 255 7 393
2 0 10 19 0 0 +0 .0032 -75e-5 0 -1 -1476278496210918e-31 29 255 8 3924 0 11 20 0
 0 -.00595294044989533 -75e-5 19 8 CCCCCCCA5 owner12 0 Z9 218 0 1 17 0 21 V0 16
 255 10 3930 0 ?22 0 23 7 0 0 1 18 255 11 3923 0 24 0 25 8 ?1 17 255 24 0 26 27
 28 11 29 30 0 22 +18 25 3918 0 31 11 32 20 ?1 17 31 0 33 34 35 25 36 37 0 38 -1
8 32 4027 0 27 25 39 40 ?1 29 20 3919 0 25 40 8 0 -.003110868046060455 75e-5 29
 40 4094 0 32 41 20 0 -.003110868046060455 -75e-5 29 41 4095 0 39 42 40 -.0016 -
.003110868046060455 -75e-5 18 39 4017 0 43 32 44 41 ?1 29 42 4096 0 44 45 41 -.0
016 -.00595294044989533 -75e-5 18 44 4015 0 28 39 46 42 ?1 29 45 4098 0 46 47 42
 0 -.00595294044989533 75e-5 18 46 4029 0 34 44 48 45 ?1 29 47 4099 0 48 49 45 -
.0016 -.00595294044989533 75e-5 18 48 4016 0 50 46 51 47 ?1 29 49 4100 0 51 0 47
 -.0016 -.003110868046060455 75e-5 18 51 4030 0 35 48 0 49 ?1 17 35 0 33 31 50 5
1 52 53 0 36 -15 255 33 4060 0 50 54 0 17 50 0 33 35 34 48 55 56 0 52 +17 52 0 5
7 58 59 48 35 53 0 60 +16 53 4000 0 ?52 61 0 62 0 0 1 17 36 0 63 64 65 51 31 37
 0 59 +15 63 245 0 64 66 0 17 64 0 63 67 36 39 59 68 0 0 -17 65 0 63 36 67 25 69
 70 0 0 +16 37 3999 0 ?36 56 61 71 0 0 1 17 59 0 57 52 72 51 64 68 0 0 +15 57 16
7 0 58 16 0 17 72 0 57 59 58 39 28 61 0 64 +16 68 3939 0 ?59 73 74 75 0 0 1 16 7
3 3926 0 ?76 70 68 77 0 0 1 16 74 3950 0 ?60 68 30 78 0 0 1 31 255 75 233 0 68 7
7 78 0 --.0016 0 0 -1 0 0 0 0 1 .0032 31 77 229 0 73 79 75 0 +0 0 0 -1 0 0 0 0 1
 .006 31 78 239 0 74 75 19 0 --.0016 0 0 -1 0 0 0 0 1 .006 30 19 3929 0 23 78 7
 0 +0 .0032 75e-5 0 1 984185664140612e-31 16 23 3928 0 ?38 10 70 19 0 0 1 17 38
 0 80 69 81 25 34 23 0 65 +16 70 3921 0 ?65 23 73 79 0 0 1 31 79 223 0 70 82 77
 0 -0 0 0 -1 0 0 0 0 1 .0032 30 82 4077 0 30 83 79 0 --.034925 -.005952940449895
33 -75e-5 -1 0 0 16 30 3972 0 ?24 74 84 82 0 0 1 30 83 4078 0 84 85 82 0 --.0349
25 -.003110868046060455 -75e-5 -1 0 0 16 84 3992 0 ?67 30 56 83 0 0 1 30 85 4079
 0 56 71 83 0 +-.034925 -.00595294044989533 75e-5 -1 0 0 16 56 3977 0 ?50 84 37
 85 0 0 1 30 71 4080 0 37 86 85 0 +-.034925 -.003110868046060455 75e-5 -1 0 0 30
 86 4085 0 61 62 71 0 +-.0016 -.002417795656812775 -75e-5 0 1 1476278496210918e-
31 16 61 3989 0 ?72 37 53 86 0 0 1 30 62 4087 0 53 0 86 0 +-.0016 -.002417795656
812775 75e-5 0 -1 -984185664140612e-31 17 67 0 63 65 64 32 43 84 0 69 +17 43 0 2
6 28 27 39 67 84 0 72 -17 69 0 80 22 38 32 65 70 0 0 -15 80 7 0 69 87 0 17 22 0
 80 81 69 11 27 10 0 76 +17 81 0 80 38 22 46 76 73 0 0 -17 27 0 26 43 24 32 22 1
0 0 67 -17 76 0 88 29 55 11 81 73 0 0 +15 88 3954 0 29 89 0 17 29 0 88 60 76 44
 24 30 0 58 -17 55 0 88 76 60 46 50 56 0 81 -17 60 0 88 55 29 48 58 74 0 0 +17 5
8 0 57 72 52 44 60 74 0 0 -14 255 89 96 90 1e-8 66 16 88 5 18 +0 0 16 66 21 81 1
 90 4250 91 89 92 0 0 93 94 14 66 36 93 1e-8 87 89 63 5 95 -0 0 89 87 21 14 16 1
64 96 1e-8 89 0 57 5 6 -0 0 54 89 21 51 255 18 107 0 89 95 6 0 +-.034925 0 0 -1
 0 0 .006 0 0 1 13 21 3 0 0 0 0 0 0 9 87 14 87 2 97 1e-8 54 66 80 5 98 -0 0 66 0
 21 81 1 97 4253 91 87 99 0 96 100 101 14 54 4057 100 ?102 87 33 5 103 -0 0 102
 16 21 50 98 12 0 87 103 95 0 +0 .0032 0 -1 0 0 0 0 1 50 103 4070 0 54 104 98 0
 +-.0016 -.002417795656812775 75e-5 0 -984185664140612e-31 1 0 -1 -9841856641406
12e-31 51 95 47 0 66 98 18 0 +-.034925 0 0 -1 0 0 .0032 0 0 1 50 104 4072 0 102
 0 103 0 +-.0016 -.002417795656812775 -75e-5 0 1476278496210918e-31 -1 0 1 14762
78496210918e-31 14 102 4049 105 ?0 54 26 5 104 -0 0 0 54 21 81 1 105 4255 91 102
 106 0 100 0 107 15 26 4052 0 24 102 0 80 255 1 91 108 109 9000 1 1 1 1 1 1 1 1
 0 FFFFTFTFFFFFFF1 81 1 106 4182 110 102 0 105 111 0 112 81 1 100 4254 91 54 111
 0 97 105 113 82 255 1 107 2120548463 81 1 111 4181 110 54 0 100 99 106 114 82 1
 113 2120810607 80 1 110 0 115 8001 0 0 0 0 3 5 0 0 0 FFFFTFTFFFFFFF2 81 1 99 74
8 110 87 0 97 116 111 117 83 255 3 114 .647058823529412 .619607843137255 .588235
294117647 81 1 116 747 110 66 0 93 92 99 118 83 3 117 .647058823529412 .61960784
3137255 .588235294117647 81 1 93 4251 91 66 116 0 90 96 119 81 1 92 746 110 89 0
 90 120 116 121 83 3 118 .647058823529412 .619607843137255 .588235294117647 81 1
 120 745 110 16 122 96 0 92 123 83 3 121 .647058823529412 .619607843137255 .5882
35294117647 81 1 122 743 124 16 0 120 0 125 126 81 1 96 4252 91 16 120 0 93 97 1
27 83 3 123 .647058823529412 .619607843137255 .588235294117647 82 1 127 20993147
99 80 1 124 128 129 8017 0 0 0 0 0 0 0 0 0 TTTTTTTTTTTTTF3 81 1 125 744 124 1 13
0 131 122 0 132 84 255 4 126 NONE81 2 130 330 133 1 0 125 0 0 134 0 81 2 131 420
4 135 1 125 136 0 0 0 137 84 12 132 Base-Revolve80 2 135 138 139 9000 0 0 0 0 3
 5 0 0 0 FFTFFFFFFFFFFF9 1 81 2 136 4205 140 1 131 141 0 0 0 142 82 1 137 84 80
 2 140 143 144 9000 0 0 0 0 3 5 0 0 0 FFTFFFFFFFFFFT9 1 81 1 141 4219 145 1 136
 146 0 0 147 82 1 142 116 80 1 145 148 149 9000 1 1 1 1 1 1 1 1 0 FFTFFFFFFFFFFF
1 81 2 146 4223 150 1 141 13 0 0 0 151 82 1 147 695085 80 2 150 152 153 9000 0 0
 0 0 3 5 0 0 0 FFTFFFFFFFFFFF9 1 81 2 13 4234 154 1 146 2 0 0 0 0 82 1 151 1 80
 2 154 155 156 9000 0 0 0 0 3 5 0 0 0 FFTFFFFFFFFFFF9 1 79 255 16 156 BODY_RECIP
E_200179 24 153 BODY_IN_LIGHTWEIGHT_PERM79 10 149 BODY_MATCH79 19 144 ENT_TIME_S
TAMP_200179 30 139 LAST_BODY_MODIFYING_FEATURE_ID80 2 133 157 158 8004 0 0 0 0 3
 5 0 0 0 FFTFFFFFFFFFFF2 3 83 1 134 79e2 79 16 158 SDL/TYSA_DENSITY79 13 129 SDL
/TYSA_NAME82 1 119 2099773551 79 15 115 SDL/TYSA_COLOUR83 3 112 .647058823529412
 .619607843137255 .588235294117647 79 14 109 SWEntUnchanged82 1 101 2099642479 8
2 1 94 2099511407 17 28 0 26 24 43 44 72 61 0 29 -17 34 0 33 50 31 46 38 23 0 55
 -19 17 5 0 1 0 9 5 S0 74 4 CI16 index_map_offset0 0 1 dCCZ20 15 10 0 0 130 125
 106 105 131 136 141 146 13 2 0 0 0 0 0 0 0 0 0 0 80 2 12 159 160 9000 0 0 0 0 3
 5 0 0 0 FFTFFFFFFFFFFF9 1 82 1 14 104 79 12 160 ATOM_ID_20011 0 
