**ABCDEFGHIJKLMNOPQRSTUVWXYZabcdefghijklmnopqrstuvwxyz**************************
**PARASOLID !"#$%&'()*+,-./:;<=>?@[\]^_`{|}~0123456789**************************
**PART1;
MC=AMD64;
MC_MODEL=Intel64 Family 6 Model 142 Stepping 10, GenuineIntel;
MC_ID=unknown;
OS=Windows_NT;
OS_RELEASE=unknown;
FRU=Parasolid Version 31.0, build 282,  2-25-2019;
APPL=SOLIDWORKS 2019-2019115;
SITE=;
USER=unknown;
FORMAT=text;
GUISE=transmit;
KEY=Arruela DIN 125 - A 10.5_;
FILE=Arruela DIN 125 - A 10.5_.x_t;
DATE=Tue Feb  4 09:10:12 2020;
**PART2;
SCH=SCH_3100282_31001;
USFLD_SIZE=0;
**PART3;
**END_OF_HEADER*****************************************************************
T51 : TRANSMIT FILE created by modeller version 310028223 SCH_3100282_31001_1300
6215 0 12 34 CCCCCCI4 mesh1006 0 I8 polyline1008 0 CCCCCCCDI5 owner1040 0 CCCCCC
I13 boundary_mesh1006 0 I17 boundary_polyline1008 0 CCCA16 index_map_offset0 0 1
 dA9 index_map82 0 A17 node_id_index_map82 0 A20 schema_embedding_map82 0 A5 chi
ld12 0 A14 lowest_node_id0 0 1 dA16 mesh_offset_data206 0 Z1 557 2 3 0 0 0 0 0 0
 1e3 1e-8 0 4 0 1 0 1 1 5 6 7 0 0 0 8 9 0 0 0 0 0 0 0 0 81 255 2 2 553 10 1 11 0
 0 0 0 12 70 11 CI9 list_type0 0 1 uI10 notransmit0 0 1 lCCCDCCDI12 finger_index
0 0 1 dI12 finger_block1012 0 CZ3 0 4 T1 0 0 10 20 1 13 13 13 255 5 217 0 1 0 14
 0 0 15 0 50 255 6 176 0 14 16 0 0 +0 .00525 0 -1 0 0 0 0 1 31 255 7 239 0 17 18
 0 0 +0 0 0 -1 0 0 0 0 1 .00525 19 8 CCCCCCCA5 owner12 0 Z8 218 0 1 15 0 19 V0 1
6 255 9 23 0 ?20 0 21 22 0 0 1 17 255 20 0 23 20 20 0 24 9 0 0 +16 21 9 0 ?25 9
 26 27 0 0 1 31 22 223 0 9 0 27 0 --.002 0 0 -1 0 0 0 0 1 .01 31 27 229 0 21 22
 18 0 +-.002 0 0 -1 0 0 0 0 1 .00525 31 18 233 0 26 27 7 0 +0 0 0 -1 0 0 0 0 1 .
01 16 26 42 0 ?28 21 17 18 0 0 1 17 28 0 29 28 28 0 30 26 0 0 +16 17 100 0 ?31 2
6 0 7 0 0 1 17 31 0 32 31 31 0 33 17 0 0 +15 255 32 166 0 31 14 34 17 33 0 35 33
 33 0 31 17 0 0 -15 35 247 0 33 36 37 14 255 36 96 38 1e-8 39 14 35 5 16 -0 0 14
 39 19 15 37 98 0 25 36 0 17 25 0 37 25 25 0 40 21 0 0 +17 40 0 41 40 40 0 25 21
 0 0 -15 41 7 0 40 42 0 14 42 2 43 1e-8 0 39 44 5 45 -0 0 39 0 19 81 1 43 555 46
 42 47 0 38 48 49 14 39 36 48 1e-8 42 36 23 5 50 +0 0 36 42 19 15 44 21 0 24 42
 41 50 45 12 0 42 0 50 0 +-.002 .01 0 1 0 0 0 0 -1 13 19 3 0 0 0 0 0 0 8 42 51 2
55 50 47 0 39 45 16 0 +-.034925 0 0 -1 0 0 .01 0 0 1 51 16 107 0 36 50 6 0 +-.03
4925 0 0 -1 0 0 .00525 0 0 1 17 24 0 44 24 24 0 20 9 0 0 -81 1 48 556 46 39 51 0
 43 52 53 15 23 245 0 20 39 29 15 29 38 0 28 39 0 80 255 1 46 54 55 9000 1 1 1 1
 1 1 1 1 0 FFFFTFTFFFFFFF1 81 1 51 535 56 39 0 48 57 47 58 81 1 52 557 46 14 59
 0 48 0 60 82 255 1 53 999999 14 14 164 52 1e-8 36 0 32 5 6 -0 0 0 36 19 81 1 59
 533 56 14 61 52 0 57 62 82 1 60 999999 80 1 56 0 63 8001 0 0 0 0 3 5 0 0 0 FFFF
TFTFFFFFFF2 81 1 61 501 64 14 0 59 0 65 66 81 1 57 534 56 36 0 38 59 51 67 83 25
5 3 62 .647058823529412 .619607843137255 .588235294117647 81 1 38 554 46 36 57 0
 0 43 68 83 3 67 .647058823529412 .619607843137255 .588235294117647 82 1 68 9999
99 80 1 64 69 70 8017 0 0 0 0 0 0 0 0 0 TTTTTTTTTTTTTF3 81 1 65 532 64 1 71 11 6
1 0 72 84 255 4 66 NONE81 2 71 510 73 1 74 65 0 0 75 0 81 2 11 542 76 1 65 2 0 0
 0 0 84 12 72 Base-Revolve80 2 76 77 78 9000 0 0 0 0 3 5 0 0 0 FFTFFFFFFFFFFF9 1
 79 255 16 78 BODY_RECIPE_200180 2 73 79 80 8004 0 0 0 0 3 5 0 0 0 FFTFFFFFFFFFF
F2 3 81 2 74 273 81 1 82 71 0 0 0 83 83 1 75 79e2 80 2 81 84 85 9000 0 0 0 0 3 5
 0 0 0 FFTFFFFFFFFFFF9 1 81 1 82 261 86 1 87 74 0 0 88 82 1 83 1 80 1 86 89 90 9
000 1 1 1 1 1 1 1 1 0 FFTFFFFFFFFFFF1 81 2 87 250 91 1 92 82 0 0 0 93 82 1 88 10
55 80 2 91 94 95 9000 0 0 0 0 3 5 0 0 0 FFTFFFFFFFFFFT9 1 81 2 92 249 96 1 0 87
 0 0 0 97 82 1 93 102 80 2 96 98 99 9000 0 0 0 0 3 5 0 0 0 FFTFFFFFFFFFFF9 1 82
 1 97 17 79 30 99 LAST_BODY_MODIFYING_FEATURE_ID79 19 95 ENT_TIME_STAMP_200179 1
0 90 BODY_MATCH79 24 85 BODY_IN_LIGHTWEIGHT_PERM79 16 80 SDL/TYSA_DENSITY79 13 7
0 SDL/TYSA_NAME79 15 63 SDL/TYSA_COLOUR81 1 47 536 56 42 0 43 51 0 100 83 3 58 .
647058823529412 .619607843137255 .588235294117647 83 3 100 .647058823529412 .619
607843137255 .588235294117647 79 14 55 SWEntUnchanged82 1 49 999999 15 34 167 0
 30 14 0 17 30 0 34 30 30 0 28 26 0 0 -19 15 5 0 1 0 8 5 S0 74 4 CI16 index_map_
offset0 0 1 dCCZ20 13 10 0 0 92 87 82 52 74 65 71 47 11 2 0 0 0 0 0 0 0 0 0 0 80
 2 10 101 102 9000 0 0 0 0 3 5 0 0 0 FFTFFFFFFFFFFF9 1 82 1 12 101 79 12 102 ATO
M_ID_20011 0 
