**ABCDEFGHIJKLMNOPQRSTUVWXYZabcdefghijklmnopqrstuvwxyz**************************
**PARASOLID !"#$%&'()*+,-./:;<=>?@[\]^_`{|}~0123456789**************************
**PART1;
MC=AMD64;
MC_MODEL=Intel64 Family 6 Model 142 Stepping 10, GenuineIntel;
MC_ID=unknown;
OS=Windows_NT;
OS_RELEASE=unknown;
FRU=Parasolid Version 31.0, build 282,  2-25-2019;
APPL=SOLIDWORKS 2019-2019115;
SITE=;
USER=unknown;
FORMAT=text;
GUISE=transmit;
KEY=CRV(01)_;
FILE=CRV(01)_.x_t;
DATE=Tue Feb  4 09:10:49 2020;
**PART2;
SCH=SCH_3100282_31001;
USFLD_SIZE=0;
**PART3;
**END_OF_HEADER*****************************************************************
T51 : TRANSMIT FILE created by modeller version 310028223 SCH_3100282_31001_1300
6215 0 12 34 CCCCCCI4 mesh1006 0 I8 polyline1008 0 CCCCCCCDI5 owner1040 0 CCCCCC
I13 boundary_mesh1006 0 I17 boundary_polyline1008 0 CCCA16 index_map_offset0 0 1
 dA9 index_map82 0 A17 node_id_index_map82 0 A20 schema_embedding_map82 0 A5 chi
ld12 0 A14 lowest_node_id0 0 1 dA16 mesh_offset_data206 0 Z1 165 2 3 0 0 0 0 0 0
 1e3 1e-8 0 4 0 1 0 1 1 5 6 7 0 0 0 8 9 0 0 0 0 0 0 0 0 81 255 2 2 161 10 1 11 0
 0 0 0 12 70 11 CI9 list_type0 0 1 uI10 notransmit0 0 1 lCCCDCCDI12 finger_index
0 0 1 dI12 finger_block1012 0 CZ3 0 4 T1 0 0 9 20 1 13 13 13 255 5 75 0 1 0 14 0
 0 15 0 54 255 6 65 0 14 16 0 0 +0 0 0 -1 0 0 .0381 .01065 0 0 1 31 255 7 49 0 1
7 18 0 0 +0 .0381 -233295215237571e-32 0 612323399573676e-31 -1 0 1 612323399573
676e-31 .01065 19 8 CCCCCCCA5 owner12 0 Z8 5 0 1 15 0 19 V0 16 255 9 9 0 ?20 0 2
1 22 0 0 1 17 255 20 0 23 20 20 0 24 9 0 0 +16 21 6 0 ?25 9 26 27 0 0 1 31 22 17
 0 9 27 18 0 -0 0 -.0381 0 -1 -1224646799147352e-31 0 1224646799147352e-31 -1 .0
0785 31 27 16 0 21 0 22 0 -0 .0381 -233295215237571e-32 0 612323399573676e-31 -1
 0 1 612323399573676e-31 .00785 31 18 32 0 26 22 7 0 +0 0 -.0381 0 -1 -122464679
9147352e-31 0 1224646799147352e-31 -1 .01065 16 26 28 0 ?28 21 17 18 0 0 1 17 28
 0 29 28 28 0 30 26 0 0 +16 17 45 0 ?31 26 0 7 0 0 1 17 31 0 32 31 31 0 33 17 0
 0 +15 255 32 59 0 31 14 0 17 33 0 34 33 33 0 31 17 0 0 -15 34 42 0 33 35 0 14 2
55 35 39 36 ?37 14 38 5 16 -0 0 14 37 19 81 1 36 162 39 35 40 0 0 41 42 14 37 22
 41 ?43 35 23 5 44 +0 0 35 43 19 14 14 56 45 ?35 0 46 5 6 +0 0 0 35 19 15 38 41
 0 47 35 34 50 255 16 48 0 35 44 6 0 +0 .0381 -233295215237571e-32 0 61232339957
3676e-31 -1 0 1 612323399573676e-31 13 19 3 0 0 0 0 0 0 8 43 14 43 2 48 ?0 37 49
 5 50 +0 0 37 0 19 81 1 48 165 39 43 51 0 45 0 52 15 49 10 0 24 43 53 54 50 15 0
 43 0 44 0 -0 0 0 -1 0 0 .0381 .00785 0 0 1 50 44 31 0 37 50 16 0 +0 0 -.0381 0
 -1 -1224646799147352e-31 0 1224646799147352e-31 -1 17 24 0 49 24 24 0 20 9 0 0
 -15 53 7 0 25 43 0 17 25 0 53 25 25 0 47 21 0 0 +17 47 0 38 47 47 0 25 21 0 0 -
80 255 1 39 54 55 9000 1 1 1 1 1 1 1 1 0 FFFFTFTFFFFFFF1 81 1 51 147 56 43 0 48
 57 0 58 81 1 45 164 39 14 59 0 41 48 60 82 255 1 52 1415905607 81 1 59 144 56 1
4 0 45 0 40 61 81 1 41 163 39 37 57 0 36 45 62 82 1 60 1417478471 81 1 57 146 56
 37 0 41 40 51 63 82 1 62 1420951879 80 1 56 0 64 8001 0 0 0 0 3 5 0 0 0 FFFFTFT
FFFFFFF2 81 1 40 145 56 35 0 36 59 57 65 83 255 3 63 .647058823529412 .619607843
137255 .588235294117647 83 3 65 .647058823529412 .619607843137255 .5882352941176
47 79 255 15 64 SDL/TYSA_COLOUR83 3 61 .647058823529412 .619607843137255 .588235
294117647 83 3 58 .647058823529412 .619607843137255 .588235294117647 79 14 55 SW
EntUnchanged15 46 58 0 30 14 32 17 30 0 46 30 30 0 28 26 0 0 -15 23 24 0 20 37 2
9 15 29 25 0 28 37 0 82 1 42 1419706695 19 15 76 0 1 0 8 5 S0 74 4 CI16 index_ma
p_offset0 0 1 dCCZ20 13 9 0 0 48 66 67 68 69 70 51 11 2 0 0 0 0 0 0 0 0 0 0 0 81
 2 66 118 71 1 0 67 0 0 72 0 81 2 67 125 73 1 66 68 0 0 0 74 81 2 68 126 75 1 67
 69 0 0 0 76 81 1 69 136 77 1 68 70 0 0 78 81 2 70 139 79 1 69 11 0 0 0 80 81 2
 11 150 81 1 70 2 0 0 0 0 80 2 81 82 83 9000 0 0 0 0 3 5 0 0 0 FFTFFFFFFFFFFF9 1
 79 16 83 BODY_RECIPE_200180 2 79 84 85 9000 0 0 0 0 3 5 0 0 0 FFTFFFFFFFFFFF9 1
 82 1 80 1 79 24 85 BODY_IN_LIGHTWEIGHT_PERM80 1 77 86 87 9000 1 1 1 1 1 1 1 1 0
 FFTFFFFFFFFFFF1 82 1 78 12941921 79 10 87 BODY_MATCH80 2 75 88 89 9000 0 0 0 0
 3 5 0 0 0 FFTFFFFFFFFFFT9 1 82 1 76 116 79 19 89 ENT_TIME_STAMP_200180 2 73 90
 91 9000 0 0 0 0 3 5 0 0 0 FFTFFFFFFFFFFF9 1 82 1 74 84 79 30 91 LAST_BODY_MODIF
YING_FEATURE_ID80 2 71 92 93 8004 0 0 0 0 3 5 0 0 0 FFTFFFFFFFFFFF2 3 83 1 72 1e
3 79 16 93 SDL/TYSA_DENSITY80 2 10 94 95 9000 0 0 0 0 3 5 0 0 0 FFTFFFFFFFFFFF9
 1 82 1 12 104 79 12 95 ATOM_ID_20011 0 
