**ABCDEFGHIJKLMNOPQRSTUVWXYZabcdefghijklmnopqrstuvwxyz**************************
**PARASOLID !"#$%&'()*+,-./:;<=>?@[\]^_`{|}~0123456789**************************
**PART1;
MC=AMD64;
MC_MODEL=Intel64 Family 6 Model 142 Stepping 10, GenuineIntel;
MC_ID=unknown;
OS=Windows_NT;
OS_RELEASE=unknown;
FRU=Parasolid Version 31.0, build 282,  2-25-2019;
APPL=SOLIDWORKS 2019-2019115;
SITE=;
USER=unknown;
FORMAT=text;
GUISE=transmit;
KEY=DIN 985 - M12_;
FILE=DIN 985 - M12_.x_t;
DATE=Tue Feb  4 09:12:03 2020;
**PART2;
SCH=SCH_3100282_31001;
USFLD_SIZE=0;
**PART3;
**END_OF_HEADER*****************************************************************
T51 : TRANSMIT FILE created by modeller version 310028223 SCH_3100282_31001_1300
6215 0 12 34 CCCCCCI4 mesh1006 0 I8 polyline1008 0 CCCCCCCDI5 owner1040 0 CCCCCC
I13 boundary_mesh1006 0 I17 boundary_polyline1008 0 CCCA16 index_map_offset0 0 1
 dA9 index_map82 0 A17 node_id_index_map82 0 A20 schema_embedding_map82 0 A5 chi
ld12 0 A14 lowest_node_id0 0 1 dA16 mesh_offset_data206 0 Z1 1215 2 3 0 0 0 0 0
 0 1e3 1e-8 0 4 0 1 0 1 1 5 6 7 8 0 0 9 10 11 0 0 0 0 0 0 0 81 255 2 2 1192 12 1
 13 0 0 0 0 14 70 11 CI9 list_type0 0 1 uI10 notransmit0 0 1 lCCCDCCDI12 finger_
index0 0 1 dI12 finger_block1012 0 CZ3 0 4 T1 0 0 8 20 1 15 15 13 255 5 134 0 1
 0 16 0 0 17 0 50 255 6 133 0 18 19 0 20 +-.012 .00548482755730145 -.0095 0 .866
025403784439 -.5 0 .5 .866025403784439 38 12 CCCCCCCCCCCA17 intersection_data204
 0 Z7 613 0 21 22 0 0 +19 23 24 25 26 27 29 255 8 612 0 11 28 0 -.008 .008227241
33595217 .00475 19 8 CCCCCCCA5 owner12 0 Z9 40 0 1 17 0 29 V0 16 255 10 614 0 ?3
0 0 21 7 21 21 1 18 255 11 610 0 31 0 32 8 ?1 17 255 31 0 33 34 35 11 36 37 0 38
 -18 32 566 0 39 11 40 28 ?1 17 39 0 41 42 43 32 44 45 0 46 +18 40 562 0 47 32 4
8 49 ?1 29 28 569 0 32 49 8 -1091127255026022e-34 -.00822724133595217 -.00475 29
 49 565 0 40 50 28 -1091127255026022e-34 -.00822724133595217 .00475 29 50 561 0
 48 51 49 1492440882491546e-52 -1478952517032084e-34 .0095 18 48 558 0 52 40 53
 50 ?1 29 51 553 0 53 54 50 1091127255026022e-34 .00822724133595217 -.00475 18 5
3 550 0 55 48 56 51 ?1 29 54 536 0 56 57 51 0 .00822724133595217 .00475 18 56 53
4 0 58 53 59 54 ?1 29 57 514 0 59 60 54 -.00084850577603188 .00548482755730146 -
.0095 18 59 391 0 61 56 62 57 ?1 29 60 515 0 62 63 57 -.00084850577603188 -.0054
8482755730144 -.0095 18 62 386 0 64 59 65 60 ?1 29 63 516 0 65 66 60 -.000848505
77603188 -.0109696551146029 -780625564189563e-32 18 65 387 0 67 62 68 63 ?1 29 6
6 517 0 68 69 63 -.00084850577603188 -.00548482755730145 .0095 18 68 388 0 70 65
 71 66 ?1 29 69 518 0 71 72 66 -.00084850577603188 .00548482755730145 .0095 18 7
1 389 0 73 68 74 69 ?1 29 72 519 0 74 75 69 -.00084850577603188 .010969655114602
9 260208521396521e-32 18 74 390 0 76 71 77 72 ?1 29 75 521 0 77 78 72 1492440882
491546e-52 -1478952517032084e-34 -.0095 18 77 377 0 79 74 80 75 ?1 29 78 855 0 8
0 81 75 -.008 .00822724133595217 -.00475 18 80 753 0 82 77 83 78 ?1 29 81 856 0
 83 84 78 -.008 -530494833186873e-34 -.0095 18 83 732 0 85 80 86 81 ?1 29 84 857
 0 86 87 81 -.008 -.00822724133595217 -.00475 18 86 734 0 88 83 89 84 ?1 29 87 8
58 0 89 90 84 -.008 -.00822724133595217 .00475 18 89 736 0 91 86 92 87 ?1 29 90
 859 0 92 93 87 -.008 -530494833186873e-34 .0095 18 92 738 0 94 89 95 90 ?1 29 9
3 867 0 95 96 90 -.00715149422396812 .00548482755730146 -.0095 18 95 741 0 97 92
 98 93 ?1 29 96 868 0 98 99 93 -.00715149422396812 -.00548482755730144 -.0095 18
 98 743 0 100 95 101 96 ?1 29 99 869 0 101 102 96 -.00715149422396812 -.01096965
51146029 -780625564189563e-32 18 101 744 0 103 98 104 99 ?1 29 102 870 0 104 105
 99 -.00715149422396812 -.00548482755730145 .0095 18 104 745 0 106 101 107 102 ?
1 29 105 871 0 107 108 102 -.00715149422396812 .00548482755730145 .0095 18 107 7
46 0 109 104 110 105 ?1 29 108 872 0 110 0 105 -.00715149422396812 .010969655114
6029 260208521396521e-32 18 110 742 0 111 107 0 108 ?1 17 111 0 112 82 38 110 11
3 21 0 114 +15 255 112 775 0 82 115 0 17 82 0 112 38 111 80 114 116 0 34 +17 38
 0 112 111 82 11 34 117 0 30 +17 113 0 118 119 120 11 111 21 0 0 -16 21 611 0 ?1
11 10 121 7 10 10 1 17 114 0 122 76 123 110 82 116 0 120 -15 122 678 0 114 18 0
 17 76 0 122 124 114 74 120 125 0 126 +17 123 0 122 114 127 80 97 128 0 0 -16 11
6 697 0 ?82 129 128 130 128 128 1 17 120 0 118 113 131 110 76 125 0 0 -15 118 61
5 0 119 132 0 17 131 0 118 120 133 74 134 135 0 0 -16 125 605 0 ?76 136 137 138
 0 0 1 16 136 608 0 ?73 139 125 140 0 0 1 16 137 195 0 ?141 125 142 143 0 0 1 30
 255 138 127 0 125 140 22 0 +-.012 .0109696551146029 -67891738881653e-32 1 0 0 3
0 140 126 0 136 144 138 0 +-.012 .00548482755730145 .0095 1 0 0 31 255 22 235 0
 145 138 7 0 -0 -1478952517032084e-34 -206972252752354e-33 1 0 0 0 0 -1 .0095 16
 145 233 0 ?146 147 148 22 121 147 1 17 146 0 149 150 151 77 152 145 0 153 +16 1
47 238 0 ?55 154 145 22 145 154 1 16 148 662 0 ?61 145 155 156 0 0 1 16 121 254
 0 ?46 21 157 22 157 145 1 17 46 0 158 159 79 32 153 121 0 160 +16 157 250 0 ?42
 121 154 22 154 121 1 17 42 0 41 43 39 40 160 157 0 161 +16 154 246 0 ?162 157 1
47 22 147 157 1 17 162 0 163 164 47 48 161 154 0 165 +15 163 466 0 47 166 0 17 1
64 0 163 47 162 68 167 168 0 169 +17 47 0 163 162 164 40 169 170 0 42 +17 161 0
 171 160 165 40 162 154 0 172 -17 165 0 171 161 58 48 173 129 0 167 +15 171 255
 0 153 174 0 17 58 0 171 165 152 56 55 147 0 173 -17 173 0 175 176 52 56 165 129
 0 134 -16 129 373 0 ?165 177 116 178 0 0 1 17 167 0 179 180 70 48 164 168 0 0 -
15 179 629 0 181 182 0 17 180 0 179 183 167 71 52 184 0 0 -17 70 0 179 167 181 6
8 185 139 0 164 +16 168 365 0 ?164 170 186 187 184 184 1 16 170 358 0 ?47 188 16
8 189 190 190 1 16 186 366 0 ?151 168 191 192 191 191 1 38 187 503 0 184 193 192
 0 -194 195 196 197 198 199 16 184 364 0 ?52 191 135 187 168 168 1 17 52 0 175 1
73 176 48 180 184 0 162 +16 191 367 0 ?126 186 184 192 186 186 1 16 135 370 0 ?1
34 184 177 193 177 177 1 17 134 0 200 55 126 56 131 135 0 133 +16 177 371 0 ?176
 135 129 193 135 135 1 38 193 504 0 177 178 187 0 +19 194 201 202 203 204 31 178
 507 0 129 130 193 0 +0 -159148449956062e-33 0 1 -1326237082967182e-32 0 1326237
082967182e-32 1 0 .0095 50 19 132 0 132 195 6 205 +-.012 .0109696551146029 -6789
1738881653e-32 0 .866025403784439 .5 0 -.5 .866025403784439 52 255 194 486 0 206
 207 208 209 --.00084850577603188 -1478952517032084e-34 0 -1 1326237082967182e-3
2 0 .0109696551146029 .866025403784442 .5 -1326237082967182e-32 -1 0 40 255 3 20
1 0 1 3 .000982825787424739 .304723566279477 ??-.000848572443751167 .01096977058
465672 -2000000000007245e-22 -462101905694355e-20 .00803221760826157 .0050877910
050416 -.000848572443751166 .00548471208724761 .0095002 41 3 CI8 term_use0 0 1 c
CZ1 202 L?-.000848572443751167 .01096977058465672 -2000000000007245e-22 41 1 203
 L?-.000848572443751166 .00548471208724761 .0095002 204 2 17 INTERSECTION_DATA17
 Intersection data7 uv_type0 0 1 u6 values0 1 1 fT12 204 4 -230940107666412e-21
 .01115142755624884 3.14161088551164 66667719276483e-21 .00587487501268265 .0119
9537898094306 2.57695929847646 -.000843884756974947 .01096988605471056 .01115142
755624884 2.09437687047135 666677192814908e-22 14 255 206 479 210 ?166 211 175 5
 194 -212 211 166 211 29 54 255 207 830 0 213 214 194 0 --.0105 0 0 1 -132623708
2967182e-32 0 .008 .0015 1326237082967182e-32 1 0 51 255 208 210 0 215 194 216 0
 +-.00812199341312805 -514315614350057e-34 0 1 -1326237082967182e-32 0 .006 1326
237082967182e-32 1 0 141 255 209 193 217 218 194 141 217 219 220 209 194 141 218
 187 209 221 194 141 221 192 218 222 194 38 192 502 0 191 187 189 0 +6 194 223 2
24 225 226 141 222 189 221 220 194 38 189 501 0 170 192 227 0 +228 194 229 230 2
31 232 141 220 227 222 217 194 38 227 500 0 188 189 219 0 +233 194 234 235 236 2
37 16 188 361 0 ?150 238 170 227 238 238 1 38 219 499 0 239 227 240 0 +241 194 2
42 243 244 245 50 233 128 0 246 247 241 248 +-.012 -.00548482755730145 -.0095 0
 0 -1 -1 0 0 40 4 234 0 1 4 .00162567578294955 .3142279218933055 ??-.00454600370
044636 -.01454657097615224 -.0095 -.000488735996796851 -.004098827223066945 -.00
95 -672884634914614e-19 .001492640923007222 -.0095 -.002185733890536705 .0092877
628509337 -.0095 41 1 235 L?-.00454600370044636 -.01454657097615224 -.0095 41 1
 236 L?-.002185733890536705 .0092877628509337 -.0095 204 16 237 4 -.007453996299
55364 -.00906174341885079 5.70465152457191 .00369749792441451 -.0115112640032031
4 .001386000334234504 5.11971476091244 -.0003597697792350335 -.01193271153650854
 .00697746848030867 4.55654299056012 -.000781217312540428 -.00981426610946329 .0
1477259040823514 3.938286899624385 .001337228114504836 14 246 111 249 ?250 18 25
1 5 233 +0 0 250 18 29 50 247 91 0 174 216 233 0 +0 0 0 1 0 0 0 0 -1 50 241 129
 0 250 233 228 252 +-.012 -.0109696551146029 270247297560585e-32 0 -.86602540378
4439 -.5 0 .5 -.866025403784439 141 248 227 253 253 233 141 253 254 248 248 233
 38 254 839 0 255 256 130 0 -23 233 257 258 259 260 16 255 701 0 ?100 261 262 25
4 261 261 1 38 256 840 0 263 264 254 0 +241 23 265 266 267 268 38 130 838 0 128
 254 178 0 +6 23 269 270 271 272 52 23 832 0 273 0 214 274 --.008 -5304948331868
73e-34 0 1 -1326237082967182e-32 0 .0095 .866025403784442 .5 1326237082967182e-3
2 1 0 40 4 257 0 1 4 .001625675782949545 .3142279218933055 ??-.00345399629955363
5 -.01454657097615224 -.0095 -.00751126400320315 -.004098827223066945 -.0095 -.0
0793271153650854 .001492640923007222 -.0095 -.00581426610946329 .009287762850933
71 -.0095 41 1 258 L?-.003453996299553635 -.01454657097615224 -.0095 41 1 259 L?
-.00581426610946329 .00928776285093371 -.0095 204 16 260 4 3.720126436197475 .00
45460037004464 -.00854600370044637 -.00906174341885079 4.30506319985694 .0004887
35996796858 -.00448873599679685 .001386000334234504 4.86823497020926 67288463491
4639e-19 -.00406728846349146 .00697746848030867 5.486491061145 .0021857338905367
3 -.00618573389053671 .01477259040823516 14 273 822 275 ?0 213 276 5 23 -115 277
 0 213 29 51 214 831 0 278 23 207 0 --.00812199341312805 -514315614350057e-34 0
 1 -1326237082967182e-32 0 .0095 1326237082967182e-32 1 0 141 274 7 279 280 23 1
41 279 130 281 274 23 141 280 282 274 283 23 38 282 842 0 284 285 264 0 +195 23
 286 287 288 289 141 283 264 280 290 23 38 264 841 0 291 282 256 0 +228 23 292 2
93 294 295 141 290 256 283 281 23 141 281 254 290 279 23 16 291 707 0 ?106 296 2
97 264 296 296 1 50 228 130 0 298 241 195 299 +-.012 -.00548482755730144 .0095 0
 -.866025403784438 .5 0 -.5 -.866025403784439 40 3 292 0 1 3 .000982825787424738
 .304723566279477 ??-.00715142755624884 -.01096977058465672 -1999999999972975e-2
2 -.00799537898094306 -.00803221760826156 .0050877910050416 -.00715142755624884
 -.0054847120872476 .0095002 41 1 293 L?-.00715142755624884 -.01096977058465672
 -1999999999972975e-22 41 1 294 L?-.00715142755624884 -.0054847120872476 .009500
2 204 12 295 4 .01096988605471056 .00484857244375116 3.14161088551164 .000848572
443751168 .00509478010192024 .00400462101905694 2.57695929847646 462101905694008
e-20 -2309401076772545e-22 .00484857244375116 2.09437687047135 .0008485724437511
7 14 298 115 300 ?182 250 301 5 228 +0 0 182 250 29 50 195 131 0 182 228 19 302
 +-.012 .00548482755730145 .0095 0 0 1 1 0 0 141 299 189 303 303 228 141 303 264
 299 299 228 14 182 117 304 ?132 298 179 5 195 +0 0 132 298 29 141 302 187 305 3
05 195 141 305 282 302 302 195 81 1 304 1197 306 182 307 0 300 308 309 14 132 11
9 308 ?215 182 118 5 19 +0 0 215 182 29 13 29 41 0 0 0 0 0 0 9 16 14 16 602 310
 ?174 0 311 5 216 -0 0 174 0 29 81 1 310 1199 306 16 312 0 308 313 314 14 174 25
6 313 ?18 16 315 5 247 +0 0 18 16 29 15 311 188 0 141 16 316 50 216 2 0 16 208 2
47 0 +-.012 0 0 1 0 0 0 0 -1 17 141 0 311 141 141 0 317 137 0 0 +15 316 599 0 31
8 16 0 17 318 0 316 318 318 0 319 320 0 0 -17 319 0 321 319 319 0 318 320 0 0 +1
6 320 722 0 ?319 284 322 285 0 0 1 16 284 710 0 ?109 297 320 282 297 297 1 16 32
2 723 0 ?323 320 37 324 0 0 1 31 285 851 0 320 324 282 0 +-.012 601853107621011e
-50 0 1 -1326237082967182e-32 0 1326237082967182e-32 1 0 .008 31 324 852 0 322 3
25 285 0 +-.0105 -198935562445077e-34 0 1 -1326237082967182e-32 0 13262370829671
82e-32 1 0 .0095 31 325 853 0 37 0 324 0 +-.008 -530494833186873e-34 0 1 -132623
7082967182e-32 0 1326237082967182e-32 1 0 .0095 16 37 694 0 ?36 322 326 325 117
 326 1 17 36 0 276 109 30 92 31 37 0 327 +16 326 692 0 ?328 37 329 325 37 329 1
 16 117 729 0 ?38 330 0 325 330 37 1 16 330 686 0 ?331 332 117 325 332 117 1 17
 331 0 333 97 85 80 334 330 0 123 +16 332 688 0 ?335 329 330 325 329 330 1 17 33
5 0 336 100 88 83 337 332 0 338 +16 329 690 0 ?339 326 332 325 326 332 1 17 339
 0 340 103 91 86 341 329 0 342 +15 340 793 0 103 343 0 17 103 0 340 91 339 101 3
42 263 0 344 +17 91 0 340 339 103 89 344 296 0 341 +17 341 0 33 35 337 89 339 32
9 0 328 -17 342 0 345 346 347 86 103 263 0 0 -15 345 655 0 346 250 0 17 346 0 34
5 64 342 98 88 262 0 348 -17 347 0 345 342 44 101 67 349 0 0 -16 263 704 0 ?103
 262 296 256 262 262 1 16 262 703 0 ?88 255 263 256 263 263 1 16 296 706 0 ?91 2
63 291 264 291 291 1 17 88 0 336 335 100 86 346 262 0 337 +15 336 787 0 100 350
 0 17 100 0 336 88 335 98 338 255 0 346 +17 337 0 33 341 334 86 335 332 0 339 -1
5 33 757 0 334 278 0 17 334 0 33 337 34 83 331 330 0 335 -17 34 0 33 334 31 80 3
8 117 0 331 -14 278 755 351 ?115 352 353 5 214 -0 0 115 352 29 81 1 351 1201 306
 278 354 0 313 355 356 14 115 773 355 ?357 278 112 5 23 -357 273 357 278 29 14 3
52 452 358 ?278 212 158 5 194 -359 212 278 212 29 15 353 884 0 323 278 33 17 323
 0 353 323 323 0 360 322 0 0 +17 360 0 361 360 360 0 323 322 0 0 -15 361 817 0 3
60 213 321 14 213 815 362 ?273 277 361 5 207 -0 0 273 277 29 15 321 818 0 319 21
3 0 81 1 362 1204 306 213 363 0 358 364 365 14 277 797 364 ?213 343 366 5 23 -27
3 343 213 343 29 81 1 364 1205 306 277 367 0 362 368 369 14 343 791 368 ?277 350
 340 5 23 -277 350 277 350 29 15 366 799 0 106 277 0 17 106 0 366 94 328 104 370
 291 0 181 +17 94 0 366 328 106 92 181 297 0 35 +17 328 0 366 106 94 89 35 326 0
 370 +17 370 0 301 344 185 89 106 291 0 0 -17 181 0 179 70 327 104 94 297 0 185
 -17 327 0 179 181 183 92 109 284 0 0 -16 297 709 0 ?94 291 284 282 284 284 1 17
 185 0 301 370 169 104 70 139 0 0 -15 301 642 0 344 298 0 17 169 0 301 185 172 6
8 47 170 0 0 -16 139 623 0 ?70 349 136 144 0 0 1 16 349 636 0 ?67 155 139 371 0
 0 1 30 144 125 0 139 371 140 0 +-.012 -.00548482755730144 .0095 1 0 0 30 371 12
4 0 349 372 144 0 +-.012 -.0109696551146029 270247297560585e-32 1 0 0 30 372 123
 0 155 156 371 0 +-.012 -.00548482755730145 -.0095 1 0 0 16 155 649 0 ?64 148 34
9 372 0 0 1 30 156 122 0 148 143 372 0 +-.012 .00548482755730145 -.0095 1 0 0 31
 143 212 0 137 240 156 0 +-.012 601853107621011e-50 0 1 -1326237082967182e-32 0
 1326237082967182e-32 1 0 .006 31 240 213 0 142 219 143 0 +0 -159148449956062e-3
3 0 1 -1326237082967182e-32 0 1326237082967182e-32 1 0 .006 16 142 196 0 ?373 13
7 45 240 0 0 1 17 373 0 374 373 373 0 375 142 0 0 +16 45 355 0 ?39 142 239 219 2
39 239 1 16 239 356 0 ?159 45 190 219 45 45 1 17 159 0 158 79 46 62 376 239 0 37
7 +16 190 359 0 ?43 239 238 189 170 170 1 17 43 0 41 39 42 65 172 190 0 44 +16 2
38 360 0 ?79 190 188 227 188 188 1 17 79 0 158 46 159 77 377 238 0 146 +15 158 4
54 0 159 352 0 17 377 0 251 348 378 62 79 238 0 0 -15 251 668 0 379 246 0 17 348
 0 251 338 377 98 64 155 0 0 -17 378 0 251 377 61 77 150 188 0 0 -17 61 0 251 37
8 379 59 127 148 0 150 +17 150 0 149 151 146 59 378 188 0 380 +15 149 457 0 150
 359 0 17 151 0 149 146 150 53 380 186 0 152 +17 380 0 122 127 124 59 151 186 0
 0 -17 127 0 122 123 380 95 61 148 0 0 -17 124 0 122 380 76 53 126 191 0 0 -17 1
26 0 200 134 55 74 124 191 0 131 +15 200 469 0 126 211 0 17 55 0 200 126 134 53
 58 147 0 151 +14 211 467 381 ?206 359 200 5 194 -206 166 206 359 29 81 1 381 12
07 306 211 382 0 368 383 384 14 359 455 383 ?211 215 149 5 194 -166 352 211 215
 29 14 166 464 385 ?212 206 163 5 194 -211 359 212 206 29 81 1 385 1209 306 166
 386 0 383 387 388 14 212 443 387 ?352 166 41 5 194 -352 206 352 166 29 81 1 387
 1210 306 212 389 0 385 390 391 15 41 445 0 39 212 0 80 255 1 306 392 393 9000 1
 1 1 1 1 1 1 1 0 FFFFTFTFFFFFFF1 81 1 389 967 394 212 0 387 386 395 396 81 1 390
 1211 306 357 397 0 387 398 399 82 255 1 391 -582942616 14 357 779 390 ?350 115
 333 5 23 -350 115 350 115 29 81 1 397 971 394 357 0 390 400 401 402 81 1 398 12
12 306 350 401 0 390 403 404 82 1 399 -545390488 14 350 785 398 ?343 357 336 5 2
3 -343 357 343 357 29 81 1 401 972 394 350 0 398 397 405 406 81 1 403 1213 306 2
15 407 0 398 408 409 82 1 404 -546242456 14 215 200 403 ?359 132 410 5 208 -0 0
 359 132 29 81 1 407 962 394 215 0 403 411 412 413 81 1 408 1214 306 250 414 0 4
03 415 416 82 1 409 -616169368 14 250 113 408 ?298 246 345 5 241 +0 0 298 246 29
 81 1 414 958 394 250 0 408 417 418 419 81 1 415 1215 306 18 420 0 408 0 421 82
 1 416 -668336024 14 18 121 415 ?246 174 122 5 6 +0 0 246 174 29 81 1 420 956 39
4 18 0 415 422 417 423 82 1 421 -667811736 80 1 394 0 424 8001 0 0 0 0 3 5 0 0 0
 FFFFTFTFFFFFFF2 81 1 422 955 394 174 0 313 312 420 425 81 1 417 957 394 246 0 2
49 420 414 426 83 255 3 423 .647058823529412 .619607843137255 .588235294117647 8
1 1 249 1194 306 246 417 0 210 275 427 83 3 426 .647058823529412 .61960784313725
5 .588235294117647 81 1 210 1193 306 206 428 0 0 249 429 81 1 275 1195 306 273 4
30 0 249 300 431 82 1 427 -668467096 81 1 430 976 394 273 0 275 363 0 432 81 1 3
00 1196 306 298 418 0 275 304 433 82 1 431 -603193240 81 1 418 959 394 298 0 300
 414 307 434 82 1 433 -668204952 81 1 307 960 394 182 0 304 418 411 435 83 3 434
 .647058823529412 .619607843137255 .588235294117647 81 1 411 961 394 132 0 308 3
07 407 436 83 3 435 .647058823529412 .619607843137255 .588235294117647 81 1 308
 1198 306 132 411 0 304 310 437 83 3 436 .647058823529412 .619607843137255 .5882
35294117647 82 1 437 -667942808 81 1 363 975 394 213 0 362 367 430 438 83 3 432
 .647058823529412 .619607843137255 .588235294117647 81 1 367 974 394 277 0 364 4
05 363 439 83 3 438 .647058823529412 .619607843137255 .588235294117647 81 1 405
 973 394 343 0 368 401 367 440 83 3 439 .647058823529412 .619607843137255 .58823
5294117647 81 1 368 1206 306 343 405 0 364 381 441 83 3 440 .647058823529412 .61
9607843137255 .588235294117647 82 1 441 -547094424 81 1 428 965 394 206 0 210 38
2 386 442 82 1 429 -610336664 81 1 382 964 394 211 0 381 412 428 443 81 1 386 96
6 394 166 0 385 428 389 444 83 3 442 .647058823529412 .619607843137255 .58823529
4117647 83 3 444 .647058823529412 .619607843137255 .588235294117647 81 1 412 963
 394 359 0 383 407 382 445 83 3 443 .647058823529412 .619607843137255 .588235294
117647 81 1 383 1208 306 359 412 0 381 385 446 83 3 445 .647058823529412 .619607
843137255 .588235294117647 82 1 446 -584646552 81 1 313 1200 306 174 422 0 310 3
51 447 81 1 312 954 394 16 0 310 0 422 448 83 3 425 .647058823529412 .6196078431
37255 .588235294117647 83 3 448 .647058823529412 .619607843137255 .5882352941176
47 82 1 447 -591003544 79 255 15 424 SDL/TYSA_COLOUR83 3 419 .647058823529412 .6
19607843137255 .588235294117647 83 3 413 .647058823529412 .619607843137255 .5882
35294117647 15 410 202 0 317 215 374 17 317 0 410 317 317 0 141 137 0 0 -15 374
 203 0 373 215 0 83 3 406 .647058823529412 .619607843137255 .588235294117647 81
 1 400 970 394 115 0 355 354 397 449 83 3 402 .647058823529412 .619607843137255
 .588235294117647 81 1 355 1202 306 115 400 0 351 358 450 81 1 354 969 394 278 0
 351 395 400 451 83 3 449 .647058823529412 .619607843137255 .588235294117647 81
 1 395 968 394 352 0 358 389 354 452 83 3 451 .647058823529412 .619607843137255
 .588235294117647 81 1 358 1203 306 352 395 0 355 362 453 83 3 452 .647058823529
412 .619607843137255 .588235294117647 82 1 453 -584187800 82 1 450 -544538520 15
 333 781 0 97 357 0 17 97 0 333 85 331 95 123 128 0 379 +17 85 0 333 331 97 83 3
79 261 0 334 +16 128 698 0 ?97 116 261 130 116 116 1 17 379 0 251 61 338 95 85 2
61 0 127 -17 338 0 251 379 348 83 100 255 0 0 -16 261 700 0 ?85 128 255 254 255
 255 1 83 3 396 .647058823529412 .619607843137255 .588235294117647 79 14 393 SWE
ntUnchanged82 1 388 -585891736 82 1 384 -586350488 17 152 0 171 58 153 53 146 14
5 0 124 -17 153 0 171 152 160 77 46 121 0 378 -17 160 0 171 153 161 32 42 157 0
 376 -17 376 0 345 44 64 32 159 239 0 0 -17 44 0 345 347 376 65 39 45 0 0 -17 64
 0 345 376 346 62 348 155 0 159 +17 172 0 301 169 67 40 43 190 0 0 -17 67 0 301
 172 344 65 347 349 0 43 +17 344 0 301 67 370 101 91 296 0 347 -17 375 0 315 375
 375 0 373 142 0 0 -15 315 183 0 375 174 171 17 183 0 179 327 180 107 73 136 0 0
 -17 109 0 276 30 36 107 327 284 0 119 +15 276 824 0 109 273 0 17 30 0 276 36 10
9 11 119 10 0 113 +17 119 0 118 73 113 107 30 10 0 183 -17 73 0 118 133 119 71 1
83 136 0 176 +17 133 0 118 131 73 56 176 177 0 0 -17 176 0 175 52 173 71 133 177
 0 180 +15 175 481 0 52 206 0 17 35 0 33 31 341 92 328 326 0 36 -82 1 369 -54794
6392 82 1 365 -602013592 82 1 356 -541654936 82 1 314 -558890904 82 1 309 -66807
3880 40 4 286 0 1 4 .001625675782949545 .3142279218933055 ??-.00345399629955364
 -.01454657097615224 .0095 -.00751126400320315 -.004098827223066945 .0095 -.0079
3271153650854 .001492640923007228 .0095 -.00581426610946329 .00928776285093372 .
0095 41 1 287 L?-.00345399629955364 -.01454657097615224 .0095 41 1 288 L?-.00581
426610946329 .00928776285093372 .0095 204 16 289 4 .00854600370044636 -.02003139
85334537 2.56305887098211 .0045460037004464 .00448873599679685 -.009583654780368
4 1.978122107322645 .000488735996796858 .00406728846349146 -.00399218663429422 1
.41495033697033 672884634914639e-19 .00618573389053671 .00380293529363227 .79669
424603459 .002185733890536735 40 3 269 0 1 3 .000982825787424738 .30472356627947
7 ??-.00715142755624883 .01096977058465672 1999999999996815e-22 -.00799537898094
306 .00803221760826157 -.00508779100504161 -.00715142755624884 .0054847120872476
2 -.0095002 41 1 270 L?-.00715142755624883 .01096977058465672 1999999999996815e-
22 41 1 271 L?-.00715142755624884 .00548471208724762 -.0095002 204 12 272 4 .010
96988605471056 .00484857244375117 1823192184686695e-20 .000848572443751168 .0050
9478010192023 .00400462101905694 5.71855195206625 462101905694809e-20 -230940107
672484e-21 .00484857244375116 5.23596952406114 .000848572443751177 40 3 265 0 1
 3 .000982825787424738 .304723566279477 ??-.00715142755624884 -.0054847120872476
1 -.0095002 -.00799537898094306 -.00842226506364277 -.004412208994958395 -.00715
142755624884 -.01096977058465672 200000000002326e-21 41 1 266 L?-.00715142755624
884 -.00548471208724761 -.0095002 41 1 267 L?-.00715142755624884 -.0109697705846
5672 200000000002326e-21 204 12 268 4 .01096988605471058 .00484857244375116 4.18
880843670824 .000848572443751173 .00509478010192025 .00400462101905694 3.6241568
49673055 462101905694108e-20 -2309401076660465e-22 .00484857244375116 3.14157442
1667945 .000848572443751168 141 252 219 454 454 241 141 454 256 252 252 241 40 3
 242 0 1 3 .000982825787424738 .304723566279477 ??-.000848572443751163 -.0109697
7058465672 200000000002755e-21 -462101905694001e-20 -.00803221760826156 -.005087
7910050416 -.000848572443751163 -.00548471208724761 -.0095002 41 1 243 L?-.00084
8572443751163 -.01096977058465672 200000000002755e-21 41 1 244 L?-.0008485724437
51163 -.00548471208724761 -.0095002 204 12 245 4 -230940107666418e-21 .011151427
55624884 1823192184714715e-20 66667719276483e-21 .00587487501268266 .01199537898
094306 5.71855195206625 -.000843884756974952 .01096988605471058 .011151427556248
84 5.23596952406114 666677192814908e-22 40 3 229 0 1 3 .000982825787424738 .3047
23566279477 ??-.000848572443751164 -.0054847120872476 .0095002 -462101905694077e
-20 -.00842226506364277 .0044122089949584 -.000848572443751163 -.010969770584656
72 -1999999999973075e-22 41 1 230 L?-.000848572443751164 -.0054847120872476 .009
5002 41 1 231 L?-.000848572443751163 -.01096977058465672 -1999999999973075e-22 2
04 12 232 4 -2309401076772545e-22 .01115142755624882 1.047215783118444 666677192
784861e-22 .00587487501268265 .01199537898094306 .482564196083263 -.000843884756
97495 .01096988605471056 .01115142755624882 6.28316707525774 66667719276483e-21
 40 3 223 0 1 3 .000982825787424737 .304723566279477 ??-.000848572443751165 .005
48471208724762 -.0095002 -462101905694458e-20 .00842226506364278 -.0044122089949
58395 -.000848572443751167 .01096977058465672 199999999999719e-21 41 1 224 L?-.0
00848572443751165 .00548471208724762 -.0095002 41 1 225 L?-.000848572443751167 .
01096977058465672 199999999999719e-21 204 12 226 4 -230940107672484e-21 .0111514
2755624884 4.188808436708235 666677192854969e-22 .00587487501268266 .01199537898
094306 3.624156849673055 -.000843884756974946 .01096988605471056 .01115142755624
884 3.141574421667945 66667719276483e-21 141 205 193 455 455 19 141 455 7 205 20
5 19 40 4 196 0 1 4 .00162567578294955 .3142279218933055 ??-.00454600370044636 -
.01454657097615224 .0095 -.000488735996796852 -.004098827223066945 .0095 -672884
634914633e-19 .001492640923007228 .0095 -.002185733890536715 .00928776285093372
 .0095 41 1 197 L?-.00454600370044636 -.01454657097615224 .0095 41 1 198 L?-.002
185733890536715 .00928776285093372 .0095 204 16 199 4 .578533782607681 .00369749
792441451 .00745399629955364 -.0200313985334537 1.16347054626715 -.0003597697792
350335 .01151126400320314 -.0095836547803684 1.726642316619465 -.000781217312540
428 .01193271153650854 -.00399218663429422 2.344898407555205 .001337228114504844
 .00981426610946328 .00380293529363227 19 17 135 0 1 0 9 5 S0 40 3 24 0 1 3 .000
982825787424738 .304723566279477 ??-.00715142755624883 .00548471208724761 .00950
02 -.00799537898094306 .00842226506364278 .0044122089949584 -.00715142755624883
 .01096977058465672 -2000000000000185e-22 41 1 25 L?-.00715142755624883 .0054847
1208724761 .0095002 41 1 26 L?-.00715142755624883 .01096977058465672 -2000000000
000185e-22 204 12 27 4 .01096988605471056 .00484857244375117 1.047215783118444 .
000848572443751173 .00509478010192024 .00400462101905694 .482564196083263 462101
905694809e-20 -2309401076658005e-22 .00484857244375117 6.28316707525774 .0008485
72443751168 141 20 192 456 456 6 141 456 130 20 20 6 74 4 CI16 index_map_offset0
 0 1 dCCZ20 15 8 0 0 415 457 430 458 459 460 13 2 0 0 0 0 0 0 0 0 0 0 0 0 81 2 4
57 952 461 1 0 458 0 0 462 0 81 2 458 1052 463 1 457 459 0 0 0 464 81 2 459 1053
 465 1 458 460 0 0 0 466 81 2 460 1133 467 1 459 13 0 0 0 468 81 2 13 1143 469 1
 460 2 0 0 0 0 80 2 469 470 471 9000 0 0 0 0 3 5 0 0 0 FFTFFFFFFFFFFF9 1 79 16 4
71 BODY_RECIPE_200180 2 467 472 473 9000 0 0 0 0 3 5 0 0 0 FFTFFFFFFFFFFF9 1 82
 1 468 1 79 24 473 BODY_IN_LIGHTWEIGHT_PERM80 2 465 474 475 9000 0 0 0 0 3 5 0 0
 0 FFTFFFFFFFFFFT9 1 82 1 466 109 79 19 475 ENT_TIME_STAMP_200180 2 463 476 477
 9000 0 0 0 0 3 5 0 0 0 FFTFFFFFFFFFFF9 1 82 1 464 60 79 30 477 LAST_BODY_MODIFY
ING_FEATURE_ID80 2 461 478 479 8004 0 0 0 0 3 5 0 0 0 FFTFFFFFFFFFFF2 3 83 1 462
 79e2 79 16 479 SDL/TYSA_DENSITY80 2 12 480 481 9000 0 0 0 0 3 5 0 0 0 FFTFFFFFF
FFFFF9 1 82 1 14 104 79 12 481 ATOM_ID_20011 0 
