**ABCDEFGHIJKLMNOPQRSTUVWXYZabcdefghijklmnopqrstuvwxyz**************************
**PARASOLID !"#$%&'()*+,-./:;<=>?@[\]^_`{|}~0123456789**************************
**PART1;
MC=AMD64;
MC_MODEL=Intel64 Family 6 Model 142 Stepping 10, GenuineIntel;
MC_ID=unknown;
OS=Windows_NT;
OS_RELEASE=unknown;
FRU=Parasolid Version 31.0, build 282,  2-25-2019;
APPL=SOLIDWORKS 2019-2019115;
SITE=;
USER=unknown;
FORMAT=text;
GUISE=transmit;
KEY=DIN 985 - M8_;
FILE=DIN 985 - M8_.x_t;
DATE=Tue Feb  4 09:11:54 2020;
**PART2;
SCH=SCH_3100282_31001;
USFLD_SIZE=0;
**PART3;
**END_OF_HEADER*****************************************************************
T51 : TRANSMIT FILE created by modeller version 310028223 SCH_3100282_31001_1300
6215 0 12 34 CCCCCCI4 mesh1006 0 I8 polyline1008 0 CCCCCCCDI5 owner1040 0 CCCCCC
I13 boundary_mesh1006 0 I17 boundary_polyline1008 0 CCCA16 index_map_offset0 0 1
 dA9 index_map82 0 A17 node_id_index_map82 0 A20 schema_embedding_map82 0 A5 chi
ld12 0 A14 lowest_node_id0 0 1 dA16 mesh_offset_data206 0 Z1 1175 2 3 0 0 0 0 0
 0 1e3 1e-8 0 4 0 1 0 1 1 5 6 7 8 0 0 9 10 11 0 0 0 0 0 0 0 81 255 2 2 1152 12 1
 13 0 0 0 0 14 70 11 CI9 list_type0 0 1 uI10 notransmit0 0 1 lCCCDCCDI12 finger_
index0 0 1 dI12 finger_block1012 0 CZ3 0 4 T1 0 0 8 20 1 15 15 13 255 5 134 0 1
 0 16 0 0 17 0 50 255 6 127 0 16 18 0 19 +-.008 .00375277674973257 -.0065 0 .866
025403784439 -.5 0 .5 .866025403784439 38 12 CCCCCCCCCCCA17 intersection_data204
 0 Z7 615 0 20 21 0 0 +18 22 23 24 25 26 29 255 8 608 0 11 27 0 -.00491944341639
924 .00375277674973257 .0065 19 8 CCCCCCCA5 owner12 0 Z9 40 0 1 17 0 28 V0 16 25
5 10 616 0 ?29 0 20 7 20 20 1 18 255 11 606 0 30 0 31 8 ?1 17 255 30 0 32 33 34
 11 35 36 0 37 -18 31 549 0 38 11 39 27 ?1 17 38 0 40 41 42 31 43 44 0 45 +18 39
 533 0 46 31 47 48 ?1 29 27 552 0 31 48 8 109623068961572e-32 .00562916512459885
 -.00325 29 48 535 0 39 49 27 0 -598546148078659e-33 -.0065 29 49 220 0 47 50 48
 -.000580556583600758 .00750555349946514 -564626221516219e-33 18 47 218 0 51 39
 52 49 ?1 29 50 514 0 52 53 49 -.000580556583600754 -.00375277674973258 -.0065 1
8 52 387 0 54 47 55 50 ?1 29 53 515 0 55 56 50 -.000580556583600757 .00375277674
973257 -.0065 18 55 392 0 57 52 58 53 ?1 29 56 517 0 58 59 53 -.0005805565836007
57 .00375277674973257 .0065 18 58 390 0 60 55 61 56 ?1 29 59 518 0 61 62 56 -.00
0580556583600754 -.00375277674973256 .0065 18 61 389 0 63 58 64 59 ?1 29 62 519
 0 64 65 59 -.000580556583600753 -.00750555349946513 1561251128379125e-32 18 64
 388 0 66 61 67 62 ?1 29 65 520 0 67 68 62 584266321429151e-32 -.005629165124598
86 -.00325 18 67 376 0 69 64 70 65 ?1 29 68 523 0 70 71 65 109623068961572e-32 .
00562916512459885 .00325 18 70 386 0 72 67 73 68 ?1 29 71 524 0 73 74 68 3469446
951953615e-33 412390080190638e-32 .0065 18 73 383 0 75 70 76 71 ?1 29 74 525 0 7
6 77 71 584266321429151e-32 -.00562916512459885 .00325 18 76 377 0 78 73 79 74 ?
1 29 77 857 0 79 80 74 -.0055 -.00562916512459886 -.00325 18 79 738 0 81 76 82 7
7 ?1 29 80 858 0 82 83 77 -.0055 180513964391164e-32 -.0065 18 82 736 0 84 79 85
 80 ?1 29 83 859 0 85 86 80 -.0055 .00562916512459885 -.00325 18 85 733 0 87 82
 88 83 ?1 29 86 860 0 88 89 83 -.0055 .00562916512459885 .00325 18 88 756 0 33 8
5 90 86 ?1 29 89 861 0 90 91 86 -.0055 180513964391164e-32 .0065 18 90 742 0 92
 88 93 89 ?1 29 91 862 0 93 94 89 -.0055 -.00562916512459885 .00325 18 93 740 0
 95 90 96 91 ?1 29 94 869 0 96 97 91 -.00491944341639924 -.003752776749732575 -.
0065 18 96 745 0 98 93 99 94 ?1 29 97 870 0 99 100 94 -.00491944341639924 .00375
2776749732575 -.0065 18 99 746 0 101 96 102 97 ?1 29 100 871 0 102 103 97 -.0049
1944341639924 .00750555349946514 867361737988404e-33 18 102 748 0 104 99 105 100
 ?1 29 103 873 0 105 106 100 -.00491944341639924 -.00375277674973257 .0065 18 10
5 744 0 107 102 108 103 ?1 29 106 874 0 108 0 103 -.00491944341639924 -.00750555
349946514 910729824887824e-32 18 108 743 0 109 105 0 106 ?1 17 109 0 110 95 111
 108 112 113 0 114 -15 255 110 777 0 95 115 0 17 95 0 110 111 109 93 114 116 0 1
17 -17 111 0 110 109 95 79 117 118 0 119 -17 112 0 120 121 122 79 109 113 0 0 +1
6 113 699 0 ?112 123 124 125 124 124 1 17 114 0 126 66 127 108 95 116 0 122 +15
 126 114 0 128 129 0 17 66 0 126 130 114 64 122 131 0 132 +17 127 0 126 114 128
 93 107 133 0 0 +16 116 698 0 ?114 124 134 135 133 133 1 17 122 0 120 112 136 10
8 66 131 0 0 -15 120 112 0 122 137 0 17 136 0 120 122 138 64 139 140 0 0 +16 131
 638 0 ?66 141 142 143 0 0 1 16 141 651 0 ?54 144 131 145 0 0 1 16 142 625 0 ?63
 131 146 147 0 0 1 30 255 143 130 0 131 145 147 0 +-.008 -.00750555349946514 610
540378011569e-33 1 0 0 30 145 129 0 141 148 143 0 +-.008 -.00375277674973257 -.0
065 1 0 0 30 147 131 0 142 143 149 0 +-.008 -.00375277674973257 .0065 1 0 0 30 1
49 132 0 146 147 150 0 +-.008 .00375277674973257 .0065 1 0 0 16 146 607 0 ?60 14
2 151 149 0 0 1 30 150 133 0 151 149 21 0 +-.008 .00750555349946514 -56462622151
6219e-33 1 0 0 16 151 610 0 ?51 146 152 150 0 0 1 38 21 226 0 153 150 7 0 +18 15
4 155 156 157 158 16 153 224 0 ?159 160 144 21 160 160 1 50 18 126 0 161 162 6 1
63 +-.008 .00750555349946514 -564626221516219e-33 0 .866025403784439 .5 0 -.5 .8
66025403784439 52 255 154 487 0 164 165 166 167 +-.000580556583600756 3127984946
888425e-33 0 -1 -421592937817225e-30 0 .00750555349946513 .866025403784441 .5 42
1592937817225e-30 -1 0 40 255 3 155 0 1 3 .00067246238317341 .3047224211079875 ?
?-.000580623251805862 .00375266127967873 .0065002 -3160404959874625e-21 .0057625
7401672891 .00301892902064926 -.000580623251805863 .00750566896951897 -200000000
000521e-21 41 3 CI8 term_use0 0 1 cCZ1 156 L?-.000580623251805862 .0037526612796
7873 .0065002 41 1 157 L?-.000580623251805863 .00750566896951897 -20000000000052
1e-21 204 2 17 INTERSECTION_DATA17 Intersection data7 uv_type0 0 1 u6 values0 1
 1 fT12 158 4 .00750578443957282 .00741937674819414 2.094368455867645 6666820510
69966e-22 .00348595896547245 .00799683959504013 2.659019735210765 -.000577396178
640889 -2309401076719725e-22 .00741937674819414 3.14161930011534 666682051034912
e-22 14 255 164 480 168 ?169 170 171 5 154 +170 169 169 170 28 54 255 165 832 0
 172 173 154 0 +-.007 867361737988404e-33 0 -1 -421592937817225e-30 0 .0055 .001
 421592937817225e-30 -1 0 51 255 166 210 0 174 154 175 0 --.00812199341312805 -5
14315614350057e-34 0 -1 -421592937817225e-30 0 .004 421592937817225e-30 -1 0 141
 255 167 21 176 177 154 141 176 178 179 167 154 141 177 180 167 181 154 38 180 5
04 0 182 183 184 0 +162 154 185 186 187 188 141 181 184 177 189 154 38 184 503 0
 190 180 191 0 +192 154 193 194 195 196 141 189 191 181 179 154 38 191 502 0 140
 184 197 0 +198 154 199 200 201 202 141 179 197 189 176 154 38 197 501 0 203 191
 178 0 -154 204 205 206 207 208 16 203 358 0 ?209 210 211 197 210 210 1 38 178 5
00 0 212 197 213 0 +6 154 214 215 216 217 50 204 122 0 218 219 198 220 +-.008 -.
00375277674973257 -.0065 0 11556266144132e-29 -1 0 1 11556266144132e-29 40 4 205
 0 1 4 .001112304902183882 .314228083053897 ??-.00311042470603036 -.009952919303
76013 -.0065 -.00033439838597514 -.002804461048016555 -.0065 -460395976410907e-1
9 .001021281999851214 -.0065 -.00149550305089155 .0063547873762163 -.0065 41 1 2
06 L?-.00311042470603036 -.00995291930376013 -.0065 41 1 207 L?-.001495503050891
55 .0063547873762163 -.0065 204 16 208 4 5.70465163129074 .00252986812242964 -.0
0620014255402756 .00488957529396964 5.11971480195581 -.000246158197625615 .00094
8315701716015 .00766560161402486 4.55654278512099 -.000534516985959668 .00477405
874958378 .00795396040235891 3.938286721246705 .000914946467290805 .010107564125
94886 .00650449694910845 14 218 671 221 ?137 16 222 5 204 +0 0 137 16 28 50 219
 91 0 223 175 204 0 +0 0 0 1 0 0 0 0 -1 50 198 123 0 137 204 192 224 +-.008 -.00
750555349946514 610540378011569e-33 0 -.866025403784439 -.5 0 .5 -.8660254037844
39 141 220 197 225 225 204 141 225 226 220 220 204 38 226 841 0 227 135 125 0 +2
04 22 228 229 230 231 16 227 705 0 ?232 134 133 226 134 134 1 38 135 842 0 133 2
33 226 0 +192 22 234 235 236 237 38 125 840 0 124 226 183 0 +198 22 238 239 240
 241 52 22 834 0 242 0 173 243 +-.0055 1053982344543062e-33 0 1 421592937817225e
-30 0 .0065 .866025403784442 .5 -421592937817225e-30 1 0 40 4 228 0 1 4 .0011123
04902183882 .314228083053896 ??-.00238957529396963 -.00995291930376013 -.0065 -.
00516560161402485 -.002804461048016555 -.0065 -.00545396040235891 .0010212819998
51212 -.0065 -.00400449694910845 .00635478737621631 -.0065 41 1 229 L?-.00238957
529396963 -.00995291930376013 -.0065 41 1 230 L?-.00400449694910845 .00635478737
621631 -.0065 204 16 231 4 -.00620014255402756 .00561042470603037 3.720126329478
64 .003110424706030395 .000948315701716015 .00283439838597515 4.305063158813565
 .000334398385975146 .00477405874958378 .00254603959764109 4.86823517564839 4603
95976410935e-19 .01010756412594888 .00399550305089155 5.48649123952267 .00149550
305089157 14 242 824 244 ?0 172 32 5 22 +115 245 0 172 28 51 173 833 0 246 22 16
5 0 +-.00812199341312805 -514315614350057e-34 0 -1 -421592937817225e-30 0 .0065
 421592937817225e-30 -1 0 141 243 7 247 248 22 141 247 125 249 243 22 141 248 25
0 243 251 22 38 250 844 0 36 252 233 0 -22 162 253 254 255 256 141 251 233 248 2
57 22 38 233 843 0 258 250 135 0 +6 22 259 260 261 262 141 257 135 251 249 22 14
1 249 226 257 247 22 16 258 711 0 ?263 264 36 233 264 264 1 40 3 259 0 1 3 .0006
72462383173409 .3047224211079875 ??-.00491937674819414 .00375266127967873 -.0065
002 -.00549683959504012 .00576257401672891 -.00301892902064926 -.004919376748194
14 .00750566896951897 1999999999996465e-22 41 1 260 L?-.00491937674819414 .00375
266127967873 -.0065002 41 1 261 L?-.00491937674819414 .00750566896951897 1999999
999996465e-22 204 12 262 4 -2309401076772545e-22 .00308062325180586 5.2359611094
5744 .000580623251805868 .004019594533992685 .00250316040495988 5.80061238880056
 316040495987434e-20 .00750578443957281 .00308062325180586 266465255481589e-19 .
000580623251805866 17 263 0 265 51 266 102 87 258 0 267 +16 264 706 0 ?266 268 2
58 233 258 258 1 16 36 731 0 ?35 258 269 250 268 268 1 17 35 0 270 271 272 90 30
 36 0 0 +16 269 727 0 ?273 36 274 252 0 0 1 16 268 707 0 ?271 133 264 250 36 36
 1 17 271 0 270 63 35 105 92 268 0 128 +16 133 708 0 ?127 227 268 135 116 116 1
 15 270 116 0 272 275 0 17 63 0 270 276 271 61 128 142 0 277 +17 92 0 278 279 10
7 90 271 268 0 34 -17 128 0 126 127 280 105 63 142 0 0 -17 280 0 126 128 130 61
 281 190 0 0 +17 130 0 126 280 66 76 132 282 0 283 +17 281 0 284 75 277 76 280 1
90 0 130 -16 190 364 0 ?280 282 285 184 282 282 1 16 282 362 0 ?130 140 190 184
 190 190 1 16 285 365 0 ?276 190 182 180 182 182 1 17 276 0 270 286 63 73 277 28
5 0 287 +16 182 373 0 ?286 285 288 180 285 285 1 17 286 0 270 272 276 58 289 182
 0 0 +16 288 338 0 ?75 182 290 183 123 290 1 17 75 0 284 277 281 73 283 288 0 28
9 +16 290 369 0 ?72 288 44 183 288 44 1 31 255 183 507 0 288 125 180 0 +34694469
51953615e-33 33727435025378e-31 0 -1 -421592937817225e-30 0 421592937817225e-30
 -1 0 .0065 16 123 329 0 ?78 291 113 183 291 288 1 17 78 0 292 132 139 76 293 12
3 0 281 +16 291 330 0 ?69 294 123 183 294 123 1 17 69 0 295 296 297 67 298 291 0
 139 +16 294 333 0 ?299 44 291 183 44 291 1 17 299 0 300 301 45 39 302 294 0 298
 +16 44 339 0 ?38 290 294 183 290 294 1 15 300 452 0 299 303 0 17 301 0 300 45 2
99 55 46 210 0 304 -17 45 0 300 299 301 31 304 212 0 305 -17 302 0 306 43 298 31
 299 294 0 0 -17 298 0 306 302 293 39 69 291 0 0 -15 306 60 0 298 223 0 17 293 0
 306 298 283 67 78 123 0 0 -17 283 0 306 293 287 76 75 288 0 0 -17 287 0 306 283
 43 73 72 290 0 0 -17 43 0 306 287 302 70 38 44 0 0 -17 72 0 171 307 289 70 287
 290 0 42 +15 171 482 0 72 164 0 17 307 0 171 289 72 58 308 160 0 286 -17 289 0
 171 72 307 73 286 182 0 276 -17 42 0 40 38 41 70 159 153 0 308 -15 40 446 0 42
 170 0 17 41 0 40 42 38 47 305 309 0 159 -17 159 0 310 267 308 47 42 153 0 0 +17
 308 0 310 159 60 70 307 160 0 43 +15 310 118 0 267 161 0 17 60 0 310 308 37 58
 272 146 0 307 +16 160 229 0 ?308 20 153 21 153 153 1 16 20 613 0 ?37 10 160 7 1
0 10 1 17 37 0 310 60 29 11 33 20 0 272 +17 29 0 310 37 267 88 104 10 0 0 +17 33
 0 32 34 30 88 37 20 0 311 -17 272 0 270 35 286 11 60 146 0 0 -15 32 826 0 33 24
2 0 17 34 0 32 30 33 90 312 313 0 314 -17 311 0 315 104 87 88 316 317 0 312 -15
 315 801 0 311 245 0 17 104 0 315 87 311 102 29 10 0 263 -17 87 0 315 311 104 85
 263 258 0 318 -17 316 0 319 320 312 85 311 317 0 266 +16 317 710 0 ?316 313 321
 322 313 321 1 17 312 0 319 316 314 88 34 313 0 29 +15 319 759 0 316 246 0 17 31
4 0 319 312 117 90 279 323 0 35 +16 313 732 0 ?312 323 317 322 323 317 1 16 323
 709 0 ?314 274 313 322 118 313 1 31 322 855 0 323 0 324 0 +-.0055 1053982344543
062e-33 0 -1 -421592937817225e-30 0 421592937817225e-30 -1 0 .0065 31 324 854 0
 274 322 252 0 +-.007 421592937817226e-33 0 -1 -421592937817225e-30 0 4215929378
17225e-30 -1 0 .0065 16 274 689 0 ?325 269 323 324 0 0 1 31 252 853 0 269 324 25
0 0 +-.008 987039096498458e-48 0 -1 -421592937817225e-30 0 421592937817225e-30 -
1 0 .0055 17 325 0 326 325 325 0 327 274 0 0 +15 326 819 0 325 172 328 17 327 0
 329 327 327 0 325 274 0 0 -15 329 888 0 327 246 319 14 246 757 330 ?115 303 329
 5 173 +0 0 115 303 28 81 1 330 1156 331 246 332 0 244 333 334 14 115 775 333 ?3
35 246 110 5 22 +335 242 335 246 28 14 303 450 336 ?246 337 300 5 154 +337 170 2
46 337 28 13 28 41 0 0 0 0 0 0 9 16 14 16 681 338 ?218 0 265 5 6 +0 0 218 0 28 8
1 1 338 1159 331 16 339 0 336 340 341 15 265 120 0 342 16 0 17 342 0 265 266 304
 99 57 144 0 0 -17 266 0 265 263 342 85 101 264 0 0 +17 304 0 265 342 305 55 45
 212 0 0 +17 57 0 222 46 232 55 342 144 0 301 +16 144 664 0 ?57 153 141 148 0 0
 1 30 148 128 0 144 343 145 0 +-.008 .00375277674973257 -.0065 1 0 0 31 343 212
 0 152 213 148 0 +-.008 722223729145214e-48 0 -1 -421592937817225e-30 0 42159293
7817225e-30 -1 0 .004 16 152 195 0 ?344 151 345 343 0 0 1 31 213 213 0 345 178 3
43 0 +1734723475976805e-33 33727435025378e-31 0 -1 -421592937817225e-30 0 421592
937817225e-30 -1 0 .004 16 345 196 0 ?346 152 309 213 0 0 1 17 346 0 347 346 346
 0 348 345 0 0 +16 309 353 0 ?305 345 212 178 212 212 1 17 305 0 265 304 51 31 4
1 309 0 302 +16 212 355 0 ?304 309 210 178 309 309 1 16 210 356 0 ?46 212 203 19
7 203 203 1 17 46 0 222 209 57 39 301 210 0 297 +15 222 110 0 349 218 0 17 209 0
 222 349 46 52 297 203 0 0 +17 297 0 295 69 296 39 209 203 0 299 -15 295 458 0 6
9 337 0 17 296 0 295 297 69 52 138 211 0 209 -17 138 0 120 136 54 67 296 211 0 2
93 +16 211 359 0 ?138 203 140 191 140 140 1 16 140 361 0 ?136 211 282 191 211 21
1 1 17 54 0 120 138 121 52 349 141 0 296 +17 121 0 120 54 112 96 81 124 0 349 +1
7 349 0 222 350 209 96 54 141 0 0 -17 350 0 222 232 349 82 98 134 0 0 +17 232 0
 222 57 350 99 84 227 0 342 +17 98 0 351 81 352 96 350 134 0 121 -16 134 703 0 ?
350 116 227 226 227 227 1 15 351 786 0 352 335 0 17 81 0 351 352 98 79 121 124 0
 111 -17 352 0 351 98 81 82 119 353 0 320 -17 119 0 319 117 320 79 352 353 0 112
 +16 353 701 0 ?119 321 118 322 321 118 1 17 320 0 319 119 316 82 318 321 0 350
 +17 318 0 354 101 84 85 320 321 0 316 -16 321 704 0 ?320 317 353 322 317 353 1
 15 354 789 0 318 355 0 17 101 0 354 84 318 99 266 264 0 232 -17 84 0 354 318 10
1 82 232 227 0 352 -14 355 787 340 ?356 335 354 5 22 +356 335 356 335 28 81 1 34
0 1160 331 355 357 0 338 358 359 14 356 796 358 ?245 355 278 5 22 +245 355 245 3
55 28 14 335 784 360 ?355 115 351 5 22 +355 115 355 115 28 81 1 360 1162 331 335
 361 0 358 362 363 80 255 1 331 364 365 9000 1 1 1 1 1 1 1 1 0 FFFFTFTFFFFFFF1 8
1 1 361 949 366 335 0 360 367 357 368 81 1 358 1161 331 356 369 0 340 360 370 81
 1 362 1163 331 245 371 0 360 372 373 82 255 1 363 822870125 14 245 799 362 ?172
 356 315 5 22 +242 356 172 356 28 81 1 371 952 366 245 0 362 369 374 375 81 1 37
2 1164 331 172 374 0 362 376 377 82 1 373 820707437 14 172 817 372 ?242 245 326
 5 165 +0 0 242 245 28 81 1 374 953 366 172 0 372 371 378 379 81 1 376 1165 331
 169 380 0 372 381 382 82 1 377 766574701 14 169 468 376 ?383 164 284 5 154 +164
 383 383 164 28 81 1 380 943 366 169 0 376 384 385 386 81 1 381 1166 331 383 385
 0 376 387 388 82 1 382 779419757 14 383 462 381 ?337 169 292 5 154 +169 337 337
 169 28 81 1 385 944 366 383 0 381 380 389 390 81 1 387 1167 331 337 389 0 381 3
91 392 82 1 388 780271725 14 337 456 387 ?303 383 295 5 154 +383 303 303 383 28
 81 1 389 945 366 337 0 387 385 393 394 81 1 391 1168 331 170 395 0 387 396 397
 82 1 392 781123693 14 170 444 391 ?164 174 40 5 154 +303 164 164 174 28 81 1 39
5 941 366 170 0 391 398 384 399 81 1 396 1169 331 174 398 0 391 400 401 82 1 397
 782827629 14 174 200 396 ?170 402 403 5 166 +0 0 170 402 28 81 1 398 940 366 17
4 0 396 404 395 405 81 1 400 1170 331 402 404 0 396 406 407 82 1 401 752418925 1
4 402 191 400 ?174 223 408 5 175 -0 0 174 223 28 81 1 404 939 366 402 0 400 409
 398 410 81 1 406 1171 331 223 409 0 400 411 412 82 1 407 772931693 14 223 323 4
06 ?402 161 347 5 219 +0 0 402 161 28 81 1 409 938 366 223 0 406 413 404 414 81
 1 411 1172 331 161 413 0 406 415 416 82 1 412 801767533 14 161 618 411 ?223 275
 310 5 18 +0 0 223 275 28 81 1 413 937 366 161 0 411 417 409 418 81 1 415 1173 3
31 275 417 0 411 419 420 82 1 416 817496173 14 275 632 415 ?161 129 270 5 162 +0
 0 161 129 28 81 1 417 936 366 275 0 415 421 413 422 81 1 419 1174 331 129 421 0
 415 423 424 82 1 420 828047469 14 129 645 419 ?275 137 126 5 192 +0 0 275 137 2
8 81 1 421 935 366 129 0 419 425 417 426 81 1 423 1175 331 137 425 0 419 0 427 8
2 1 424 829423725 14 137 658 423 ?129 218 120 5 198 +0 0 129 218 28 81 1 425 934
 366 137 0 423 428 421 429 82 1 427 830799981 80 1 366 0 430 8001 0 0 0 0 3 5 0
 0 0 FFFFTFTFFFFFFF2 81 1 428 933 366 218 0 221 339 425 431 83 255 3 429 .647058
823529412 .619607843137255 .588235294117647 81 1 221 1154 331 218 428 0 168 244
 432 81 1 339 932 366 16 0 338 0 428 433 83 3 431 .647058823529412 .619607843137
255 .588235294117647 83 3 433 .647058823529412 .619607843137255 .588235294117647
 81 1 168 1153 331 164 384 0 0 221 434 81 1 244 1155 331 242 378 0 221 330 435 8
2 1 432 832176237 81 1 378 954 366 242 0 244 374 0 436 82 1 435 765395053 83 3 4
36 .647058823529412 .619607843137255 .588235294117647 81 1 384 942 366 164 0 168
 395 380 437 82 1 434 758251629 83 3 437 .647058823529412 .619607843137255 .5882
35294117647 79 255 15 430 SDL/TYSA_COLOUR83 3 426 .647058823529412 .619607843137
255 .588235294117647 50 192 124 0 129 198 162 438 +-.008 -.00375277674973257 .00
65 0 -.866025403784439 .5 0 -.5 -.866025403784439 50 162 125 0 275 192 18 439 +-
.008 .00375277674973257 .0065 0 11556266144132e-29 1 0 -1 11556266144132e-29 141
 438 184 440 440 192 141 440 135 438 438 192 141 439 180 441 441 162 141 441 250
 439 439 162 83 3 422 .647058823529412 .619607843137255 .588235294117647 83 3 41
8 .647058823529412 .619607843137255 .588235294117647 83 3 414 .647058823529412 .
619607843137255 .588235294117647 15 347 182 0 346 223 306 83 3 410 .647058823529
412 .619607843137255 .588235294117647 15 408 601 0 273 402 442 50 175 2 0 402 16
6 219 0 +-.008 0 0 1 0 0 0 0 -1 17 273 0 408 273 273 0 443 269 0 0 +15 442 189 0
 444 402 0 17 444 0 442 444 444 0 344 152 0 0 -17 344 0 403 344 344 0 444 152 0
 0 +15 403 202 0 344 174 445 15 445 203 0 348 174 0 17 348 0 445 348 348 0 346 3
45 0 0 -17 443 0 328 443 443 0 273 269 0 0 -15 328 820 0 443 172 0 83 3 405 .647
058823529412 .619607843137255 .588235294117647 83 3 399 .647058823529412 .619607
843137255 .588235294117647 81 1 393 946 366 303 0 336 389 332 446 83 3 394 .6470
58823529412 .619607843137255 .588235294117647 81 1 336 1158 331 303 393 0 333 33
8 447 81 1 332 947 366 246 0 330 393 367 448 83 3 446 .647058823529412 .61960784
3137255 .588235294117647 81 1 367 948 366 115 0 333 332 361 449 83 3 448 .647058
823529412 .619607843137255 .588235294117647 81 1 333 1157 331 115 367 0 330 336
 450 83 3 449 .647058823529412 .619607843137255 .588235294117647 82 1 450 824115
309 82 1 447 781975661 83 3 390 .647058823529412 .619607843137255 .5882352941176
47 15 292 464 0 78 383 0 83 3 386 .647058823529412 .619607843137255 .58823529411
7647 15 284 470 0 75 169 0 83 3 379 .647058823529412 .619607843137255 .588235294
117647 81 1 369 951 366 356 0 358 357 371 451 83 3 375 .647058823529412 .6196078
43137255 .588235294117647 81 1 357 950 366 355 0 340 361 369 452 83 3 451 .64705
8823529412 .619607843137255 .588235294117647 83 3 452 .647058823529412 .61960784
3137255 .588235294117647 82 1 370 821166189 83 3 368 .647058823529412 .619607843
137255 .588235294117647 79 14 365 SWEntUnchanged15 278 798 0 92 356 0 82 1 359 8
22411373 16 118 700 0 ?117 353 0 322 353 323 1 17 117 0 319 314 119 93 111 118 0
 279 +17 279 0 278 107 92 93 314 323 0 127 -17 107 0 278 92 279 105 127 133 0 27
1 -16 124 702 0 ?121 113 116 125 113 113 1 17 51 0 265 305 263 47 267 151 0 41 +
17 267 0 310 29 159 102 51 151 0 0 -82 1 341 833224813 82 1 334 826998893 17 139
 0 292 78 132 67 136 140 0 138 -17 132 0 292 139 78 64 130 282 0 136 -17 277 0 2
84 281 75 61 276 285 0 280 -40 4 253 0 1 4 .001112304902183884 .314228083053896
 ??-.00238957529396963 -.00995291930376012 .0065 -.00516560161402485 -.002804461
048016555 .0065 -.00545396040235891 .001021281999851216 .0065 -.0040044969491084
45 .00635478737621631 .0065 41 1 254 L?-.00238957529396963 -.00995291930376012 .
0065 41 1 255 L?-.004004496949108445 .00635478737621631 .0065 204 16 256 4 2.563
05897770095 .003110424706030395 .0137056960534927 .00561042470603037 1.978122148
36602 .000334398385975146 .00655723779774912 .00283439838597515 1.41495013153119
4 460395976410935e-19 .002731494749881355 .00254603959764109 .796694067656912 .0
0149550305089157 -.00260201062648374 .003995503050891555 40 3 238 0 1 3 .0006724
6238317341 .3047224211079875 ??-.00491937674819413 -.00750566896951898 200000000
000707e-21 -.00549683959504012 -.0054957562324688 -.00348107097935074 -.00491937
674819413 -.003752661279678735 -.0065002 41 1 239 L?-.00491937674819413 -.007505
66896951898 200000000000707e-21 41 1 240 L?-.00491937674819413 -.003752661279678
735 -.0065002 204 12 241 4 -230940107677298e-21 .00308062325180587 3.14156600706
4245 .000580623251805873 .004019594533992685 .00250316040495988 3.70621728640736
5 3160404959879845e-21 .00750578443957281 .00308062325180587 4.18881685131194 .0
0058062325180587 40 3 234 0 1 3 .00067246238317341 .3047224211079875 ??-.0049193
7674819413 -.00375266127967873 .0065002 -.00549683959504012 -.00576257401672891
 .003018929020649265 -.00491937674819413 -.00750566896951898 -200000000000059e-2
1 41 1 235 L?-.00491937674819413 -.00375266127967873 .0065002 41 1 236 L?-.00491
937674819413 -.00750566896951898 -200000000000059e-21 204 12 237 4 -230940107677
2545e-22 .00308062325180587 2.09436845586765 .000580623251805869 .00401959453399
2685 .00250316040495988 2.659019735210765 316040495987634e-20 .00750578443957281
 .00308062325180587 3.14161930011534 .000580623251805873 141 224 191 453 453 198
 141 453 125 224 224 198 40 3 214 0 1 3 .00067246238317341 .3047224211079875 ??-
.000580623251805863 .00750566896951898 1999999999994355e-22 -3160404959874515e-2
1 .00549575623246879 -.00348107097935074 -.000580623251805861 .00375266127967873
 -.0065002 41 1 215 L?-.000580623251805863 .00750566896951898 1999999999994355e-
22 41 1 216 L?-.000580623251805861 .00375266127967873 -.0065002 204 12 217 4 .00
750578443957281 .00741937674819414 3.141566007064245 666682051095004e-22 .003485
958965472445 .00799683959504013 3.706217286407365 -.000577396178640889 -23094010
76772545e-22 .00741937674819414 4.18881685131194 666682051069966e-22 40 3 199 0
 1 3 .00067246238317341 .3047224211079875 ??-.000580623251805861 -.0037526612796
78735 -.0065002 -31604049598743e-19 -.00576257401672892 -.00301892902064926 -.00
0580623251805861 -.00750566896951898 2000000000005275e-22 41 1 200 L?-.000580623
251805861 -.003752661279678735 -.0065002 41 1 201 L?-.000580623251805861 -.00750
566896951898 2000000000005275e-22 204 12 202 4 .00750578443957281 .0074193767481
9414 5.23596110945744 666682051100012e-22 .003485958965472445 .00799683959504013
 5.80061238880056 -.00057739617864088 -2309401076771425e-22 .00741937674819414 2
66465255482762e-19 666682051135066e-22 40 3 193 0 1 3 .000672462383173411 .30472
24211079875 ??-.000580623251805862 -.00750566896951898 -1999999999993895e-22 -31
6040495987336e-20 -.00549575623246879 .00348107097935074 -.000580623251805861 -.
00375266127967873 .0065002 41 1 194 L?-.000580623251805862 -.00750566896951898 -
1999999999993895e-22 41 1 195 L?-.000580623251805861 -.00375266127967873 .006500
2 204 12 196 4 .00750578443957281 .00741937674819414 6.28315866065404 6666820511
35066e-22 .003485958965472445 .00799683959504013 .564624632817571 -.000577396178
640885 -2309401076772545e-22 .00741937674819414 1.047224197722146 66668205108498
9e-22 40 4 185 0 1 4 .001112304902183884 .3142280830538965 ??-.00311042470603036
 -.00995291930376012 .0065 -.0003343983859751395 -.002804461048016555 .0065 -460
395976410912e-19 .001021281999851218 .0065 -.001495503050891552 .006354787376216
3 .0065 41 1 186 L?-.00311042470603036 -.00995291930376012 .0065 41 1 187 L?-.00
1495503050891552 .0063547873762163 .0065 204 16 188 4 .0137056960534927 .0048895
7529396964 .578533675888845 .002529868122429635 .00655723779774912 .007665601614
02486 1.163470505223772 -.000246158197625615 .00273149474988135 .007953960402358
91 1.7266425220586 -.000534516985959668 -.00260201062648373 .00650449694910845 2
.34489858593288 .000914946467290805 141 163 21 454 454 18 141 454 7 163 163 18 1
9 17 135 0 1 0 9 5 S0 40 3 23 0 1 3 .000672462383173408 .304722421107987 ??-.004
91937674819414 .00750566896951897 -2000000000005645e-22 -.00549683959504012 .005
49575623246879 .003481070979350735 -.00491937674819414 .00375266127967873 .00650
02 41 1 24 L?-.00491937674819414 .00750566896951897 -2000000000005645e-22 41 1 2
5 L?-.00491937674819414 .00375266127967873 .0065002 204 12 26 4 -230940107672010
5e-22 .00308062325180586 6.28315866065404 .000580623251805866 .00401959453399269
 .00250316040495988 .56462463281757 3160404959872835e-21 .00750578443957282 .003
08062325180586 1.047224197722146 .000580623251805868 141 19 178 455 455 6 141 45
5 233 19 19 6 74 4 CI16 index_map_offset0 0 1 dCCZ20 15 8 0 0 423 378 456 457 45
8 459 13 2 0 0 0 0 0 0 0 0 0 0 0 0 81 2 456 1027 460 1 0 457 0 0 0 461 81 2 457
 1028 462 1 456 458 0 0 0 463 81 2 458 1096 464 1 457 459 0 0 465 0 81 2 459 109
7 466 1 458 13 0 0 0 467 81 2 13 1103 468 1 459 2 0 0 0 0 80 2 468 469 470 9000
 0 0 0 0 3 5 0 0 0 FFTFFFFFFFFFFF9 1 79 16 470 BODY_RECIPE_200180 2 466 471 472
 9000 0 0 0 0 3 5 0 0 0 FFTFFFFFFFFFFF9 1 82 1 467 1 79 24 472 BODY_IN_LIGHTWEIG
HT_PERM80 2 464 473 474 8004 0 0 0 0 3 5 0 0 0 FFTFFFFFFFFFFF2 3 83 1 465 79e2 7
9 16 474 SDL/TYSA_DENSITY80 2 462 475 476 9000 0 0 0 0 3 5 0 0 0 FFTFFFFFFFFFFT9
 1 82 1 463 109 79 19 476 ENT_TIME_STAMP_200180 2 460 477 478 9000 0 0 0 0 3 5 0
 0 0 FFTFFFFFFFFFFF9 1 82 1 461 60 79 30 478 LAST_BODY_MODIFYING_FEATURE_ID80 2
 12 479 480 9000 0 0 0 0 3 5 0 0 0 FFTFFFFFFFFFFF9 1 82 1 14 104 79 12 480 ATOM_
ID_20011 0 
