**ABCDEFGHIJKLMNOPQRSTUVWXYZabcdefghijklmnopqrstuvwxyz**************************
**PARASOLID !"#$%&'()*+,-./:;<=>?@[\]^_`{|}~0123456789**************************
**PART1;
MC=AMD64;
MC_MODEL=Intel64 Family 6 Model 142 Stepping 10, GenuineIntel;
MC_ID=unknown;
OS=Windows_NT;
OS_RELEASE=unknown;
FRU=Parasolid Version 31.0, build 282,  2-25-2019;
APPL=SOLIDWORKS 2019-2019115;
SITE=;
USER=unknown;
FORMAT=text;
GUISE=transmit;
KEY=DIN 931 - M12 x 1.75 x 90_;
FILE=DIN 931 - M12 x 1.75 x 90_.x_t;
DATE=Tue Feb  4 09:11:05 2020;
**PART2;
SCH=SCH_3100282_31001;
USFLD_SIZE=0;
**PART3;
**END_OF_HEADER*****************************************************************
T51 : TRANSMIT FILE created by modeller version 310028223 SCH_3100282_31001_1300
6215 0 12 34 CCCCCCI4 mesh1006 0 I8 polyline1008 0 CCCCCCCDI5 owner1040 0 CCCCCC
I13 boundary_mesh1006 0 I17 boundary_polyline1008 0 CCCA16 index_map_offset0 0 1
 dA9 index_map82 0 A17 node_id_index_map82 0 A20 schema_embedding_map82 0 A5 chi
ld12 0 A14 lowest_node_id0 0 1 dA16 mesh_offset_data206 0 Z1 1357 2 3 0 0 0 0 0
 0 1e3 1e-8 0 4 0 1 0 1 1 5 6 7 8 0 0 9 10 11 0 0 0 0 0 0 0 81 255 2 2 1332 12 1
 13 0 0 0 0 14 70 11 CI9 list_type0 0 1 uI10 notransmit0 0 1 lCCCDCCDI12 finger_
index0 0 1 dI12 finger_block1012 0 CZ3 0 4 T1 0 0 10 20 1 15 15 13 255 5 988 0 1
 0 16 0 0 17 0 50 255 6 939 0 16 18 0 0 +0 .01039230484541328 549885307614022e-3
3 1 0 0 0 0 -1 137 255 7 1096 0 1 19 0 20 +21 22 0 ?29 255 8 1092 0 23 24 0 1287
326798587956e-34 -.00779422863405996 -.0045 19 8 CCCCCCCA5 owner12 0 Z9 5 0 1 17
 0 25 V0 16 255 10 18 0 ?26 0 27 28 0 0 1 18 255 11 76 0 29 0 30 31 250798724079
7585e-22 1 17 255 29 0 32 33 33 11 34 35 36 37 +18 30 77 0 33 11 38 39 250798724
0797685e-22 1 29 31 219 0 11 39 40 .0075 0 -.0066 29 39 218 0 30 0 31 .0075 4849
60132462352e-33 .0066 29 40 713 0 41 31 42 .0069 .00519615242270662 .009 18 41 3
15 0 43 44 45 40 206155281280883e-22 1 29 42 774 0 46 40 47 .0069 -.005196152422
7066 .009 18 46 450 0 48 49 50 42 2061552813112225e-23 1 29 47 775 0 45 42 51 .0
069 .01039230484541328 -4267449410073545e-34 18 45 342 0 52 41 53 47 20615528128
73285e-23 1 29 51 810 0 53 47 54 .0069 .00519615242270662 -.009 18 53 370 0 55 4
5 56 51 2061552812977125e-23 1 29 54 845 0 56 51 57 .0069 -.00519615242270677 -.
009 18 56 398 0 58 53 49 54 2061552837800325e-23 1 29 57 880 0 49 54 59 .0069 -.
01039230484541326 -722801448323667e-34 18 49 425 0 60 56 46 57 2061552813041925e
-23 1 29 59 1007 0 61 57 62 .0069 .00779422863405994 .0045 18 61 236 0 63 38 64
 59 ?1 29 62 1010 0 64 59 65 .0069 .00779422863405994 -.0045 18 64 237 0 66 61 6
7 62 ?1 29 65 1013 0 67 62 68 .0069 1734723475976805e-33 -.009 18 67 238 0 69 64
 70 65 ?1 29 68 1016 0 70 65 71 .0069 -.00779422863405995 -.0045 18 70 273 0 72
 67 44 68 ?1 29 71 1019 0 38 68 73 .0069 -1102182119232618e-33 .009 18 38 235 0
 74 30 61 71 ?1 29 73 1020 0 44 71 75 .0069 -.00779422863405994 .0045 18 44 274
 0 76 70 41 73 ?1 29 75 1037 0 50 73 77 .000803847577293362 .00519615242270662 .
009 18 50 478 0 78 46 79 75 ?1 29 77 1046 0 80 75 81 .000803847577293369 .010392
30484541328 390081574095212e-33 18 80 517 0 82 83 84 77 ?1 29 81 1055 0 85 77 86
 .000803847577293361 .00519615242270662 -.009 18 85 558 0 87 84 88 81 ?1 29 86 1
064 0 89 81 90 .000803847577293357 -.00519615242270679 -.0089999999999999 18 89
 597 0 91 88 92 86 ?1 29 90 1069 0 83 86 93 .000803847577293352 -.00519615242270
66 .009 18 83 480 0 94 79 80 90 ?1 29 93 1074 0 95 90 96 .000803847577293358 -.0
1039230484541326 -85010764784832e-32 18 95 640 0 97 92 23 93 ?1 29 96 1079 0 79
 93 98 -921571846612679e-33 -951223539120857e-33 .009 18 79 479 0 99 50 83 96 ?1
 29 98 1082 0 84 96 100 -941884309222924e-33 .00779422863405994 .0045 18 84 518
 0 101 80 85 98 ?1 29 100 1085 0 88 98 102 521788623632507e-33 .0077942286340599
4 -.0045 18 88 559 0 103 85 89 100 ?1 29 102 1088 0 92 100 24 433680868994202e-3
3 150231459873716e-32 -.009 18 92 598 0 104 89 95 102 ?1 29 24 1091 0 105 102 8
 -55259850324353e-31 -.00779422863405993 .0045 18 105 682 0 106 23 0 24 ?1 17 10
6 0 107 99 108 105 109 110 0 111 -18 23 641 0 108 95 105 8 ?1 17 108 0 107 106 1
04 23 112 113 0 114 -15 255 107 926 0 108 16 0 17 104 0 107 108 103 92 115 116 0
 117 -17 112 0 118 91 114 92 108 113 0 119 +16 113 852 0 ?112 116 110 120 0 0 1
 17 114 0 118 112 91 23 121 122 0 109 +15 118 850 0 112 123 0 17 91 0 118 114 11
2 89 119 124 0 121 +17 121 0 125 58 126 89 114 122 0 127 -16 122 636 0 ?114 128
 129 130 0 0 1 17 109 0 131 97 111 23 106 110 0 126 +15 131 885 0 109 132 0 17 9
7 0 131 111 109 95 126 128 0 133 +17 111 0 131 109 97 105 133 134 0 135 +16 110
 887 0 ?109 113 0 136 0 0 1 17 126 0 125 121 137 23 97 128 0 0 -15 125 632 0 137
 138 0 17 137 0 125 126 139 95 60 140 0 0 -16 128 635 0 ?97 140 122 141 0 0 1 16
 140 634 0 ?60 142 128 143 0 0 1 38 12 CCCCCCCCCCCA17 intersection_data204 0 Z14
1 1059 0 128 144 130 0 +145 18 146 147 148 149 38 144 1054 0 142 150 141 0 +151
 152 153 154 155 156 38 130 1063 0 122 141 157 0 +145 158 159 160 161 162 50 145
 645 0 138 151 163 164 +.0075 -.00519615242270664 -.009 0 .866025403784439 .5 0
 -.5 .866025403784439 52 255 18 892 0 132 158 6 165 +.000808670662757118 0 0 1 5
21218033596855e-32 0 .01040065867448574 .86602540378444 .5 -521218033596855e-32
 1 0 40 255 2 146 0 1 2 .000803847577293357 .281034901502811 ??643663399293978e-
34 -.00779422863405996 -.0045 .000803847577293358 -.01039230484541326 -189090224
148185e-32 41 3 CI8 term_use0 0 1 cCZ1 147 L?643663399293978e-34 -.0077942286340
5996 -.0045 41 1 148 L?.000803847577293358 -.01039230484541326 -189090224148185e
-32 204 2 17 INTERSECTION_DATA17 Intersection data7 uv_type0 0 1 u6 values0 1 1
 fT8 149 4 .00519615242270665 -.0075 3.66519142918809 -.000808670662757118 .0103
9230484541326 -.00669615242270664 3.141592653589795 -482308546375939e-20 14 255
 132 883 166 1e-8 123 16 131 5 18 +0 0 16 123 25 52 158 857 0 123 152 18 167 +.0
00808670662757146 0 0 1 0 0 .01040065867448578 .86602540378444 .5 0 0 -1 141 255
 165 168 169 169 18 38 168 1073 0 134 157 170 0 +163 18 171 172 173 174 141 169
 141 165 165 18 16 134 677 0 ?111 129 175 168 0 0 1 38 157 1068 0 129 130 168 0
 +163 176 177 178 179 180 31 255 170 1076 0 175 168 181 0 +-205998412772246e-32
 0 0 1 0 0 0 0 -1 .009 50 163 686 0 182 145 183 184 +.0075 -.01039230484541326 0
 0 .866025403784438 -.5 0 .5 .866025403784438 40 2 171 0 1 2 .00080384757729337
 .281034901502813 ??.000803847577293358 -.01039230484541326 -1311606167602344e-3
4 -1206059272395676e-32 -.00779422863405992 .0045 41 1 172 L?.000803847577293358
 -.01039230484541326 -1311606167602344e-34 41 1 173 L?-1206059272395676e-32 -.00
779422863405992 .0045 204 8 174 4 -1135884260903978e-34 -.00669615242270664 3.14
1592653589795 -482308546376039e-20 .00519615242270665 -.0075 2.61799387799149 -.
00080867066275713 14 182 671 185 1e-8 138 186 187 5 163 -0 0 186 138 25 52 183 7
25 0 186 163 176 188 +.000808670662757122 0 0 1 0 0 .01040065867448574 .86602540
378444 .5 0 0 -1 141 184 157 189 189 163 141 189 168 184 184 163 14 186 716 190
 1e-8 182 191 192 5 183 +0 0 191 182 25 52 176 754 0 191 183 193 194 +.000808670
662757113 0 0 1 0 0 .01040065867448572 .86602540378444 .5 0 0 -1 141 188 195 196
 196 183 38 195 1036 0 197 198 199 0 +200 183 201 202 203 204 141 196 205 188 18
8 183 38 205 1024 0 206 207 208 0 +209 183 210 211 212 213 16 206 473 0 ?78 214
 215 205 0 0 1 31 207 1018 0 216 217 205 0 -.0069 0 0 -1 0 0 0 0 1 .009 38 208 1
028 0 215 205 198 0 +209 176 218 219 220 221 50 209 483 0 222 223 200 224 +.0075
 .00519615242270662 .009 0 333847688608259e-30 -1 0 1 333847688608259e-30 40 2 2
10 0 1 2 .000803847577293361 .2810349015028115 ??470978591151579e-34 -9667919818
63397e-33 .009 .000803847577293362 .00519615242270662 .009 41 1 211 L?4709785911
51579e-34 -966791981863397e-33 .009 41 1 212 L?.000803847577293362 .005196152422
70662 .009 204 8 213 4 -.00519615242270663 -.0075 3.141592653589795 -.0008086706
62757122 0 -.00669615242270664 2.617993877991495 -482308546376039e-20 14 222 468
 225 1e-8 226 227 228 5 209 -0 0 227 226 25 50 223 452 0 226 229 209 0 +.0069 .0
09 0 1 0 0 0 0 -1 50 200 522 0 227 209 230 231 +.0075 .01039230484541328 0 0 -.8
66025403784438 -.5 0 .5 -.866025403784438 141 224 205 232 232 209 141 232 208 22
4 224 209 14 227 507 233 1e-8 222 234 235 5 200 -0 0 234 222 25 50 230 563 0 234
 200 151 236 +.0075 .00519615242270662 -.009 0 -.866025403784438 .5 0 -.5 -.8660
25403784438 141 231 198 237 237 200 38 198 1032 0 238 208 195 0 +200 193 239 240
 241 242 141 237 195 231 231 200 16 238 512 0 ?82 243 197 198 0 0 1 52 193 787 0
 244 176 152 245 +.00080867066275713 0 0 1 521218033596854e-32 0 .01040065867448
576 .86602540378444 .5 -521218033596854e-32 1 0 40 2 239 0 1 2 .0008038475772933
69 .2810349015028125 ??1172666021471172e-33 .00779422863405994 .0045 .0008038475
77293369 .01039230484541328 4376906601347115e-34 41 1 240 L?1172666021471172e-33
 .00779422863405994 .0045 41 1 241 L?.000803847577293369 .01039230484541328 4376
906601347115e-34 204 8 242 4 -.00519615242270665 -.0075 .5235987755983 -.0008086
70662757129 -379051230675841e-33 -.00669615242270663 4211680340842675e-32 -48230
8546376039e-20 14 244 778 246 1e-8 191 247 248 5 193 +0 0 247 191 25 52 152 822
 0 247 193 158 249 +.000808670662757122 0 0 1 0 0 .01040065867448574 .8660254037
8444 .5 0 0 -1 141 245 250 251 251 193 38 250 1045 0 252 199 150 0 +230 193 253
 254 255 256 141 251 198 245 245 193 16 252 554 0 ?257 258 259 250 0 0 1 38 199
 1041 0 258 195 250 0 +230 152 260 261 262 263 38 150 1050 0 124 250 144 0 +151
 158 264 265 266 267 40 2 253 0 1 2 .000803847577293369 .281034901502813 ??.0008
03847577293369 .01039230484541326 999503112494003e-34 249162038314922e-33 .00779
422863405994 -.0045 41 1 254 L?.000803847577293369 .01039230484541326 9995031124
94003e-34 41 1 255 L?249162038314922e-33 .00779422863405994 -.0045 204 8 256 4 -
.01039230484541326 -.00669615242270663 961772318423801e-32 -482308546376139e-20
 -.00519615242270662 -.0075 5.75958653158129 -.00080867066275713 16 124 592 0 ?9
1 259 142 150 0 0 1 50 151 602 0 268 230 145 269 +.0075 .00519615242270662 -.009
 0 -3338476886082575e-31 1 0 -1 -3338476886082575e-31 40 2 264 0 1 2 .0008038475
77293417 .281034901502819 ??964777595042201e-33 966791981863397e-33 -.009 .00080
3847577293419 -.00519615242270682 -.009 41 1 265 L?964777595042201e-33 966791981
863397e-33 -.009 41 1 266 L?.000803847577293419 -.00519615242270682 -.009 204 8
 267 4 .00519615242270662 -.0075 1074213313181552e-31 -.000808670662757145 .0103
9230484541344 -.00669615242270658 5.75958653158127 -482308546372734e-20 14 268 5
87 270 1e-8 234 138 271 5 151 -0 0 138 234 25 141 269 150 272 272 151 141 272 14
4 269 269 151 81 1 270 1339 273 268 274 0 246 275 276 14 234 548 275 1e-8 227 26
8 277 5 230 -0 0 268 227 25 14 138 630 278 1e-8 268 182 125 5 145 -0 0 182 268 2
5 15 271 589 0 127 268 0 13 25 3 0 0 0 0 0 0 9 279 14 279 2 280 1e-8 0 281 282 5
 283 +0 0 281 0 25 81 1 280 1342 273 279 284 0 278 285 286 14 281 67 285 1e-8 27
9 287 288 5 21 -0 0 287 279 25 15 282 1094 0 26 279 289 51 255 283 12 0 279 0 21
 0 +0 0 0 -1 0 0 .006 0 0 1 68 255 21 78 0 281 283 290 291 +292 .0081 0 0 1 0 0
 ????0 0 -1 6e-4 52 290 100 0 287 21 293 0 +.0965360000001283 0 0 -1 0 0 .005999
99999991496 .707106781186548 .707106781186548 0 0 1 141 291 294 295 295 21 31 29
2 83 0 1 296 297 298 +.0081 0 -.0066 0 1 0 0 0 -1 6e-4 31 296 39 0 27 28 292 0 +
.096536 0 0 -1 0 0 0 0 1 .006 133 255 297 173 0 33 292 299 0 +299 .0075 0 -.0066
 .0075 0 .0066 0 1 141 298 21 298 298 292 17 33 0 32 29 29 30 37 300 297 34 +137
 299 172 0 1 297 36 301 +293 302 0 ?133 36 171 0 29 299 303 0 +303 .0075 0 .0066
 .0075 0 -.0066 0 1 141 301 297 301 301 299 50 293 165 0 304 290 305 306 +.0075
 .01039230484541328 549885307614022e-33 1 0 0 0 0 -1 134 255 302 0 0 0 0 0 0 +30
7 308 136 255 307 2 33 2 17 5 FFF1 309 310 311 135 255 308 2 0 45 255 66 309 .00
66 -.01039230484541328 .00659990264226109 -.01099809707102662 .00648981543154939
 -.01159326099133342 .00637311578878447 -.01222417366899464 .00613660278701204 -
.01282172992852164 .00589055148017938 -.01344338496423136 .0055241703740431 -.01
400388921775522 .00515051782332983 -.0145755176137264 .00466690475583122 -.01505
92096012445 .004184049065883725 -.01554214408761625 .003611584372341945 -.015916
4752194564 .003052017176352435 -.0162823727572057 .00242942508310836 -.016528907
6324253 .001832877721759305 -.01676512927881095 .001200956145920156 -.0168821202
7696265 .000606062245627747 -.0169922561448465 549885307614022e-33 -.01699230484
54133 -.000605003051488432 -.01699235346086775 -.001200956145920154 -.0168821202
7696265 -.00183186882357395 -.0167654206341994 -.00242942508310836 -.01652890763
24253 -.00305108011881678 -.0162828563255945 -.00361158437234194 -.0159164752194
564 -.00418321276831289 -.01554282266874225 -.00466690475583121 -.01505920960124
45 -.00514983924220375 -.01457635391129734 -.0055241703740431 -.0140038892177552
2 -.00589006791179399 -.0134443220217618 -.00613660278701204 -.01282172992852164
 -.00637282443339944 -.012225182567168 -.00648981543154939 -.01159326099133342 -
.00659990255655329 -.01099863037349394 -.0066 -.01039230484541328 127 255 17 310
 3 2 2 2 2 2 2 2 2 2 2 2 2 2 2 2 3 128 255 17 311 0 .0625 .125 .1875 .25 .3125 .
375 .4375 .5 .5625 .625 .6875 .75 .8125 .875 .9375 1 14 304 153 312 1e-8 287 313
 314 5 293 +0 0 313 287 25 50 305 197 0 313 293 315 0 +.0975 0 0 -1 0 0 0 0 1 14
1 306 299 316 316 293 141 316 303 306 306 293 137 303 170 0 1 36 317 318 +293 31
9 0 ?133 317 178 0 34 303 294 0 +294 .0075 0 -.0066 .0075 808266887437253e-33 .0
066 0 1 141 318 36 318 318 303 134 319 0 0 0 0 0 0 +320 321 136 320 2 33 2 17 5
 FFF1 322 323 324 135 321 2 0 45 66 322 -.0066 -.01039230484541328 -.00659990264
226109 -.00978651261979835 -.00648981543154939 -.00919134869949312 -.00637311578
87842 -.00856043602183214 -.00613660278701204 -.00796287976230491 -.005890551480
17879 -.00734122472659275 -.0055241703740431 -.00678072047307134 -.0051505178233
2687 -.0062090920770972 -.00466690475583122 -.00572540008958206 -.00418404906587
847 -.00524246560320503 -.00361158437234194 -.00486813447137018 -.00305201717634
485 -.0045022369336177 -.002429425083108365 -.004255702058401235 -.0018328777217
53075 -.0040194804120133 -.001200956145920156 -.003902489413863885 -.00060606224
561925 -.00379235354597954 -3174764303743815e-34 -.003792304845413275 .000605003
051493482 -.003792256229959315 .001200956145920156 -.003902489413863885 .0018318
6882359122 -.004019189056630815 .002429425083108365 -.004255702058401235 .003051
080118830685 -.00450175336524085 .00361158437234194 -.00486813447137017 .0041832
127683169 -.00524178702208723 .00466690475583122 -.00572540008958206 .0051498392
422072 -.00620825577953376 .0055241703740431 -.00678072047307133 .00589006791179
447 -.00734028766906618 .00613660278701204 -.00796287976230491 .0063728244333985
3 -.008559427123656 .00648981543154939 -.00919134869949312 .00659990255655329 -.
00978597931733029 .0066 -.01039230484541328 127 17 323 3 2 2 2 2 2 2 2 2 2 2 2 2
 2 2 2 3 128 17 324 0 .0625 .125 .1875 .25 .3125 .375 .4375 .5 .5625 .625 .6875
 .75 .8125 .875 .9375 1 17 34 0 325 37 37 30 29 35 317 0 -137 294 179 0 1 317 32
6 327 +21 328 0 ?133 326 321 0 329 294 330 0 +330 .0069 .00519615242270662 .009
 .0069 -1102182119232618e-33 .009 -.003803847577293375 -.009 141 327 317 327 327
 294 134 328 0 0 0 0 0 0 +331 332 136 331 1 2 2 2 5 FFF1 333 334 335 135 332 2 0
 45 4 333 1.570796326794895 0 1.570796326794895 3.141592653589795 127 2 334 2 2
 128 2 335 0 1 16 329 312 0 ?336 216 337 326 0 0 1 30 255 330 320 0 1 326 338 33
9 -.0069 .009 .009 0 1 0 133 338 319 0 337 330 340 0 +340 .0069 .007794228634059
94 .0045 .0069 .00519615242270662 .009 0 .00519615242270663 141 339 326 339 339
 330 16 337 313 0 ?341 329 342 338 0 0 1 30 340 318 0 1 338 343 344 +.0069 .0077
9422863405994 .0045 0 -.5 .866025403784438 133 343 348 0 342 340 345 0 +345 .006
9 .01039230484541328 -758941520739852e-33 .0069 .00779422863405994 .0045 -657262
636947506e-33 .00519615242270665 141 344 338 344 344 340 16 342 339 0 ?346 337 3
47 343 0 0 1 30 345 347 0 1 343 348 349 +.0069 .01039230484541328 0 0 -.5 .86602
5403784438 133 348 346 0 347 345 350 0 +350 .0069 .00779422863405994 -.0045 .006
9 .01039230484541328 -758941520739852e-33 2369676336725565e-33 .0051961524227066
5 141 349 343 349 349 345 16 347 340 0 ?351 342 352 348 0 0 1 30 350 345 0 1 348
 353 354 +.0069 .00779422863405994 -.0045 0 .5 .866025403784438 133 353 375 0 35
2 350 355 0 +355 .0069 1734723475976805e-33 -.009 .0069 .00519615242270662 -.009
 -.009 -.00380384757729338 141 354 348 354 354 350 16 352 365 0 ?356 347 357 353
 0 0 1 30 355 374 0 1 353 358 359 +.0069 .009 -.009 0 1 0 133 358 373 0 357 355
 360 0 +360 .0069 .00519615242270662 -.009 .0069 .00779422863405994 -.0045 -1935
99546773136e-32 .00519615242270662 141 359 353 359 359 355 16 357 367 0 ?361 352
 362 358 0 0 1 30 360 372 0 1 358 363 364 +.0069 .00519615242270662 -.009 0 .5 .
866025403784438 133 363 404 0 362 360 365 0 +365 .0069 -.00519615242270664 -.009
 .0069 1734723475976805e-33 -.009 -.01419615242270664 -.009 141 364 358 364 364
 360 16 362 395 0 ?366 357 367 363 0 0 1 30 365 403 0 1 363 368 369 +.0069 .009
 -.009 0 1 0 133 368 402 0 367 365 370 0 +370 .0069 -.00779422863405995 -.0045 .
0069 -.00519615242270664 -.009 -116204438619821e-33 .00519615242270664 141 369 3
63 369 369 365 16 367 396 0 ?371 362 372 368 0 0 1 30 370 401 0 1 368 373 374 +.
0069 -.00779422863405995 -.0045 0 .5 -.866025403784439 133 373 431 0 372 370 375
 0 +375 .0069 -.01039230484541326 758941520739854e-33 .0069 -.00779422863405995
 -.0045 -657262636947508e-33 .00519615242270662 141 374 368 374 374 370 16 372 4
22 0 ?376 367 377 373 0 0 1 30 375 430 0 1 373 378 379 +.0069 -.0103923048454132
6 0 0 .5 -.866025403784439 133 378 429 0 377 375 380 0 +380 .0069 -.007794228634
05994 .0045 .0069 -.01039230484541326 758941520739854e-33 1162044386198214e-34 .
00519615242270665 141 379 373 379 379 375 16 377 423 0 ?381 372 382 378 0 0 1 30
 380 428 0 1 378 383 384 +.0069 -.00779422863405994 .0045 0 -.5 -.86602540378443
9 133 383 456 0 382 380 385 0 +385 .0069 -.0051961524227066 .009 .0069 -.0077942
2863405994 .0045 -387199093546272e-32 .00519615242270663 141 384 378 384 384 380
 16 382 447 0 ?386 377 387 383 0 0 1 30 385 455 0 1 383 388 389 +.0069 -.0051961
524227066 .009 0 -.5 -.866025403784436 133 388 454 0 387 385 390 0 +390 .0069 -1
102182119232618e-33 .009 .0069 -.0051961524227066 .009 -.009 -.0141961524227066
 141 389 383 389 389 385 16 387 448 0 ?391 382 214 388 0 0 1 30 390 453 0 1 388
 392 393 -.0069 .009 .009 0 1 0 133 392 488 0 214 390 394 0 +394 .00080384757729
3362 .00519615242270662 .009 .0069 .00519615242270662 .009 -.00669615242270664 -
6e-4 141 393 388 393 393 390 16 214 472 0 ?43 387 206 392 0 0 1 30 394 487 0 1 3
92 395 396 +.0075 .00519615242270662 .009 1 0 0 133 395 486 0 397 394 398 0 +398
 .0069 -.0051961524227066 .009 .000803847577293352 -.0051961524227066 .009 -6e-4
 -.00669615242270665 141 396 392 396 396 394 16 397 475 0 ?399 215 243 395 0 0 1
 30 398 485 0 1 395 400 401 -.0075 -.0051961524227066 .009 1 0 0 133 400 527 0 2
43 398 402 0 +402 .000803847577293369 .01039230484541328 390081574095212e-33 .00
69 .01039230484541328 2376482184576415e-34 -.00669615242270663 -6e-4 141 401 395
 401 401 398 16 243 511 0 ?52 397 238 400 0 0 1 30 402 526 0 1 400 403 404 +.007
5 .01039230484541328 2715979639515905e-34 1 0 0 133 403 568 0 405 402 406 0 +406
 .000803847577293361 .00519615242270662 -.009 .0069 .00519615242270662 -.009 -.0
0669615242270664 -6e-4 141 404 400 404 404 402 16 405 552 0 ?55 197 258 403 0 0
 1 30 406 567 0 1 403 407 408 +.0075 .00519615242270662 -.009 1 0 0 133 407 607
 0 259 406 409 0 +409 .000803847577293357 -.00519615242270679 -.0089999999999999
 .0069 -.00519615242270702 -.009 -.00669615242270664 -6e-4 141 408 403 408 408 4
06 16 259 591 0 ?58 252 124 407 0 0 1 30 409 606 0 1 407 143 410 +.0075 -.005196
15242270702 -.009 1 0 0 133 143 650 0 140 409 411 0 +411 .000803847577293358 -.0
1039230484541326 -85010764784832e-32 .0069 -.01039230484541326 -1734723475976805
e-33 -.00669615242270664 -6e-4 141 410 407 410 410 409 30 411 649 0 1 143 412 41
3 +.0075 -.01039230484541326 -1734723475976805e-33 1 0 0 31 412 992 0 414 411 41
5 0 +.097500000000025 0 0 -1 0 0 0 0 1 .00503600000001825 141 413 143 413 413 41
1 16 414 95 0 ?416 35 300 412 0 0 1 31 415 998 0 417 412 418 0 -.0075 0 0 -1 0 0
 0 0 1 .009 16 417 157 0 ?419 300 420 415 0 0 1 31 418 1004 0 420 415 421 0 -.00
69 0 0 -1 0 0 0 0 1 .009 16 420 230 0 ?422 417 423 418 0 0 1 31 421 1006 0 423 4
18 424 0 -.0069 0 0 -1 0 0 0 0 1 .009 16 423 231 0 ?425 420 426 421 0 0 1 31 424
 1009 0 426 421 427 0 -.0069 0 0 -1 0 0 0 0 1 .009 16 426 232 0 ?428 423 429 424
 0 0 1 31 427 1012 0 429 424 217 0 -.0069 0 0 -1 0 0 0 0 1 .009 16 429 267 0 ?43
0 426 431 427 0 0 1 31 217 1015 0 431 427 207 0 -.0069 0 0 -1 0 0 0 0 1 .009 16
 431 268 0 ?432 429 216 217 0 0 1 17 432 0 433 430 434 70 435 431 0 0 +16 216 26
9 0 ?434 431 329 207 0 0 1 17 434 0 433 432 422 44 436 216 0 0 +15 433 1102 0 43
0 437 438 17 422 0 433 434 425 38 439 420 0 0 +17 436 0 440 391 386 38 434 216 0
 336 -15 440 445 0 386 226 0 17 391 0 440 386 436 46 74 387 0 0 +17 386 0 440 43
6 391 44 441 382 0 435 +17 336 0 442 439 341 38 443 329 0 422 +15 442 310 0 336
 444 0 17 439 0 442 341 336 61 422 420 0 425 -17 341 0 442 336 439 41 63 337 0 0
 +17 443 0 228 445 74 41 336 329 0 341 -15 228 470 0 445 222 0 17 445 0 228 446
 443 50 43 214 0 0 -17 74 0 228 443 48 38 391 387 0 436 -17 48 0 228 74 447 46 3
99 397 0 441 -17 447 0 228 48 446 83 448 215 0 0 -17 399 0 187 449 441 83 48 397
 0 447 +17 441 0 187 399 76 46 386 382 0 391 -15 187 673 0 399 182 0 17 76 0 187
 441 60 44 381 377 0 386 -17 60 0 187 76 133 49 137 140 0 139 +17 381 0 450 376
 435 49 76 377 0 0 +15 450 420 0 376 451 0 17 376 0 450 435 381 70 139 372 0 452
 +17 435 0 450 381 376 44 432 431 0 434 -17 139 0 125 137 72 49 376 372 0 381 -1
7 452 0 453 371 366 70 430 429 0 432 -15 453 393 0 366 454 0 17 371 0 453 366 45
2 56 72 367 0 0 +17 366 0 453 452 371 67 455 362 0 430 +17 430 0 433 428 432 67
 452 429 0 456 +17 428 0 433 425 430 64 456 426 0 0 +17 456 0 457 356 361 67 428
 426 0 0 -15 457 364 0 456 458 0 17 356 0 457 361 456 53 69 352 0 0 +17 361 0 45
7 456 356 64 459 357 0 460 +17 459 0 277 461 66 53 361 357 0 356 -17 460 0 462 3
51 346 64 425 423 0 428 -15 462 337 0 346 463 0 17 351 0 462 346 460 45 66 347 0
 0 +17 346 0 462 460 351 61 464 342 0 439 +17 425 0 433 422 428 61 460 423 0 0 +
17 464 0 235 465 63 45 346 342 0 351 -15 235 509 0 465 227 0 17 465 0 235 466 46
4 80 52 243 0 0 -17 63 0 235 464 43 61 341 337 0 346 -17 43 0 235 63 467 41 445
 214 0 443 +17 467 0 235 43 466 50 468 197 0 445 -17 466 0 235 467 465 84 82 238
 0 0 -17 468 0 192 469 78 84 467 197 0 470 +16 197 513 0 ?468 238 405 195 0 0 1
 15 192 718 0 468 186 0 17 469 0 192 78 468 79 101 175 0 446 +17 78 0 192 468 46
9 50 446 206 0 467 +17 470 0 248 82 257 84 103 471 0 466 +15 248 780 0 257 244 0
 17 82 0 248 257 470 80 466 238 0 472 +17 257 0 248 470 82 88 472 252 0 115 +17
 103 0 107 104 101 88 470 471 0 257 -16 471 781 0 ?470 473 116 474 0 0 1 16 473
 749 0 ?135 175 471 181 0 0 1 16 116 816 0 ?115 471 113 475 0 0 1 31 474 1081 0
 471 181 475 0 +216840434497101e-33 -4214937326697355e-36 0 1 521218033596854e-3
2 0 -521218033596854e-32 1 0 .009 31 181 1078 0 473 170 474 0 +216840434497101e-
33 0 0 1 0 0 0 0 -1 .009 31 475 1084 0 116 474 120 0 +867361737988404e-33 0 0 1
 0 0 0 0 -1 .009 31 120 1087 0 113 475 136 0 +0 0 0 1 0 0 0 0 -1 .009 31 136 109
0 0 110 120 19 0 +216840434497101e-33 -42149373266973e-34 0 1 521218033596855e-3
2 0 -521218033596855e-32 1 0 .009 133 19 1095 0 37 136 7 0 +7 .0075 808266887437
253e-33 .0066 .0075 0 -.0066 0 1 17 37 0 325 34 34 11 33 300 19 0 -15 325 69 0 3
7 281 0 16 300 115 0 25e-8 33 414 417 0 0 0 1 17 115 0 476 87 117 88 104 116 0 4
77 +15 476 815 0 117 247 0 17 87 0 476 117 115 85 477 258 0 478 +17 117 0 476 11
5 87 92 478 142 0 112 +17 477 0 277 472 461 88 87 258 0 0 -15 277 550 0 461 234
 0 17 472 0 277 52 477 80 257 252 0 465 -17 461 0 277 477 459 85 55 405 0 0 -16
 258 553 0 ?87 405 252 199 0 0 1 17 55 0 271 69 478 53 461 405 0 459 +17 69 0 27
1 455 55 67 356 352 0 366 -17 478 0 271 55 119 85 117 142 0 461 -17 119 0 271 47
8 127 92 91 124 0 0 -16 142 593 0 ?117 124 140 144 0 0 1 17 127 0 271 119 455 89
 58 259 0 0 -17 455 0 271 127 69 56 366 362 0 371 -17 58 0 125 72 121 56 127 259
 0 455 +17 72 0 125 139 58 70 371 367 0 376 -17 52 0 277 66 472 45 465 243 0 464
 +17 66 0 277 459 52 64 351 347 0 361 -14 247 813 479 1e-8 244 123 476 5 152 +0
 0 123 244 25 81 1 479 1345 273 247 480 0 312 481 482 14 123 848 481 1e-8 247 13
2 118 5 158 +0 0 132 247 25 81 1 481 1346 273 123 483 0 479 484 485 80 255 1 273
 486 487 9000 1 1 1 1 1 1 1 1 0 FFFFTFTFFFFFFF1 81 1 483 1251 488 123 0 481 489
 480 490 81 1 484 1347 273 16 491 0 481 492 493 82 255 1 485 999999 14 16 924 48
4 1e-8 132 0 107 5 6 -0 0 0 132 25 81 1 491 1249 488 16 494 484 0 489 495 81 1 4
92 1348 273 191 496 0 484 497 498 82 1 493 999999 14 191 745 492 1e-8 186 244 49
9 5 176 +0 0 244 186 25 81 1 496 1254 488 191 0 492 500 501 502 81 1 497 1349 27
3 226 503 0 492 504 505 82 1 498 999999 14 226 443 497 1e-8 451 222 440 5 223 +0
 0 222 451 25 81 1 503 1262 488 226 0 497 506 507 508 81 1 504 1350 273 451 507
 0 497 509 510 82 1 505 999999 14 451 418 504 1e-8 454 226 450 5 229 +0 0 226 45
4 25 81 1 507 1263 488 451 0 504 503 511 512 81 1 509 1351 273 454 511 0 504 513
 514 82 1 510 999999 14 454 391 509 1e-8 458 451 453 5 515 +0 0 451 458 25 81 1
 511 1264 488 454 0 509 507 516 517 81 1 513 1352 273 458 516 0 509 518 519 82 1
 514 999999 14 458 362 513 1e-8 463 454 457 5 520 +0 0 454 463 25 81 1 516 1265
 488 458 0 513 511 521 522 81 1 518 1353 273 463 521 0 513 523 524 82 1 519 9999
99 14 463 335 518 1e-8 444 458 462 5 525 +0 0 458 444 25 81 1 521 1266 488 463 0
 518 516 526 527 81 1 523 1354 273 444 526 0 518 528 529 82 1 524 999999 14 444
 308 523 1e-8 437 463 442 5 530 +0 0 463 437 25 81 1 526 1267 488 444 0 523 521
 531 532 81 1 528 1355 273 437 531 0 523 533 534 82 1 529 999999 14 437 226 528
 1e-8 313 444 433 5 315 +0 0 444 313 25 81 1 531 1268 488 437 0 528 526 535 536
 81 1 533 1356 273 313 535 0 528 537 538 82 1 534 999999 14 313 190 533 1e-8 304
 437 539 5 305 -0 0 437 304 25 81 1 535 1269 488 313 0 533 531 540 541 81 1 537
 1357 273 287 542 0 533 0 543 82 1 538 999999 14 287 89 537 1e-8 281 304 544 5 2
90 +0 0 304 281 25 81 1 542 1271 488 287 0 537 540 545 546 82 1 543 999999 80 1
 488 0 547 8001 0 0 0 0 3 5 0 0 0 FFFFTFTFFFFFFF2 81 1 540 1270 488 304 0 312 53
5 542 548 81 1 545 1272 488 281 0 285 542 284 549 83 255 3 546 .647058823529412
 .619607843137255 .588235294117647 81 1 285 1343 273 281 545 0 280 312 550 81 1
 284 1273 488 279 0 280 545 0 551 83 3 549 .647058823529412 .619607843137255 .58
8235294117647 83 3 551 .647058823529412 .619607843137255 .588235294117647 81 1 3
12 1344 273 304 540 0 285 479 552 82 1 550 999999 82 1 552 999999 83 3 548 .6470
58823529412 .619607843137255 .588235294117647 79 255 15 547 SDL/TYSA_COLOUR15 54
4 1100 0 553 287 554 17 553 0 544 553 553 0 555 27 0 0 -15 554 91 0 416 287 0 17
 416 0 554 416 416 0 556 414 0 0 +17 556 0 539 556 556 0 416 414 0 0 -15 539 192
 0 556 313 0 17 555 0 289 555 555 0 553 27 0 0 +16 27 9 0 ?555 10 35 296 0 0 1 1
6 35 73 0 25e-8 29 27 414 0 0 0 1 15 289 7 0 555 279 0 83 3 541 .647058823529412
 .619607843137255 .588235294117647 83 3 536 .647058823529412 .619607843137255 .5
88235294117647 51 315 241 0 437 305 530 0 +0 0 0 -1 0 0 .009 0 0 1 50 530 317 0
 444 315 525 0 +.0069 .009 0 1 0 0 0 0 -1 50 525 344 0 463 530 520 0 +.0069 .009
 0 1 0 0 0 0 -1 50 520 371 0 458 525 515 0 +.0069 .009 0 1 0 0 0 0 -1 50 515 400
 0 454 520 229 0 +.0069 .009 0 1 0 0 0 0 -1 50 229 427 0 451 515 223 0 +.0069 .0
09 0 1 0 0 0 0 -1 83 3 532 .647058823529412 .619607843137255 .588235294117647 83
 3 527 .647058823529412 .619607843137255 .588235294117647 83 3 522 .647058823529
412 .619607843137255 .588235294117647 83 3 517 .647058823529412 .619607843137255
 .588235294117647 83 3 512 .647058823529412 .619607843137255 .588235294117647 81
 1 506 1261 488 222 0 225 557 503 558 83 3 508 .647058823529412 .619607843137255
 .588235294117647 81 1 225 1336 273 222 506 0 190 233 559 81 1 557 1260 488 227
 0 233 560 506 561 83 3 558 .647058823529412 .619607843137255 .588235294117647 8
1 1 233 1337 273 227 557 0 225 246 562 81 1 560 1259 488 234 0 275 274 557 563 8
3 3 561 .647058823529412 .619607843137255 .588235294117647 81 1 275 1340 273 234
 560 0 270 278 564 81 1 274 1258 488 268 0 270 565 560 566 83 3 563 .64705882352
9412 .619607843137255 .588235294117647 81 1 565 1257 488 138 0 278 567 274 568 8
3 3 566 .647058823529412 .619607843137255 .588235294117647 81 1 278 1341 273 138
 565 0 275 280 569 81 1 567 1256 488 182 0 185 501 565 570 83 3 568 .64705882352
9412 .619607843137255 .588235294117647 81 1 185 1334 273 182 567 0 166 190 571 8
1 1 501 1255 488 186 0 190 496 567 572 83 3 570 .647058823529412 .61960784313725
5 .588235294117647 81 1 190 1335 273 186 501 0 185 225 573 83 3 572 .64705882352
9412 .619607843137255 .588235294117647 82 1 573 999999 81 1 166 1333 273 132 489
 0 0 185 574 82 1 571 999999 81 1 489 1250 488 132 0 166 491 483 575 82 1 574 99
9999 83 3 575 .647058823529412 .619607843137255 .588235294117647 82 1 569 999999
 82 1 564 999999 81 1 246 1338 273 244 500 0 233 270 576 82 1 562 999999 81 1 50
0 1253 488 244 0 246 480 496 577 82 1 576 999999 81 1 480 1252 488 247 0 479 483
 500 578 83 3 577 .647058823529412 .619607843137255 .588235294117647 83 3 578 .6
47058823529412 .619607843137255 .588235294117647 82 1 559 999999 83 3 502 .64705
8823529412 .619607843137255 .588235294117647 15 499 747 0 135 191 0 17 135 0 499
 94 448 105 99 473 0 449 +17 94 0 499 448 135 83 449 129 0 399 +17 448 0 499 135
 94 79 447 215 0 469 +17 99 0 107 101 106 79 135 473 0 448 -17 449 0 187 133 399
 105 94 129 0 0 -17 133 0 187 60 449 95 111 134 0 137 -16 129 676 0 ?94 122 134
 157 0 0 1 17 101 0 107 103 99 84 469 175 0 468 -16 175 719 0 ?469 134 473 170 0
 0 1 16 215 474 0 ?448 206 397 208 0 0 1 81 1 494 1247 579 16 0 491 0 580 581 83
 3 495 .647058823529412 .619607843137255 .588235294117647 80 1 579 582 583 8017
 0 0 0 0 0 0 0 0 0 TTTTTTTTTTTTTF3 81 1 580 1248 579 1 584 13 494 0 585 84 255 4
 581 NONE81 2 584 1246 586 1 587 580 0 0 588 0 81 2 13 1279 589 1 580 2 0 0 0 0
 84 10 585 HeadFillet80 2 589 590 591 9000 0 0 0 0 3 5 0 0 0 FFTFFFFFFFFFFF9 1 7
9 16 591 BODY_RECIPE_200180 2 586 592 593 8004 0 0 0 0 3 5 0 0 0 FFTFFFFFFFFFFF2
 3 81 2 587 1212 594 1 595 584 0 0 0 596 83 1 588 79e2 80 2 594 597 598 9000 0 0
 0 0 3 5 0 0 0 FFTFFFFFFFFFFF9 1 81 1 595 1158 599 1 600 587 0 0 601 82 1 596 1
 80 1 599 602 603 9000 1 1 1 1 1 1 1 1 0 FFTFFFFFFFFFFF1 81 2 600 1105 604 1 605
 595 0 0 0 606 82 1 601 4231 80 2 604 607 608 9000 0 0 0 0 3 5 0 0 0 FFTFFFFFFFF
FFT9 1 81 2 605 1104 609 1 0 600 0 0 0 610 82 1 606 102 80 2 609 611 612 9000 0
 0 0 0 3 5 0 0 0 FFTFFFFFFFFFFF9 1 82 1 610 17 79 30 612 LAST_BODY_MODIFYING_FEA
TURE_ID79 19 608 ENT_TIME_STAMP_200179 10 603 BODY_MATCH79 24 598 BODY_IN_LIGHTW
EIGHT_PERM79 16 593 SDL/TYSA_DENSITY79 13 583 SDL/TYSA_NAME83 3 490 .64705882352
9412 .619607843137255 .588235294117647 79 14 487 SWEntUnchanged82 1 482 999999 1
7 446 0 228 447 445 79 78 206 0 0 -15 438 228 0 613 437 0 17 613 0 438 613 613 0
 419 417 0 0 -17 419 0 314 419 419 0 613 417 0 0 +15 314 155 0 419 304 32 15 32
 156 0 33 304 0 31 28 33 0 10 0 296 0 -.0081 0 0 -1 0 0 0 0 1 .006 141 295 7 291
 291 21 17 26 0 282 26 26 0 614 10 0 0 +17 614 0 288 614 614 0 26 10 0 0 -15 288
 1098 0 614 281 325 82 1 286 999999 82 1 276 999999 40 2 260 0 1 2 .000803847577
293361 .2810349015028115 ??1389215674116342e-34 .00779422863405994 -.0045 .00080
3847577293361 .00519615242270662 -.009 41 1 261 L?1389215674116342e-34 .00779422
863405994 -.0045 41 1 262 L?.000803847577293361 .00519615242270662 -.009 204 8 2
63 4 -.00519615242270662 -.0075 1.047197551196596 -.000808670662757122 0 -.00669
615242270664 .523598775598298 -482308546376039e-20 141 249 144 615 615 152 141 6
15 199 249 249 152 141 236 199 616 616 230 141 616 250 236 236 230 40 2 218 0 1
 2 .000803847577293353 .281034901502811 ??.000803847577293352 -.0051961524227066
 .009 2578949584539625e-34 -564245954233148e-33 .009 41 1 219 L?.000803847577293
352 -.0051961524227066 .009 41 1 220 L?2578949584539625e-34 -564245954233148e-33
 .009 204 8 221 4 -.01039230484541322 -.00669615242270665 3.66519142918809 -4823
08546376039e-20 -.00519615242270663 -.0075 3.141592653589795 -.00080867066275711
3 40 2 201 0 1 2 .000803847577293361 .2810349015028115 ??.000803847577293363 .00
519615242270663 .009 957755931930622e-33 .00779422863405994 .0045 41 1 202 L?.00
0803847577293363 .00519615242270663 .009 41 1 203 L?957755931930622e-33 .0077942
2863405994 .0045 204 8 204 4 -.01039230484541328 -.00669615242270664 2.617993877
991495 -482308546375939e-20 -.00519615242270665 -.0075 2.094395102393195 -.00080
8670662757121 141 194 157 617 617 176 141 617 208 194 194 176 40 2 177 0 1 2 .00
0803847577293362 .281034901502812 ??-1125479481274952e-32 -.00779422863405992 .0
045 .000803847577293351 -.0051961524227066 .009 41 1 178 L?-1125479481274952e-32
 -.00779422863405992 .0045 41 1 179 L?.000803847577293351 -.0051961524227066 .00
9 204 8 180 4 .00519615242270665 -.0075 4.18879020478639 -.000808670662757125 .0
1039230484541328 -.00669615242270665 3.66519142918809 -482308546376139e-20 141 1
67 130 618 618 158 141 618 150 167 167 158 141 164 141 619 619 145 141 619 130 1
64 164 145 40 2 159 0 1 2 .000803847577293295 .281034901502803 ??.00080384757729
3294 -.00519615242270676 -.00899999999999979 207846620865847e-33 -.0077942286340
5996 -.0045 41 1 160 L?.000803847577293294 -.00519615242270676 -.008999999999999
79 41 1 161 L?207846620865847e-33 -.00779422863405996 -.0045 204 8 162 4 2483033
745095785e-31 -.00669615242270671 5.75958653158127 -482308546385153e-20 .0051961
5242270665 -.0075 5.23598775598299 -.000808670662757146 40 2 153 0 1 2 .00080384
7577293361 .2810349015028115 ??.000803847577293361 .00519615242270662 -.009 8169
36704449594e-33 1448389528853956e-33 -.009 41 1 154 L?.000803847577293361 .00519
615242270662 -.009 41 1 155 L?816936704449594e-33 1448389528853956e-33 -.009 204
 8 156 4 0 -.00669615242270664 .523598775598298 -482308546376039e-20 .0051961524
2270662 -.0075 160932169872662e-30 -.000808670662757121 19 17 989 0 1 0 9 5 S0 1
41 20 19 20 20 7 134 22 0 0 0 0 0 0 +620 621 136 620 1 2 2 2 5 FFF1 622 623 624
 135 621 2 0 45 4 622 1.570796326794895 3.141592653589795 1.570796326794895 6.28
318530717959 127 2 623 2 2 128 2 624 0 1 74 4 CI16 index_map_offset0 0 1 dCCZ20
 15 10 0 0 605 600 595 537 587 584 580 284 13 2 0 0 0 0 0 0 0 0 0 0 80 2 12 625
 626 9000 0 0 0 0 3 5 0 0 0 FFTFFFFFFFFFFF9 1 82 1 14 101 79 12 626 ATOM_ID_2001
1 0 
