**ABCDEFGHIJKLMNOPQRSTUVWXYZabcdefghijklmnopqrstuvwxyz**************************
**PARASOLID !"#$%&'()*+,-./:;<=>?@[\]^_`{|}~0123456789**************************
**PART1;
MC=AMD64;
MC_MODEL=Intel64 Family 6 Model 142 Stepping 10, GenuineIntel;
MC_ID=unknown;
OS=Windows_NT;
OS_RELEASE=unknown;
FRU=Parasolid Version 31.0, build 282,  2-25-2019;
APPL=SOLIDWORKS 2019-2019115;
SITE=;
USER=unknown;
FORMAT=text;
GUISE=transmit;
KEY=DIN 931 - M16 x 2 x 110_;
FILE=DIN 931 - M16 x 2 x 110_.x_t;
DATE=Tue Feb  4 09:11:09 2020;
**PART2;
SCH=SCH_3100282_31001;
USFLD_SIZE=0;
**PART3;
**END_OF_HEADER*****************************************************************
T51 : TRANSMIT FILE created by modeller version 310028223 SCH_3100282_31001_1300
6215 0 12 34 CCCCCCI4 mesh1006 0 I8 polyline1008 0 CCCCCCCDI5 owner1040 0 CCCCCC
I13 boundary_mesh1006 0 I17 boundary_polyline1008 0 CCCA16 index_map_offset0 0 1
 dA9 index_map82 0 A17 node_id_index_map82 0 A20 schema_embedding_map82 0 A5 chi
ld12 0 A14 lowest_node_id0 0 1 dA16 mesh_offset_data206 0 Z1 1335 2 3 0 0 0 0 0
 0 1e3 1e-8 0 4 0 1 0 1 1 5 6 7 8 0 0 9 10 11 0 0 0 0 0 0 0 81 255 2 2 1310 12 1
 13 0 0 0 0 14 70 11 CI9 list_type0 0 1 uI10 notransmit0 0 1 lCCCDCCDI12 finger_
index0 0 1 dI12 finger_block1012 0 CZ3 0 4 T1 0 0 10 20 1 15 15 13 255 5 988 0 1
 0 16 0 0 17 0 50 255 6 939 0 16 18 0 0 +0 .01385640646055102 0 1 0 0 0 0 -1 137
 255 7 1096 0 1 19 0 20 +21 22 0 ?29 255 8 1092 0 23 24 0 3129505028597595e-33 -
.01039230484541326 -.006 19 8 CCCCCCCA5 owner12 0 Z9 5 0 1 17 0 25 V0 16 255 10
 18 0 ?26 0 27 28 0 0 1 18 255 11 76 0 29 0 30 31 2507987240798275e-22 1 17 255
 29 0 32 33 33 11 34 35 36 37 +18 30 77 0 33 11 38 39 250798724079829e-21 1 29 3
1 219 0 11 39 40 .01 0 -.0086 29 39 218 0 30 0 31 .01 1325807138750756e-33 .0086
 29 40 713 0 41 31 42 .0092 .0069282032302755 .012 18 41 315 0 43 44 45 40 20615
52812892975e-23 1 29 42 774 0 46 40 47 .0092 -.00692820323027548 .012 18 46 450
 0 48 49 50 42 206155281334763e-22 1 29 47 775 0 45 42 51 .0092 .013856406460551
02 611258784050057e-33 18 45 342 0 52 41 53 47 2061552812837485e-23 1 29 51 810
 0 53 47 54 .0092 .0069282032302755 -.012 18 53 370 0 55 45 56 51 20615528129969
9e-22 1 29 54 845 0 56 51 57 .0092 -.00692820323027552 -.012 18 56 398 0 58 53 4
9 54 2061552812977125e-23 1 29 57 880 0 49 54 59 .0092 -.01385640646055102 50596
1013826569e-33 18 49 425 0 60 56 46 57 2061552812984135e-23 1 29 59 1007 0 61 57
 62 .0092 .01039230484541326 .006 18 61 236 0 63 38 64 59 ?1 29 62 1010 0 64 59
 65 .0092 .01039230484541326 -.006 18 64 237 0 66 61 67 62 ?1 29 65 1013 0 67 62
 68 .0092 1734723475976805e-33 -.012 18 67 238 0 69 64 70 65 ?1 29 68 1016 0 70
 65 71 .0092 -.01039230484541326 -.006 18 70 273 0 72 67 44 68 ?1 29 71 1019 0 3
8 68 73 .0092 -1469576158976824e-33 .012 18 38 235 0 74 30 61 71 ?1 29 73 1020 0
 44 71 75 .0092 -.01039230484541324 .006 18 44 274 0 76 70 41 73 ?1 29 75 1037 0
 50 73 77 .001071796769724482 .00692820323027551 .012 18 50 478 0 78 46 79 75 ?1
 29 77 1046 0 80 75 81 .00107179676972449 .01385640646055102 493818571021029e-33
 18 80 517 0 82 83 84 77 ?1 29 81 1055 0 85 77 86 .001071796769724482 .006928203
2302755 -.012 18 85 558 0 87 84 88 81 ?1 29 86 1064 0 89 81 90 .0010717967697244
9 -.00692820323027552 -.012 18 89 597 0 91 88 92 86 ?1 29 90 1069 0 83 86 93 .00
1071796769724476 -.00692820323027548 .012 18 83 480 0 94 79 80 90 ?1 29 93 1074
 0 95 90 96 .001071796769724488 -.01385640646055102 160681055137583e-33 18 95 64
0 0 97 92 23 93 ?1 29 96 1079 0 79 93 98 3652348879199385e-34 1459329963839264e-
33 .012 18 79 479 0 99 50 83 96 ?1 29 98 1082 0 84 96 100 1084202172485504e-33 .
01039230484541326 .006 18 84 518 0 101 80 85 98 ?1 29 100 1085 0 88 98 102 -1084
202172485504e-34 .01039230484541326 -.006 18 88 559 0 103 85 89 100 ?1 29 102 10
88 0 92 100 24 1084202172485504e-34 150231459873716e-32 -.012 18 92 598 0 104 89
 95 102 ?1 29 24 1091 0 105 102 8 -324621077652369e-32 -.01039230484541324 .006
 18 105 682 0 106 23 0 24 ?1 17 106 0 107 99 108 105 109 110 0 111 -18 23 641 0
 108 95 105 8 ?1 17 108 0 107 106 104 23 112 113 0 114 -15 255 107 926 0 108 16
 0 17 104 0 107 108 103 92 115 116 0 117 -17 112 0 118 91 114 92 108 113 0 119 +
16 113 852 0 ?112 116 110 120 0 0 1 17 114 0 118 112 91 23 121 122 0 109 +15 118
 850 0 112 123 0 17 91 0 118 114 112 89 119 124 0 121 +17 121 0 125 58 126 89 11
4 122 0 127 -16 122 636 0 ?114 128 129 130 0 0 1 17 109 0 131 97 111 23 106 110
 0 126 +15 131 885 0 109 132 0 17 97 0 131 111 109 95 126 128 0 133 +17 111 0 13
1 109 97 105 133 134 0 135 +16 110 887 0 ?109 113 0 136 0 0 1 17 126 0 125 121 1
37 23 97 128 0 0 -15 125 632 0 137 138 0 17 137 0 125 126 139 95 60 140 0 0 -16
 128 635 0 ?97 140 122 141 0 0 1 16 140 634 0 ?60 142 128 143 0 0 1 38 12 CCCCCC
CCCCCA17 intersection_data204 0 Z141 1059 0 128 144 130 0 +145 18 146 147 148 14
9 38 144 1054 0 142 150 141 0 +151 152 153 154 155 156 38 130 1063 0 122 141 157
 0 +145 158 159 160 161 162 50 145 645 0 138 151 163 164 +.01 -.0069282032302755
2 -.012 0 .866025403784439 .5 0 -.5 .866025403784439 52 255 18 892 0 132 158 6 1
65 +.001078227550342834 0 0 1 0 0 .01386754489931432 .86602540378444 .5 0 0 -1 4
0 255 2 146 0 1 2 .001071796769724482 .281034901502812 ??488775850030571e-32 -.0
1039230484541328 -.006 .00107179676972449 -.01385640646055102 -1189933451466986e
-34 41 3 CI8 term_use0 0 1 cCZ1 147 L?488775850030571e-32 -.01039230484541328 -.
006 41 1 148 L?.00107179676972449 -.01385640646055102 -1189933451466986e-34 204
 2 17 INTERSECTION_DATA17 Intersection data7 uv_type0 0 1 u6 values0 1 1 fT8 149
 4 .00692820323027551 -.01 5.23598775598299 -.00107822755034283 .013856406460551
02 -.00892820323027551 4.71238898038469 -643078061834585e-20 14 255 132 883 166
 1e-8 123 16 131 5 18 +0 0 16 123 25 52 158 857 0 123 152 18 167 +.0010782275503
42836 0 0 1 0 0 .01386754489931434 .86602540378444 .5 0 0 -1 141 255 165 168 169
 169 18 38 168 1073 0 134 157 170 0 +163 18 171 172 173 174 141 169 141 165 165
 18 16 134 677 0 ?111 129 175 168 0 0 1 38 157 1068 0 129 130 168 0 +163 176 177
 178 179 180 31 255 170 1076 0 175 168 181 0 +1301042606982604e-33 0 0 1 0 0 0 0
 -1 .012 50 163 686 0 182 145 183 184 +.01 -.01385640646055102 0 0 .866025403784
438 -.5 0 .5 .866025403784438 40 2 171 0 1 2 .001071796769724494 .28103490150281
3 ??.001071796769724486 -.01385640646055102 896732646929223e-33 -652596688500647
e-32 -.01039230484541324 .006 41 1 172 L?.001071796769724486 -.01385640646055102
 896732646929223e-33 41 1 173 L?-652596688500647e-32 -.01039230484541324 .006 20
4 8 174 4 776593252643567e-33 -.00892820323027552 4.71238898038469 -643078061834
685e-20 .00692820323027554 -.01 4.18879020478639 -.001078227550342842 14 182 671
 185 1e-8 138 186 187 5 163 -0 0 186 138 25 52 183 725 0 186 163 176 188 +.00107
8227550342828 0 0 1 0 0 .01386754489931432 .86602540378444 .5 0 0 -1 141 184 157
 189 189 163 141 189 168 184 184 163 14 186 716 190 1e-8 182 191 192 5 183 +0 0
 191 182 25 52 176 754 0 191 183 193 194 +.001078227550342822 0 0 1 781827050395
282e-32 0 .0138675448993143 .86602540378444 .5 -781827050395282e-32 1 0 141 188
 195 196 196 183 38 195 1036 0 197 198 199 0 +200 183 201 202 203 204 141 196 20
5 188 188 183 38 205 1024 0 206 207 208 0 +209 183 210 211 212 213 16 206 473 0
 ?78 214 215 205 0 0 1 31 207 1018 0 216 217 205 0 -.0092 0 0 -1 0 0 0 0 1 .012
 38 208 1028 0 215 205 198 0 +209 176 218 219 220 221 50 209 483 0 222 223 200 2
24 +.01 .0069282032302755 .012 0 -125192883228097e-30 -1 0 1 -125192883228097e-3
0 40 2 210 0 1 2 .001071796769724484 .281034901502812 ??135525271560688e-33 1416
345328941364e-33 .012 .001071796769724484 .00692820323027551 .012 41 1 211 L?135
525271560688e-33 1416345328941364e-33 .012 41 1 212 L?.001071796769724484 .00692
820323027551 .012 204 8 213 4 -.0069282032302755 -.01 3.141592653589795 -.001078
227550342828 1734723475976805e-33 -.00892820323027552 2.617993877991495 -6430780
61834485e-20 14 222 468 225 1e-8 226 227 228 5 209 -0 0 227 226 25 50 223 452 0
 226 229 209 0 +.0092 .012 0 1 0 0 0 0 -1 50 200 522 0 227 209 230 231 +.01 .013
85640646055102 0 0 -.866025403784438 -.5 0 .5 -.866025403784438 141 224 205 232
 232 209 141 232 208 224 224 209 14 227 507 233 1e-8 222 234 235 5 200 -0 0 234
 222 25 50 230 563 0 234 200 151 236 +.01 .0069282032302755 -.012 0 -.8660254037
84438 .5 0 -.5 -.866025403784438 141 231 198 237 237 200 38 198 1032 0 238 208 1
95 0 +200 193 239 240 241 242 141 237 195 231 231 200 16 238 512 0 ?82 243 197 1
98 0 0 1 52 193 787 0 244 176 152 245 +.001078227550342838 0 0 1 0 0 .0138675448
9931434 .86602540378444 .5 0 0 -1 40 2 239 0 1 2 .00107179676972449 .28103490150
28125 ??1668837035295615e-33 .01039230484541326 .006 .00107179676972449 .0138564
0646055102 443268473188464e-33 41 1 240 L?1668837035295615e-33 .0103923048454132
6 .006 41 1 241 L?.00107179676972449 .01385640646055102 443268473188464e-33 204
 8 242 4 -.00692820323027553 -.01 2.094395102393195 -.001078227550342836 -383881
7584779505e-34 -.00892820323027551 1.570796326794895 -643078061834685e-20 14 244
 778 246 1e-8 191 247 248 5 193 +0 0 247 191 25 52 152 822 0 247 193 158 249 +.0
0107822755034283 0 0 1 0 0 .01386754489931432 .86602540378444 .5 0 0 -1 141 245
 250 251 251 193 38 250 1045 0 252 199 150 0 +230 193 253 254 255 256 141 251 19
8 245 245 193 16 252 554 0 ?257 258 259 250 0 0 1 38 199 1041 0 258 195 250 0 +2
30 152 260 261 262 263 38 150 1050 0 124 250 144 0 +151 158 264 265 266 267 40 2
 253 0 1 2 .00107179676972449 .2810349015028125 ??.00107179676972449 .0138564064
6055102 84137069596564e-33 797604205103491e-33 .01039230484541326 -.006 41 1 254
 L?.00107179676972449 .01385640646055102 84137069596564e-33 41 1 255 L?797604205
103491e-33 .01039230484541326 -.006 204 8 256 4 -.01385640646055102 -.0089282032
3027551 1.570796326794895 -643078061834685e-20 -.0069282032302755 -.01 1.0471975
51196596 -.001078227550342836 16 124 592 0 ?91 259 142 150 0 0 1 50 151 602 0 26
8 230 145 269 +.01 .0069282032302755 -.012 0 -2503857664561935e-31 1 0 -1 -25038
57664561935e-31 40 2 264 0 1 2 .001071796769724486 .281034901502812 ??1299698663
25828e-32 783094961991295e-33 -.012 .001071796769724488 -.00692820323027552 -.01
2 41 1 265 L?129969866325828e-32 783094961991295e-33 -.012 41 1 266 L?.001071796
769724488 -.00692820323027552 -.012 204 8 267 4 .0069282032302755 -.01 652579134
992746e-31 -.001078227550342834 .01385640646055102 -.00892820323027551 5.7595865
3158129 -643078061834785e-20 14 268 587 270 1e-8 234 138 271 5 151 -0 0 138 234
 25 141 269 150 272 272 151 141 272 144 269 269 151 81 1 270 1317 273 268 274 0
 246 275 276 14 234 548 275 1e-8 227 268 277 5 230 -0 0 268 227 25 14 138 630 27
8 1e-8 268 182 125 5 145 -0 0 182 268 25 15 271 589 0 127 268 0 13 25 3 0 0 0 0
 0 0 9 279 14 279 2 280 1e-8 0 281 282 5 283 +0 0 281 0 25 81 1 280 1320 273 279
 284 0 278 285 286 14 281 67 285 1e-8 279 287 288 5 21 -0 0 287 279 25 15 282 10
94 0 26 279 289 51 255 283 12 0 279 0 21 0 +0 0 0 -1 0 0 .008 0 0 1 68 255 21 78
 0 281 283 290 291 +292 .0106 0 0 1 0 0 ????0 0 -1 ?52 290 100 0 287 21 293 0 +.
118898500000057 0 0 -1 0 0 .00799999999986767 .707106781186548 .707106781186548
 0 0 1 141 291 294 295 295 21 31 292 83 0 1 296 297 298 +.0106 0 -.0086 0 1 0 0
 0 -1 6e-4 31 296 39 0 27 28 292 0 +.1188985 0 0 -1 0 0 0 0 1 .008 133 255 297 1
73 0 33 292 299 0 +299 .01 0 -.0086 .01 1734723475976805e-33 .0086 0 1 141 298 2
1 298 298 292 17 33 0 32 29 29 30 37 300 297 34 +137 299 172 0 1 297 36 301 +293
 302 0 ?133 36 171 0 29 299 303 0 +303 .01 1734723475976805e-33 .0086 .01 0 -.00
86 0 1 141 301 297 301 301 299 50 293 165 0 304 290 305 306 +.01 .01385640646055
102 0 1 0 0 0 0 -1 134 255 302 0 0 0 0 0 0 +307 308 136 255 307 2 33 2 17 5 FFF1
 309 310 311 135 255 308 2 0 45 255 66 309 .0086 -.01385640646055102 .0085999026
5272725 -.0146456933410406 .00845642616838254 -.0154212887112955 .00830431887662
541 -.0162435399102125 .0079961793891369 -.01702202096278315 .00767549383233376
 -.01783219830110175 .0071981613964804 -.01856241033966325 .00671117800305079 -.
0193073861882584 .00608111831820431 -.01993752477875535 .00545181602529355 -.020
56690588246445 .00470600387911223 -.02105456785703145 .003976728898098385 -.0215
3141672449015 .003165614502232105 -.02185258584968795 .002388142347838665 -.0221
604339817945 .001564882250744445 -.02231283262893355 .000789556983758431 -.02245
6357770257 0 -.02245640646055105 -.000788497793693704 -.02245645508552705 -.0015
64882250744445 -.02231283262893355 -.00238713344966946 -.02216072533717355 -.003
165614502232105 -.02185258584968795 -.003975791840562745 -.02153190029287975 -.0
0470600387911222 -.02105456785703145 -.00545097972771773 -.02056758446359215 -.0
0608111831820431 -.01993752477875535 -.00671049942190993 -.01930822248584735 -.0
071981613964804 -.01856241033966325 -.0076750102639355 -.01783313535865745 -.007
9961793891369 -.01702202096278315 -.00830402752124023 -.01624454880839895 -.0084
5642616838254 -.0154212887112955 -.00859990258695175 -.01464622664546854 -.0086
 -.01385640646055102 127 255 17 310 3 2 2 2 2 2 2 2 2 2 2 2 2 2 2 2 3 128 255 17
 311 0 .0625 .125 .1875 .25 .3125 .375 .4375 .5 .5625 .625 .6875 .75 .8125 .875
 .9375 1 14 304 153 312 1e-8 287 313 314 5 293 +0 0 313 287 25 50 305 197 0 313
 293 315 0 +.12 0 0 -1 0 0 0 0 1 141 306 299 316 316 293 141 316 303 306 306 293
 137 303 170 0 1 36 317 318 +293 319 0 ?133 317 178 0 34 303 294 0 +294 .01 0 -.
0086 .01 1053196247266724e-33 .0086 0 1 141 318 36 318 318 303 134 319 0 0 0 0 0
 0 +320 321 136 320 2 33 2 17 5 FFF1 322 323 324 135 321 2 0 45 66 322 -.0086 -.
01385640646055102 -.00859990265272725 -.01306711958006146 -.00845642616838254 -.
01229152420980658 -.00830431887662542 -.01146927301088954 -.0079961793891369 -.0
1069079195831892 -.00767549383232764 -.00988061461998485 -.0071981613964804 -.00
915040258143881 -.00671117800304039 -.00840542673283399 -.00608111831820431 -.00
777528814234672 -.00545181602529627 -.00714590703863962 -.00470600387911223 -.00
665824506407063 -.00397672889809299 -.00618139619660817 -.00316561450223211 -.00
586022707141413 -.002388142347844205 -.0055523789393113 -.00156488225074445 -.00
539998029216849 -.000789556983765289 -.00525645515084375 -1734723475976805e-33 -
.00525640646055103 .000788497793694018 -.0052563578355763 .001564882250744445 -.
00539998029216849 .002387133449671235 -.00555208758392751 .00316561450223211 -.0
0586022707141413 .003975791840572305 -.00618091262822786 .00470600387911222 -.00
665824506407063 .00545097972771567 -.00714522845750927 .00608111831820431 -.0077
7528814234672 .00671049942190722 -.00840459043525058 .0071981613964804 -.0091504
025814388 .0076750102639444 -.00987967756245822 .0079961793891369 -.010690791958
31892 .00830402752124366 -.0114682641127203 .00845642616838254 -.012291524209806
58 .00859990258695175 -.0130665862756348 .0086 -.01385640646055102 127 17 323 3
 2 2 2 2 2 2 2 2 2 2 2 2 2 2 2 3 128 17 324 0 .0625 .125 .1875 .25 .3125 .375 .4
375 .5 .5625 .625 .6875 .75 .8125 .875 .9375 1 17 34 0 325 37 37 30 29 35 317 0
 -137 294 179 0 1 317 326 327 +21 328 0 ?133 326 321 0 329 294 330 0 +330 .0092
 .0069282032302755 .012 .0092 -1469576158976824e-33 .012 -.0050717967697245 -.01
2 141 327 317 327 327 294 134 328 0 0 0 0 0 0 +331 332 136 331 1 2 2 2 5 FFF1 33
3 334 335 135 332 2 0 45 4 333 1.570796326794895 0 1.570796326794895 3.141592653
589795 127 2 334 2 2 128 2 335 0 1 16 329 312 0 ?336 216 337 326 0 0 1 30 255 33
0 320 0 1 326 338 339 -.0092 .012 .012 0 1 0 133 338 319 0 337 330 340 0 +340 .0
092 .01039230484541326 .006 .0092 .0069282032302755 .012 -116204438619826e-33 .0
069282032302755 141 339 326 339 339 330 16 337 313 0 ?341 329 342 338 0 0 1 30 3
40 318 0 1 338 343 344 +.0092 .01039230484541326 .006 0 -.5 .866025403784438 133
 343 348 0 342 340 345 0 +345 .0092 .01385640646055102 758941520739853e-33 .0092
 .01039230484541326 .006 657262636947507e-33 .00692820323027553 141 344 338 344
 344 340 16 342 339 0 ?346 337 347 343 0 0 1 30 345 347 0 1 343 348 349 +.0092 .
01385640646055102 0 0 -.5 .866025403784438 133 348 346 0 347 345 350 0 +350 .009
2 .01039230484541326 -.006 .0092 .01385640646055102 758941520739853e-33 -6349528
60748754e-33 .00692820323027553 141 349 343 349 349 345 16 347 340 0 ?351 342 35
2 348 0 0 1 30 350 345 0 1 348 353 354 +.0092 .01039230484541326 -.006 0 .5 .866
025403784438 133 353 375 0 352 350 355 0 +355 .0092 1734723475976805e-33 -.012 .
0092 .0069282032302755 -.012 -.012 -.00507179676972451 141 354 348 354 354 350 1
6 352 365 0 ?356 347 357 353 0 0 1 30 355 374 0 1 353 358 359 +.0092 .012 -.012
 0 1 0 133 358 373 0 357 355 360 0 +360 .0092 .0069282032302755 -.012 .0092 .010
39230484541326 -.006 -3871990935462725e-33 .0069282032302755 141 359 353 359 359
 355 16 357 367 0 ?361 352 362 358 0 0 1 30 360 372 0 1 358 363 364 +.0092 .0069
282032302755 -.012 0 .5 .866025403784438 133 363 404 0 362 360 365 0 +365 .0092
 -.00692820323027552 -.012 .0092 1734723475976805e-33 -.012 -.01892820323027555
 -.012 141 364 358 364 364 360 16 362 395 0 ?366 357 367 363 0 0 1 30 365 403 0
 1 363 368 369 +.0092 .012 -.012 0 1 0 133 368 402 0 367 365 370 0 +370 .0092 -.
01039230484541326 -.006 .0092 -.00692820323027552 -.012 75115729936858e-32 .0069
2820323027551 141 369 363 369 369 365 16 367 396 0 ?371 362 372 368 0 0 1 30 370
 401 0 1 368 373 374 +.0092 -.01039230484541326 -.006 0 .5 -.866025403784439 133
 373 431 0 372 370 375 0 +375 .0092 -.01385640646055102 758941520739853e-33 .009
2 -.01039230484541326 -.006 -657262636947507e-33 .00692820323027551 141 374 368
 374 374 370 16 372 422 0 ?376 367 377 373 0 0 1 30 375 430 0 1 373 378 379 +.00
92 -.01385640646055102 0 0 .5 -.866025403784439 133 378 429 0 377 375 380 0 +380
 .0092 -.01039230484541324 .006 .0092 -.01385640646055102 758941520739853e-33 11
62044386198252e-34 .00692820323027554 141 379 373 379 379 375 16 377 423 0 ?381
 372 382 378 0 0 1 30 380 428 0 1 378 383 384 +.0092 -.01039230484541324 .006 0
 -.5 -.866025403784438 133 383 456 0 382 380 385 0 +385 .0092 -.0069282032302754
7 .012 .0092 -.01039230484541324 .006 -797639074816511e-32 .0069282032302755 141
 384 378 384 384 380 16 382 447 0 ?386 377 387 383 0 0 1 30 385 455 0 1 383 388
 389 +.0092 -.00692820323027548 .012 0 -.5 -.866025403784437 133 388 454 0 387 3
85 390 0 +390 .0092 -1469576158976824e-33 .012 .0092 -.00692820323027547 .012 -.
012 -.0189282032302755 141 389 383 389 389 385 16 387 448 0 ?391 382 214 388 0 0
 1 30 390 453 0 1 388 392 393 -.0092 .012 .012 0 1 0 133 392 488 0 214 390 394 0
 +394 .001071796769724482 .00692820323027551 .012 .0092 .00692820323027551 .012
 -.00892820323027552 -8e-4 141 393 388 393 393 390 16 214 472 0 ?43 387 206 392
 0 0 1 30 394 487 0 1 392 395 396 +.01 .00692820323027551 .012 1 0 0 133 395 486
 0 397 394 398 0 +398 .0092 -.00692820323027548 .012 .001071796769724476 -.00692
820323027548 .012 -8e-4 -.00892820323027553 141 396 392 396 396 394 16 397 475 0
 ?399 215 243 395 0 0 1 30 398 485 0 1 395 400 401 -.01 -.00692820323027548 .012
 1 0 0 133 400 527 0 243 398 402 0 +402 .00107179676972449 .01385640646055102 49
3818571021029e-33 .0092 .01385640646055102 315893310670466e-33 -.008928203230275
51 -8e-4 141 401 395 401 401 398 16 243 511 0 ?52 397 238 400 0 0 1 30 402 526 0
 1 400 403 404 +.01 .01385640646055102 361020926480533e-33 1 0 0 133 403 568 0 4
05 402 406 0 +406 .001071796769724482 .0069282032302755 -.012 .0092 .00692820323
02755 -.012 -.00892820323027552 -8e-4 141 404 400 404 404 402 16 405 552 0 ?55 1
97 258 403 0 0 1 30 406 567 0 1 403 407 408 +.01 .0069282032302755 -.012 1 0 0 1
33 407 607 0 259 406 409 0 +409 .00107179676972449 -.00692820323027552 -.012 .00
92 -.00692820323027552 -.012 -.00892820323027551 -8e-4 141 408 403 408 408 406 1
6 259 591 0 ?58 252 124 407 0 0 1 30 409 606 0 1 407 143 410 +.01 -.006928203230
27552 -.012 1 0 0 133 143 650 0 140 409 411 0 +411 .001071796769724488 -.0138564
0646055102 160681055137583e-33 .0092 -.01385640646055102 0 -.00892820323027551 -
8e-4 141 410 407 410 410 409 30 411 649 0 1 143 412 413 +.01 -.01385640646055102
 0 1 0 0 31 412 992 0 414 411 415 0 +.1200000000000046 0 0 -1 0 0 0 0 1 .0068984
9999992021 141 413 143 413 413 411 16 414 95 0 ?416 35 300 412 0 0 1 31 415 998
 0 417 412 418 0 -.01 0 0 -1 0 0 0 0 1 .012 16 417 157 0 ?419 300 420 415 0 0 1
 31 418 1004 0 420 415 421 0 -.0092 0 0 -1 0 0 0 0 1 .012 16 420 230 0 ?422 417
 423 418 0 0 1 31 421 1006 0 423 418 424 0 -.0092 0 0 -1 0 0 0 0 1 .012 16 423 2
31 0 ?425 420 426 421 0 0 1 31 424 1009 0 426 421 427 0 -.0092 0 0 -1 0 0 0 0 1
 .012 16 426 232 0 ?428 423 429 424 0 0 1 31 427 1012 0 429 424 217 0 -.0092 0 0
 -1 0 0 0 0 1 .012 16 429 267 0 ?430 426 431 427 0 0 1 31 217 1015 0 431 427 207
 0 -.0092 0 0 -1 0 0 0 0 1 .012 16 431 268 0 ?432 429 216 217 0 0 1 17 432 0 433
 430 434 70 435 431 0 0 +16 216 269 0 ?434 431 329 207 0 0 1 17 434 0 433 432 42
2 44 436 216 0 0 +15 433 1102 0 430 437 438 17 422 0 433 434 425 38 439 420 0 0
 +17 436 0 440 391 386 38 434 216 0 336 -15 440 445 0 386 226 0 17 391 0 440 386
 436 46 74 387 0 0 +17 386 0 440 436 391 44 441 382 0 435 +17 336 0 442 439 341
 38 443 329 0 422 +15 442 310 0 336 444 0 17 439 0 442 341 336 61 422 420 0 425
 -17 341 0 442 336 439 41 63 337 0 0 +17 443 0 228 445 74 41 336 329 0 341 -15 2
28 470 0 445 222 0 17 445 0 228 446 443 50 43 214 0 0 -17 74 0 228 443 48 38 391
 387 0 436 -17 48 0 228 74 447 46 399 397 0 441 -17 447 0 228 48 446 83 448 215
 0 0 -17 399 0 187 449 441 83 48 397 0 447 +17 441 0 187 399 76 46 386 382 0 391
 -15 187 673 0 399 182 0 17 76 0 187 441 60 44 381 377 0 386 -17 60 0 187 76 133
 49 137 140 0 139 +17 381 0 450 376 435 49 76 377 0 0 +15 450 420 0 376 451 0 17
 376 0 450 435 381 70 139 372 0 452 +17 435 0 450 381 376 44 432 431 0 434 -17 1
39 0 125 137 72 49 376 372 0 381 -17 452 0 453 371 366 70 430 429 0 432 -15 453
 393 0 366 454 0 17 371 0 453 366 452 56 72 367 0 0 +17 366 0 453 452 371 67 455
 362 0 430 +17 430 0 433 428 432 67 452 429 0 456 +17 428 0 433 425 430 64 456 4
26 0 0 +17 456 0 457 356 361 67 428 426 0 0 -15 457 364 0 456 458 0 17 356 0 457
 361 456 53 69 352 0 0 +17 361 0 457 456 356 64 459 357 0 460 +17 459 0 277 461
 66 53 361 357 0 356 -17 460 0 462 351 346 64 425 423 0 428 -15 462 337 0 346 46
3 0 17 351 0 462 346 460 45 66 347 0 0 +17 346 0 462 460 351 61 464 342 0 439 +1
7 425 0 433 422 428 61 460 423 0 0 +17 464 0 235 465 63 45 346 342 0 351 -15 235
 509 0 465 227 0 17 465 0 235 466 464 80 52 243 0 0 -17 63 0 235 464 43 61 341 3
37 0 346 -17 43 0 235 63 467 41 445 214 0 443 +17 467 0 235 43 466 50 468 197 0
 445 -17 466 0 235 467 465 84 82 238 0 0 -17 468 0 192 469 78 84 467 197 0 470 +
16 197 513 0 ?468 238 405 195 0 0 1 15 192 718 0 468 186 0 17 469 0 192 78 468 7
9 101 175 0 446 +17 78 0 192 468 469 50 446 206 0 467 +17 470 0 248 82 257 84 10
3 471 0 466 +15 248 780 0 257 244 0 17 82 0 248 257 470 80 466 238 0 472 +17 257
 0 248 470 82 88 472 252 0 115 +17 103 0 107 104 101 88 470 471 0 257 -16 471 78
1 0 ?470 473 116 474 0 0 1 16 473 749 0 ?135 175 471 181 0 0 1 16 116 816 0 ?115
 471 113 475 0 0 1 31 474 1081 0 471 181 475 0 +867361737988404e-33 0 0 1 0 0 0
 0 -1 .012 31 181 1078 0 473 170 474 0 +-216840434497101e-33 -84298746533946e-34
 0 1 781827050395282e-32 0 -781827050395282e-32 1 0 .012 31 475 1084 0 116 474 1
20 0 +-1084202172485504e-33 0 0 1 0 0 0 0 -1 .012 31 120 1087 0 113 475 136 0 +1
301042606982604e-33 0 0 1 0 0 0 0 -1 .012 31 136 1090 0 110 120 19 0 +-216840434
497101e-33 0 0 1 0 0 0 0 -1 .012 133 19 1095 0 37 136 7 0 +7 .01 105319624726672
4e-33 .0086 .01 0 -.0086 0 1 17 37 0 325 34 34 11 33 300 19 0 -15 325 69 0 37 28
1 0 16 300 115 0 25e-8 33 414 417 0 0 0 1 17 115 0 476 87 117 88 104 116 0 477 +
15 476 815 0 117 247 0 17 87 0 476 117 115 85 477 258 0 478 +17 117 0 476 115 87
 92 478 142 0 112 +17 477 0 277 472 461 88 87 258 0 0 -15 277 550 0 461 234 0 17
 472 0 277 52 477 80 257 252 0 465 -17 461 0 277 477 459 85 55 405 0 0 -16 258 5
53 0 ?87 405 252 199 0 0 1 17 55 0 271 69 478 53 461 405 0 459 +17 69 0 271 455
 55 67 356 352 0 366 -17 478 0 271 55 119 85 117 142 0 461 -17 119 0 271 478 127
 92 91 124 0 0 -16 142 593 0 ?117 124 140 144 0 0 1 17 127 0 271 119 455 89 58 2
59 0 0 -17 455 0 271 127 69 56 366 362 0 371 -17 58 0 125 72 121 56 127 259 0 45
5 +17 72 0 125 139 58 70 371 367 0 376 -17 52 0 277 66 472 45 465 243 0 464 +17
 66 0 277 459 52 64 351 347 0 361 -14 247 813 479 1e-8 244 123 476 5 152 +0 0 12
3 244 25 81 1 479 1323 273 247 480 0 312 481 482 14 123 848 481 1e-8 247 132 118
 5 158 +0 0 132 247 25 81 1 481 1324 273 123 483 0 479 484 485 80 255 1 273 486
 487 9000 1 1 1 1 1 1 1 1 0 FFFFTFTFFFFFFF1 81 1 483 1228 488 123 0 481 489 480
 490 81 1 484 1325 273 16 491 0 481 492 493 82 255 1 485 999999 14 16 924 484 1e
-8 132 0 107 5 6 -0 0 0 132 25 81 1 491 1226 488 16 494 484 0 489 495 81 1 492 1
326 273 191 496 0 484 497 498 82 1 493 999999 14 191 745 492 1e-8 186 244 499 5
 176 +0 0 244 186 25 81 1 496 1231 488 191 0 492 500 501 502 81 1 497 1327 273 2
26 503 0 492 504 505 82 1 498 999999 14 226 443 497 1e-8 451 222 440 5 223 +0 0
 222 451 25 81 1 503 1239 488 226 0 497 506 507 508 81 1 504 1328 273 451 507 0
 497 509 510 82 1 505 999999 14 451 418 504 1e-8 454 226 450 5 229 +0 0 226 454
 25 81 1 507 1240 488 451 0 504 503 511 512 81 1 509 1329 273 454 511 0 504 513
 514 82 1 510 999999 14 454 391 509 1e-8 458 451 453 5 515 +0 0 451 458 25 81 1
 511 1241 488 454 0 509 507 516 517 81 1 513 1330 273 458 516 0 509 518 519 82 1
 514 999999 14 458 362 513 1e-8 463 454 457 5 520 +0 0 454 463 25 81 1 516 1242
 488 458 0 513 511 521 522 81 1 518 1331 273 463 521 0 513 523 524 82 1 519 9999
99 14 463 335 518 1e-8 444 458 462 5 525 +0 0 458 444 25 81 1 521 1243 488 463 0
 518 516 526 527 81 1 523 1332 273 444 526 0 518 528 529 82 1 524 999999 14 444
 308 523 1e-8 437 463 442 5 530 +0 0 463 437 25 81 1 526 1244 488 444 0 523 521
 531 532 81 1 528 1333 273 437 531 0 523 533 534 82 1 529 999999 14 437 226 528
 1e-8 313 444 433 5 315 +0 0 444 313 25 81 1 531 1245 488 437 0 528 526 535 536
 81 1 533 1334 273 313 535 0 528 537 538 82 1 534 999999 14 313 190 533 1e-8 304
 437 539 5 305 -0 0 437 304 25 81 1 535 1246 488 313 0 533 531 540 541 81 1 537
 1335 273 287 542 0 533 0 543 82 1 538 999999 14 287 89 537 1e-8 281 304 544 5 2
90 +0 0 304 281 25 81 1 542 1248 488 287 0 537 540 545 546 82 1 543 999999 80 1
 488 0 547 8001 0 0 0 0 3 5 0 0 0 FFFFTFTFFFFFFF2 81 1 540 1247 488 304 0 312 53
5 542 548 81 1 545 1249 488 281 0 285 542 284 549 83 255 3 546 .647058823529412
 .619607843137255 .588235294117647 81 1 285 1321 273 281 545 0 280 312 550 81 1
 284 1250 488 279 0 280 545 0 551 83 3 549 .647058823529412 .619607843137255 .58
8235294117647 83 3 551 .647058823529412 .619607843137255 .588235294117647 81 1 3
12 1322 273 304 540 0 285 479 552 82 1 550 999999 82 1 552 999999 83 3 548 .6470
58823529412 .619607843137255 .588235294117647 79 255 15 547 SDL/TYSA_COLOUR15 54
4 1100 0 553 287 554 17 553 0 544 553 553 0 555 27 0 0 -15 554 91 0 416 287 0 17
 416 0 554 416 416 0 556 414 0 0 +17 556 0 539 556 556 0 416 414 0 0 -15 539 192
 0 556 313 0 17 555 0 289 555 555 0 553 27 0 0 +16 27 9 0 ?555 10 35 296 0 0 1 1
6 35 73 0 25e-8 29 27 414 0 0 0 1 15 289 7 0 555 279 0 83 3 541 .647058823529412
 .619607843137255 .588235294117647 83 3 536 .647058823529412 .619607843137255 .5
88235294117647 51 315 241 0 437 305 530 0 +0 0 0 -1 0 0 .012 0 0 1 50 530 317 0
 444 315 525 0 +.0092 .012 0 1 0 0 0 0 -1 50 525 344 0 463 530 520 0 +.0092 .012
 0 1 0 0 0 0 -1 50 520 371 0 458 525 515 0 +.0092 .012 0 1 0 0 0 0 -1 50 515 400
 0 454 520 229 0 +.0092 .012 0 1 0 0 0 0 -1 50 229 427 0 451 515 223 0 +.0092 .0
12 0 1 0 0 0 0 -1 83 3 532 .647058823529412 .619607843137255 .588235294117647 83
 3 527 .647058823529412 .619607843137255 .588235294117647 83 3 522 .647058823529
412 .619607843137255 .588235294117647 83 3 517 .647058823529412 .619607843137255
 .588235294117647 83 3 512 .647058823529412 .619607843137255 .588235294117647 81
 1 506 1238 488 222 0 225 557 503 558 83 3 508 .647058823529412 .619607843137255
 .588235294117647 81 1 225 1314 273 222 506 0 190 233 559 81 1 557 1237 488 227
 0 233 560 506 561 83 3 558 .647058823529412 .619607843137255 .588235294117647 8
1 1 233 1315 273 227 557 0 225 246 562 81 1 560 1236 488 234 0 275 274 557 563 8
3 3 561 .647058823529412 .619607843137255 .588235294117647 81 1 275 1318 273 234
 560 0 270 278 564 81 1 274 1235 488 268 0 270 565 560 566 83 3 563 .64705882352
9412 .619607843137255 .588235294117647 81 1 565 1234 488 138 0 278 567 274 568 8
3 3 566 .647058823529412 .619607843137255 .588235294117647 81 1 278 1319 273 138
 565 0 275 280 569 81 1 567 1233 488 182 0 185 501 565 570 83 3 568 .64705882352
9412 .619607843137255 .588235294117647 81 1 185 1312 273 182 567 0 166 190 571 8
1 1 501 1232 488 186 0 190 496 567 572 83 3 570 .647058823529412 .61960784313725
5 .588235294117647 81 1 190 1313 273 186 501 0 185 225 573 83 3 572 .64705882352
9412 .619607843137255 .588235294117647 82 1 573 999999 81 1 166 1311 273 132 489
 0 0 185 574 82 1 571 999999 81 1 489 1227 488 132 0 166 491 483 575 82 1 574 99
9999 83 3 575 .647058823529412 .619607843137255 .588235294117647 82 1 569 999999
 82 1 564 999999 81 1 246 1316 273 244 500 0 233 270 576 82 1 562 999999 81 1 50
0 1230 488 244 0 246 480 496 577 82 1 576 999999 81 1 480 1229 488 247 0 479 483
 500 578 83 3 577 .647058823529412 .619607843137255 .588235294117647 83 3 578 .6
47058823529412 .619607843137255 .588235294117647 82 1 559 999999 83 3 502 .64705
8823529412 .619607843137255 .588235294117647 15 499 747 0 135 191 0 17 135 0 499
 94 448 105 99 473 0 449 +17 94 0 499 448 135 83 449 129 0 399 +17 448 0 499 135
 94 79 447 215 0 469 +17 99 0 107 101 106 79 135 473 0 448 -17 449 0 187 133 399
 105 94 129 0 0 -17 133 0 187 60 449 95 111 134 0 137 -16 129 676 0 ?94 122 134
 157 0 0 1 17 101 0 107 103 99 84 469 175 0 468 -16 175 719 0 ?469 134 473 170 0
 0 1 16 215 474 0 ?448 206 397 208 0 0 1 81 1 494 1224 579 16 0 491 0 580 581 83
 3 495 .647058823529412 .619607843137255 .588235294117647 80 1 579 582 583 8017
 0 0 0 0 0 0 0 0 0 TTTTTTTTTTTTTF3 81 1 580 1225 579 1 584 585 494 0 586 84 255
 4 581 NONE81 2 584 1212 587 1 588 580 0 0 0 589 81 2 585 1256 590 1 580 13 0 0
 0 0 84 10 586 HeadFillet80 2 590 591 592 9000 0 0 0 0 3 5 0 0 0 FFTFFFFFFFFFFF9
 1 81 2 13 1309 593 1 585 2 0 0 594 0 80 2 593 595 596 8004 0 0 0 0 3 5 0 0 0 FF
TFFFFFFFFFFF2 3 83 1 594 79e2 79 16 596 SDL/TYSA_DENSITY79 16 592 BODY_RECIPE_20
0180 2 587 597 598 9000 0 0 0 0 3 5 0 0 0 FFTFFFFFFFFFFF9 1 81 1 588 1158 599 1
 600 584 0 0 601 82 1 589 1 80 1 599 602 603 9000 1 1 1 1 1 1 1 1 0 FFTFFFFFFFFF
FF1 81 2 600 1105 604 1 605 588 0 0 0 606 82 1 601 4231 80 2 604 607 608 9000 0
 0 0 0 3 5 0 0 0 FFTFFFFFFFFFFT9 1 81 2 605 1104 609 1 0 600 0 0 0 610 82 1 606
 102 80 2 609 611 612 9000 0 0 0 0 3 5 0 0 0 FFTFFFFFFFFFFF9 1 82 1 610 17 79 30
 612 LAST_BODY_MODIFYING_FEATURE_ID79 19 608 ENT_TIME_STAMP_200179 10 603 BODY_M
ATCH79 24 598 BODY_IN_LIGHTWEIGHT_PERM79 13 583 SDL/TYSA_NAME83 3 490 .647058823
529412 .619607843137255 .588235294117647 79 14 487 SWEntUnchanged82 1 482 999999
 17 446 0 228 447 445 79 78 206 0 0 -15 438 228 0 613 437 0 17 613 0 438 613 613
 0 419 417 0 0 -17 419 0 314 419 419 0 613 417 0 0 +15 314 155 0 419 304 32 15 3
2 156 0 33 304 0 31 28 33 0 10 0 296 0 -.0106 0 0 -1 0 0 0 0 1 .008 141 295 7 29
1 291 21 17 26 0 282 26 26 0 614 10 0 0 +17 614 0 288 614 614 0 26 10 0 0 -15 28
8 1098 0 614 281 325 82 1 286 999999 82 1 276 999999 40 2 260 0 1 2 .00107179676
972448 .2810349015028115 ??810463741915488e-33 .01039230484541326 -.006 .0010717
9676972448 .0069282032302755 -.012 41 1 261 L?810463741915488e-33 .0103923048454
1326 -.006 41 1 262 L?.00107179676972448 .0069282032302755 -.012 204 8 263 4 -.0
069282032302755 -.01 1.047197551196596 -.001078227550342828 -193599546773136e-32
 -.00892820323027552 .523598775598298 -643078061834786e-20 141 249 144 615 615 1
52 141 615 199 249 249 152 141 236 199 616 616 230 141 616 250 236 236 230 40 2
 218 0 1 2 .001071796769724476 .2810349015028115 ??.001071796769724476 -.0069282
0323027548 .012 -570572831142729e-33 1772624340728775e-33 .012 41 1 219 L?.00107
1796769724476 -.00692820323027548 .012 41 1 220 L?-570572831142729e-33 177262434
0728775e-33 .012 204 8 221 4 -.01385640646055098 -.00892820323027553 2.094395102
393195 -643078061834685e-20 -.0069282032302755 -.01 1.570796326794895 -.00107822
7550342822 40 2 201 0 1 2 .00107179676972448 .2810349015028115 ??.00107179676972
4482 .00692820323027551 .012 1205056680985258e-33 .01039230484541326 .006 41 1 2
02 L?.001071796769724482 .00692820323027551 .012 41 1 203 L?1205056680985258e-33
 .01039230484541326 .006 204 8 204 4 -.01385640646055102 -.00892820323027552 2.6
17993877991495 -643078061834585e-20 -.00692820323027553 -.01 2.094395102393195 -
.001078227550342826 141 194 157 617 617 176 141 617 208 194 194 176 40 2 177 0 1
 2 .00107179676972448 .281034901502812 ??-670924578719649e-32 -.0103923048454132
4 .006 .001071796769724476 -.00692820323027548 .012 41 1 178 L?-670924578719649e
-32 -.01039230484541324 .006 41 1 179 L?.001071796769724476 -.00692820323027548
 .012 204 8 180 4 .00692820323027554 -.01 2.61799387799149 -.00107822755034283 .
01385640646055104 -.00892820323027553 2.094395102393195 -643078061834685e-20 141
 167 130 618 618 158 141 618 150 167 167 158 141 164 141 619 619 145 141 619 130
 164 164 145 40 2 159 0 1 2 .001071796769724484 .281034901502812 ??.001071796769
72449 -.00692820323027552 -.012 558393186635307e-32 -.01039230484541328 -.006 41
 1 160 L?.00107179676972449 -.00692820323027552 -.012 41 1 161 L?558393186635307
e-32 -.01039230484541328 -.006 204 8 162 4 0 -.00892820323027551 5.7595865315812
9 -643078061834685e-20 .00692820323027551 -.01 5.23598775598299 -.00107822755034
283 40 2 153 0 1 2 .00107179676972448 .2810349015028115 ??.001071796769724482 .0
069282032302755 -.012 796750103962526e-33 207549927618723e-32 -.012 41 1 154 L?.
001071796769724482 .0069282032302755 -.012 41 1 155 L?796750103962526e-33 207549
927618723e-32 -.012 204 8 156 4 0 -.00892820323027552 .523598775598298 -64307806
1834685e-20 .0069282032302755 -.01 1729582730156025e-31 -.001078227550342828 19
 17 989 0 1 0 9 5 S0 141 20 19 20 20 7 134 22 0 0 0 0 0 0 +620 621 136 620 1 2 2
 2 5 FFF1 622 623 624 135 621 2 0 45 4 622 1.570796326794895 3.141592653589795 1
.570796326794895 6.28318530717959 127 2 623 2 2 128 2 624 0 1 74 4 CI16 index_ma
p_offset0 0 1 dCCZ20 15 10 0 0 605 600 588 537 584 580 284 585 13 2 0 0 0 0 0 0
 0 0 0 0 80 2 12 625 626 9000 0 0 0 0 3 5 0 0 0 FFTFFFFFFFFFFF9 1 82 1 14 101 79
 12 626 ATOM_ID_20011 0 
