**ABCDEFGHIJKLMNOPQRSTUVWXYZabcdefghijklmnopqrstuvwxyz**************************
**PARASOLID !"#$%&'()*+,-./:;<=>?@[\]^_`{|}~0123456789**************************
**PART1;
MC=AMD64;
MC_MODEL=Intel64 Family 6 Model 142 Stepping 10, GenuineIntel;
MC_ID=unknown;
OS=Windows_NT;
OS_RELEASE=unknown;
FRU=Parasolid Version 31.0, build 282,  2-25-2019;
APPL=SOLIDWORKS 2019-2019115;
SITE=;
USER=unknown;
FORMAT=text;
GUISE=transmit;
KEY=DIN 933 - M8 x 1.25  x 55_;
FILE=DIN 933 - M8 x 1.25  x 55_.x_t;
DATE=Tue Feb  4 09:11:26 2020;
**PART2;
SCH=SCH_3100282_31001;
USFLD_SIZE=0;
**PART3;
**END_OF_HEADER*****************************************************************
T51 : TRANSMIT FILE created by modeller version 310028223 SCH_3100282_31001_1300
6215 0 12 34 CCCCCCI4 mesh1006 0 I8 polyline1008 0 CCCCCCCDI5 owner1040 0 CCCCCC
I13 boundary_mesh1006 0 I17 boundary_polyline1008 0 CCCA16 index_map_offset0 0 1
 dA9 index_map82 0 A17 node_id_index_map82 0 A20 schema_embedding_map82 0 A5 chi
ld12 0 A14 lowest_node_id0 0 1 dA16 mesh_offset_data206 0 Z1 1333 2 3 0 0 0 0 0
 0 1e3 1e-8 0 4 0 1 0 1 1 5 6 7 8 0 0 9 10 11 0 0 0 0 0 0 0 81 255 2 2 1308 12 1
 13 0 0 0 0 14 70 11 CI9 list_type0 0 1 uI10 notransmit0 0 1 lCCCDCCDI12 finger_
index0 0 1 dI12 finger_block1012 0 CZ3 0 4 T1 0 0 10 20 1 15 15 13 255 5 988 0 1
 0 16 0 0 17 0 50 255 6 939 0 16 18 0 0 +0 .00750555349946514 -650521303491302e-
33 1 0 0 0 0 -1 137 255 7 1096 0 1 19 0 20 +21 22 0 ?29 255 8 1092 0 23 24 0 115
550223325786e-28 -.00562916512458153 -.00324999999999 19 8 CCCCCCCA5 owner12 0 Z
9 5 0 1 17 0 25 V0 16 255 10 18 0 ?26 0 27 28 0 0 1 18 255 11 76 0 29 0 30 31 58
4080153449691e-21 1 17 255 29 0 32 33 33 11 34 35 36 37 +18 30 77 0 33 11 38 39
 584080153449698e-21 1 29 31 219 0 11 39 40 .0053 0 -.0044 29 39 218 0 30 0 31 .
0053 670251450170263e-33 .0044 29 40 713 0 41 31 42 .0047 .00375277674973257 .00
65 18 41 315 0 43 44 45 40 206155281290291e-22 1 29 42 774 0 46 40 47 .0047 -.00
375277674973256 .0065 18 46 450 0 48 49 50 42 206155281292783e-22 1 29 47 775 0
 45 42 51 .0047 .00750555349946514 -2178932406218795e-35 18 45 342 0 52 41 53 47
 2061552812893085e-23 1 29 51 810 0 53 47 54 .0047 .00375277674973256 -.0065 18
 53 370 0 55 45 56 51 2061552812850905e-23 1 29 54 845 0 56 51 57 .0047 -.003752
77674973258 -.0065 18 56 398 0 58 53 49 54 206155281299699e-22 1 29 57 880 0 49
 54 59 .0047 -.00750555349946515 -886729144425039e-33 18 49 425 0 60 56 46 57 20
61552812894855e-23 1 29 59 1007 0 61 57 62 .0047 .00562916512459885 .00325 18 61
 236 0 63 38 64 59 ?1 29 62 1010 0 64 59 65 .0047 .00562916512459885 -.00325 18
 64 237 0 66 61 67 62 ?1 29 65 1013 0 67 62 68 .0047 433680868994202e-33 -.0065
 18 67 238 0 69 64 70 65 ?1 29 68 1016 0 70 65 71 .0047 -.00562916512459885 -.00
325 18 70 273 0 72 67 44 68 ?1 29 71 1019 0 38 68 73 .0047 -796020419445779e-33
 .0065 18 38 235 0 74 30 61 71 ?1 29 73 1020 0 44 71 75 .0047 -.0056291651245988
4 .00325 18 44 274 0 76 70 41 73 ?1 29 75 1037 0 50 73 77 .000580556583641217 .0
0375277674972965 .00649999999999494 18 50 478 0 78 46 79 75 ?1 29 77 1046 0 80 7
5 81 .000580556583641221 .0075055534994593 165693023727661e-33 18 80 517 0 82 83
 84 77 ?1 29 81 1055 0 85 77 86 .000580556583641216 .00375277674972964 -.0064999
9999999494 18 85 558 0 87 84 88 81 ?1 29 86 1064 0 89 81 90 .000580556583641221
 -.00375277674972966 -.00649999999999494 18 89 597 0 91 88 92 86 ?1 29 90 1069 0
 83 86 93 .000580556583642902 -.00375277674973548 .00649999999999494 18 83 480 0
 94 79 80 90 ?1 29 93 1074 0 95 90 96 .000580556583641226 -.00750555349945931 21
6500501402822e-33 18 95 640 0 97 92 23 93 ?1 29 96 1079 0 79 93 98 1155167163823
24e-28 299743892462785e-32 .00649999999997999 18 79 479 0 99 50 83 96 ?1 29 98 1
082 0 84 96 100 115527474632462e-28 .00562916512458152 .00324999999999 18 84 518
 0 101 80 85 98 ?1 29 100 1085 0 88 98 102 1155177169399922e-29 .005629165124581
52 -.003249999999990005 18 88 559 0 103 85 89 100 ?1 29 102 1088 0 92 100 24 115
519510751084e-28 178353294645214e-34 -.00649999999997999 18 92 598 0 104 89 95 1
02 ?1 29 24 1091 0 105 102 8 1155343157364698e-29 -.00562916512458152 .003249999
999990015 18 105 682 0 106 23 0 24 ?1 17 106 0 107 99 108 105 109 110 0 111 -18
 23 641 0 108 95 105 8 ?1 17 108 0 107 106 104 23 112 113 0 114 -15 255 107 926
 0 108 16 0 17 104 0 107 108 103 92 115 116 0 117 -17 112 0 118 91 114 92 108 11
3 0 119 +16 113 852 0 ?112 116 110 120 0 0 1 17 114 0 118 112 91 23 121 122 0 10
9 +15 118 850 0 112 123 0 17 91 0 118 114 112 89 119 124 0 121 +17 121 0 125 58
 126 89 114 122 0 127 -16 122 636 0 ?114 128 129 130 0 0 1 17 109 0 131 97 111 2
3 106 110 0 126 +15 131 885 0 109 132 0 17 97 0 131 111 109 95 126 128 0 133 +17
 111 0 131 109 97 105 133 134 0 135 +16 110 887 0 ?109 113 0 136 0 0 1 17 126 0
 125 121 137 23 97 128 0 0 -15 125 632 0 137 138 0 17 137 0 125 126 139 95 60 14
0 0 0 -16 128 635 0 ?97 140 122 141 0 0 1 16 140 634 0 ?60 142 128 143 0 0 1 38
 12 CCCCCCCCCCCA17 intersection_data204 0 Z141 1059 0 128 144 130 0 +145 18 146
 147 148 149 38 144 1054 0 142 150 141 0 +151 152 153 154 155 156 38 130 1063 0
 122 141 157 0 +145 158 159 160 161 162 50 145 645 0 138 151 163 164 +.0053 -.00
3752776749732575 -.0065 0 .866025403784438 .5 0 -.5 .866025403784438 52 255 18 8
92 0 132 158 6 165 +.000584039923069213 0 0 1 0 0 .00751158682032838 .8660254037
76712 .500000000013383 0 0 -1 40 255 2 146 0 1 2 .000580556583617393 .2810349015
11702 ??2383328786725625e-29 -.00562916512459777 -.00324999999999938 .0005805565
83641226 -.00750555349945931 -1011367081906144e-29 41 3 CI8 term_use0 0 1 cCZ1 1
47 L?2383328786725625e-29 -.00562916512459777 -.00324999999999938 41 1 148 L?.00
0580556583641226 -.00750555349945931 -1011367081906144e-29 204 2 17 INTERSECTION
_DATA17 Intersection data7 uv_type0 0 1 u6 values0 1 1 fT8 149 4 .00375277674973
256 -.00529999999997617 5.23598775598299 -.000584039923046826 .00750555349945346
 -.00471944341635877 4.71238898038604 -3483339427986725e-21 14 255 132 883 166 1
e-8 123 16 131 5 18 +0 0 16 123 25 52 158 857 0 123 152 18 167 +.000584039923069
213 0 0 1 0 0 .00751158682032838 .866025403776712 .500000000013383 0 0 -1 141 25
5 165 168 169 169 18 38 168 1073 0 134 157 170 0 +163 18 171 172 173 174 141 169
 141 165 165 18 16 134 677 0 ?111 129 175 168 0 0 1 38 157 1068 0 129 130 168 0
 +163 176 177 178 179 180 31 255 170 1076 0 175 168 181 0 +542101086242752e-33 0
 0 1 0 0 0 0 -1 .00649999999995998 50 163 686 0 182 145 183 184 +.0053 -.0075055
5349946515 0 0 .866025403784438 -.5 0 .5 .866025403784438 40 2 171 0 1 2 .000580
556583618051 .2810349015116845 ??.000580556583641225 -.00750555349945931 1011420
07635245e-28 2310632104620775e-29 -.00562916512459895 .003249999999999835 41 1 1
72 L?.000580556583641225 -.00750555349945931 101142007635245e-28 41 1 173 L?2310
632104620775e-29 -.00562916512459895 .003249999999999835 204 8 174 4 11678694410
25716e-29 -.00471944341635878 4.71238898038334 -3483339427987225e-21 .0037527767
49732385 -.00529999999997689 4.18879020478642 -.000584039923046107 14 182 671 18
5 1e-8 138 186 187 5 163 -0 0 186 138 25 52 183 725 0 186 163 176 188 +.00058403
9923069213 0 0 1 0 0 .00751158682032838 .866025403776712 .500000000013383 0 0 -1
 141 184 157 189 189 163 141 189 168 184 184 163 14 186 716 190 1e-8 182 191 192
 5 183 +0 0 191 182 25 52 176 754 0 191 183 193 194 +.000584039923069213 0 0 1 0
 0 .00751158682032838 .866025403776712 .500000000013383 0 0 -1 141 188 195 196 1
96 183 38 195 1036 0 197 198 199 0 +200 183 201 202 203 204 141 196 205 188 188
 183 38 205 1024 0 206 207 208 0 +209 183 210 211 212 213 16 206 473 0 ?78 214 2
15 205 0 0 1 31 207 1018 0 216 217 205 0 -.0047 0 0 -1 0 0 0 0 1 .0065 38 208 10
28 0 215 205 198 0 +209 176 218 219 220 221 50 209 483 0 222 223 200 224 +.0053
 .00375277674973257 .0065 0 -34668798432396e-29 -1 0 1 -34668798432396e-29 40 2
 210 0 1 2 .000580556583617392 .2810349015117015 ??238253745137259e-28 231227756
546112e-32 .00649999999999875 .000580556583641217 .00375277674972089 .0065 41 1
 211 L?238253745137259e-28 231227756546112e-32 .00649999999999875 41 1 212 L?.00
0580556583641217 .00375277674972089 .0065 204 8 213 4 -.00375277674973257 -.0052
9999999997617 3.141592653589795 -.000584039923046831 -1167902580201384e-29 -.004
71944341635878 2.61799387799284 -348333942799574e-20 14 222 468 225 1e-8 226 227
 228 5 209 -0 0 227 226 25 50 223 452 0 226 229 209 0 +.0047 .0065 0 1 0 0 0 0 -
1 50 200 522 0 227 209 230 231 +.0053 .00750555349946514 0 0 -.866025403784438 -
.5 0 .5 -.866025403784438 141 224 205 232 232 209 141 232 208 224 224 209 14 227
 507 233 1e-8 222 234 235 5 200 -0 0 234 222 25 50 230 563 0 234 200 151 236 +.0
053 .00375277674973256 -.0065 0 -.866025403784438 .5 0 -.5 -.866025403784438 141
 231 198 237 237 200 38 198 1032 0 238 208 195 0 +200 193 239 240 241 242 141 23
7 195 231 231 200 16 238 512 0 ?82 243 197 198 0 0 1 52 193 787 0 244 176 152 24
5 +.000584039923069213 0 0 1 0 0 .00751158682032838 .866025403776712 .5000000000
13383 0 0 -1 40 2 239 0 1 2 .000580556583617393 .281034901511702 ??2382763187773
47e-28 .00562916512459777 .00324999999999938 .00058055658364122 .007505553499459
3 1011405475243012e-29 41 1 240 L?238276318777347e-28 .00562916512459777 .003249
99999999938 41 1 241 L?.00058055658364122 .0075055534994593 1011405475243012e-29
 204 8 242 4 -.003752776749732575 -.00529999999997617 2.094395102393195 -.000584
03992304683 -116785679609402e-28 -.00471944341635878 1.570796326796245 -34833394
27992235e-21 14 244 778 246 1e-8 191 247 248 5 193 +0 0 247 191 25 52 152 822 0
 247 193 158 249 +.000584039923069213 0 0 1 0 0 .00751158682032838 .866025403776
712 .500000000013383 0 0 -1 141 245 250 251 251 193 38 250 1045 0 252 199 150 0
 +230 193 253 254 255 256 141 251 198 245 245 193 16 252 554 0 ?257 258 259 250
 0 0 1 38 199 1041 0 258 195 250 0 +230 152 260 261 262 263 38 150 1050 0 124 25
0 144 0 +151 158 264 265 266 267 40 2 253 0 1 2 .000580556583618047 .28103490151
16835 ??.000580556583641221 .0075055534994593 -1011373040526072e-29 231034181951
152e-28 .00562916512459895 -.003249999999999825 41 1 254 L?.000580556583641221 .
0075055534994593 -1011373040526072e-29 41 1 255 L?231034181951152e-28 .005629165
12459895 -.003249999999999825 204 8 256 4 -.00750555349945346 -.0047194434163587
8 1.57079632679355 -3483339427992235e-21 -.00375277674973277 -.0052999999999769
 1.04719755119663 -.000584039923046109 16 124 592 0 ?91 259 142 150 0 0 1 50 151
 602 0 268 230 145 269 +.0053 .00375277674973256 -.0065 0 -11556266144132e-29 1
 0 -1 -11556266144132e-29 40 2 264 0 1 2 .000580556583617394 .281034901511702 ??
238261518030519e-28 3567065927538305e-35 -.00649999999999875 .000580556583641221
 -.0037527767497209 -.0065 41 1 265 L?238261518030519e-28 3567065927538305e-35 -
.00649999999999875 41 1 266 L?.000580556583641221 -.0037527767497209 -.0065 204
 8 267 4 .00375277674973256 -.00529999999997617 548779373467537e-32 -.0005840399
23046831 .00750555349945346 -.00471944341635878 5.75958653158263 -34833394279922
35e-21 14 268 587 270 1e-8 234 138 271 5 151 -0 0 138 234 25 141 269 150 272 272
 151 141 272 144 269 269 151 81 1 270 1315 273 268 274 0 246 275 276 14 234 548
 275 1e-8 227 268 277 5 230 -0 0 268 227 25 14 138 630 278 1e-8 268 182 125 5 14
5 -0 0 182 268 25 15 271 589 0 127 268 0 13 25 3 0 0 0 0 0 0 9 279 14 279 2 280
 1e-8 0 281 282 5 283 +0 0 281 0 25 81 1 280 1318 273 279 284 0 278 285 286 14 2
81 67 285 1e-8 279 287 288 5 21 -0 0 287 279 25 15 282 1094 0 26 279 289 51 255
 283 12 0 279 0 21 0 +0 0 0 -1 0 0 .004 0 0 1 68 255 21 78 0 281 283 290 291 +29
2 .0057 0 0 1 0 0 ????0 0 -1 ?52 290 100 0 287 21 293 0 +.0596095000000219 0 0 -
1 -867361738008914e-30 0 .003999999999905415 .707106781157442 .707106781215653 8
67361738008914e-30 -1 0 141 291 294 295 295 21 31 292 83 0 1 296 297 298 +.0057
 0 -.0044 0 1 0 0 0 -1 4e-4 31 296 39 0 27 28 292 0 +.0596095 0 0 -1 0 0 0 0 1 .
004 133 255 297 173 0 33 292 299 0 +299 .0053 0 -.0044 .0053 867361737988404e-33
 .0044 0 1 141 298 21 298 298 292 17 33 0 32 29 29 30 37 300 297 34 +137 299 172
 0 1 297 36 301 +293 302 0 ?133 36 171 0 29 299 303 0 +303 .0053 867361737988404
e-33 .0044 .0053 0 -.0044 0 1 141 301 297 301 301 299 50 293 165 0 304 290 305 3
06 +.0053 .00750555349946514 -650521303491302e-33 1 0 0 0 0 -1 134 255 302 0 0 0
 0 0 0 +307 308 136 255 307 2 25 2 13 5 FFF1 309 310 311 135 255 308 2 0 45 255
 50 309 .0044 -.00750555349946514 .00439979761702658 -.00834506896006978 .004091
068524674695 -.00912517022153738 .00392711488368181 -.00953945071964792 .0036827
80249362065 -.00991327641435977 .003433791617315615 -.0102942226056734 .00311126
983722081 -.01061682333668594 .00278950540377252 -.01093866653565918 .0024077229
14894625 -.0111883337488272 .002034834277708045 -.01143218481476274 .00161961672
207224 -.01159662202413982 .000839794794491282 -.01190545227431102 -650521303491
302e-33 -.01190555349946514 -.000838748617708264 -.01190565459851772 -.001619616
72207224 -.01159662202413982 -.00203389722018331 -.01143266838314678 -.002407722
914894625 -.0111883337488272 -.002788669106207725 -.01093934511678092 -.00311126
983722081 -.01061682333668594 -.003433113036196 -.01029505890323606 -.0036827802
49362065 -.00991327641435976 -.00392663131530013 -.00954038777716794 -.004091068
524674695 -.00912517022153738 -.004399797488031455 -.00834560405153899 -.0044 -.
00750555349946514 127 255 13 310 3 2 2 2 2 2 2 2 2 2 2 2 3 128 255 13 311 0 .125
 .1875 .25 .3125 .375 .5 .625 .6875 .75 .8125 .875 1 14 304 153 312 1e-8 287 313
 314 5 293 +0 0 313 287 25 50 305 197 0 313 293 315 0 +.0603 0 0 -1 0 0 0 0 1 14
1 306 299 316 316 293 141 316 303 306 306 293 137 303 170 0 1 36 317 318 +293 31
9 0 ?133 317 178 0 34 303 294 0 +294 .0053 0 -.0044 .0053 538844591624835e-33 .0
044 0 1 141 318 36 318 318 303 134 319 0 0 0 0 0 0 +320 321 136 320 2 25 2 13 5
 FFF1 322 323 324 135 321 2 0 45 50 322 -.0044 -.00750555349946514 -.00439979761
702658 -.0066660380388605 -.004091068524674695 -.0058859367773929 -.003927114883
681085 -.00547165627928052 -.003682780249362065 -.00509783058457051 -.0034337916
17315945 -.00471688439325811 -.00311126983722081 -.00439428366224433 -.002789505
40377429 -.00407244046327195 -.00240772291489463 -.003822773250103075 -.00203483
427770238 -.00357892218416413 -.001619616722072245 -.00341448497479045 -.0008397
94794487497 -.00310565472461994 -1517883041479705e-33 -.00310555349946514 .00083
8748617705097 -.003105452400411865 .00161961672207224 -.003414484974790445 .0020
3389722018285 -.00357843861578302 .002407722914894625 -.003822773250103075 .0027
88669106206145 -.0040717618821485 .00311126983722081 -.00439428366224433 .003433
113036194615 -.00471604809569209 .003682780249362065 -.00509783058457051 .003926
631315302025 -.00547071922176523 .00409106852467469 -.0058859367773929 .00439979
7488031455 -.00666550294739485 .0044 -.00750555349946514 127 13 323 3 2 2 2 2 2
 2 2 2 2 2 2 3 128 13 324 0 .125 .1875 .25 .3125 .375 .5 .625 .6875 .75 .8125 .8
75 1 17 34 0 325 37 37 30 29 35 317 0 -137 294 179 0 1 317 326 327 +21 328 0 ?13
3 326 321 0 329 294 330 0 +330 .0047 .00375277674973257 .0065 .0047 -79602041944
5779e-33 .0065 -.00274722325026743 -.0065 141 327 317 327 327 294 134 328 0 0 0
 0 0 0 +331 332 136 331 1 2 2 2 5 FFF1 333 334 335 135 332 2 0 45 4 333 1.570796
326794895 0 1.570796326794895 3.141592653589795 127 2 334 2 2 128 2 335 0 1 16 3
29 312 0 ?336 216 337 326 0 0 1 30 255 330 320 0 1 326 338 339 -.0047 .0065 .006
5 0 1 0 133 338 319 0 337 330 340 0 +340 .0047 .00562916512459885 .00325 .0047 .
00375277674973257 .0065 -809259518678491e-33 .00375277674973256 141 339 326 339
 339 330 16 337 313 0 ?341 329 342 338 0 0 1 30 340 318 0 1 338 343 344 +.0047 .
00562916512459885 .00325 0 -.5 .866025403784439 133 343 348 0 342 340 345 0 +345
 .0047 .00750555349946514 0 .0047 .00562916512459885 .00325 0 .00375277674973257
 141 344 338 344 344 340 16 342 339 0 ?346 337 347 343 0 0 1 30 345 347 0 1 343
 348 349 +.0047 .00750555349946514 0 0 -.5 .866025403784438 133 348 346 0 347 34
5 350 0 +350 .0047 .00562916512459885 -.00325 .0047 .00750555349946514 0 5810221
93099131e-34 .00375277674973258 141 349 343 349 349 345 16 347 340 0 ?351 342 35
2 348 0 0 1 30 350 345 0 1 348 353 354 +.0047 .00562916512459885 -.00325 0 .5 .8
66025403784438 133 353 375 0 352 350 355 0 +355 .0047 433680868994202e-33 -.0065
 .0047 .00375277674973256 -.0065 -.0065 -.00274722325026744 141 354 348 354 354
 350 16 352 365 0 ?356 347 357 353 0 0 1 30 355 374 0 1 353 358 359 +.0047 .0065
 -.0065 0 1 0 133 358 373 0 357 355 360 0 +360 .0047 .00375277674973256 -.0065 .
0047 .00562916512459885 -.00325 0 .00375277674973256 141 359 353 359 359 355 16
 357 367 0 ?361 352 362 358 0 0 1 30 360 372 0 1 358 363 364 +.0047 .00375277674
973256 -.0065 0 .5 .866025403784438 133 363 404 0 362 360 365 0 +365 .0047 -.003
75277674973258 -.0065 .0047 433680868994202e-33 -.0065 -.01025277674973258 -.006
5 141 364 358 364 364 360 16 362 395 0 ?366 357 367 363 0 0 1 30 365 403 0 1 363
 368 369 +.0047 .0065 -.0065 0 1 0 133 368 402 0 367 365 370 0 +370 .0047 -.0056
2916512459885 -.00325 .0047 -.00375277674973258 -.0065 -112673594905287e-32 .003
75277674973256 141 369 363 369 369 365 16 367 396 0 ?371 362 372 368 0 0 1 30 37
0 401 0 1 368 373 374 +.0047 -.00562916512459885 -.00325 0 .5 -.86602540378444 1
33 373 431 0 372 370 375 0 +375 .0047 -.00750555349946515 -1330093716637558e-33
 .0047 -.00562916512459885 -.00325 1151894948022184e-33 .003752776749732575 141
 374 368 374 374 370 16 372 422 0 ?376 367 377 373 0 0 1 30 375 430 0 1 373 378
 379 +.0047 -.00750555349946515 0 0 .5 -.866025403784437 133 378 429 0 377 375 3
80 0 +380 .0047 -.00562916512459884 .00325 .0047 -.00750555349946515 -1330093716
637558e-33 0 .00375277674973259 141 379 373 379 379 375 16 377 423 0 ?381 372 38
2 378 0 0 1 30 380 428 0 1 378 383 384 +.0047 -.00562916512459884 .00325 0 -.5 -
.866025403784437 133 383 456 0 382 380 385 0 +385 .0047 -.00375277674973256 .006
5 .0047 -.00562916512459884 .00325 1068633729742956e-33 .00375277674973256 141 3
84 378 384 384 380 16 382 447 0 ?386 377 387 383 0 0 1 30 385 455 0 1 383 388 38
9 +.0047 -.00375277674973256 .0065 0 -.5 -.866025403784438 133 388 454 0 387 385
 390 0 +390 .0047 -796020419445779e-33 .0065 .0047 -.00375277674973256 .0065 -.0
065 -.01025277674973256 141 389 383 389 389 385 16 387 448 0 ?391 382 214 388 0
 0 1 30 390 453 0 1 388 392 393 -.0047 .0065 .0065 0 1 0 133 392 488 0 214 390 3
94 0 +394 .000580556583641217 .00375277674972965 .00649999999999494 .0047 .00375
277674973257 .0065 -.00471944341635878 -6e-4 141 393 388 393 393 390 16 214 472
 0 ?43 387 206 392 0 0 1 30 394 487 0 1 392 395 396 +.0053 .00375277674973257 .0
065 1 0 0 133 395 486 0 397 394 398 0 +398 .0047 -.00375277674973256 .0065 .0005
80556583642902 -.00375277674973548 .00649999999999494 -6e-4 -.0047194434163571 1
41 396 392 396 396 394 16 397 475 0 ?399 215 243 395 0 0 1 30 398 485 0 1 395 40
0 401 -.0053 -.00375277674973256 .0065 1 0 0 133 400 527 0 243 398 402 0 +402 .0
00580556583641221 .0075055534994593 165693023727661e-33 .0047 .00750555349946514
 -653679721865639e-34 -.00471944341635878 -6e-4 141 401 395 401 401 398 16 243 5
11 0 ?52 397 238 400 0 0 1 30 402 526 0 1 400 403 404 +.0053 .00750555349946514
 -747062539275016e-34 1 0 0 133 403 568 0 405 402 406 0 +406 .000580556583641216
 .00375277674972964 -.00649999999999494 .0047 .00375277674973256 -.0065 -.004719
44341635879 -6e-4 141 404 400 404 404 402 16 405 552 0 ?55 197 258 403 0 0 1 30
 406 567 0 1 403 407 408 +.0053 .00375277674973256 -.0065 1 0 0 133 407 607 0 25
9 406 409 0 +409 .000580556583641221 -.00375277674972966 -.00649999999999494 .00
47 -.003752776749732575 -.0065 -.00471944341635878 -6e-4 141 408 403 408 408 406
 16 259 591 0 ?58 252 124 407 0 0 1 30 409 606 0 1 407 143 410 +.0053 -.00375277
6749732575 -.0065 1 0 0 133 143 650 0 140 409 411 0 +411 .000580556583641226 -.0
0750555349945931 216500501402822e-33 .0047 -.00750555349946515 0 -.0047194434163
5877 -6e-4 141 410 407 410 410 409 30 411 649 0 1 143 412 413 +.0053 -.007505553
49946515 0 1 0 0 31 412 992 0 414 411 415 0 +.060299999999927 598913280012855e-3
3 0 -1 -867361738008914e-30 0 867361738008914e-30 -1 0 .00330950000005714 141 41
3 143 413 413 411 16 414 95 0 ?416 35 300 412 0 0 1 31 415 998 0 417 412 418 0 -
.0053 0 0 -1 0 0 0 0 1 .0065 16 417 157 0 ?419 300 420 415 0 0 1 31 418 1004 0 4
20 415 421 0 -.0047 0 0 -1 0 0 0 0 1 .0065 16 420 230 0 ?422 417 423 418 0 0 1 3
1 421 1006 0 423 418 424 0 -.0047 0 0 -1 0 0 0 0 1 .0065 16 423 231 0 ?425 420 4
26 421 0 0 1 31 424 1009 0 426 421 427 0 -.0047 0 0 -1 0 0 0 0 1 .0065 16 426 23
2 0 ?428 423 429 424 0 0 1 31 427 1012 0 429 424 217 0 -.0047 0 0 -1 0 0 0 0 1 .
0065 16 429 267 0 ?430 426 431 427 0 0 1 31 217 1015 0 431 427 207 0 -.0047 0 0
 -1 0 0 0 0 1 .0065 16 431 268 0 ?432 429 216 217 0 0 1 17 432 0 433 430 434 70
 435 431 0 0 +16 216 269 0 ?434 431 329 207 0 0 1 17 434 0 433 432 422 44 436 21
6 0 0 +15 433 1102 0 430 437 438 17 422 0 433 434 425 38 439 420 0 0 +17 436 0 4
40 391 386 38 434 216 0 336 -15 440 445 0 386 226 0 17 391 0 440 386 436 46 74 3
87 0 0 +17 386 0 440 436 391 44 441 382 0 435 +17 336 0 442 439 341 38 443 329 0
 422 +15 442 310 0 336 444 0 17 439 0 442 341 336 61 422 420 0 425 -17 341 0 442
 336 439 41 63 337 0 0 +17 443 0 228 445 74 41 336 329 0 341 -15 228 470 0 445 2
22 0 17 445 0 228 446 443 50 43 214 0 0 -17 74 0 228 443 48 38 391 387 0 436 -17
 48 0 228 74 447 46 399 397 0 441 -17 447 0 228 48 446 83 448 215 0 0 -17 399 0
 187 449 441 83 48 397 0 447 +17 441 0 187 399 76 46 386 382 0 391 -15 187 673 0
 399 182 0 17 76 0 187 441 60 44 381 377 0 386 -17 60 0 187 76 133 49 137 140 0
 139 +17 381 0 450 376 435 49 76 377 0 0 +15 450 420 0 376 451 0 17 376 0 450 43
5 381 70 139 372 0 452 +17 435 0 450 381 376 44 432 431 0 434 -17 139 0 125 137
 72 49 376 372 0 381 -17 452 0 453 371 366 70 430 429 0 432 -15 453 393 0 366 45
4 0 17 371 0 453 366 452 56 72 367 0 0 +17 366 0 453 452 371 67 455 362 0 430 +1
7 430 0 433 428 432 67 452 429 0 456 +17 428 0 433 425 430 64 456 426 0 0 +17 45
6 0 457 356 361 67 428 426 0 0 -15 457 364 0 456 458 0 17 356 0 457 361 456 53 6
9 352 0 0 +17 361 0 457 456 356 64 459 357 0 460 +17 459 0 277 461 66 53 361 357
 0 356 -17 460 0 462 351 346 64 425 423 0 428 -15 462 337 0 346 463 0 17 351 0 4
62 346 460 45 66 347 0 0 +17 346 0 462 460 351 61 464 342 0 439 +17 425 0 433 42
2 428 61 460 423 0 0 +17 464 0 235 465 63 45 346 342 0 351 -15 235 509 0 465 227
 0 17 465 0 235 466 464 80 52 243 0 0 -17 63 0 235 464 43 61 341 337 0 346 -17 4
3 0 235 63 467 41 445 214 0 443 +17 467 0 235 43 466 50 468 197 0 445 -17 466 0
 235 467 465 84 82 238 0 0 -17 468 0 192 469 78 84 467 197 0 470 +16 197 513 0 ?
468 238 405 195 0 0 1 15 192 718 0 468 186 0 17 469 0 192 78 468 79 101 175 0 44
6 +17 78 0 192 468 469 50 446 206 0 467 +17 470 0 248 82 257 84 103 471 0 466 +1
5 248 780 0 257 244 0 17 82 0 248 257 470 80 466 238 0 472 +17 257 0 248 470 82
 88 472 252 0 115 +17 103 0 107 104 101 88 470 471 0 257 -16 471 781 0 ?470 473
 116 474 0 0 1 16 473 749 0 ?135 175 471 181 0 0 1 16 116 816 0 ?115 471 113 475
 0 0 1 31 474 1081 0 471 181 475 0 +0 0 0 1 0 0 0 0 -1 .00649999999995998 31 181
 1078 0 473 170 474 0 +0 0 0 1 0 0 0 0 -1 .00649999999995998 31 475 1084 0 116 4
74 120 0 +0 0 0 1 0 0 0 0 -1 .00649999999995998 31 120 1087 0 113 475 136 0 +0 0
 0 1 0 0 0 0 -1 .00649999999995998 31 136 1090 0 110 120 19 0 +542101086242752e-
33 0 0 1 0 0 0 0 -1 .00649999999995998 133 19 1095 0 37 136 7 0 +7 .0053 5388445
91624835e-33 .0044 .0053 0 -.0044 0 1 17 37 0 325 34 34 11 33 300 19 0 -15 325 6
9 0 37 281 0 16 300 115 0 583737634262016e-21 33 414 417 0 0 0 1 17 115 0 476 87
 117 88 104 116 0 477 +15 476 815 0 117 247 0 17 87 0 476 117 115 85 477 258 0 4
78 +17 117 0 476 115 87 92 478 142 0 112 +17 477 0 277 472 461 88 87 258 0 0 -15
 277 550 0 461 234 0 17 472 0 277 52 477 80 257 252 0 465 -17 461 0 277 477 459
 85 55 405 0 0 -16 258 553 0 ?87 405 252 199 0 0 1 17 55 0 271 69 478 53 461 405
 0 459 +17 69 0 271 455 55 67 356 352 0 366 -17 478 0 271 55 119 85 117 142 0 46
1 -17 119 0 271 478 127 92 91 124 0 0 -16 142 593 0 ?117 124 140 144 0 0 1 17 12
7 0 271 119 455 89 58 259 0 0 -17 455 0 271 127 69 56 366 362 0 371 -17 58 0 125
 72 121 56 127 259 0 455 +17 72 0 125 139 58 70 371 367 0 376 -17 52 0 277 66 47
2 45 465 243 0 464 +17 66 0 277 459 52 64 351 347 0 361 -14 247 813 479 1e-8 244
 123 476 5 152 +0 0 123 244 25 81 1 479 1321 273 247 480 0 312 481 482 14 123 84
8 481 1e-8 247 132 118 5 158 +0 0 132 247 25 81 1 481 1322 273 123 483 0 479 484
 485 80 255 1 273 486 487 9000 1 1 1 1 1 1 1 1 0 FFFFTFTFFFFFFF1 81 1 483 1225 4
88 123 0 481 489 480 490 81 1 484 1323 273 16 491 0 481 492 493 82 255 1 485 999
999 14 16 924 484 1e-8 132 0 107 5 6 -0 0 0 132 25 81 1 491 1223 488 16 494 484
 0 489 495 81 1 492 1324 273 191 496 0 484 497 498 82 1 493 999999 14 191 745 49
2 1e-8 186 244 499 5 176 +0 0 244 186 25 81 1 496 1228 488 191 0 492 500 501 502
 81 1 497 1325 273 226 503 0 492 504 505 82 1 498 999999 14 226 443 497 1e-8 451
 222 440 5 223 +0 0 222 451 25 81 1 503 1236 488 226 0 497 506 507 508 81 1 504
 1326 273 451 507 0 497 509 510 82 1 505 999999 14 451 418 504 1e-8 454 226 450
 5 229 +0 0 226 454 25 81 1 507 1237 488 451 0 504 503 511 512 81 1 509 1327 273
 454 511 0 504 513 514 82 1 510 999999 14 454 391 509 1e-8 458 451 453 5 515 +0
 0 451 458 25 81 1 511 1238 488 454 0 509 507 516 517 81 1 513 1328 273 458 516
 0 509 518 519 82 1 514 999999 14 458 362 513 1e-8 463 454 457 5 520 +0 0 454 46
3 25 81 1 516 1239 488 458 0 513 511 521 522 81 1 518 1329 273 463 521 0 513 523
 524 82 1 519 999999 14 463 335 518 1e-8 444 458 462 5 525 +0 0 458 444 25 81 1
 521 1240 488 463 0 518 516 526 527 81 1 523 1330 273 444 526 0 518 528 529 82 1
 524 999999 14 444 308 523 1e-8 437 463 442 5 530 +0 0 463 437 25 81 1 526 1241
 488 444 0 523 521 531 532 81 1 528 1331 273 437 531 0 523 533 534 82 1 529 9999
99 14 437 226 528 1e-8 313 444 433 5 315 +0 0 444 313 25 81 1 531 1242 488 437 0
 528 526 535 536 81 1 533 1332 273 313 535 0 528 537 538 82 1 534 999999 14 313
 190 533 1e-8 304 437 539 5 305 -0 0 437 304 25 81 1 535 1243 488 313 0 533 531
 540 541 81 1 537 1333 273 287 542 0 533 0 543 82 1 538 999999 14 287 89 537 1e-
8 281 304 544 5 290 +0 0 304 281 25 81 1 542 1245 488 287 0 537 540 545 546 82 1
 543 999999 80 1 488 0 547 8001 0 0 0 0 3 5 0 0 0 FFFFTFTFFFFFFF2 81 1 540 1244
 488 304 0 312 535 542 548 81 1 545 1246 488 281 0 285 542 284 549 83 255 3 546
 .647058823529412 .619607843137255 .576470588235294 81 1 285 1319 273 281 545 0
 280 312 550 81 1 284 1247 488 279 0 280 545 0 551 83 3 549 .647058823529412 .61
9607843137255 .576470588235294 83 3 551 .647058823529412 .619607843137255 .57647
0588235294 81 1 312 1320 273 304 540 0 285 479 552 82 1 550 999999 82 1 552 9999
99 83 3 548 .647058823529412 .619607843137255 .576470588235294 79 255 15 547 SDL
/TYSA_COLOUR15 544 1100 0 553 287 554 17 553 0 544 553 553 0 555 27 0 0 -15 554
 91 0 416 287 0 17 416 0 554 416 416 0 556 414 0 0 +17 556 0 539 556 556 0 416 4
14 0 0 -15 539 192 0 556 313 0 17 555 0 289 555 555 0 553 27 0 0 +16 27 9 0 ?555
 10 35 296 0 0 1 16 35 73 0 583737634261315e-21 29 27 414 0 0 0 1 15 289 7 0 555
 279 0 83 3 541 .647058823529412 .619607843137255 .576470588235294 83 3 536 .647
058823529412 .619607843137255 .576470588235294 51 315 241 0 437 305 530 0 +0 0 0
 -1 0 0 .0065 0 0 1 50 530 317 0 444 315 525 0 +.0047 .0065 0 1 0 0 0 0 -1 50 52
5 344 0 463 530 520 0 +.0047 .0065 0 1 0 0 0 0 -1 50 520 371 0 458 525 515 0 +.0
047 .0065 0 1 0 0 0 0 -1 50 515 400 0 454 520 229 0 +.0047 .0065 0 1 0 0 0 0 -1
 50 229 427 0 451 515 223 0 +.0047 .0065 0 1 0 0 0 0 -1 83 3 532 .64705882352941
2 .619607843137255 .576470588235294 83 3 527 .647058823529412 .619607843137255 .
576470588235294 83 3 522 .647058823529412 .619607843137255 .576470588235294 83 3
 517 .647058823529412 .619607843137255 .576470588235294 83 3 512 .64705882352941
2 .619607843137255 .576470588235294 81 1 506 1235 488 222 0 225 557 503 558 83 3
 508 .647058823529412 .619607843137255 .576470588235294 81 1 225 1312 273 222 50
6 0 190 233 559 81 1 557 1234 488 227 0 233 560 506 561 83 3 558 .64705882352941
2 .619607843137255 .576470588235294 81 1 233 1313 273 227 557 0 225 246 562 81 1
 560 1233 488 234 0 275 274 557 563 83 3 561 .647058823529412 .619607843137255 .
576470588235294 81 1 275 1316 273 234 560 0 270 278 564 81 1 274 1232 488 268 0
 270 565 560 566 83 3 563 .647058823529412 .619607843137255 .576470588235294 81
 1 565 1231 488 138 0 278 567 274 568 83 3 566 .647058823529412 .619607843137255
 .576470588235294 81 1 278 1317 273 138 565 0 275 280 569 81 1 567 1230 488 182
 0 185 501 565 570 83 3 568 .647058823529412 .619607843137255 .576470588235294 8
1 1 185 1310 273 182 567 0 166 190 571 81 1 501 1229 488 186 0 190 496 567 572 8
3 3 570 .647058823529412 .619607843137255 .576470588235294 81 1 190 1311 273 186
 501 0 185 225 573 83 3 572 .647058823529412 .619607843137255 .576470588235294 8
2 1 573 999999 81 1 166 1309 273 132 489 0 0 185 574 82 1 571 999999 81 1 489 12
24 488 132 0 166 491 483 575 82 1 574 999999 83 3 575 .647058823529412 .61960784
3137255 .576470588235294 82 1 569 999999 82 1 564 999999 81 1 246 1314 273 244 5
00 0 233 270 576 82 1 562 999999 81 1 500 1227 488 244 0 246 480 496 577 82 1 57
6 999999 81 1 480 1226 488 247 0 479 483 500 578 83 3 577 .647058823529412 .6196
07843137255 .576470588235294 83 3 578 .647058823529412 .619607843137255 .5764705
88235294 82 1 559 999999 83 3 502 .647058823529412 .619607843137255 .57647058823
5294 15 499 747 0 135 191 0 17 135 0 499 94 448 105 99 473 0 449 +17 94 0 499 44
8 135 83 449 129 0 399 +17 448 0 499 135 94 79 447 215 0 469 +17 99 0 107 101 10
6 79 135 473 0 448 -17 449 0 187 133 399 105 94 129 0 0 -17 133 0 187 60 449 95
 111 134 0 137 -16 129 676 0 ?94 122 134 157 0 0 1 17 101 0 107 103 99 84 469 17
5 0 468 -16 175 719 0 ?469 134 473 170 0 0 1 16 215 474 0 ?448 206 397 208 0 0 1
 81 1 494 1221 579 16 0 491 0 580 581 83 3 495 .647058823529412 .619607843137255
 .576470588235294 80 1 579 582 583 8017 0 0 0 0 0 0 0 0 0 TTTTTTTTTTTTTF3 81 1 5
80 1222 579 1 584 585 494 0 586 84 255 4 581 NONE81 2 584 1212 587 1 588 580 0 0
 0 589 81 2 585 1254 590 1 580 13 0 0 0 0 84 10 586 HeadFillet80 2 590 591 592 9
000 0 0 0 0 3 5 0 0 0 FFTFFFFFFFFFFF9 1 81 2 13 1307 593 1 585 2 0 0 594 0 80 2
 593 595 596 8004 0 0 0 0 3 5 0 0 0 FFTFFFFFFFFFFF2 3 83 1 594 79e2 79 16 596 SD
L/TYSA_DENSITY79 16 592 BODY_RECIPE_200180 2 587 597 598 9000 0 0 0 0 3 5 0 0 0
 FFTFFFFFFFFFFF9 1 81 1 588 1158 599 1 600 584 0 0 601 82 1 589 1 80 1 599 602 6
03 9000 1 1 1 1 1 1 1 1 0 FFTFFFFFFFFFFF1 81 2 600 1105 604 1 605 588 0 0 0 606
 82 1 601 4231 80 2 604 607 608 9000 0 0 0 0 3 5 0 0 0 FFTFFFFFFFFFFT9 1 81 2 60
5 1104 609 1 0 600 0 0 0 610 82 1 606 102 80 2 609 611 612 9000 0 0 0 0 3 5 0 0
 0 FFTFFFFFFFFFFF9 1 82 1 610 17 79 30 612 LAST_BODY_MODIFYING_FEATURE_ID79 19 6
08 ENT_TIME_STAMP_200179 10 603 BODY_MATCH79 24 598 BODY_IN_LIGHTWEIGHT_PERM79 1
3 583 SDL/TYSA_NAME83 3 490 .647058823529412 .619607843137255 .576470588235294 7
9 14 487 SWEntUnchanged82 1 482 999999 17 446 0 228 447 445 79 78 206 0 0 -15 43
8 228 0 613 437 0 17 613 0 438 613 613 0 419 417 0 0 -17 419 0 314 419 419 0 613
 417 0 0 +15 314 155 0 419 304 32 15 32 156 0 33 304 0 31 28 33 0 10 0 296 0 -.0
057 0 0 -1 0 0 0 0 1 .004 141 295 7 291 291 21 17 26 0 282 26 26 0 614 10 0 0 +1
7 614 0 288 614 614 0 26 10 0 0 -15 288 1098 0 614 281 325 82 1 286 999999 82 1
 276 999999 40 2 260 0 1 2 .00058055658361739 .2810349015117015 ??23825718122182
9e-28 .00562916512459776 -.00324999999999938 .000580556583641216 .00375277674973
84 -.00649999999998989 41 1 261 L?238257181221829e-28 .00562916512459776 -.00324
999999999938 41 1 262 L?.000580556583641216 .0037527767497384 -.0064999999999898
9 204 8 263 4 -.00375277674973256 -.00529999999997618 1.047197551196596 -.000584
039923046831 -116780337207066e-28 -.00471944341635879 .523598775599646 -34833394
2799724e-20 141 249 144 615 615 152 141 615 199 249 249 152 141 236 199 616 616
 230 141 616 250 236 236 230 40 2 218 0 1 2 .000580556583618043 .281034901511683
 ??.000580556583641215 -.00375277674972088 .0065 2310334327646485e-29 -204971624
3573895e-31 .0065 41 1 219 L?.000580556583641215 -.00375277674972088 .0065 41 1
 220 L?2310334327646485e-29 -2049716243573895e-31 .0065 204 8 221 4 -.0075055534
9945345 -.00471944341635879 3.665191429186745 -348333942799674e-20 -.00375277674
9732775 -.0052999999999769 3.141592653589825 -.000584039923046109 40 2 201 0 1 2
 .000580556583618042 .2810349015116825 ??.000580556583641217 .00375277674973841
 .00649999999998988 2310532840405585e-29 .00562916512459875 .003250000000000185
 41 1 202 L?.000580556583641217 .00375277674973841 .00649999999998988 41 1 203 L
?2310532840405585e-29 .00562916512459875 .003250000000000185 204 8 204 4 -.00750
555349945346 -.00471944341635878 2.617993877990145 -348333942799574e-20 -.003752
77674973278 -.00529999999997689 2.09439510239323 -.000584039923046108 141 194 15
7 617 617 176 141 617 208 194 194 176 40 2 177 0 1 2 .000580556583617386 .281034
9015117005 ??2382933650721315e-29 -.00562916512459776 .00324999999999939 .000580
556583641217 -.0037527767497384 .00649999999998989 41 1 178 L?2382933650721315e-
29 -.00562916512459776 .00324999999999939 41 1 179 L?.000580556583641217 -.00375
27767497384 .00649999999998989 204 8 180 4 .003752776749732595 -.005299999999976
17 4.18879020478639 -.00058403992304683 .00750555349945347 -.00471944341635878 3
.66519142918944 -348333942799574e-20 141 167 130 618 618 158 141 618 150 167 167
 158 141 164 141 619 619 145 141 619 130 164 164 145 40 2 159 0 1 2 .00058055658
3618041 .281034901511682 ??.00058055658364122 -.003752776749738415 -.00649999999
998989 231095438936243e-28 -.00562916512459875 -.00325000000000019 41 1 160 L?.0
0058055658364122 -.003752776749738415 -.00649999999998989 41 1 161 L?23109543893
6243e-28 -.00562916512459875 -.00325000000000019 204 8 162 4 1167996971617434e-2
9 -.00471944341635878 5.75958653157994 -3483339427992235e-21 .00375277674973235
 -.00529999999997689 5.23598775598302 -.000584039923046103 40 2 153 0 1 2 .00058
0556583618042 .281034901511683 ??.000580556583641215 .003752776749720885 -.0065
 2310390215021685e-29 207808725921616e-30 -.0065 41 1 154 L?.000580556583641215
 .003752776749720885 -.0065 41 1 155 L?2310390215021685e-29 207808725921616e-30
 -.0065 204 8 156 4 1167859212114486e-29 -.00471944341635879 .523598775596951 -3
48333942799724e-20 .003752776749732355 -.0052999999999769 3197057321871015e-29 -
.000584039923046109 19 17 989 0 1 0 9 5 S0 141 20 19 20 20 7 134 22 0 0 0 0 0 0
 +620 621 136 620 1 2 2 2 5 FFF1 622 623 624 135 621 2 0 45 4 622 1.570796326794
895 3.141592653589795 1.570796326794895 6.28318530717959 127 2 623 2 2 128 2 624
 0 1 74 4 CI16 index_map_offset0 0 1 dCCZ20 15 10 0 0 605 600 588 537 584 580 28
4 585 13 2 0 0 0 0 0 0 0 0 0 0 80 2 12 625 626 9000 0 0 0 0 3 5 0 0 0 FFTFFFFFFF
FFFF9 1 82 1 14 101 79 12 626 ATOM_ID_20011 0 
