**ABCDEFGHIJKLMNOPQRSTUVWXYZabcdefghijklmnopqrstuvwxyz**************************
**PARASOLID !"#$%&'()*+,-./:;<=>?@[\]^_`{|}~0123456789**************************
**PART1;
MC=AMD64;
MC_MODEL=Intel64 Family 6 Model 142 Stepping 10, GenuineIntel;
MC_ID=unknown;
OS=Windows_NT;
OS_RELEASE=unknown;
FRU=Parasolid Version 31.0, build 282,  2-25-2019;
APPL=SOLIDWORKS 2019-2019115;
SITE=;
USER=unknown;
FORMAT=text;
GUISE=transmit;
KEY=DIN 985 - M10_;
FILE=DIN 985 - M10_.x_t;
DATE=Tue Feb  4 09:11:58 2020;
**PART2;
SCH=SCH_3100282_31001;
USFLD_SIZE=0;
**PART3;
**END_OF_HEADER*****************************************************************
T51 : TRANSMIT FILE created by modeller version 310028223 SCH_3100282_31001_1300
6215 0 12 34 CCCCCCI4 mesh1006 0 I8 polyline1008 0 CCCCCCCDI5 owner1040 0 CCCCCC
I13 boundary_mesh1006 0 I17 boundary_polyline1008 0 CCCA16 index_map_offset0 0 1
 dA9 index_map82 0 A17 node_id_index_map82 0 A20 schema_embedding_map82 0 A5 chi
ld12 0 A14 lowest_node_id0 0 1 dA16 mesh_offset_data206 0 Z1 1198 2 3 0 0 0 0 0
 0 1e3 1e-8 0 4 0 1 0 1 1 5 6 7 8 0 0 9 10 11 0 0 0 0 0 0 0 81 255 2 2 1175 12 1
 13 0 0 0 0 14 70 11 CI9 list_type0 0 1 uI10 notransmit0 0 1 lCCCDCCDI12 finger_
index0 0 1 dI12 finger_block1012 0 CZ3 0 4 T1 0 0 8 20 1 15 15 13 255 5 134 0 1
 0 16 0 0 17 0 50 255 6 127 0 16 18 0 19 +-.01 .00490747728811181 -.0085 0 .8660
25403784439 -.5 0 .5 .866025403784439 38 12 CCCCCCCCCCCA17 intersection_data204
 0 Z7 613 0 20 21 0 0 +18 22 23 24 25 26 29 255 8 612 0 11 27 0 -.0065 .00736121
593216772 .00425 19 8 CCCCCCCA5 owner12 0 Z9 40 0 1 17 0 28 V0 16 255 10 614 0 ?
29 0 20 7 20 20 1 18 255 11 610 0 30 0 31 8 ?1 17 255 30 0 32 33 34 11 35 36 0 3
7 -18 31 566 0 38 11 39 27 ?1 17 38 0 40 41 42 31 43 44 0 45 +18 39 562 0 46 31
 47 48 ?1 29 27 569 0 31 48 8 -201596113718765e-33 -.00736121593216773 -.00425 2
9 48 565 0 39 49 27 -201596113718765e-33 -.00736121593216773 .00425 29 49 561 0
 47 50 48 569397190680775e-51 -253071167326271e-33 .0085 18 47 558 0 51 39 52 49
 ?1 29 50 553 0 52 53 49 201596113718765e-33 .00736121593216773 -.00425 18 52 55
0 0 54 47 55 50 ?1 29 53 536 0 55 56 50 0 .00736121593216773 .00425 18 55 534 0
 57 52 58 53 ?1 29 56 514 0 58 59 53 -.000759189378554834 .00490747728811181 -.0
085 18 58 391 0 60 55 61 56 ?1 29 59 515 0 61 62 56 -.000759189378554834 -.00490
747728811184 -.0085 18 61 386 0 63 58 64 59 ?1 29 62 516 0 64 65 59 -.0007591893
78554834 -.00981495457622363 3469446951953615e-32 18 64 387 0 66 61 67 62 ?1 29
 65 517 0 67 68 62 -.000759189378554834 -.00490747728811181 .0085 18 67 388 0 69
 64 70 65 ?1 29 68 518 0 70 71 65 -.000759189378554834 .00490747728811182 .0085
 18 70 389 0 72 67 73 68 ?1 29 71 519 0 73 74 68 -.000759189378554833 .009814954
57622363 867361737988404e-33 18 73 390 0 75 70 76 71 ?1 29 74 521 0 76 77 71 569
397190680775e-51 -253071167326271e-33 -.0085 18 76 377 0 78 73 79 74 ?1 29 77 85
5 0 79 80 74 -.0065 .00736121593216773 -.00425 18 79 753 0 81 76 82 77 ?1 29 80
 856 0 82 83 77 -.0065 -958518816072682e-34 -.0085 18 82 732 0 84 79 85 80 ?1 29
 83 857 0 85 86 80 -.0065 -.00736121593216774 -.00425 18 85 734 0 87 82 88 83 ?1
 29 86 858 0 88 89 83 -.0065 -.00736121593216774 .00425 18 88 736 0 90 85 91 86
 ?1 29 89 859 0 91 92 86 -.0065 -958518816072682e-34 .0085 18 91 738 0 93 88 94
 89 ?1 29 92 867 0 94 95 89 -.00574081062144517 .00490747728811181 -.0085 18 94
 741 0 96 91 97 92 ?1 29 95 868 0 97 98 92 -.00574081062144517 -.004907477288111
84 -.0085 18 97 743 0 99 94 100 95 ?1 29 98 869 0 100 101 95 -.00574081062144517
 -.00981495457622363 3469446951953615e-32 18 100 744 0 102 97 103 98 ?1 29 101 8
70 0 103 104 98 -.00574081062144517 -.00490747728811181 .0085 18 103 745 0 105 1
00 106 101 ?1 29 104 871 0 106 107 101 -.00574081062144517 .00490747728811182 .0
085 18 106 746 0 108 103 109 104 ?1 29 107 872 0 109 0 104 -.00574081062144517 .
00981495457622363 867361737988404e-33 18 109 742 0 110 106 0 107 ?1 17 110 0 111
 81 37 109 112 20 0 113 +15 255 111 775 0 81 114 0 17 81 0 111 37 110 79 113 115
 0 33 +17 37 0 111 110 81 11 33 116 0 29 +17 112 0 117 118 119 11 110 20 0 0 -16
 20 611 0 ?110 10 120 7 10 10 1 17 113 0 121 75 122 109 81 115 0 119 -15 121 678
 0 113 16 0 17 75 0 121 123 113 73 119 124 0 125 +17 122 0 121 113 126 79 96 127
 0 0 -16 115 697 0 ?81 128 127 129 127 127 1 17 119 0 117 112 130 109 75 124 0 0
 -15 117 615 0 118 131 0 17 130 0 117 119 132 73 133 134 0 0 -16 124 605 0 ?75 1
35 136 137 0 0 1 16 135 608 0 ?72 138 124 139 0 0 1 16 136 195 0 ?140 124 141 14
2 0 0 1 30 255 137 133 0 124 139 21 0 +-.01 .00981495457622363 -165380268433147e
-32 1 0 0 30 139 132 0 135 143 137 0 +-.01 .00490747728811181 .0085 1 0 0 31 255
 21 235 0 144 137 7 0 -0 -253071167326271e-33 -3824008758858975e-34 1 0 0 0 0 -1
 .0085 16 144 233 0 ?145 146 147 21 120 146 1 17 145 0 148 149 150 76 151 144 0
 152 +16 146 238 0 ?54 153 144 21 144 153 1 16 147 662 0 ?60 144 154 155 0 0 1 1
6 120 254 0 ?45 20 156 21 156 144 1 17 45 0 157 158 78 31 152 120 0 159 +16 156
 250 0 ?41 120 153 21 153 120 1 17 41 0 40 42 38 39 159 156 0 160 +16 153 246 0
 ?161 156 146 21 146 156 1 17 161 0 162 163 46 47 160 153 0 164 +15 162 466 0 46
 165 0 17 163 0 162 46 161 67 166 167 0 168 +17 46 0 162 161 163 39 168 169 0 41
 +17 160 0 170 159 164 39 161 153 0 171 -17 164 0 170 160 57 47 172 128 0 166 +1
5 170 255 0 152 173 174 17 57 0 170 164 151 55 54 146 0 172 -17 172 0 175 176 51
 55 164 128 0 133 -16 128 373 0 ?164 177 115 178 0 0 1 17 166 0 179 180 69 47 16
3 167 0 0 -15 179 629 0 181 182 0 17 180 0 179 183 166 70 51 184 0 0 -17 69 0 17
9 166 181 67 185 138 0 163 +16 167 365 0 ?163 169 186 187 184 184 1 16 169 358 0
 ?46 188 167 189 190 190 1 16 186 366 0 ?150 167 191 192 191 191 1 38 187 503 0
 184 193 192 0 -194 195 196 197 198 199 16 184 364 0 ?51 191 134 187 167 167 1 1
7 51 0 175 172 176 47 180 184 0 161 +16 191 367 0 ?125 186 184 192 186 186 1 16
 134 370 0 ?133 184 177 193 177 177 1 17 133 0 200 54 125 55 130 134 0 132 +16 1
77 371 0 ?176 134 128 193 134 134 1 38 193 504 0 177 178 187 0 +18 194 201 202 2
03 204 31 178 507 0 128 129 193 0 +0 -273862518877909e-33 0 1 -2738625188779095e
-32 0 2738625188779095e-32 1 0 .0085 50 18 126 0 131 195 6 205 +-.01 .0098149545
7622363 -165380268433147e-32 0 .866025403784439 .5 0 -.5 .866025403784439 52 255
 194 486 0 206 207 208 209 --.000759189378554834 -253071167326271e-33 0 -1 27386
25188779095e-32 0 .00981495457622363 .866025403784442 .5 -2738625188779095e-32 -
1 0 40 255 3 201 0 1 3 .000879371319355349 .304723274378344 ??-.0007592560463979
57 .00981507004627747 -2000000000017135e-22 -4134147655238275e-21 .0071867304830
0841 .00455221766312541 -.000759256046397958 .00490736181805798 .0085002 41 3 CI
8 term_use0 0 1 cCZ1 202 L?-.000759256046397957 .00981507004627747 -200000000001
7135e-22 41 1 203 L?-.000759256046397958 .00490736181805798 .0085002 204 2 17 IN
TERSECTION_DATA17 Intersection data7 uv_type0 0 1 u6 values0 1 1 fT12 204 4 -230
9401076777e-19 .00924074395360205 3.14161303041839 666678431252955e-22 .00525644
818643045 .00999586585234477 2.576961521808765 -.000755055230899599 .00981518551
633131 .00924074395360205 2.0943747255646 666678431283001e-22 14 255 206 479 210
 ?165 211 175 5 194 -212 211 165 211 28 54 255 207 830 0 213 214 194 0 --.0087 0
 0 1 -2738625188779095e-32 0 .0072 .0013 2738625188779095e-32 1 0 51 255 208 210
 0 215 194 216 0 +-.00812199341312805 -514315614350057e-34 0 1 -2738625188779095
e-32 0 .005 2738625188779095e-32 1 0 141 255 209 193 217 218 194 141 217 219 220
 209 194 141 218 187 209 221 194 141 221 192 218 222 194 38 192 502 0 191 187 18
9 0 +6 194 223 224 225 226 141 222 189 221 220 194 38 189 501 0 169 192 227 0 +2
28 194 229 230 231 232 141 220 227 222 217 194 38 227 500 0 188 189 219 0 +233 1
94 234 235 236 237 16 188 361 0 ?149 238 169 227 238 238 1 38 219 499 0 239 227
 240 0 +241 194 242 243 244 245 50 233 122 0 246 247 241 248 +-.01 -.00490747728
811183 -.0085 0 0 -1 -1 0 0 40 4 234 0 1 4 .001454552016323276 .314227921893305
 ??-.004067476995136225 -.01301535297866256 -.0085 -.0004372901023971875 -.00366
7371725902015 -.0085 -602054673344661e-19 .00133552082584856 -.0085 -.0019556566
3890126 .00831010360346699 -.0085 41 1 235 L?-.004067476995136225 -.013015352978
66256 -.0085 41 1 236 L?-.00195565663890126 .00831010360346699 -.0085 204 16 237
 4 -.00593252300486378 -.00810787569055073 5.70465152457191 .00330828761658143 -
.00956270989760281 .001240105562209814 5.11971476091244 -.000321899276157648 -.0
0993979453266553 .00624299811396039 4.55654299056013 -.000698983911220372 -.0080
4434336109874 .01321758089157882 3.938286899624385 .001196467260346442 14 246 11
1 249 ?250 16 251 5 233 +0 0 250 16 28 50 247 91 0 173 216 233 0 +0 0 0 1 0 0 0
 0 -1 50 241 123 0 250 233 228 252 +-.01 -.00981495457622365 194018420908452e-32
 0 -.866025403784439 -.5 0 .5 -.866025403784439 141 248 227 253 253 233 141 253
 254 248 248 233 38 254 839 0 255 256 129 0 -22 233 257 258 259 260 16 255 701 0
 ?99 261 262 254 261 261 1 38 256 840 0 263 264 254 0 +241 22 265 266 267 268 38
 129 838 0 127 254 178 0 +6 22 269 270 271 272 52 22 832 0 273 0 214 274 --.0065
 -958518816072682e-34 0 1 -2738625188779095e-32 0 .0085 .866025403784441 .5 2738
625188779095e-32 1 0 40 4 257 0 1 4 .00145455201632328 .314227921893306 ??-.0024
32523004863765 -.01301535297866256 -.0085 -.00606270989760281 -.0036673717259020
15 -.0085 -.00643979453266553 .001335520825848562 -.0085 -.00454434336109874 .00
831010360346698 -.0085 41 1 258 L?-.002432523004863765 -.01301535297866256 -.008
5 41 1 259 L?-.00454434336109874 .00831010360346698 -.0085 204 16 260 4 3.720126
436197475 .004067476995136275 -.00756747699513624 -.00810787569055073 4.30506319
985694 .0004372901023971915 -.00393729010239719 .001240105562209814 4.8682349702
0925 602054673344667e-19 -.00356020546733447 .00624299811396039 5.48649106114499
 .00195565663890128 -.00545565663890126 .0132175808915788 14 273 822 275 ?0 213
 276 5 22 -114 277 0 213 28 51 214 831 0 278 22 207 0 --.00812199341312805 -5143
15614350057e-34 0 1 -2738625188779095e-32 0 .0085 2738625188779095e-32 1 0 141 2
74 7 279 280 22 141 279 129 281 274 22 141 280 282 274 283 22 38 282 842 0 284 2
85 264 0 +195 22 286 287 288 289 141 283 264 280 290 22 38 264 841 0 291 282 256
 0 +228 22 292 293 294 295 141 290 256 283 281 22 141 281 254 290 279 22 16 291
 707 0 ?105 296 297 264 296 296 1 50 228 124 0 298 241 195 299 +-.01 -.004907477
28811183 .0085 0 -.866025403784439 .5 0 -.5 -.866025403784439 40 3 292 0 1 3 .00
0879371319355353 .3047232743783445 ??-.00574074395360203 -.00981507004627749 -19
999999999806e-20 -.00649586585234475 -.00718673048300842 .00455221766312542 -.00
574074395360204 -.00490736181805799 .0085002 41 1 293 L?-.00574074395360203 -.00
981507004627749 -19999999999806e-20 41 1 294 L?-.00574074395360204 -.00490736181
805799 .0085002 204 12 295 4 .00981518551633132 .00425925604639797 3.14161303041
8385 .000759256046397977 .00455850638979318 .00350413414765525 2.576961521808765
 41341476552482e-19 -2309401076757525e-22 .00425925604639796 2.0943747255646 .00
0759256046397971 14 298 115 300 ?182 250 301 5 228 +0 0 182 250 28 50 195 125 0
 182 228 18 302 +-.01 .00490747728811181 .0085 0 0 1 1 0 0 141 299 189 303 303 2
28 141 303 264 299 299 228 14 182 117 304 ?131 298 179 5 195 +0 0 131 298 28 141
 302 187 305 305 195 141 305 282 302 302 195 81 1 304 1180 306 182 307 0 300 308
 309 14 131 119 308 ?310 182 117 5 18 +0 0 310 182 28 13 28 41 0 0 0 0 0 0 9 16
 14 16 121 311 ?246 0 121 5 6 +0 0 246 0 28 81 1 311 1182 306 16 312 0 308 313 3
14 80 255 1 306 315 316 9000 1 1 1 1 1 1 1 1 0 FFFFTFTFFFFFFF1 81 1 312 928 317
 16 0 311 0 318 319 81 1 308 1181 306 131 320 0 304 311 321 81 1 313 1183 306 25
0 322 0 311 323 324 82 255 1 314 1275920493 14 250 113 313 ?298 246 325 5 241 +0
 0 298 246 28 81 1 322 930 317 250 0 313 318 326 327 81 1 323 1184 306 310 328 0
 313 329 330 82 1 324 1275396205 14 310 1 323 ?173 131 331 5 216 -0 0 173 131 28
 81 1 328 934 317 310 0 323 320 332 333 81 1 329 1185 306 173 332 0 323 334 335
 82 1 330 1265959021 14 173 59 329 ?215 310 170 5 247 +0 0 215 310 28 81 1 332 9
35 317 173 0 329 328 336 337 81 1 334 1186 306 215 336 0 329 338 339 82 1 335 12
73954413 14 215 200 334 ?340 173 341 5 208 -0 0 340 173 28 81 1 336 936 317 215
 0 334 332 342 343 81 1 338 1187 306 340 342 0 334 344 345 82 1 339 1327562861 1
4 340 455 338 ?211 215 148 5 194 -165 346 211 215 28 81 1 342 937 317 340 0 338
 336 347 348 81 1 344 1188 306 211 347 0 338 349 350 82 1 345 1358889069 14 211
 467 344 ?206 340 200 5 194 -206 165 206 340 28 81 1 347 938 317 211 0 344 342 3
51 352 81 1 349 1189 306 165 353 0 344 354 355 82 1 350 1357185133 14 165 464 34
9 ?212 206 162 5 194 -211 340 212 206 28 81 1 353 940 317 165 0 349 351 356 357
 81 1 354 1190 306 212 356 0 349 358 359 82 1 355 1357643885 14 212 443 354 ?346
 165 40 5 194 -346 206 346 165 28 81 1 356 941 317 212 0 354 353 360 361 81 1 35
8 1191 306 346 360 0 354 362 363 82 1 359 1360593005 14 346 452 358 ?278 212 157
 5 194 -340 212 278 212 28 81 1 360 942 317 346 0 358 356 364 365 81 1 362 1192
 306 278 364 0 358 366 367 82 1 363 1359347821 14 278 755 362 ?114 346 368 5 214
 -0 0 114 346 28 81 1 364 943 317 278 0 362 360 369 370 81 1 366 1193 306 114 36
9 0 362 371 372 82 1 367 1401880685 14 114 773 366 ?373 278 111 5 22 -373 273 37
3 278 28 81 1 369 944 317 114 0 366 364 374 375 81 1 371 1194 306 373 374 0 366
 376 377 82 1 372 1398997101 14 373 779 371 ?378 114 379 5 22 -378 114 378 114 2
8 81 1 374 945 317 373 0 371 369 380 381 81 1 376 1195 306 378 380 0 371 382 383
 82 1 377 1398145133 14 378 785 376 ?384 373 385 5 22 -384 373 384 373 28 81 1 3
80 946 317 378 0 376 374 386 387 81 1 382 1196 306 384 386 0 376 388 389 82 1 38
3 1397293165 14 384 791 382 ?277 378 390 5 22 -277 378 277 378 28 81 1 386 947 3
17 384 0 382 380 391 392 81 1 388 1197 306 277 391 0 382 393 394 82 1 389 139644
1197 14 277 797 388 ?213 384 395 5 22 -273 384 213 384 28 81 1 391 948 317 277 0
 388 386 396 397 81 1 393 1198 306 213 396 0 388 0 398 82 1 394 1395589229 14 21
3 815 393 ?273 277 399 5 207 -0 0 273 277 28 81 1 396 949 317 213 0 393 391 400
 401 82 1 398 1341718637 80 1 317 0 402 8001 0 0 0 0 3 5 0 0 0 FFFFTFTFFFFFFF2 8
1 1 400 950 317 273 0 275 396 0 403 83 255 3 401 .647058823529412 .6196078431372
55 .588235294117647 81 1 275 1178 306 273 400 0 249 300 404 83 3 403 .6470588235
29412 .619607843137255 .588235294117647 81 1 249 1177 306 246 318 0 210 275 405
 81 1 300 1179 306 298 326 0 275 304 406 82 1 404 1340538989 81 1 326 931 317 29
8 0 300 322 307 407 82 1 406 1275527277 81 1 307 932 317 182 0 304 326 320 408 8
3 3 407 .647058823529412 .619607843137255 .588235294117647 81 1 320 933 317 131
 0 308 307 328 409 83 3 408 .647058823529412 .619607843137255 .588235294117647 8
3 3 409 .647058823529412 .619607843137255 .588235294117647 81 1 318 929 317 246
 0 249 312 322 410 81 1 210 1176 306 206 351 0 0 249 411 82 1 405 1275265133 81
 1 351 939 317 206 0 210 347 353 412 82 1 411 1333395565 83 3 412 .6470588235294
12 .619607843137255 .588235294117647 83 3 410 .647058823529412 .619607843137255
 .588235294117647 79 255 15 402 SDL/TYSA_COLOUR15 399 817 0 413 213 414 17 413 0
 399 413 413 0 415 416 0 0 -15 414 818 0 417 213 0 17 417 0 414 417 417 0 418 41
9 0 0 +17 418 0 331 418 418 0 417 419 0 0 -16 419 722 0 ?417 284 416 285 0 0 1 1
6 284 710 0 ?108 297 419 282 297 297 1 16 416 723 0 ?415 419 36 420 0 0 1 31 285
 851 0 419 420 282 0 +-.01 601853107621011e-50 0 1 -2738625188779095e-32 0 27386
25188779095e-32 1 0 .0072 31 420 852 0 416 421 285 0 +-.0087 -356021274541282e-3
4 0 1 -2738625188779095e-32 0 2738625188779095e-32 1 0 .0085 31 421 853 0 36 0 4
20 0 +-.0065 -958518816072682e-34 0 1 -2738625188779095e-32 0 2738625188779095e-
32 1 0 .0085 16 36 694 0 ?35 416 422 421 116 422 1 17 35 0 276 108 29 91 30 36 0
 423 +16 422 692 0 ?424 36 425 421 36 425 1 16 116 729 0 ?37 426 0 421 426 36 1
 16 426 686 0 ?427 428 116 421 428 116 1 17 427 0 379 96 84 79 429 426 0 122 +16
 428 688 0 ?430 425 426 421 425 426 1 17 430 0 385 99 87 82 431 428 0 432 +16 42
5 690 0 ?433 422 428 421 422 428 1 17 433 0 390 102 90 85 434 425 0 435 +15 390
 793 0 102 384 0 17 102 0 390 90 433 100 435 263 0 436 +17 90 0 390 433 102 88 4
36 296 0 434 +17 434 0 32 34 431 88 433 425 0 424 -17 435 0 325 437 438 85 102 2
63 0 0 -15 325 655 0 437 250 0 17 437 0 325 63 435 97 87 262 0 439 -17 438 0 325
 435 43 100 66 440 0 0 -16 263 704 0 ?102 262 296 256 262 262 1 16 262 703 0 ?87
 255 263 256 263 263 1 16 296 706 0 ?90 263 291 264 291 291 1 17 87 0 385 430 99
 85 437 262 0 431 +15 385 787 0 99 378 0 17 99 0 385 87 430 97 432 255 0 437 +17
 431 0 32 434 429 85 430 428 0 433 -15 32 757 0 429 278 0 17 429 0 32 431 33 82
 427 426 0 430 -17 33 0 32 429 30 79 37 116 0 427 -17 432 0 251 441 439 82 99 25
5 0 0 -15 251 668 0 441 246 0 17 441 0 251 60 432 94 84 261 0 126 -17 439 0 251
 432 442 97 63 154 0 0 -17 442 0 251 439 443 61 78 238 0 0 -17 63 0 325 444 437
 61 439 154 0 158 +16 154 649 0 ?63 147 440 445 0 0 1 16 440 636 0 ?66 154 138 4
46 0 0 1 30 445 129 0 154 155 446 0 +-.01 -.00490747728811183 -.0085 1 0 0 30 15
5 128 0 147 142 445 0 +-.01 .00490747728811181 -.0085 1 0 0 30 446 130 0 440 445
 143 0 +-.01 -.00981495457622365 194018420908452e-32 1 0 0 30 143 131 0 138 446
 139 0 +-.01 -.00490747728811183 .0085 1 0 0 16 138 623 0 ?69 440 135 143 0 0 1
 31 142 212 0 136 240 155 0 +-.01 601853107621011e-50 0 1 -2738625188779095e-32
 0 2738625188779095e-32 1 0 .005 31 240 213 0 141 219 142 0 +0 -273862518877909e
-33 0 1 -2738625188779095e-32 0 2738625188779095e-32 1 0 .005 16 141 196 0 ?447
 136 44 240 0 0 1 17 447 0 448 447 447 0 449 141 0 0 +16 44 355 0 ?38 141 239 21
9 239 239 1 16 239 356 0 ?158 44 190 219 44 44 1 17 158 0 157 78 45 61 444 239 0
 442 +16 190 359 0 ?42 239 238 189 169 169 1 17 42 0 40 38 41 64 171 190 0 43 +1
6 238 360 0 ?78 190 188 227 188 188 1 17 78 0 157 45 158 76 442 238 0 145 +15 15
7 454 0 158 346 0 15 40 445 0 38 212 0 17 171 0 301 168 66 39 42 190 0 0 -17 43
 0 325 438 444 64 38 44 0 0 -17 444 0 325 43 63 31 158 239 0 0 -15 301 642 0 436
 298 0 17 168 0 301 185 171 67 46 169 0 0 -17 66 0 301 171 436 64 438 440 0 42 +
17 436 0 301 66 450 100 90 296 0 438 -17 450 0 301 436 185 88 105 291 0 0 -17 18
5 0 301 450 168 103 69 138 0 0 -17 105 0 395 93 424 103 450 291 0 181 +15 395 79
9 0 105 277 0 17 93 0 395 424 105 91 181 297 0 34 +17 424 0 395 105 93 88 34 422
 0 450 +17 181 0 179 69 423 103 93 297 0 185 -17 423 0 179 181 183 91 108 284 0
 0 -16 297 709 0 ?93 291 284 282 284 284 1 17 183 0 179 423 180 106 72 135 0 0 -
17 108 0 276 29 35 106 423 284 0 118 +15 276 824 0 108 273 0 17 29 0 276 35 108
 11 118 10 0 112 +17 118 0 117 72 112 106 29 10 0 183 -17 72 0 117 132 118 70 18
3 135 0 176 +17 132 0 117 130 72 55 176 177 0 0 -17 176 0 175 51 172 70 132 177
 0 180 +15 175 481 0 51 206 0 17 34 0 32 30 434 91 424 422 0 35 -15 448 203 0 44
7 215 0 17 449 0 174 449 449 0 447 141 0 0 -15 174 183 0 449 173 0 17 443 0 251
 442 60 76 149 188 0 0 -17 60 0 251 443 441 58 126 147 0 149 +17 149 0 148 150 1
45 58 443 188 0 451 +15 148 457 0 149 340 0 17 150 0 148 145 149 52 451 186 0 15
1 +17 451 0 121 126 123 58 150 186 0 0 -17 126 0 121 122 451 94 60 147 0 0 -17 1
23 0 121 451 75 52 125 191 0 0 -17 125 0 200 133 54 73 123 191 0 130 +15 200 469
 0 125 211 0 17 54 0 200 125 133 52 57 146 0 150 +17 151 0 170 57 152 52 145 144
 0 123 -17 152 0 170 151 159 76 45 120 0 443 -17 159 0 170 152 160 31 41 156 0 4
44 -17 84 0 379 427 96 82 441 261 0 429 +16 261 700 0 ?84 127 255 254 255 255 1
 16 127 698 0 ?96 115 261 129 115 115 1 17 96 0 379 84 427 94 122 127 0 441 +15
 379 781 0 96 373 0 17 415 0 368 415 415 0 413 416 0 0 +15 368 884 0 415 278 32
 15 331 599 0 418 310 452 15 452 188 0 140 310 0 17 140 0 452 140 140 0 453 136
 0 0 +17 453 0 341 453 453 0 140 136 0 0 -15 341 202 0 453 215 448 83 3 397 .647
058823529412 .619607843137255 .588235294117647 83 3 392 .647058823529412 .619607
843137255 .588235294117647 83 3 387 .647058823529412 .619607843137255 .588235294
117647 83 3 381 .647058823529412 .619607843137255 .588235294117647 83 3 375 .647
058823529412 .619607843137255 .588235294117647 83 3 370 .647058823529412 .619607
843137255 .588235294117647 83 3 365 .647058823529412 .619607843137255 .588235294
117647 83 3 361 .647058823529412 .619607843137255 .588235294117647 83 3 357 .647
058823529412 .619607843137255 .588235294117647 83 3 352 .647058823529412 .619607
843137255 .588235294117647 83 3 348 .647058823529412 .619607843137255 .588235294
117647 83 3 343 .647058823529412 .619607843137255 .588235294117647 83 3 337 .647
058823529412 .619607843137255 .588235294117647 83 3 333 .647058823529412 .619607
843137255 .588235294117647 50 216 2 0 310 208 247 0 +-.01 0 0 1 0 0 0 0 -1 83 3
 327 .647058823529412 .619607843137255 .588235294117647 82 1 321 1275789421 83 3
 319 .647058823529412 .619607843137255 .588235294117647 79 14 316 SWEntUnchanged
82 1 309 1275658349 40 4 286 0 1 4 .00145455201632328 .314227921893306 ??-.00243
252300486377 -.01301535297866256 .0085 -.00606270989760281 -.00366737172590201 .
0085 -.00643979453266553 .001335520825848564 .0085 -.00454434336109874 .00831010
360346698 .0085 41 1 287 L?-.00243252300486377 -.01301535297866256 .0085 41 1 28
8 L?-.00454434336109874 .00831010360346698 .0085 204 16 289 4 .00756747699513623
 -.01792283026677435 2.563058870982115 .004067476995136275 .00393729010239719 -.
00857484901401382 1.978122107322645 .0004372901023971905 .00356020546733447 -.00
3571956462263245 1.414950336970332 602054673344667e-19 .00545565663890126 .00340
262631535517 .796694246034592 .00195565663890128 40 3 269 0 1 3 .000879371319355
351 .3047232743783445 ??-.00574074395360204 .00981507004627747 199999999998346e-
21 -.00649586585234476 .00718673048300841 -.00455221766312541 -.0057407439536020
4 .00490736181805798 -.0085002 41 1 270 L?-.00574074395360204 .00981507004627747
 199999999998346e-21 41 1 271 L?-.00574074395360204 .00490736181805798 -.0085002
 204 12 272 4 .00981518551633132 .00425925604639796 203768285939557e-19 .0007592
56046397965 .0045585063897932 .00350413414765524 5.71855417539856 41341476552401
9e-20 -230940107670982e-21 .00425925604639796 5.2359673791544 .00075925604639796
8 40 3 265 0 1 3 .000879371319355353 .3047232743783445 ??-.00574074395360203 -.0
0490736181805799 -.0085002 -.00649586585234475 -.00753570138132706 -.00394778233
6874585 -.00574074395360203 -.00981507004627749 2000000000013365e-22 41 1 266 L?
-.00574074395360203 -.00490736181805799 -.0085002 41 1 267 L?-.00574074395360203
 -.00981507004627749 2000000000013365e-22 204 12 268 4 .00981518551633132 .00425
925604639797 4.188810581614985 .000759256046397971 .00455850638979318 .003504134
14765525 3.624159073005365 4134147655249205e-21 -2309401076771255e-22 .004259256
04639797 3.1415722767612 .000759256046397977 141 252 219 454 454 241 141 454 256
 252 252 241 40 3 242 0 1 3 .000879371319355351 .304723274378344 ??-.00075925604
6397967 -.00981507004627749 2000000000019915e-22 -413414765524796e-20 -.00718673
048300842 -.00455221766312542 -.000759256046397965 -.00490736181805799 -.0085002
 41 1 243 L?-.000759256046397967 -.00981507004627749 2000000000019915e-22 41 1 2
44 L?-.000759256046397965 -.00490736181805799 -.0085002 204 12 245 4 -2309401076
776925e-22 .00924074395360204 203768285943271e-19 66667843137314e-21 .0052564481
8643046 .00999586585234476 5.71855417539856 -.000755055230899591 .00981518551633
132 .00924074395360204 5.2359673791544 666678431313047e-22 40 3 229 0 1 3 .00087
937131935535 .304723274378344 ??-.000759256046397963 -.00490736181805799 .008500
2 -4134147655247705e-21 -.00753570138132706 .003947782336874585 -.00075925604639
7967 -.00981507004627749 -19999999999806e-20 41 1 230 L?-.000759256046397963 -.0
0490736181805799 .0085002 41 1 231 L?-.000759256046397967 -.00981507004627749 -1
9999999999806e-20 204 12 232 4 -2309401076757525e-22 .00924074395360204 1.047217
92802519 666678431313047e-22 .00525644818643046 .00999586585234476 .482566419415
57 -.00075505523089959 .00981518551633132 .00924074395360204 6.28316493035099 66
667843137314e-21 40 3 223 0 1 3 .00087937131935535 .304723274378344 ??-.00075925
6046397959 .00490736181805798 -.0085002 -413414765523923e-20 .00753570138132704
 -.00394778233687459 -.000759256046397957 .00981507004627747 1999999999980945e-2
2 41 1 224 L?-.000759256046397959 .00490736181805798 -.0085002 41 1 225 L?-.0007
59256046397957 .00981507004627747 1999999999980945e-22 204 12 226 4 -23094010767
0982e-21 .00924074395360205 4.188810581614985 666678431283001e-22 .0052564481864
3045 .00999586585234477 3.624159073005365 -.000755055230899599 .0098151855163313
2 .00924074395360205 3.1415722767612 666678431252955e-22 141 205 193 455 455 18
 141 455 7 205 205 18 40 4 196 0 1 4 .001454552016323276 .314227921893305 ??-.00
4067476995136225 -.01301535297866256 .0085 -.0004372901023971865 -.0036673717259
02015 .0085 -602054673344661e-19 .001335520825848562 .0085 -.001955656638901265
 .00831010360346699 .0085 41 1 197 L?-.004067476995136225 -.01301535297866256 .0
085 41 1 198 L?-.001955656638901265 .00831010360346699 .0085 204 16 199 4 .57853
378260768 .00330828761658143 .00593252300486378 -.01792283026677435 1.1634705462
67146 -.000321899276157648 .00956270989760281 -.00857484901401383 1.726642316619
46 -.000698983911220372 .00993979453266553 -.00357195646226325 2.3448984075552 .
001196467260346442 .00804434336109874 .00340262631535518 19 17 135 0 1 0 9 5 S0
 40 3 23 0 1 3 .000879371319355352 .3047232743783445 ??-.00574074395360204 .0049
0736181805798 .0085002 -.00649586585234476 .00753570138132704 .00394778233687459
 -.00574074395360204 .00981507004627747 -2000000000009835e-22 41 1 24 L?-.005740
74395360204 .00490736181805798 .0085002 41 1 25 L?-.00574074395360204 .009815070
04627747 -2000000000009835e-22 204 12 26 4 .00981518551633131 .00425925604639796
 1.047217928025192 .000759256046397968 .00455850638979319 .00350413414765524 .48
2566419415572 413414765524019e-20 -230940107677068e-21 .00425925604639796 6.2831
6493035099 .000759256046397965 141 19 192 456 456 6 141 456 129 19 19 6 74 4 CI1
6 index_map_offset0 0 1 dCCZ20 15 8 0 0 393 400 457 458 459 460 13 2 0 0 0 0 0 0
 0 0 0 0 0 0 81 2 457 1023 461 1 0 458 0 0 0 462 81 2 458 1024 463 1 457 459 0 0
 0 464 81 2 459 1116 465 1 458 460 0 0 466 0 81 2 460 1117 467 1 459 13 0 0 0 46
8 81 2 13 1126 469 1 460 2 0 0 0 0 80 2 469 470 471 9000 0 0 0 0 3 5 0 0 0 FFTFF
FFFFFFFFF9 1 79 16 471 BODY_RECIPE_200180 2 467 472 473 9000 0 0 0 0 3 5 0 0 0 F
FTFFFFFFFFFFF9 1 82 1 468 1 79 24 473 BODY_IN_LIGHTWEIGHT_PERM80 2 465 474 475 8
004 0 0 0 0 3 5 0 0 0 FFTFFFFFFFFFFF2 3 83 1 466 79e2 79 16 475 SDL/TYSA_DENSITY
80 2 463 476 477 9000 0 0 0 0 3 5 0 0 0 FFTFFFFFFFFFFT9 1 82 1 464 109 79 19 477
 ENT_TIME_STAMP_200180 2 461 478 479 9000 0 0 0 0 3 5 0 0 0 FFTFFFFFFFFFFF9 1 82
 1 462 60 79 30 479 LAST_BODY_MODIFYING_FEATURE_ID80 2 12 480 481 9000 0 0 0 0 3
 5 0 0 0 FFTFFFFFFFFFFF9 1 82 1 14 104 79 12 481 ATOM_ID_20011 0 
