**ABCDEFGHIJKLMNOPQRSTUVWXYZabcdefghijklmnopqrstuvwxyz**************************
**PARASOLID !"#$%&'()*+,-./:;<=>?@[\]^_`{|}~0123456789**************************
**PART1;
MC=AMD64;
MC_MODEL=Intel64 Family 6 Model 142 Stepping 10, GenuineIntel;
MC_ID=unknown;
OS=Windows_NT;
OS_RELEASE=unknown;
FRU=Parasolid Version 31.0, build 282,  2-25-2019;
APPL=SOLIDWORKS 2019-2019115;
SITE=;
USER=unknown;
FORMAT=text;
GUISE=transmit;
KEY=DIN 985 - M16_;
FILE=DIN 985 - M16_.x_t;
DATE=Tue Feb  4 09:12:07 2020;
**PART2;
SCH=SCH_3100282_31001;
USFLD_SIZE=0;
**PART3;
**END_OF_HEADER*****************************************************************
T51 : TRANSMIT FILE created by modeller version 310028223 SCH_3100282_31001_1300
6215 0 12 34 CCCCCCI4 mesh1006 0 I8 polyline1008 0 CCCCCCCDI5 owner1040 0 CCCCCC
I13 boundary_mesh1006 0 I17 boundary_polyline1008 0 CCCA16 index_map_offset0 0 1
 dA9 index_map82 0 A17 node_id_index_map82 0 A20 schema_embedding_map82 0 A5 chi
ld12 0 A14 lowest_node_id0 0 1 dA16 mesh_offset_data206 0 Z1 1171 2 3 0 0 0 0 0
 0 1e3 1e-8 0 4 0 1 0 1 1 5 6 7 8 0 0 9 10 11 0 0 0 0 0 0 0 81 255 2 2 1148 12 1
 13 0 0 0 0 14 70 11 CI9 list_type0 0 1 uI10 notransmit0 0 1 lCCCDCCDI12 finger_
index0 0 1 dI12 finger_block1012 0 CZ3 0 4 T1 0 0 8 20 1 15 15 13 255 5 134 0 1
 0 16 0 0 17 0 50 255 6 127 0 16 18 0 19 +-.016 .00692820323027552 -.012 0 .8660
25403784439 -.5 0 .5 .866025403784439 38 12 CCCCCCCCCCCA17 intersection_data204
 0 Z7 613 0 20 21 0 0 +18 22 23 24 25 26 29 255 8 612 0 11 27 0 -.0105 .01039230
484541326 .006 19 8 CCCCCCCA5 owner12 0 Z9 40 0 1 17 0 28 V0 16 255 10 614 0 ?29
 0 20 7 20 20 1 18 255 11 610 0 30 0 31 8 ?1 17 255 30 0 32 33 34 11 35 36 0 37
 -18 31 566 0 38 11 39 27 ?1 17 38 0 40 41 42 31 43 44 0 45 +18 39 562 0 46 31 4
7 48 ?1 29 27 569 0 31 48 8 -67846156158192e-33 -.01039230484541326 -.006 29 48
 565 0 39 49 27 -67846156158192e-33 -.01039230484541326 .006 29 49 561 0 47 50 4
8 985354136354449e-50 1404855832603146e-33 .012 18 47 558 0 51 39 52 49 ?1 29 50
 553 0 52 53 49 67846156158192e-33 .01039230484541326 -.006 18 52 550 0 54 47 55
 50 ?1 29 53 536 0 55 56 50 0 .01039230484541326 .006 18 55 534 0 57 52 58 53 ?1
 29 56 514 0 58 59 53 -.00107179676972448 .00692820323027553 -.012 18 58 391 0 6
0 55 61 56 ?1 29 59 515 0 61 62 56 -.00107179676972448 -.00692820323027551 -.012
 18 61 386 0 63 58 64 59 ?1 29 62 516 0 64 65 59 -.00107179676972448 -.013856406
46055102 1734723475976805e-33 18 64 387 0 66 61 67 62 ?1 29 65 517 0 67 68 62 -.
00107179676972448 -.00692820323027551 .012 18 67 388 0 69 64 70 65 ?1 29 68 518
 0 70 71 65 -.00107179676972448 .00692820323027552 .012 18 70 389 0 72 67 73 68
 ?1 29 71 519 0 73 74 68 -.00107179676972448 .01385640646055102 -346944695195361
5e-33 18 73 390 0 75 70 76 71 ?1 29 74 521 0 76 77 71 456813766774845e-52 -97458
7661340128e-34 -.012 18 76 377 0 78 73 79 74 ?1 29 77 855 0 79 80 74 -.0105 .010
39230484541326 -.006 18 79 753 0 81 76 82 77 ?1 29 80 856 0 82 83 77 -.0105 -359
0674681129575e-35 -.012 18 82 732 0 84 79 85 80 ?1 29 83 857 0 85 86 80 -.0105 -
.01039230484541326 -.006 18 85 734 0 87 82 88 83 ?1 29 86 858 0 88 89 83 -.0105
 -.01039230484541326 .006 18 88 736 0 90 85 91 86 ?1 29 89 859 0 91 92 86 -.0105
 1466407851925862e-33 .012 18 91 738 0 93 88 94 89 ?1 29 92 867 0 94 95 89 -.009
42820323027552 .00692820323027553 -.012 18 94 741 0 96 91 97 92 ?1 29 95 868 0 9
7 98 92 -.00942820323027552 -.00692820323027551 -.012 18 97 743 0 99 94 100 95 ?
1 29 98 869 0 100 101 95 -.00942820323027552 -.01385640646055102 173472347597680
5e-33 18 100 744 0 102 97 103 98 ?1 29 101 870 0 103 104 98 -.00942820323027552
 -.00692820323027551 .012 18 103 745 0 105 100 106 101 ?1 29 104 871 0 106 107 1
01 -.00942820323027552 .00692820323027552 .012 18 106 746 0 108 103 109 104 ?1 2
9 107 872 0 109 0 104 -.00942820323027552 .01385640646055102 -3469446951953615e-
33 18 109 742 0 110 106 0 107 ?1 17 110 0 111 81 37 109 112 20 0 113 +15 255 111
 775 0 81 114 0 17 81 0 111 37 110 79 113 115 0 33 +17 37 0 111 110 81 11 33 116
 0 29 +17 112 0 117 118 119 11 110 20 0 0 -16 20 611 0 ?110 10 120 7 10 10 1 17
 113 0 121 75 122 109 81 115 0 119 -15 121 678 0 113 16 0 17 75 0 121 123 113 73
 119 124 0 125 +17 122 0 121 113 126 79 96 127 0 0 -16 115 697 0 ?81 128 127 129
 127 127 1 17 119 0 117 112 130 109 75 124 0 0 -15 117 615 0 118 131 0 17 130 0
 117 119 132 73 133 134 0 0 -16 124 605 0 ?75 135 136 137 0 0 1 16 135 608 0 ?72
 138 124 139 0 0 1 16 136 195 0 ?140 124 141 142 0 0 1 30 255 137 133 0 124 139
 21 0 +-.016 .01385640646055102 -3469790614744395e-33 1 0 0 30 139 132 0 135 143
 137 0 +-.016 .00692820323027552 .012 1 0 0 31 255 21 235 0 144 137 7 0 -0 -9745
87661340128e-34 -128695087726629e-33 1 0 0 0 0 -1 .012 16 144 233 0 ?145 146 147
 21 120 146 1 17 145 0 148 149 150 76 151 144 0 152 +16 146 238 0 ?54 153 144 21
 144 153 1 16 147 662 0 ?60 144 154 155 0 0 1 16 120 254 0 ?45 20 156 21 156 144
 1 17 45 0 157 158 78 31 152 120 0 159 +16 156 250 0 ?41 120 153 21 153 120 1 17
 41 0 40 42 38 39 159 156 0 160 +16 153 246 0 ?161 156 146 21 146 156 1 17 161 0
 162 163 46 47 160 153 0 164 +15 162 466 0 46 165 0 17 163 0 162 46 161 67 166 1
67 0 168 +17 46 0 162 161 163 39 168 169 0 41 +17 160 0 170 159 164 39 161 153 0
 171 -17 164 0 170 160 57 47 172 128 0 166 +15 170 255 0 152 173 174 17 57 0 170
 164 151 55 54 146 0 172 -17 172 0 175 176 51 55 164 128 0 133 -16 128 373 0 ?16
4 177 115 178 0 0 1 17 166 0 179 180 69 47 163 167 0 0 -15 179 629 0 181 182 0 1
7 180 0 179 183 166 70 51 184 0 0 -17 69 0 179 166 181 67 185 138 0 163 +16 167
 365 0 ?163 169 186 187 184 184 1 16 169 358 0 ?46 188 167 189 190 190 1 16 186
 366 0 ?150 167 191 192 191 191 1 38 187 503 0 184 193 192 0 -194 195 196 197 19
8 199 16 184 364 0 ?51 191 134 187 167 167 1 17 51 0 175 172 176 47 180 184 0 16
1 +16 191 367 0 ?125 186 184 192 186 186 1 16 134 370 0 ?133 184 177 193 177 177
 1 17 133 0 200 54 125 55 130 134 0 132 +16 177 371 0 ?176 134 128 193 134 134 1
 38 193 504 0 177 178 187 0 +18 194 201 202 203 204 31 178 507 0 128 129 193 0 +
0 -1044559907237694e-34 0 1 -652849942023559e-32 0 652849942023559e-32 1 0 .012
 50 18 126 0 131 195 6 205 +-.016 .01385640646055102 -3469790614744395e-33 0 .86
6025403784439 .5 0 -.5 .866025403784439 52 255 194 486 0 206 207 208 209 --.0010
7179676972448 -974587661340128e-34 0 -1 652849942023559e-32 0 .01385640646055102
 .866025403784441 .5 -652849942023559e-32 -1 0 40 255 3 201 0 1 3 .0012414619575
6411 .3047240831787945 ??-.001071863437224472 .01385652193060486 -2000000000035e
-19 -583819764653041e-20 .01014593542136814 .00642672435987765 -.001071863437224
47 .00692808776022168 .0120002 41 3 CI8 term_use0 0 1 cCZ1 202 L?-.0010718634372
24472 .01385652193060486 -2000000000035e-19 41 1 203 L?-.00107186343722447 .0069
2808776022168 .0120002 204 2 17 INTERSECTION_DATA17 Intersection data7 uv_type0
 0 1 u6 values0 1 1 fT12 204 4 -2309401076776745e-22 .01492813656277554 3.141607
08722624 666674999956397e-22 .00742094207836578 .0159941618023535 2.576955361322
115 -.001065958572077954 .0138566374006587 .01492813656277554 2.09438066875675 6
66674999956397e-22 14 255 206 479 210 ?165 211 175 5 194 -212 211 165 211 28 54
 255 207 830 0 213 214 194 0 --.0143 0 0 1 -652849942023559e-32 0 .0103 .0017 65
2849942023559e-32 1 0 51 255 208 210 0 215 194 216 0 +-.00812199341312805 -51431
5614350057e-34 0 1 -652849942023559e-32 0 .008 652849942023559e-32 1 0 141 255 2
09 193 217 218 194 141 217 219 220 209 194 141 218 187 209 221 194 141 221 192 2
18 222 194 38 192 502 0 191 187 189 0 +6 194 223 224 225 226 141 222 189 221 220
 194 38 189 501 0 169 192 227 0 +228 194 229 230 231 232 141 220 227 222 217 194
 38 227 500 0 188 189 219 0 +233 194 234 235 236 237 16 188 361 0 ?149 238 169 2
27 238 238 1 38 219 499 0 239 227 240 0 +241 194 242 243 244 245 50 233 122 0 24
6 247 241 248 +-.016 -.00692820323027552 -.012 0 0 -1 -1 0 0 40 4 234 0 1 4 .002
053485199515215 .3142279218933055 ??-.00574232046372173 -.01837461596987655 -.01
2 -.000617350732796022 -.00517746596597931 -.012 -849959538839478e-19 .001885441
165903855 -.012 -.002760927019625305 .01173191096960044 -.012 41 1 235 L?-.00574
232046372173 -.01837461596987655 -.012 41 1 236 L?-.002760927019625305 .01173191
096960044 -.012 204 16 237 4 -.01025767953627826 -.01144641273960102 5.704651524
57191 .00467052369399731 -.015382649267204 .00175073726429621 5.11971476091244 -
.000454446036928455 -.01591500404611605 .00881364439617938 4.55654299056013 -.00
0986800815840534 -.0132390729803747 .01866011419987595 3.938286899624385 .001689
130249900845 14 246 111 249 ?250 16 251 5 233 +0 0 250 16 28 50 247 91 0 173 216
 233 0 +0 0 0 1 0 0 0 0 -1 50 241 123 0 250 233 228 252 +-.016 -.013856406460551
02 3188081426118035e-33 0 -.866025403784439 -.5 0 .5 -.866025403784439 141 248 2
27 253 253 233 141 253 254 248 248 233 38 254 839 0 255 256 129 0 -22 233 257 25
8 259 260 16 255 701 0 ?99 261 262 254 261 261 1 38 256 840 0 263 264 254 0 +241
 22 265 266 267 268 38 129 838 0 127 254 178 0 +6 22 269 270 271 272 52 22 832 0
 273 0 214 274 --.0105 -3590674681129575e-35 0 1 -652849942023559e-32 0 .012 .86
6025403784442 .5 652849942023559e-32 1 0 40 4 257 0 1 4 .00205348519951521 .3142
27921893305 ??-.00475767953627829 -.01837461596987655 -.012 -.00988264926720398
 -.00517746596597931 -.012 -.01041500404611604 .00188544116590385 -.012 -.007739
07298037469 .01173191096960046 -.012 41 1 258 L?-.00475767953627829 -.0183746159
6987655 -.012 41 1 259 L?-.00773907298037469 .01173191096960046 -.012 204 16 260
 4 3.720126436197475 .00574232046372179 -.0112423204637217 -.01144641273960102 4
.30506319985694 .000617350732796033 -.00611735073279602 .00175073726429621 4.868
23497020925 849959538839534e-19 -.00558499595388396 .00881364439617937 5.4864910
61145 .002760927019625335 -.00826092701962531 .018660114199876 14 273 822 275 ?0
 213 276 5 22 -114 277 0 213 28 51 214 831 0 278 22 207 0 --.00812199341312805 -
514315614350057e-34 0 1 -652849942023559e-32 0 .012 652849942023559e-32 1 0 141
 274 7 279 280 22 141 279 129 281 274 22 141 280 282 274 283 22 38 282 842 0 284
 285 264 0 +195 22 286 287 288 289 141 283 264 280 290 22 38 264 841 0 291 282 2
56 0 +228 22 292 293 294 295 141 290 256 283 281 22 141 281 254 290 279 22 16 29
1 707 0 ?105 296 297 264 296 296 1 50 228 124 0 298 241 195 299 +-.016 -.0069282
0323027551 .012 0 -.866025403784439 .5 0 -.5 -.866025403784439 40 3 292 0 1 3 .0
01241461957564106 .304724083178794 ??-.00942813656277553 -.01385652193060486 -19
9999999996812e-21 -.01049416180235346 -.01014593542136812 .00642672435987766 -.0
0942813656277553 -.00692808776022167 .0120002 41 1 293 L?-.00942813656277553 -.0
1385652193060486 -199999999996812e-21 41 1 294 L?-.00942813656277553 -.006928087
76022167 .0120002 204 12 295 4 .0138566374006587 .00657186343722447 3.1416070872
2624 .001071863437224482 .00643546438218523 .00550583819764654 2.576955361322115
 58381976465268e-19 -2309401076772545e-22 .00657186343722447 2.094380668756745 .
00107186343722448 14 298 115 300 ?182 250 301 5 228 +0 0 182 250 28 50 195 125 0
 182 228 18 302 +-.016 .00692820323027552 .012 0 1251928832280966e-31 1 0 -1 125
1928832280966e-31 141 299 189 303 303 228 141 303 264 299 299 228 14 182 117 304
 ?131 298 179 5 195 +0 0 131 298 28 141 302 187 305 305 195 141 305 282 302 302
 195 81 1 304 1153 306 182 307 0 300 308 309 14 131 119 308 ?310 182 117 5 18 +0
 0 310 182 28 13 28 41 0 0 0 0 0 0 9 16 14 16 121 311 ?246 0 121 5 6 +0 0 246 0
 28 81 1 311 1155 306 16 312 0 308 313 314 80 255 1 306 315 316 9000 1 1 1 1 1 1
 1 1 0 FFFFTFTFFFFFFF1 81 1 312 928 317 16 0 311 0 318 319 81 1 308 1154 306 131
 320 0 304 311 321 81 1 313 1156 306 250 322 0 311 323 324 82 255 1 314 19502859
39 14 250 113 313 ?298 246 325 5 241 +0 0 298 246 28 81 1 322 930 317 250 0 313
 318 326 327 81 1 323 1157 306 310 328 0 313 329 330 82 1 324 1949761651 14 310
 1 323 ?173 131 331 5 216 -0 0 173 131 28 81 1 328 934 317 310 0 323 320 332 333
 81 1 329 1158 306 173 332 0 323 334 335 82 1 330 1940324467 14 173 59 329 ?215
 310 170 5 247 +0 0 215 310 28 81 1 332 935 317 173 0 329 328 336 337 81 1 334 1
159 306 215 336 0 329 338 339 82 1 335 1948319859 14 215 200 334 ?340 173 341 5
 208 -0 0 340 173 28 81 1 336 936 317 215 0 334 332 342 343 81 1 338 1160 306 34
0 342 0 334 344 345 82 1 339 2001928307 14 340 455 338 ?211 215 148 5 194 -165 3
46 211 215 28 81 1 342 937 317 340 0 338 336 347 348 81 1 344 1161 306 211 347 0
 338 349 350 82 1 345 2033254515 14 211 467 344 ?206 340 200 5 194 -206 165 206
 340 28 81 1 347 938 317 211 0 344 342 351 352 81 1 349 1162 306 165 353 0 344 3
54 355 82 1 350 2031550579 14 165 464 349 ?212 206 162 5 194 -211 340 212 206 28
 81 1 353 940 317 165 0 349 351 356 357 81 1 354 1163 306 212 356 0 349 358 359
 82 1 355 2032009331 14 212 443 354 ?346 165 40 5 194 -346 206 346 165 28 81 1 3
56 941 317 212 0 354 353 360 361 81 1 358 1164 306 346 360 0 354 362 363 82 1 35
9 2034958451 14 346 452 358 ?278 212 157 5 194 -340 212 278 212 28 81 1 360 942
 317 346 0 358 356 364 365 81 1 362 1165 306 278 364 0 358 366 367 82 1 363 2033
713267 14 278 755 362 ?114 346 368 5 214 -0 0 114 346 28 81 1 364 943 317 278 0
 362 360 369 370 81 1 366 1166 306 114 369 0 362 371 372 82 1 367 2076246131 14
 114 773 366 ?373 278 111 5 22 -373 273 373 278 28 81 1 369 944 317 114 0 366 36
4 374 375 81 1 371 1167 306 373 374 0 366 376 377 82 1 372 2073362547 14 373 779
 371 ?378 114 379 5 22 -378 114 378 114 28 81 1 374 945 317 373 0 371 369 380 38
1 81 1 376 1168 306 378 380 0 371 382 383 82 1 377 2072510579 14 378 785 376 ?38
4 373 385 5 22 -384 373 384 373 28 81 1 380 946 317 378 0 376 374 386 387 81 1 3
82 1169 306 384 386 0 376 388 389 82 1 383 2071658611 14 384 791 382 ?277 378 39
0 5 22 -277 378 277 378 28 81 1 386 947 317 384 0 382 380 391 392 81 1 388 1170
 306 277 391 0 382 393 394 82 1 389 2070806643 14 277 797 388 ?213 384 395 5 22
 -273 384 213 384 28 81 1 391 948 317 277 0 388 386 396 397 81 1 393 1171 306 21
3 396 0 388 0 398 82 1 394 2069954675 14 213 815 393 ?273 277 399 5 207 -0 0 273
 277 28 81 1 396 949 317 213 0 393 391 400 401 82 1 398 2016084083 80 1 317 0 40
2 8001 0 0 0 0 3 5 0 0 0 FFFFTFTFFFFFFF2 81 1 400 950 317 273 0 275 396 0 403 83
 255 3 401 .647058823529412 .619607843137255 .580392156862745 81 1 275 1151 306
 273 400 0 249 300 404 83 3 403 .647058823529412 .619607843137255 .5803921568627
45 81 1 249 1150 306 246 318 0 210 275 405 81 1 300 1152 306 298 326 0 275 304 4
06 82 1 404 2014904435 81 1 326 931 317 298 0 300 322 307 407 82 1 406 194989272
3 81 1 307 932 317 182 0 304 326 320 408 83 3 407 .647058823529412 .619607843137
255 .580392156862745 81 1 320 933 317 131 0 308 307 328 409 83 3 408 .6470588235
29412 .619607843137255 .580392156862745 83 3 409 .647058823529412 .6196078431372
55 .580392156862745 81 1 318 929 317 246 0 249 312 322 410 81 1 210 1149 306 206
 351 0 0 249 411 82 1 405 1949630579 81 1 351 939 317 206 0 210 347 353 412 82 1
 411 2007761011 83 3 412 .647058823529412 .619607843137255 .580392156862745 83 3
 410 .647058823529412 .619607843137255 .580392156862745 79 255 15 402 SDL/TYSA_C
OLOUR15 399 817 0 413 213 414 17 413 0 399 413 413 0 415 416 0 0 -15 414 818 0 4
17 213 0 17 417 0 414 417 417 0 418 419 0 0 +17 418 0 331 418 418 0 417 419 0 0
 -16 419 722 0 ?417 284 416 285 0 0 1 16 284 710 0 ?108 297 419 282 297 297 1 16
 416 723 0 ?415 419 36 420 0 0 1 31 285 851 0 419 420 282 0 +-.016 -601853107621
011e-50 0 1 -652849942023559e-32 0 652849942023559e-32 1 0 .0103 31 420 852 0 41
6 421 285 0 +-.0143 -110984490144005e-34 0 1 -652849942023559e-32 0 652849942023
559e-32 1 0 .012 31 421 853 0 36 0 420 0 +-.0105 -3590674681129575e-35 0 1 -6528
49942023559e-32 0 652849942023559e-32 1 0 .012 16 36 694 0 ?35 416 422 421 116 4
22 1 17 35 0 276 108 29 91 30 36 0 423 +16 422 692 0 ?424 36 425 421 36 425 1 16
 116 729 0 ?37 426 0 421 426 36 1 16 426 686 0 ?427 428 116 421 428 116 1 17 427
 0 379 96 84 79 429 426 0 122 +16 428 688 0 ?430 425 426 421 425 426 1 17 430 0
 385 99 87 82 431 428 0 432 +16 425 690 0 ?433 422 428 421 422 428 1 17 433 0 39
0 102 90 85 434 425 0 435 +15 390 793 0 102 384 0 17 102 0 390 90 433 100 435 26
3 0 436 +17 90 0 390 433 102 88 436 296 0 434 +17 434 0 32 34 431 88 433 425 0 4
24 -17 435 0 325 437 438 85 102 263 0 0 -15 325 655 0 437 250 0 17 437 0 325 63
 435 97 87 262 0 439 -17 438 0 325 435 43 100 66 440 0 0 -16 263 704 0 ?102 262
 296 256 262 262 1 16 262 703 0 ?87 255 263 256 263 263 1 16 296 706 0 ?90 263 2
91 264 291 291 1 17 87 0 385 430 99 85 437 262 0 431 +15 385 787 0 99 378 0 17 9
9 0 385 87 430 97 432 255 0 437 +17 431 0 32 434 429 85 430 428 0 433 -15 32 757
 0 429 278 0 17 429 0 32 431 33 82 427 426 0 430 -17 33 0 32 429 30 79 37 116 0
 427 -17 432 0 251 441 439 82 99 255 0 0 -15 251 668 0 441 246 0 17 441 0 251 60
 432 94 84 261 0 126 -17 439 0 251 432 442 97 63 154 0 0 -17 442 0 251 439 443 6
1 78 238 0 0 -17 63 0 325 444 437 61 439 154 0 158 +16 154 649 0 ?63 147 440 445
 0 0 1 16 440 636 0 ?66 154 138 446 0 0 1 30 445 129 0 154 155 446 0 +-.016 -.00
692820323027552 -.012 1 0 0 30 155 128 0 147 142 445 0 +-.016 .00692820323027552
 -.012 1 0 0 30 446 130 0 440 445 143 0 +-.016 -.01385640646055102 3188081426118
035e-33 1 0 0 30 143 131 0 138 446 139 0 +-.016 -.00692820323027551 .012 1 0 0 1
6 138 623 0 ?69 440 135 143 0 0 1 31 142 212 0 136 240 155 0 +-.016 -60185310762
1011e-50 0 1 -652849942023559e-32 0 652849942023559e-32 1 0 .008 31 240 213 0 14
1 219 142 0 +0 -1044559907237694e-34 0 1 -652849942023559e-32 0 652849942023559e
-32 1 0 .008 16 141 196 0 ?447 136 44 240 0 0 1 17 447 0 448 447 447 0 449 141 0
 0 +16 44 355 0 ?38 141 239 219 239 239 1 16 239 356 0 ?158 44 190 219 44 44 1 1
7 158 0 157 78 45 61 444 239 0 442 +16 190 359 0 ?42 239 238 189 169 169 1 17 42
 0 40 38 41 64 171 190 0 43 +16 238 360 0 ?78 190 188 227 188 188 1 17 78 0 157
 45 158 76 442 238 0 145 +15 157 454 0 158 346 0 15 40 445 0 38 212 0 17 171 0 3
01 168 66 39 42 190 0 0 -17 43 0 325 438 444 64 38 44 0 0 -17 444 0 325 43 63 31
 158 239 0 0 -15 301 642 0 436 298 0 17 168 0 301 185 171 67 46 169 0 0 -17 66 0
 301 171 436 64 438 440 0 42 +17 436 0 301 66 450 100 90 296 0 438 -17 450 0 301
 436 185 88 105 291 0 0 -17 185 0 301 450 168 103 69 138 0 0 -17 105 0 395 93 42
4 103 450 291 0 181 +15 395 799 0 105 277 0 17 93 0 395 424 105 91 181 297 0 34
 +17 424 0 395 105 93 88 34 422 0 450 +17 181 0 179 69 423 103 93 297 0 185 -17
 423 0 179 181 183 91 108 284 0 0 -16 297 709 0 ?93 291 284 282 284 284 1 17 183
 0 179 423 180 106 72 135 0 0 -17 108 0 276 29 35 106 423 284 0 118 +15 276 824
 0 108 273 0 17 29 0 276 35 108 11 118 10 0 112 +17 118 0 117 72 112 106 29 10 0
 183 -17 72 0 117 132 118 70 183 135 0 176 +17 132 0 117 130 72 55 176 177 0 0 -
17 176 0 175 51 172 70 132 177 0 180 +15 175 481 0 51 206 0 17 34 0 32 30 434 91
 424 422 0 35 -15 448 203 0 447 215 0 17 449 0 174 449 449 0 447 141 0 0 -15 174
 183 0 449 173 0 17 443 0 251 442 60 76 149 188 0 0 -17 60 0 251 443 441 58 126
 147 0 149 +17 149 0 148 150 145 58 443 188 0 451 +15 148 457 0 149 340 0 17 150
 0 148 145 149 52 451 186 0 151 +17 451 0 121 126 123 58 150 186 0 0 -17 126 0 1
21 122 451 94 60 147 0 0 -17 123 0 121 451 75 52 125 191 0 0 -17 125 0 200 133 5
4 73 123 191 0 130 +15 200 469 0 125 211 0 17 54 0 200 125 133 52 57 146 0 150 +
17 151 0 170 57 152 52 145 144 0 123 -17 152 0 170 151 159 76 45 120 0 443 -17 1
59 0 170 152 160 31 41 156 0 444 -17 84 0 379 427 96 82 441 261 0 429 +16 261 70
0 0 ?84 127 255 254 255 255 1 16 127 698 0 ?96 115 261 129 115 115 1 17 96 0 379
 84 427 94 122 127 0 441 +15 379 781 0 96 373 0 17 415 0 368 415 415 0 413 416 0
 0 +15 368 884 0 415 278 32 15 331 599 0 418 310 452 15 452 188 0 140 310 0 17 1
40 0 452 140 140 0 453 136 0 0 +17 453 0 341 453 453 0 140 136 0 0 -15 341 202 0
 453 215 448 83 3 397 .647058823529412 .619607843137255 .580392156862745 83 3 39
2 .647058823529412 .619607843137255 .580392156862745 83 3 387 .647058823529412 .
619607843137255 .580392156862745 83 3 381 .647058823529412 .619607843137255 .580
392156862745 83 3 375 .647058823529412 .619607843137255 .580392156862745 83 3 37
0 .647058823529412 .619607843137255 .580392156862745 83 3 365 .647058823529412 .
619607843137255 .580392156862745 83 3 361 .647058823529412 .619607843137255 .580
392156862745 83 3 357 .647058823529412 .619607843137255 .580392156862745 83 3 35
2 .647058823529412 .619607843137255 .580392156862745 83 3 348 .647058823529412 .
619607843137255 .580392156862745 83 3 343 .647058823529412 .619607843137255 .580
392156862745 83 3 337 .647058823529412 .619607843137255 .580392156862745 83 3 33
3 .647058823529412 .619607843137255 .580392156862745 50 216 2 0 310 208 247 0 +-
.016 0 0 1 0 0 0 0 -1 83 3 327 .647058823529412 .619607843137255 .58039215686274
5 82 1 321 1950154867 83 3 319 .647058823529412 .619607843137255 .58039215686274
5 79 14 316 SWEntUnchanged82 1 309 1950023795 40 4 286 0 1 4 .00205348519951516
 .3142279218933045 ??-.0047576795362781 -.0183746159698769 .012 -.00988264926720
391 -.0051774659659796 .012 -.01041500404611606 .00188544116590361 .012 -.007739
07298037486 .01173191096960004 .012 41 1 287 L?-.0047576795362781 -.018374615969
8769 .012 41 1 288 L?-.00773907298037486 .01173191096960004 .012 204 16 289 4 .0
253028192001524 .0112423204637219 2.56305887098212 .00574232046372196 .012105669
19625512 .00611735073279609 1.978122107322665 .000617350732796099 .0050427620643
7191 .00558499595388394 1.414950336970352 849959538839323e-19 -.0048037077393245
2 .00826092701962514 .796694246034609 .00276092701962517 40 3 269 0 1 3 .0012414
61957564106 .304724083178794 ??-.00942813656277553 .01385652193060486 1999999999
9653e-20 -.01049416180235346 .01014593542136812 -.00642672435987766 -.0094281365
6277553 .00692808776022168 -.0120002 41 1 270 L?-.00942813656277553 .01385652193
060486 19999999999653e-20 41 1 271 L?-.00942813656277553 .00692808776022168 -.01
20002 204 12 272 4 .0138566374006587 .00657186343722447 1443363644818414e-20 .00
1071863437224482 .00643546438218523 .00550583819764654 5.71854801491191 58381976
465268e-19 -2309401076772545e-22 .00657186343722447 5.23597332234654 .0010718634
37224482 40 3 265 0 1 3 .001241461957564104 .304724083178794 ??-.009428136562775
53 -.00692808776022168 -.0120002 -.01049416180235346 -.0106386742694584 -.005573
27564012234 -.00942813656277553 -.01385652193060486 2000000000022985e-22 41 1 26
6 L?-.00942813656277553 -.00692808776022168 -.0120002 41 1 267 L?-.0094281365627
7553 -.01385652193060486 2000000000022985e-22 204 12 268 4 .0138566374006587 .00
657186343722447 4.18880463842284 .001071863437224482 .00643546438218524 .0055058
3819764654 3.62415291251871 58381976465288e-19 -230940107676878e-21 .00657186343
722447 3.141578219953345 .001071863437224482 141 252 219 454 454 241 141 454 256
 252 252 241 40 3 242 0 1 3 .00124146195756411 .3047240831787945 ??-.00107186343
722447 -.01385652193060486 2000000000032575e-22 -583819764653039e-20 -.010145935
42136812 -.00642672435987765 -.00107186343722447 -.00692808776022168 -.0120002 4
1 1 243 L?-.00107186343722447 -.01385652193060486 2000000000032575e-22 41 1 244
 L?-.00107186343722447 -.00692808776022168 -.0120002 204 12 245 4 -2309401076777
085e-22 .01492813656277554 1443363644866966e-20 666674999956397e-22 .00742094207
836579 .0159941618023535 5.71854801491191 -.001065958572077966 .0138566374006587
 .01492813656277554 5.23597332234654 666674999956397e-22 40 3 229 0 1 3 .0012414
6195756411 .3047240831787945 ??-.00107186343722447 -.00692808776022167 .0120002
 -583819764652913e-20 -.0106386742694584 .00557327564012235 -.00107186343722447
 -.01385652193060486 -199999999997775e-21 41 1 230 L?-.00107186343722447 -.00692
808776022167 .0120002 41 1 231 L?-.00107186343722447 -.01385652193060486 -199999
999997775e-21 204 12 232 4 -2309401076772545e-22 .01492813656277554 1.0472119848
33046 66667499992635e-21 .00742094207836578 .0159941618023535 .482560258928918 -
.001065958572077958 .0138566374006587 .01492813656277554 6.28317087354314 666674
999956397e-22 40 3 223 0 1 3 .00124146195756411 .3047240831787945 ??-.0010718634
3722447 .00692808776022168 -.0120002 -583819764653132e-20 .0106386742694584 -.00
557327564012234 -.001071863437224472 .01385652193060486 1999999999963085e-22 41
 1 224 L?-.00107186343722447 .00692808776022168 -.0120002 41 1 225 L?-.001071863
437224472 .01385652193060486 1999999999963085e-22 204 12 226 4 -2309401076772545
e-22 .01492813656277554 4.18880463842284 666674999956397e-22 .00742094207836578
 .0159941618023535 3.62415291251871 -.00106595857207796 .0138566374006587 .01492
813656277554 3.141578219953345 666674999956397e-22 141 205 193 455 455 18 141 45
5 7 205 205 18 40 4 196 0 1 4 .002053485199515165 .314227921893305 ??-.005742320
46372192 -.0183746159698769 .012 -.000617350732796095 -.00517746596597961 .012 -
849959538839301e-19 .00188544116590361 .012 -.00276092701962514 .011731910969600
02 .012 41 1 197 L?-.00574232046372192 -.0183746159698769 .012 41 1 198 L?-.0027
6092701962514 .01173191096960002 .012 204 16 199 4 .578533782607672 .00467052369
399748 .0253028192001524 .01025767953627808 1.163470546267126 -.0004544460369283
87 .01210566919625512 .0153826492672039 1.72664231661944 -.000986800815840556 .0
0504276206437191 .01591500404611605 2.344898407555185 .001689130249900675 -.0048
037077393245 .01323907298037486 19 17 135 0 1 0 9 5 S0 40 3 23 0 1 3 .0012414619
57564106 .304724083178794 ??-.00942813656277553 .00692808776022168 .0120002 -.01
049416180235346 .0106386742694584 .00557327564012235 -.00942813656277553 .013856
52193060486 -2000000000035025e-22 41 1 24 L?-.00942813656277553 .006928087760221
68 .0120002 41 1 25 L?-.00942813656277553 .01385652193060486 -2000000000035025e-
22 204 12 26 4 .0138566374006587 .00657186343722447 1.047211984833046 .001071863
437224482 .00643546438218525 .00550583819764654 .482560258928918 58381976465308e
-19 -2309401076776765e-22 .00657186343722447 6.28317087354314 .00107186343722448
2 141 19 192 456 456 6 141 456 129 19 19 6 74 4 CI16 index_map_offset0 0 1 dCCZ2
0 15 8 0 0 393 400 457 458 459 460 13 2 0 0 0 0 0 0 0 0 0 0 0 0 81 2 457 1023 46
1 1 0 458 0 0 0 462 81 2 458 1024 463 1 457 459 0 0 0 464 81 2 459 1092 465 1 45
8 460 0 0 466 0 81 2 460 1093 467 1 459 13 0 0 0 468 81 2 13 1099 469 1 460 2 0
 0 0 0 80 2 469 470 471 9000 0 0 0 0 3 5 0 0 0 FFTFFFFFFFFFFF9 1 79 16 471 BODY_
RECIPE_200180 2 467 472 473 9000 0 0 0 0 3 5 0 0 0 FFTFFFFFFFFFFF9 1 82 1 468 1
 79 24 473 BODY_IN_LIGHTWEIGHT_PERM80 2 465 474 475 8004 0 0 0 0 3 5 0 0 0 FFTFF
FFFFFFFFF2 3 83 1 466 79e2 79 16 475 SDL/TYSA_DENSITY80 2 463 476 477 9000 0 0 0
 0 3 5 0 0 0 FFTFFFFFFFFFFT9 1 82 1 464 109 79 19 477 ENT_TIME_STAMP_200180 2 46
1 478 479 9000 0 0 0 0 3 5 0 0 0 FFTFFFFFFFFFFF9 1 82 1 462 60 79 30 479 LAST_BO
DY_MODIFYING_FEATURE_ID80 2 12 480 481 9000 0 0 0 0 3 5 0 0 0 FFTFFFFFFFFFFF9 1
 82 1 14 104 79 12 481 ATOM_ID_20011 0 
