**ABCDEFGHIJKLMNOPQRSTUVWXYZabcdefghijklmnopqrstuvwxyz**************************
**PARASOLID !"#$%&'()*+,-./:;<=>?@[\]^_`{|}~0123456789**************************
**PART1;
MC=AMD64;
MC_MODEL=Intel64 Family 6 Model 142 Stepping 10, GenuineIntel;
MC_ID=unknown;
OS=Windows_NT;
OS_RELEASE=unknown;
FRU=Parasolid Version 31.0, build 282,  2-25-2019;
APPL=SOLIDWORKS 2019-2019115;
SITE=;
USER=unknown;
FORMAT=text;
GUISE=transmit;
KEY=DIN 933 - M6 x 1 x 20_;
FILE=DIN 933 - M6 x 1 x 20_.x_t;
DATE=Tue Feb  4 09:11:13 2020;
**PART2;
SCH=SCH_3100282_31001;
USFLD_SIZE=0;
**PART3;
**END_OF_HEADER*****************************************************************
T51 : TRANSMIT FILE created by modeller version 310028223 SCH_3100282_31001_1300
6215 0 12 34 CCCCCCI4 mesh1006 0 I8 polyline1008 0 CCCCCCCDI5 owner1040 0 CCCCCC
I13 boundary_mesh1006 0 I17 boundary_polyline1008 0 CCCA16 index_map_offset0 0 1
 dA9 index_map82 0 A17 node_id_index_map82 0 A20 schema_embedding_map82 0 A5 chi
ld12 0 A14 lowest_node_id0 0 1 dA16 mesh_offset_data206 0 Z1 1332 2 3 0 0 0 0 0
 0 1e3 1e-8 0 4 0 1 0 1 1 5 6 7 8 0 0 9 10 11 0 0 0 0 0 0 0 81 255 2 2 1307 12 1
 13 0 0 0 0 14 70 11 CI9 list_type0 0 1 uI10 notransmit0 0 1 lCCCDCCDI12 finger_
index0 0 1 dI12 finger_block1012 0 CZ3 0 4 T1 0 0 10 20 1 15 15 13 255 5 988 0 1
 0 16 0 0 17 0 50 255 6 939 0 16 18 0 0 +0 .00577350269189626 0 1 0 0 0 0 -1 137
 255 7 1096 0 1 19 0 20 +21 22 0 ?29 255 8 1092 0 23 24 0 1313951753065662e-30 -
.00433012701892023 -.00249999999999886 19 8 CCCCCCCA5 owner12 0 Z9 5 0 1 17 0 25
 V0 16 255 10 18 0 ?26 0 27 28 0 0 1 18 255 11 76 0 29 0 30 31 714254704659715e-
21 1 17 255 29 0 32 33 33 11 34 35 36 37 +18 30 77 0 33 11 38 39 714254704659722
e-21 1 29 31 219 0 11 39 40 .004 0 -.00325 29 39 218 0 30 0 31 .004 238806125833
734e-33 .00325 29 40 713 0 41 31 42 .0035 .002886751345948125 .005 18 41 315 0 4
3 44 45 40 2061552812850905e-23 1 29 42 774 0 46 40 47 .0035 -.00288675134594812
 .005 18 46 450 0 48 49 50 42 206155281293505e-22 1 29 47 775 0 45 42 51 .0035 .
00577350269189626 -362836106162947e-33 18 45 342 0 52 41 53 47 206155281290218e-
22 1 29 51 810 0 53 47 54 .0035 .002886751345948125 -.005 18 53 370 0 55 45 56 5
1 2061552812850905e-23 1 29 54 845 0 56 51 57 .0035 -.002886751345948265 -.005 1
8 56 398 0 58 53 49 54 2061552837547885e-23 1 29 57 880 0 49 54 59 .0035 -.00577
350269189626 -922869216841223e-33 18 49 425 0 60 56 46 57 206155281300182e-22 1
 29 59 1007 0 61 57 62 .0035 .00433012701892219 .0025 18 61 236 0 63 38 64 59 ?1
 29 62 1010 0 64 59 65 .0035 .00433012701892219 -.0025 18 64 237 0 66 61 67 62 ?
1 29 65 1013 0 67 62 68 .0035 433680868994202e-33 -.005 18 67 238 0 69 64 70 65
 ?1 29 68 1016 0 70 65 71 .0035 -.004330127018922195 -.0025 18 70 273 0 72 67 44
 68 ?1 29 71 1019 0 38 68 73 .0035 -612323399573677e-33 .005 18 38 235 0 74 30 6
1 71 ?1 29 73 1020 0 44 71 75 .0035 -.004330127018922185 .0025 18 44 274 0 76 70
 41 73 ?1 29 75 1037 0 50 73 77 .000446581987394315 .00288675134594747 .00499999
999999886 18 50 478 0 78 46 79 75 ?1 29 77 1046 0 80 75 81 .000446581987394318 .
00577350269189495 2895567443812315e-34 18 80 517 0 82 83 84 77 ?1 29 81 1055 0 8
5 77 86 .0004465819873943135 .002886751345947465 -.00499999999999886 18 85 558 0
 87 84 88 81 ?1 29 86 1064 0 89 81 90 .000446581987394308 -.00288675134594763 -.
00499999999999876 18 89 597 0 91 88 92 86 ?1 29 90 1069 0 83 86 93 .000446581987
394692 -.00288675134594878 .00499999999999886 18 83 480 0 94 79 80 90 ?1 29 93 1
074 0 95 90 96 .0004465819873943185 -.00577350269189495 754659607258707e-33 18 9
5 640 0 97 92 23 93 ?1 29 96 1079 0 79 93 98 1312653460538604e-30 -1275776392328
966e-34 .00499999999999773 18 79 479 0 99 50 83 96 ?1 29 98 1082 0 84 96 100 131
3230944355792e-30 .004330127018920225 .00249999999999887 18 84 518 0 101 80 85 9
8 ?1 29 100 1085 0 88 98 102 131262649317723e-29 .00433012701892022 -.0024999999
9999887 18 88 559 0 103 85 89 100 ?1 29 102 1088 0 92 100 24 1312893212860874e-3
0 -473603991519973e-33 -.00499999999999773 18 92 598 0 104 89 95 102 ?1 29 24 10
91 0 105 102 8 1312409296894438e-30 -.004330127018920215 .002499999999998875 18
 105 682 0 106 23 0 24 ?1 17 106 0 107 99 108 105 109 110 0 111 -18 23 641 0 108
 95 105 8 ?1 17 108 0 107 106 104 23 112 113 0 114 -15 255 107 926 0 108 16 0 17
 104 0 107 108 103 92 115 116 0 117 -17 112 0 118 91 114 92 108 113 0 119 +16 11
3 852 0 ?112 116 110 120 0 0 1 17 114 0 118 112 91 23 121 122 0 109 +15 118 850
 0 112 123 0 17 91 0 118 114 112 89 119 124 0 121 +17 121 0 125 58 126 89 114 12
2 0 127 -16 122 636 0 ?114 128 129 130 0 0 1 17 109 0 131 97 111 23 106 110 0 12
6 +15 131 885 0 109 132 0 17 97 0 131 111 109 95 126 128 0 133 +17 111 0 131 109
 97 105 133 134 0 135 +16 110 887 0 ?109 113 0 136 0 0 1 17 126 0 125 121 137 23
 97 128 0 0 -15 125 632 0 137 138 0 17 137 0 125 126 139 95 60 140 0 0 -16 128 6
35 0 ?97 140 122 141 0 0 1 16 140 634 0 ?60 142 128 143 0 0 1 38 12 CCCCCCCCCCCA
17 intersection_data204 0 Z141 1059 0 128 144 130 0 +145 18 146 147 148 149 38 1
44 1054 0 142 150 141 0 +151 152 153 154 155 156 38 130 1063 0 122 141 157 0 +14
5 158 159 160 161 162 50 145 645 0 138 151 163 164 +.004 -.002886751345948135 -.
005 0 .866025403784439 .5 0 -.5 .866025403784439 52 255 18 892 0 132 158 6 165 +
.0004492614792752645 0 0 1 469096230243379e-32 0 .00577814370797114 .86602540378
0926 .500000000006084 -469096230243379e-32 1 0 40 255 2 146 0 1 2 .0004465819873
91689 .281034901506954 ??262830669322234e-29 -.0043301270189222 -.0025 .00044658
1987394318 -.00577350269189495 -227824955622774e-29 41 3 CI8 term_use0 0 1 cCZ1
 147 L?262830669322234e-29 -.0043301270189222 -.0025 41 1 148 L?.000446581987394
318 -.00577350269189495 -227824955622774e-29 204 2 17 INTERSECTION_DATA17 Inters
ection data7 uv_type0 0 1 u6 values0 1 1 fT8 149 4 .00288675134594813 -.00399999
999999737 3.66519142918809 -.0004492614792726365 .00577350269189363 -.0035534180
1260568 3.14159265359019 -267949188094688e-20 14 255 132 883 166 1e-8 123 16 131
 5 18 +0 0 16 123 25 52 158 857 0 123 152 18 167 +.0004492614792752645 0 0 1 469
096230243379e-32 0 .00577814370797114 .866025403780926 .500000000006084 -4690962
30243379e-32 1 0 141 255 165 168 169 169 18 38 168 1073 0 134 157 170 0 +163 18
 171 172 173 174 141 169 141 165 165 18 16 134 677 0 ?111 129 175 168 0 0 1 38 1
57 1068 0 129 130 168 0 +163 176 177 178 179 180 31 255 170 1076 0 175 168 181 0
 +487890977618477e-33 -2107468663215905e-36 0 1 469096230243379e-32 0 -469096230
243379e-32 1 0 .00499999999999545 50 163 686 0 182 145 183 184 +.004 -.005773502
69189626 0 0 .866025403784438 -.5 0 .5 .866025403784438 40 2 171 0 1 2 .00044658
19873916945 .2810349015069555 ??.0004465819873943185 -.00577350269189495 2279131
128773295e-30 2624360106234965e-30 -.004330127018922185 .0025 41 1 172 L?.000446
5819873943185 -.00577350269189495 2279131128773295e-30 41 1 173 L?26243601062349
65e-30 -.004330127018922185 .0025 204 8 174 4 263167933433778e-29 -.003553418012
60568 3.1415926535894 -267949188094638e-20 .002886751345948145 -.003999999999997
375 2.61799387799149 -.00044926147927264 14 182 671 185 1e-8 138 186 187 5 163 -
0 0 186 138 25 52 183 725 0 186 163 176 188 +.0004492614792752645 0 0 1 46909623
0243379e-32 0 .00577814370797114 .866025403780926 .500000000006084 -469096230243
379e-32 1 0 141 184 157 189 189 163 141 189 168 184 184 163 14 186 716 190 1e-8
 182 191 192 5 183 +0 0 191 182 25 52 176 754 0 191 183 193 194 +.00044926147927
52645 0 0 1 469096230243379e-32 0 .00577814370797114 .866025403780926 .500000000
006084 -469096230243379e-32 1 0 141 188 195 196 196 183 38 195 1036 0 197 198 19
9 0 +200 183 201 202 203 204 141 196 205 188 188 183 38 205 1024 0 206 207 208 0
 +209 183 210 211 212 213 16 206 473 0 ?78 214 215 205 0 0 1 31 207 1018 0 216 2
17 205 0 -.0035 0 0 -1 0 0 0 0 1 .005 38 208 1028 0 215 205 198 0 +209 176 218 2
19 220 221 50 209 483 0 222 223 200 224 +.004 .002886751345948125 .005 0 1502314
598737165e-31 -1 0 1 1502314598737165e-31 40 2 210 0 1 2 .0004465819873916895 .2
81034901506954 ??262529284589109e-29 -559209509588953e-33 .005 .0004465819873943
15 .002886751345945495 .005 41 1 211 L?262529284589109e-29 -559209509588953e-33
 .005 41 1 212 L?.000446581987394315 .002886751345945495 .005 204 8 213 4 -.0028
86751345948125 -.003999999999997375 1.570796326794895 -.0004492614792726395 -263
114183218782e-29 -.003553418012605685 1.047197551196992 -2679491880949885e-21 14
 222 468 225 1e-8 226 227 228 5 209 -0 0 227 226 25 50 223 452 0 226 229 209 0 +
.0035 .005 0 1 0 0 0 0 -1 50 200 522 0 227 209 230 231 +.004 .00577350269189626
 0 0 -.866025403784438 -.5 0 .5 -.866025403784438 141 224 205 232 232 209 141 23
2 208 224 224 209 14 227 507 233 1e-8 222 234 235 5 200 -0 0 234 222 25 50 230 5
63 0 234 200 151 236 +.004 .002886751345948125 -.005 0 -.866025403784438 .5 0 -.
5 -.866025403784438 141 231 198 237 237 200 38 198 1032 0 238 208 195 0 +200 193
 239 240 241 242 141 237 195 231 231 200 16 238 512 0 ?82 243 197 198 0 0 1 52 1
93 787 0 244 176 152 245 +.0004492614792752645 0 0 1 469096230243379e-32 0 .0057
7814370797114 .866025403780926 .500000000006084 -469096230243379e-32 1 0 40 2 23
9 0 1 2 .000446581987391692 .281034901506955 ??262627457230914e-29 .004330127018
92219 .0025 .0004465819873943185 .00577350269189495 2278991667586825e-30 41 1 24
0 L?262627457230914e-29 .00433012701892219 .0025 41 1 241 L?.0004465819873943185
 .00577350269189495 2278991667586825e-30 204 8 242 4 -.002886751345948135 -.0039
99999999997375 .5235987755983 -.0004492614792726385 -2631558557407455e-30 -.0035
5341801260568 3947329358287395e-28 -267949188094638e-20 14 244 778 246 1e-8 191
 247 248 5 193 +0 0 247 191 25 52 152 822 0 247 193 158 249 +.000449261479275264
5 0 0 1 469096230243379e-32 0 .00577814370797114 .866025403780926 .5000000000060
84 -469096230243379e-32 1 0 141 245 250 251 251 193 38 250 1045 0 252 199 150 0
 +230 193 253 254 255 256 141 251 198 245 245 193 16 252 554 0 ?257 258 259 250
 0 0 1 38 199 1041 0 258 195 250 0 +230 152 260 261 262 263 38 150 1050 0 124 25
0 144 0 +151 158 264 265 266 267 40 2 253 0 1 2 .000446581987391693 .28103490150
69555 ??.000446581987394318 .00577350269189495 -2278321975774855e-30 26253984917
003e-28 .00433012701892219 -.0025 41 1 254 L?.000446581987394318 .00577350269189
495 -2278321975774855e-30 41 1 255 L?26253984917003e-28 .00433012701892219 -.002
5 204 8 256 4 -.00577350269189363 -.00355341801260568 6.28318530717919 -26794918
8094638e-20 -.002886751345948125 -.003999999999997375 5.75958653158129 -.0004492
61479272639 16 124 592 0 ?91 259 142 150 0 0 1 50 151 602 0 268 230 145 269 +.00
4 .002886751345948125 -.005 0 -150231459873716e-30 1 0 -1 -150231459873716e-30 4
0 2 264 0 1 2 .0004465819873917435 .281034901506967 ??262579200735459e-29 -26615
4150169857e-34 -.005 .0004465819873943695 -.002886751345945685 -.005 41 1 265 L?
262579200735459e-29 -266154150169857e-34 -.005 41 1 266 L?.0004465819873943695 -
.002886751345945685 -.005 204 8 267 4 .002886751345948125 -.003999999999997375 4
.71238898038469 -.0004492614792726385 .00577350269189381 -.00355341801260563 4.1
8879020478676 -26794918808953e-19 14 268 587 270 1e-8 234 138 271 5 151 -0 0 138
 234 25 141 269 150 272 272 151 141 272 144 269 269 151 81 1 270 1314 273 268 27
4 0 246 275 276 14 234 548 275 1e-8 227 268 277 5 230 -0 0 268 227 25 14 138 630
 278 1e-8 268 182 125 5 145 -0 0 182 268 25 15 271 589 0 127 268 0 13 25 3 0 0 0
 0 0 0 9 279 14 279 2 280 1e-8 0 281 282 5 283 +0 0 281 0 25 81 1 280 1317 273 2
79 284 0 278 285 286 14 281 67 285 1e-8 279 287 288 5 21 -0 0 287 279 25 15 282
 1094 0 26 279 289 51 255 283 12 0 279 0 21 0 +0 0 0 -1 0 0 .003 0 0 1 68 255 21
 78 0 281 283 290 291 +292 .00425 0 0 1 0 0 ????0 0 -1 ?52 290 100 0 287 21 293
 0 +.02344549999992295 0 0 -1 0 0 .002999999999985905 .707106781150304 .70710678
1222791 0 0 1 141 291 294 295 295 21 31 292 83 0 1 296 297 298 +.00425 0 -.00325
 0 1 0 0 0 -1 25e-5 31 296 39 0 27 28 292 0 +.0234455 0 0 -1 0 0 0 0 1 .003 133
 255 297 173 0 33 292 299 0 +299 .004 0 -.00325 .004 0 .00325 0 1 141 298 21 298
 298 292 17 33 0 32 29 29 30 37 300 297 34 +137 299 172 0 1 297 36 301 +293 302
 0 ?133 36 171 0 29 299 303 0 +303 .004 0 .00325 .004 0 -.00325 0 1 141 301 297
 301 301 299 50 293 165 0 304 290 305 306 +.004 .00577350269189626 0 1 0 0 0 0 -
1 134 255 302 0 0 0 0 0 0 +307 308 136 255 307 2 17 2 9 5 FFF1 309 310 311 135 2
55 308 2 0 45 255 34 309 .00325 -.00577350269189626 .00324979759262363 -.0063936
6314514717 .0030218119784529 -.00696981049797235 .002774342181691245 -.007595196
74800846 .00229809703885628 -.00807159973075254 .00182259696284048 -.00854725739
974312 .001196307806076086 -.00879531467034916 .00062043969328586 -.009023401442
64105 0 -.00902350269189627 -.000619393507488586 -.00902360377042493 -.001196307
806076086 -.00879531467034916 -.001821694056111305 -.00854784487358759 -.0022980
9703885628 -.00807159973075254 -.002773754707847355 -.00759609965473706 -.003021
8119784529 -.00696981049797235 -.00324979741798388 -.0063941982277497 -.00325 -.
00577350269189626 127 255 9 310 3 2 2 2 2 2 2 2 3 128 255 9 311 0 .125 .25 .375
 .5 .625 .75 .875 1 14 304 153 312 1e-8 287 313 314 5 293 +0 0 313 287 25 50 305
 197 0 313 293 315 0 +.024 0 0 -1 0 0 0 0 1 141 306 299 316 316 293 141 316 303
 306 306 293 137 303 170 0 1 36 317 318 +293 319 0 ?133 317 178 0 34 303 294 0 +
294 .004 0 -.00325 .004 39801020972289e-32 .00325 0 1 141 318 36 318 318 303 134
 319 0 0 0 0 0 0 +320 321 136 320 2 17 2 9 5 FFF1 322 323 324 135 321 2 0 45 34
 322 -.00325 -.00577350269189626 -.00324979759262363 -.00515334223864432 -.00302
18119784529 -.00457719488582018 -.002774342181690865 -.003951808635784225 -.0022
9809703885628 -.003475405653039985 -.001822596962840895 -.002999747984049275 -.0
0119630780607609 -.002751690713443365 -.00062043969328453 -.002523603941151225 -
433680868994202e-33 -.00252350269189626 .000619393507489343 -.002523401613367855
 .001196307806076088 -.002751690713443365 .00182169405611139 -.00299916051020502
5 .00229809703885628 -.003475405653039985 .00277375470784728 -.00395090572905539
5 .0030218119784529 -.00457719488582018 .00324979741798388 -.00515280715604271 .
00325 -.00577350269189626 127 9 323 3 2 2 2 2 2 2 2 3 128 9 324 0 .125 .25 .375
 .5 .625 .75 .875 1 17 34 0 325 37 37 30 29 35 317 0 -137 294 179 0 1 317 326 32
7 +21 328 0 ?133 326 321 0 329 294 330 0 +330 .0035 .002886751345948125 .005 .00
35 -612323399573677e-33 .005 -.002113248654051875 -.005 141 327 317 327 327 294
 134 328 0 0 0 0 0 0 +331 332 136 331 1 2 2 2 5 FFF1 333 334 335 135 332 2 0 45
 4 333 1.570796326794895 0 1.570796326794895 3.141592653589795 127 2 334 2 2 128
 2 335 0 1 16 329 312 0 ?336 216 337 326 0 0 1 30 255 330 320 0 1 326 338 339 -.
0035 .005 .005 0 1 0 133 338 319 0 337 330 340 0 +340 .0035 .00433012701892219 .
0025 .0035 .002886751345948125 .005 -4336808689942025e-34 .002886751345948125 14
1 339 326 339 339 330 16 337 313 0 ?341 329 342 338 0 0 1 30 340 318 0 1 338 343
 344 +.0035 .00433012701892219 .0025 0 -.5 .866025403784438 133 343 348 0 342 34
0 345 0 +345 .0035 .00577350269189626 -571152195897707e-33 .0035 .00433012701892
219 .0025 -609514420804775e-34 .00288675134594814 141 344 338 344 344 340 16 342
 339 0 ?346 337 347 343 0 0 1 30 345 347 0 1 343 348 349 +.0035 .005773502691896
26 0 0 -.5 .866025403784438 133 348 346 0 347 345 350 0 +350 .0035 .004330127018
92219 -.0025 .0035 .00577350269189626 -571152195897707e-33 -3755786496842895e-34
 .00288675134594814 141 349 343 349 349 345 16 347 340 0 ?351 342 352 348 0 0 1
 30 350 345 0 1 348 353 354 +.0035 .00433012701892219 -.0025 0 .5 .8660254037844
38 133 353 375 0 352 350 355 0 +355 .0035 433680868994202e-33 -.005 .0035 .00288
6751345948125 -.005 -.005 -.002113248654051875 141 354 348 354 354 350 16 352 36
5 0 ?356 347 357 353 0 0 1 30 355 374 0 1 353 358 359 +.0035 .005 -.005 0 1 0 13
3 358 373 0 357 355 360 0 +360 .0035 .002886751345948125 -.005 .0035 .0043301270
1892219 -.0025 0 .002886751345948125 141 359 353 359 359 355 16 357 367 0 ?361 3
52 362 358 0 0 1 30 360 372 0 1 358 363 364 +.0035 .002886751345948125 -.005 0 .
5 .866025403784438 133 363 404 0 362 360 365 0 +365 .0035 -.002886751345948135 -
.005 .0035 433680868994202e-33 -.005 -.00788675134594814 -.005 141 364 358 364 3
64 360 16 362 395 0 ?366 357 367 363 0 0 1 30 365 403 0 1 363 368 369 +.0035 .00
5 -.005 0 1 0 133 368 402 0 367 365 370 0 +370 .0035 -.004330127018922195 -.0025
 .0035 -.002886751345948135 -.005 3755786496842905e-34 .00288675134594813 141 36
9 363 369 369 365 16 367 396 0 ?371 362 372 368 0 0 1 30 370 401 0 1 368 373 374
 +.0035 -.004330127018922195 -.0025 0 .5 -.86602540378444 133 373 431 0 372 370
 375 0 +375 .0035 -.00577350269189626 -1817984694256035e-33 .0035 -.004330127018
922195 -.0025 38958276055423e-32 .00288675134594813 141 374 368 374 374 370 16 3
72 422 0 ?376 367 377 373 0 0 1 30 375 430 0 1 373 378 379 +.0035 -.005773502691
89626 -867361737988404e-33 0 .5 -.866025403784438 133 378 429 0 377 375 380 0 +3
80 .0035 -.004330127018922185 .0025 .0035 -.00577350269189626 -1817984694256035e
-33 693055080058665e-33 .002886751345948145 141 379 373 379 379 375 16 377 423 0
 ?381 372 382 378 0 0 1 30 380 428 0 1 378 383 384 +.0035 -.004330127018922185 .
0025 0 -.5 -.866025403784438 133 383 456 0 382 380 385 0 +385 .0035 -.0028867513
4594812 .005 .0035 -.004330127018922185 .0025 433680868994204e-33 .0028867513459
4812 141 384 378 384 384 380 16 382 447 0 ?386 377 387 383 0 0 1 30 385 455 0 1
 383 388 389 +.0035 -.00288675134594812 .005 0 -.5 -.866025403784437 133 388 454
 0 387 385 390 0 +390 .0035 -612323399573677e-33 .005 .0035 -.00288675134594812
 .005 -.005 -.00788675134594812 141 389 383 389 389 385 16 387 448 0 ?391 382 21
4 388 0 0 1 30 390 453 0 1 388 392 393 -.0035 .005 .005 0 1 0 133 392 488 0 214
 390 394 0 +394 .000446581987394315 .00288675134594747 .00499999999999886 .0035
 .002886751345948125 .005 -.003553418012605685 -5e-4 141 393 388 393 393 390 16
 214 472 0 ?43 387 206 392 0 0 1 30 394 487 0 1 392 395 396 +.004 .0028867513459
48125 .005 1 0 0 133 395 486 0 397 394 398 0 +398 .0035 -.00288675134594812 .005
 .000446581987394692 -.00288675134594878 .00499999999999886 -5e-4 -.003553418012
60531 141 396 392 396 396 394 16 397 475 0 ?399 215 243 395 0 0 1 30 398 485 0 1
 395 400 401 -.004 -.00288675134594812 .005 1 0 0 133 400 527 0 243 398 402 0 +4
02 .000446581987394318 .00577350269189495 2895567443812315e-34 .0035 .0057735026
9189626 537960733065735e-34 -.00355341801260568 -5e-4 141 401 395 401 401 398 16
 243 511 0 ?52 397 238 400 0 0 1 30 402 526 0 1 400 403 404 +.004 .0057735026918
9626 614812266360841e-34 1 0 0 133 403 568 0 405 402 406 0 +406 .000446581987394
3135 .002886751345947465 -.00499999999999886 .0035 .002886751345948125 -.005 -.0
03553418012605685 -5e-4 141 404 400 404 404 402 16 405 552 0 ?55 197 258 403 0 0
 1 30 406 567 0 1 403 407 408 +.004 .002886751345948125 -.005 1 0 0 133 407 607
 0 259 406 409 0 +409 .000446581987394308 -.00288675134594763 -.0049999999999987
6 .0035 -.00288675134594852 -.005 -.00355341801260569 -5e-4 141 408 403 408 408
 406 16 259 591 0 ?58 252 124 407 0 0 1 30 409 606 0 1 407 143 410 +.004 -.00288
675134594852 -.005 1 0 0 133 143 650 0 140 409 411 0 +411 .0004465819873943185 -
.00577350269189495 754659607258707e-33 .0035 -.00577350269189626 867361737988404
e-33 -.00355341801260568 -5e-4 141 410 407 410 410 409 30 411 649 0 1 143 412 41
3 +.004 -.00577350269189626 867361737988404e-33 1 0 0 31 412 992 0 414 411 415 0
 +.0240000000000009 0 0 -1 0 0 0 0 1 .002445499999964795 141 413 143 413 413 411
 16 414 95 0 ?416 35 300 412 0 0 1 31 415 998 0 417 412 418 0 -.004 0 0 -1 0 0 0
 0 1 .005 16 417 157 0 ?419 300 420 415 0 0 1 31 418 1004 0 420 415 421 0 -.0035
 0 0 -1 0 0 0 0 1 .005 16 420 230 0 ?422 417 423 418 0 0 1 31 421 1006 0 423 418
 424 0 -.0035 0 0 -1 0 0 0 0 1 .005 16 423 231 0 ?425 420 426 421 0 0 1 31 424 1
009 0 426 421 427 0 -.0035 0 0 -1 0 0 0 0 1 .005 16 426 232 0 ?428 423 429 424 0
 0 1 31 427 1012 0 429 424 217 0 -.0035 0 0 -1 0 0 0 0 1 .005 16 429 267 0 ?430
 426 431 427 0 0 1 31 217 1015 0 431 427 207 0 -.0035 0 0 -1 0 0 0 0 1 .005 16 4
31 268 0 ?432 429 216 217 0 0 1 17 432 0 433 430 434 70 435 431 0 0 +16 216 269
 0 ?434 431 329 207 0 0 1 17 434 0 433 432 422 44 436 216 0 0 +15 433 1102 0 430
 437 438 17 422 0 433 434 425 38 439 420 0 0 +17 436 0 440 391 386 38 434 216 0
 336 -15 440 445 0 386 226 0 17 391 0 440 386 436 46 74 387 0 0 +17 386 0 440 43
6 391 44 441 382 0 435 +17 336 0 442 439 341 38 443 329 0 422 +15 442 310 0 336
 444 0 17 439 0 442 341 336 61 422 420 0 425 -17 341 0 442 336 439 41 63 337 0 0
 +17 443 0 228 445 74 41 336 329 0 341 -15 228 470 0 445 222 0 17 445 0 228 446
 443 50 43 214 0 0 -17 74 0 228 443 48 38 391 387 0 436 -17 48 0 228 74 447 46 3
99 397 0 441 -17 447 0 228 48 446 83 448 215 0 0 -17 399 0 187 449 441 83 48 397
 0 447 +17 441 0 187 399 76 46 386 382 0 391 -15 187 673 0 399 182 0 17 76 0 187
 441 60 44 381 377 0 386 -17 60 0 187 76 133 49 137 140 0 139 +17 381 0 450 376
 435 49 76 377 0 0 +15 450 420 0 376 451 0 17 376 0 450 435 381 70 139 372 0 452
 +17 435 0 450 381 376 44 432 431 0 434 -17 139 0 125 137 72 49 376 372 0 381 -1
7 452 0 453 371 366 70 430 429 0 432 -15 453 393 0 366 454 0 17 371 0 453 366 45
2 56 72 367 0 0 +17 366 0 453 452 371 67 455 362 0 430 +17 430 0 433 428 432 67
 452 429 0 456 +17 428 0 433 425 430 64 456 426 0 0 +17 456 0 457 356 361 67 428
 426 0 0 -15 457 364 0 456 458 0 17 356 0 457 361 456 53 69 352 0 0 +17 361 0 45
7 456 356 64 459 357 0 460 +17 459 0 277 461 66 53 361 357 0 356 -17 460 0 462 3
51 346 64 425 423 0 428 -15 462 337 0 346 463 0 17 351 0 462 346 460 45 66 347 0
 0 +17 346 0 462 460 351 61 464 342 0 439 +17 425 0 433 422 428 61 460 423 0 0 +
17 464 0 235 465 63 45 346 342 0 351 -15 235 509 0 465 227 0 17 465 0 235 466 46
4 80 52 243 0 0 -17 63 0 235 464 43 61 341 337 0 346 -17 43 0 235 63 467 41 445
 214 0 443 +17 467 0 235 43 466 50 468 197 0 445 -17 466 0 235 467 465 84 82 238
 0 0 -17 468 0 192 469 78 84 467 197 0 470 +16 197 513 0 ?468 238 405 195 0 0 1
 15 192 718 0 468 186 0 17 469 0 192 78 468 79 101 175 0 446 +17 78 0 192 468 46
9 50 446 206 0 467 +17 470 0 248 82 257 84 103 471 0 466 +15 248 780 0 257 244 0
 17 82 0 248 257 470 80 466 238 0 472 +17 257 0 248 470 82 88 472 252 0 115 +17
 103 0 107 104 101 88 470 471 0 257 -16 471 781 0 ?470 473 116 474 0 0 1 16 473
 749 0 ?135 175 471 181 0 0 1 16 116 816 0 ?115 471 113 475 0 0 1 31 474 1081 0
 471 181 475 0 +0 -2107468663215905e-36 0 1 469096230243379e-32 0 -4690962302433
79e-32 1 0 .00499999999999545 31 181 1078 0 473 170 474 0 +0 -2107468663215905e-
36 0 1 469096230243379e-32 0 -469096230243379e-32 1 0 .00499999999999545 31 475
 1084 0 116 474 120 0 +0 -2107468663215905e-36 0 1 469096230243379e-32 0 -469096
230243379e-32 1 0 .00499999999999545 31 120 1087 0 113 475 136 0 +0 -21074686632
15905e-36 0 1 469096230243379e-32 0 -469096230243379e-32 1 0 .00499999999999545
 31 136 1090 0 110 120 19 0 +0 -2107468663215905e-36 0 1 469096230243379e-32 0 -
469096230243379e-32 1 0 .00499999999999545 133 19 1095 0 37 136 7 0 +7 .004 3980
1020972289e-32 .00325 .004 0 -.00325 0 1 17 37 0 325 34 34 11 33 300 19 0 -15 32
5 69 0 37 281 0 16 300 115 0 713974637594738e-21 33 414 417 0 0 0 1 17 115 0 476
 87 117 88 104 116 0 477 +15 476 815 0 117 247 0 17 87 0 476 117 115 85 477 258
 0 478 +17 117 0 476 115 87 92 478 142 0 112 +17 477 0 277 472 461 88 87 258 0 0
 -15 277 550 0 461 234 0 17 472 0 277 52 477 80 257 252 0 465 -17 461 0 277 477
 459 85 55 405 0 0 -16 258 553 0 ?87 405 252 199 0 0 1 17 55 0 271 69 478 53 461
 405 0 459 +17 69 0 271 455 55 67 356 352 0 366 -17 478 0 271 55 119 85 117 142
 0 461 -17 119 0 271 478 127 92 91 124 0 0 -16 142 593 0 ?117 124 140 144 0 0 1
 17 127 0 271 119 455 89 58 259 0 0 -17 455 0 271 127 69 56 366 362 0 371 -17 58
 0 125 72 121 56 127 259 0 455 +17 72 0 125 139 58 70 371 367 0 376 -17 52 0 277
 66 472 45 465 243 0 464 +17 66 0 277 459 52 64 351 347 0 361 -14 247 813 479 1e
-8 244 123 476 5 152 +0 0 123 244 25 81 1 479 1320 273 247 480 0 312 481 482 14
 123 848 481 1e-8 247 132 118 5 158 +0 0 132 247 25 81 1 481 1321 273 123 483 0
 479 484 485 80 255 1 273 486 487 9000 1 1 1 1 1 1 1 1 0 FFFFTFTFFFFFFF1 81 1 48
3 1225 488 123 0 481 489 480 490 81 1 484 1322 273 16 491 0 481 492 493 82 255 1
 485 999999 14 16 924 484 1e-8 132 0 107 5 6 -0 0 0 132 25 81 1 491 1223 488 16
 494 484 0 489 495 81 1 492 1323 273 191 496 0 484 497 498 82 1 493 999999 14 19
1 745 492 1e-8 186 244 499 5 176 +0 0 244 186 25 81 1 496 1228 488 191 0 492 500
 501 502 81 1 497 1324 273 226 503 0 492 504 505 82 1 498 999999 14 226 443 497
 1e-8 451 222 440 5 223 +0 0 222 451 25 81 1 503 1236 488 226 0 497 506 507 508
 81 1 504 1325 273 451 507 0 497 509 510 82 1 505 999999 14 451 418 504 1e-8 454
 226 450 5 229 +0 0 226 454 25 81 1 507 1237 488 451 0 504 503 511 512 81 1 509
 1326 273 454 511 0 504 513 514 82 1 510 999999 14 454 391 509 1e-8 458 451 453
 5 515 +0 0 451 458 25 81 1 511 1238 488 454 0 509 507 516 517 81 1 513 1327 273
 458 516 0 509 518 519 82 1 514 999999 14 458 362 513 1e-8 463 454 457 5 520 +0
 0 454 463 25 81 1 516 1239 488 458 0 513 511 521 522 81 1 518 1328 273 463 521
 0 513 523 524 82 1 519 999999 14 463 335 518 1e-8 444 458 462 5 525 +0 0 458 44
4 25 81 1 521 1240 488 463 0 518 516 526 527 81 1 523 1329 273 444 526 0 518 528
 529 82 1 524 999999 14 444 308 523 1e-8 437 463 442 5 530 +0 0 463 437 25 81 1
 526 1241 488 444 0 523 521 531 532 81 1 528 1330 273 437 531 0 523 533 534 82 1
 529 999999 14 437 226 528 1e-8 313 444 433 5 315 +0 0 444 313 25 81 1 531 1242
 488 437 0 528 526 535 536 81 1 533 1331 273 313 535 0 528 537 538 82 1 534 9999
99 14 313 190 533 1e-8 304 437 539 5 305 -0 0 437 304 25 81 1 535 1243 488 313 0
 533 531 540 541 81 1 537 1332 273 287 542 0 533 0 543 82 1 538 999999 14 287 89
 537 1e-8 281 304 544 5 290 +0 0 304 281 25 81 1 542 1245 488 287 0 537 540 545
 546 82 1 543 999999 80 1 488 0 547 8001 0 0 0 0 3 5 0 0 0 FFFFTFTFFFFFFF2 81 1
 540 1244 488 304 0 312 535 542 548 81 1 545 1246 488 281 0 285 542 284 549 83 2
55 3 546 .647058823529412 .619607843137255 .588235294117647 81 1 285 1318 273 28
1 545 0 280 312 550 81 1 284 1247 488 279 0 280 545 0 551 83 3 549 .647058823529
412 .619607843137255 .588235294117647 83 3 551 .647058823529412 .619607843137255
 .588235294117647 81 1 312 1319 273 304 540 0 285 479 552 82 1 550 999999 82 1 5
52 999999 83 3 548 .647058823529412 .619607843137255 .588235294117647 79 255 15
 547 SDL/TYSA_COLOUR15 544 1100 0 553 287 554 17 553 0 544 553 553 0 555 27 0 0
 -15 554 91 0 416 287 0 17 416 0 554 416 416 0 556 414 0 0 +17 556 0 539 556 556
 0 416 414 0 0 -15 539 192 0 556 313 0 17 555 0 289 555 555 0 553 27 0 0 +16 27
 9 0 ?555 10 35 296 0 0 1 16 35 73 0 71397463758283e-20 29 27 414 0 0 0 1 15 289
 7 0 555 279 0 83 3 541 .647058823529412 .619607843137255 .588235294117647 83 3
 536 .647058823529412 .619607843137255 .588235294117647 51 315 241 0 437 305 530
 0 +0 0 0 -1 0 0 .005 0 0 1 50 530 317 0 444 315 525 0 +.0035 .005 0 1 0 0 0 0 -
1 50 525 344 0 463 530 520 0 +.0035 .005 0 1 0 0 0 0 -1 50 520 371 0 458 525 515
 0 +.0035 .005 0 1 0 0 0 0 -1 50 515 400 0 454 520 229 0 +.0035 .005 0 1 0 0 0 0
 -1 50 229 427 0 451 515 223 0 +.0035 .005 0 1 0 0 0 0 -1 83 3 532 .647058823529
412 .619607843137255 .588235294117647 83 3 527 .647058823529412 .619607843137255
 .588235294117647 83 3 522 .647058823529412 .619607843137255 .588235294117647 83
 3 517 .647058823529412 .619607843137255 .588235294117647 83 3 512 .647058823529
412 .619607843137255 .588235294117647 81 1 506 1235 488 222 0 225 557 503 558 83
 3 508 .647058823529412 .619607843137255 .588235294117647 81 1 225 1311 273 222
 506 0 190 233 559 81 1 557 1234 488 227 0 233 560 506 561 83 3 558 .64705882352
9412 .619607843137255 .588235294117647 81 1 233 1312 273 227 557 0 225 246 562 8
1 1 560 1233 488 234 0 275 274 557 563 83 3 561 .647058823529412 .61960784313725
5 .588235294117647 81 1 275 1315 273 234 560 0 270 278 564 81 1 274 1232 488 268
 0 270 565 560 566 83 3 563 .647058823529412 .619607843137255 .588235294117647 8
1 1 565 1231 488 138 0 278 567 274 568 83 3 566 .647058823529412 .61960784313725
5 .588235294117647 81 1 278 1316 273 138 565 0 275 280 569 81 1 567 1230 488 182
 0 185 501 565 570 83 3 568 .647058823529412 .619607843137255 .588235294117647 8
1 1 185 1309 273 182 567 0 166 190 571 81 1 501 1229 488 186 0 190 496 567 572 8
3 3 570 .647058823529412 .619607843137255 .588235294117647 81 1 190 1310 273 186
 501 0 185 225 573 83 3 572 .647058823529412 .619607843137255 .588235294117647 8
2 1 573 999999 81 1 166 1308 273 132 489 0 0 185 574 82 1 571 999999 81 1 489 12
24 488 132 0 166 491 483 575 82 1 574 999999 83 3 575 .647058823529412 .61960784
3137255 .588235294117647 82 1 569 999999 82 1 564 999999 81 1 246 1313 273 244 5
00 0 233 270 576 82 1 562 999999 81 1 500 1227 488 244 0 246 480 496 577 82 1 57
6 999999 81 1 480 1226 488 247 0 479 483 500 578 83 3 577 .647058823529412 .6196
07843137255 .588235294117647 83 3 578 .647058823529412 .619607843137255 .5882352
94117647 82 1 559 999999 83 3 502 .647058823529412 .619607843137255 .58823529411
7647 15 499 747 0 135 191 0 17 135 0 499 94 448 105 99 473 0 449 +17 94 0 499 44
8 135 83 449 129 0 399 +17 448 0 499 135 94 79 447 215 0 469 +17 99 0 107 101 10
6 79 135 473 0 448 -17 449 0 187 133 399 105 94 129 0 0 -17 133 0 187 60 449 95
 111 134 0 137 -16 129 676 0 ?94 122 134 157 0 0 1 17 101 0 107 103 99 84 469 17
5 0 468 -16 175 719 0 ?469 134 473 170 0 0 1 16 215 474 0 ?448 206 397 208 0 0 1
 81 1 494 1221 579 16 0 491 0 580 581 83 3 495 .647058823529412 .619607843137255
 .588235294117647 80 1 579 582 583 8017 0 0 0 0 0 0 0 0 0 TTTTTTTTTTTTTF3 81 1 5
80 1222 579 1 584 585 494 0 586 84 255 4 581 NONE81 2 584 1212 587 1 588 580 0 0
 0 589 81 2 585 1253 590 1 580 13 0 0 0 0 84 10 586 HeadFillet80 2 590 591 592 9
000 0 0 0 0 3 5 0 0 0 FFTFFFFFFFFFFF9 1 81 2 13 1306 593 1 585 2 0 0 594 0 80 2
 593 595 596 8004 0 0 0 0 3 5 0 0 0 FFTFFFFFFFFFFF2 3 83 1 594 79e2 79 16 596 SD
L/TYSA_DENSITY79 16 592 BODY_RECIPE_200180 2 587 597 598 9000 0 0 0 0 3 5 0 0 0
 FFTFFFFFFFFFFF9 1 81 1 588 1158 599 1 600 584 0 0 601 82 1 589 1 80 1 599 602 6
03 9000 1 1 1 1 1 1 1 1 0 FFTFFFFFFFFFFF1 81 2 600 1105 604 1 605 588 0 0 0 606
 82 1 601 4231 80 2 604 607 608 9000 0 0 0 0 3 5 0 0 0 FFTFFFFFFFFFFT9 1 81 2 60
5 1104 609 1 0 600 0 0 0 610 82 1 606 102 80 2 609 611 612 9000 0 0 0 0 3 5 0 0
 0 FFTFFFFFFFFFFF9 1 82 1 610 17 79 30 612 LAST_BODY_MODIFYING_FEATURE_ID79 19 6
08 ENT_TIME_STAMP_200179 10 603 BODY_MATCH79 24 598 BODY_IN_LIGHTWEIGHT_PERM79 1
3 583 SDL/TYSA_NAME83 3 490 .647058823529412 .619607843137255 .588235294117647 7
9 14 487 SWEntUnchanged82 1 482 999999 17 446 0 228 447 445 79 78 206 0 0 -15 43
8 228 0 613 437 0 17 613 0 438 613 613 0 419 417 0 0 -17 419 0 314 419 419 0 613
 417 0 0 +15 314 155 0 419 304 32 15 32 156 0 33 304 0 31 28 33 0 10 0 296 0 -.0
0425 0 0 -1 0 0 0 0 1 .003 141 295 7 291 291 21 17 26 0 282 26 26 0 614 10 0 0 +
17 614 0 288 614 614 0 26 10 0 0 -15 288 1098 0 614 281 325 82 1 286 999999 82 1
 276 999999 40 2 260 0 1 2 .000446581987391688 .2810349015069535 ??2625155886707
14e-29 .00433012701892219 -.0025 .0004465819873943135 .00288675134594944 -.00499
999999999772 41 1 261 L?262515588670714e-29 .00433012701892219 -.0025 41 1 262 L
?.0004465819873943135 .00288675134594944 -.00499999999999772 204 8 263 4 -.00288
6751345948125 -.003999999999997375 5.75958653158129 -.000449261479272639 -263193
526100483e-29 -.003553418012605685 5.23598775598338 -2679491880951385e-21 141 24
9 144 615 615 152 141 615 199 249 249 152 141 236 199 616 616 230 141 616 250 23
6 236 230 40 2 218 0 1 2 .000446581987391687 .281034901506954 ??.000446581987394
312 -.00288675134594549 .005 262530692107721e-29 191377706295664e-33 .005 41 1 2
19 L?.000446581987394312 -.00288675134594549 .005 41 1 220 L?262530692107721e-29
 191377706295664e-33 .005 204 8 221 4 -.00577350269189361 -.00355341801260569 2.
0943951023928 -267949188095239e-20 -.002886751345948125 -.003999999999997375 1.5
70796326794895 -.0004492614792726395 40 2 201 0 1 2 .0004465819873916885 .281034
901506954 ??.000446581987394315 .00288675134594944 .00499999999999772 2626244695
963035e-30 .00433012701892219 .0025 41 1 202 L?.000446581987394315 .002886751345
94944 .00499999999999772 41 1 203 L?2626244695963035e-30 .00433012701892219 .002
5 204 8 204 4 -.00577350269189363 -.003553418012605685 1.047197551196204 -267949
1880949885e-21 -.002886751345948135 -.003999999999997375 .5235987755983 -.000449
2614792726385 141 194 157 617 617 176 141 617 208 194 194 176 40 2 177 0 1 2 .00
04465819873916875 .281034901506954 ??2624428262009195e-30 -.004330127018922185 .
0025 .0004465819873943125 -.002886751345949435 .00499999999999772 41 1 178 L?262
4428262009195e-30 -.004330127018922185 .0025 41 1 179 L?.0004465819873943125 -.0
02886751345949435 .00499999999999772 204 8 180 4 .002886751345948145 -.003999999
999997375 2.61799387799149 -.00044926147927264 .00577350269189363 -.003553418012
60569 2.09439510239359 -267949188095239e-20 141 167 130 618 618 158 141 618 150
 167 167 158 141 164 141 619 619 145 141 619 130 164 164 145 40 2 159 0 1 2 .000
4465819873916195 .2810349015069375 ??.0004465819873942465 -.002886751345949575 -
.00499999999999751 26278205972271e-28 -.0043301270189222 -.0025 41 1 160 L?.0004
465819873942465 -.002886751345949575 -.00499999999999751 41 1 161 L?262782059722
71e-28 -.0043301270189222 -.0025 204 8 162 4 287636664457895e-29 -.0035534180126
05755 4.18879020478596 -267949188101799e-20 .00288675134594813 -.003999999999997
37 3.66519142918809 -.0004492614792726365 40 2 153 0 1 2 .000446581987391688 .28
1034901506954 ??.0004465819873943135 .002886751345945495 -.005 262578642572175e-
29 2330299160058895e-34 -.005 41 1 154 L?.0004465819873943135 .00288675134594549
5 -.005 41 1 155 L?262578642572175e-29 2330299160058895e-34 -.005 204 8 156 4 26
3070815131883e-29 -.003553418012605685 5.23598775598259 -2679491880950885e-21 .0
02886751345948125 -.003999999999997375 4.71238898038469 -.000449261479272639 19
 17 989 0 1 0 9 5 S0 141 20 19 20 20 7 134 22 0 0 0 0 0 0 +620 621 136 620 1 2 2
 2 5 FFF1 622 623 624 135 621 2 0 45 4 622 1.570796326794895 3.141592653589795 1
.570796326794895 6.28318530717959 127 2 623 2 2 128 2 624 0 1 74 4 CI16 index_ma
p_offset0 0 1 dCCZ20 15 10 0 0 605 600 588 537 584 580 284 585 13 2 0 0 0 0 0 0
 0 0 0 0 80 2 12 625 626 9000 0 0 0 0 3 5 0 0 0 FFTFFFFFFFFFFF9 1 82 1 14 101 79
 12 626 ATOM_ID_20011 0 
