**ABCDEFGHIJKLMNOPQRSTUVWXYZabcdefghijklmnopqrstuvwxyz**************************
**PARASOLID !"#$%&'()*+,-./:;<=>?@[\]^_`{|}~0123456789**************************
**PART1;
MC=AMD64;
MC_MODEL=Intel64 Family 6 Model 142 Stepping 10, GenuineIntel;
MC_ID=unknown;
OS=Windows_NT;
OS_RELEASE=unknown;
FRU=Parasolid Version 31.0, build 282,  2-25-2019;
APPL=SOLIDWORKS 2019-2019115;
SITE=;
USER=unknown;
FORMAT=text;
GUISE=transmit;
KEY=DIN 933 - M10 x 1.5 x 35_;
FILE=DIN 933 - M10 x 1.5 x 35_.x_t;
DATE=Tue Feb  4 09:11:34 2020;
**PART2;
SCH=SCH_3100282_31001;
USFLD_SIZE=0;
**PART3;
**END_OF_HEADER*****************************************************************
T51 : TRANSMIT FILE created by modeller version 310028223 SCH_3100282_31001_1300
6215 0 12 34 CCCCCCI4 mesh1006 0 I8 polyline1008 0 CCCCCCCDI5 owner1040 0 CCCCCC
I13 boundary_mesh1006 0 I17 boundary_polyline1008 0 CCCA16 index_map_offset0 0 1
 dA9 index_map82 0 A17 node_id_index_map82 0 A20 schema_embedding_map82 0 A5 chi
ld12 0 A14 lowest_node_id0 0 1 dA16 mesh_offset_data206 0 Z1 1528 2 3 0 0 0 0 0
 0 1e3 1e-8 0 4 0 1 0 1 1 5 6 7 8 0 0 9 10 11 0 0 0 0 0 0 0 81 255 2 2 1502 12 1
 13 0 0 0 0 14 70 11 CI9 list_type0 0 1 uI10 notransmit0 0 1 lCCCDCCDI12 finger_
index0 0 1 dI12 finger_block1012 0 CZ3 0 4 T1 0 0 10 20 1 15 15 13 255 5 988 0 1
 0 16 0 0 17 0 50 255 6 939 0 18 19 0 0 +0 .00923760430703402 1301042606982604e-
33 1 0 0 0 0 -1 31 255 7 1358 0 20 21 0 0 -.0214 0 0 1 3469446951953615e-31 0 -3
469446951953615e-31 1 0 .005 29 255 8 1357 0 11 22 0 .0214 .005 0 19 8 CCCCCCCA5
 owner12 0 Z9 5 0 1 17 0 23 V0 16 255 10 1359 0 ?24 0 20 7 20 20 1 18 255 11 135
5 0 25 0 26 8 ?1 17 255 25 0 27 28 28 11 24 10 0 29 -18 26 1352 0 24 11 30 22 ?1
 17 24 0 31 29 29 26 25 10 0 28 +18 30 76 0 32 26 33 34 732343460012576e-21 1 29
 22 1354 0 26 35 8 .0214 -.005 0 29 35 1092 0 36 37 22 -1084202172485504e-34 -.0
0692820323027551 -.004 18 36 641 0 38 39 40 35 ?1 29 37 1091 0 40 41 35 -1084202
172485504e-34 -.0069282032302755 .004 18 40 682 0 42 36 0 37 ?1 29 41 1088 0 43
 44 37 -23047747220835e-32 -2449293598294705e-34 -.008 18 43 598 0 45 46 39 41 ?
1 29 44 1085 0 47 48 41 -739697452071395e-33 .0069282032302755 -.004 18 47 559 0
 49 50 46 44 ?1 29 48 1082 0 51 52 44 3794707603699265e-34 .00692820323027551 .0
04 18 51 518 0 53 54 50 48 ?1 29 52 1079 0 55 56 48 3794707603699265e-34 4898587
19658941e-33 .008 18 55 479 0 57 58 59 52 ?1 29 56 1074 0 39 60 52 .000714531179
816323 -.00923760430703401 1357444589562364e-33 18 39 640 0 61 43 36 56 ?1 29 60
 1069 0 59 62 56 .000714531179816316 -.00461880215351698 .008 18 59 480 0 63 55
 54 60 ?1 29 62 1064 0 46 64 60 .000714531179816318 -.00461880215351711 -.008 18
 46 597 0 65 47 43 62 ?1 29 64 1055 0 50 66 62 .00071453117981632 .0046188021535
17 -.008 18 50 558 0 67 51 47 64 ?1 29 66 1046 0 54 68 64 .000714531179816327 .0
0923760430703402 -2468773498604915e-34 18 54 517 0 69 59 51 66 ?1 29 68 1037 0 5
8 70 66 .000714531179816321 .00461880215351701 .008 18 58 478 0 71 72 55 68 ?1 2
9 70 1020 0 73 74 68 .0058 -.0069282032302755 .004 18 73 274 0 75 76 77 70 ?1 29
 74 1019 0 78 79 70 .0058 -979717439317882e-33 .008 18 78 235 0 80 33 81 74 ?1 2
9 79 1016 0 76 82 74 .0058 -.00692820323027551 -.004 18 76 273 0 83 84 73 79 ?1
 29 82 1013 0 84 85 79 .0058 678610228823672e-33 -.008 18 84 238 0 86 87 76 82 ?
1 29 85 1010 0 87 88 82 .0058 .0069282032302755 -.004 18 87 237 0 89 81 84 85 ?1
 29 88 1007 0 81 90 85 .0058 .0069282032302755 .004 18 81 236 0 91 78 87 88 ?1 2
9 90 880 0 92 93 88 .0058 -.00923760430703401 1590163186312075e-33 18 92 425 0 9
4 95 72 90 2061552812822855e-23 1 29 93 845 0 95 96 90 .0058 -.0046188021535171
 -.008 18 95 398 0 97 98 92 93 206155282896495e-22 1 29 96 810 0 98 99 93 .0058
 .004618802153517 -.008 18 98 370 0 100 101 95 96 206155281280883e-22 1 29 99 77
5 0 101 102 96 .0058 .00923760430703402 977071592010582e-33 18 101 342 0 103 77
 98 99 2061552812913765e-23 1 29 102 774 0 72 104 99 .0058 -.00461880215351698 .
008 18 72 450 0 105 92 58 102 2061552812977125e-23 1 29 104 713 0 77 34 102 .005
8 .00461880215351701 .008 18 77 315 0 106 73 101 104 206155281280883e-22 1 29 34
 219 0 30 107 104 .0064 0 -.0054 29 107 218 0 33 0 34 .0064 3967855629237425e-34
 .0054 18 33 77 0 108 30 78 107 732343460012579e-21 1 17 108 0 109 32 32 33 110
 111 112 113 +15 255 109 156 0 108 114 0 17 32 0 109 108 108 30 113 115 116 110
 +17 110 0 117 113 113 30 108 111 118 0 -16 111 115 0 732070313168863e-21 108 11
9 120 0 0 0 1 133 255 112 173 0 108 121 122 0 +122 .0064 0 -.0054 .0064 0 .0054
 0 1 17 113 0 117 110 110 33 32 115 123 0 -15 117 69 0 110 124 0 16 115 73 0 732
070313032439e-21 32 125 119 0 0 0 1 133 123 178 0 113 126 127 0 +127 .0064 0 -.0
054 .0064 661309271539571e-33 .0054 0 1 137 255 126 170 0 1 116 123 128 +129 130
 0 ?137 127 179 0 1 123 131 132 +133 134 0 ?133 131 321 0 135 127 136 0 +136 .00
58 .00461880215351701 .008 .0058 -979717439317882e-33 .008 -.003381197846482995
 -.008 141 255 132 123 132 132 127 68 255 133 78 0 124 137 138 139 +121 .0068 0
 0 1 0 0 ????0 0 -1 ?134 255 134 0 0 0 0 0 0 +140 141 136 255 140 1 2 2 2 5 FFF1
 142 143 144 135 255 141 2 0 45 255 4 142 1.570796326794895 0 1.570796326794895
 3.141592653589795 127 255 2 143 2 2 128 255 2 144 0 1 14 255 124 67 145 1e-8 14
6 147 148 5 133 -0 0 147 146 23 51 255 137 12 0 146 0 133 0 +0 0 0 -1 0 0 .005 0
 0 1 52 255 138 100 0 147 133 129 0 +.0405719999999974 0 0 -1 0 0 .0049999999999
9545 .707106781186548 .707106781186548 0 0 1 141 139 127 149 149 133 31 121 83 0
 1 150 112 151 +.0068 0 -.0054 0 1 0 0 0 -1 4e-4 31 150 39 0 125 152 121 0 +.040
572 0 0 -1 0 0 0 0 1 .005 141 151 133 151 151 121 16 125 9 0 ?153 154 115 150 0
 0 1 31 152 33 0 154 0 150 0 -.0068 0 0 -1 0 0 0 0 1 .005 16 154 18 0 ?155 20 12
5 152 0 0 1 17 155 0 156 155 155 0 157 154 0 0 +16 20 1356 0 ?29 10 154 7 10 10
 1 17 29 0 31 24 24 11 28 20 0 0 +15 31 1353 0 29 16 0 17 28 0 27 25 25 26 29 20
 0 0 -15 27 1360 0 25 146 158 14 146 2 159 1e-8 0 124 27 5 137 +16 16 124 16 23
 15 158 7 0 153 146 0 17 153 0 158 153 153 0 160 125 0 0 +17 160 0 161 160 160 0
 153 125 0 0 -15 161 1100 0 160 147 162 14 147 89 163 1e-8 124 114 161 5 138 +0
 0 114 124 23 15 162 91 0 164 147 0 17 164 0 162 164 164 0 165 119 0 0 +17 165 0
 166 165 165 0 164 119 0 0 -16 119 95 0 ?164 115 111 167 0 0 1 31 167 992 0 119
 168 169 0 +.0414000000000101 0 0 -1 0 0 0 0 1 .004171999999982745 30 255 168 64
9 0 1 170 167 171 +.0064 -.00923760430703401 1734723475976805e-33 1 0 0 31 169 9
98 0 120 167 172 0 -.0064 0 0 -1 0 0 0 0 1 .008 16 120 157 0 ?173 111 174 169 0
 0 1 31 172 1004 0 174 169 175 0 -.0058 0 0 -1 0 0 0 0 1 .008 16 174 230 0 ?176
 120 177 172 0 0 1 31 175 1006 0 177 172 178 0 -.0058 0 0 -1 0 0 0 0 1 .008 16 1
77 231 0 ?179 174 180 175 0 0 1 31 178 1009 0 180 175 181 0 -.0058 0 0 -1 0 0 0
 0 1 .008 16 180 232 0 ?182 177 183 178 0 0 1 31 181 1012 0 183 178 184 0 -.0058
 0 0 -1 0 0 0 0 1 .008 16 183 267 0 ?185 180 186 181 0 0 1 31 184 1015 0 186 181
 187 0 -.0058 0 0 -1 0 0 0 0 1 .008 16 186 268 0 ?188 183 189 184 0 0 1 31 187 1
018 0 189 184 190 0 -.0058 0 0 -1 0 0 0 0 1 .008 16 189 269 0 ?191 186 135 187 0
 0 1 38 12 CCCCCCCCCCCA17 intersection_data204 0 Z190 1024 0 192 187 193 0 +194
 195 196 197 198 199 16 192 473 0 ?71 200 201 190 0 0 1 38 193 1028 0 201 190 20
2 0 +194 203 204 205 206 207 50 194 483 0 208 209 210 211 +.0064 .00461880215351
701 .008 0 0 -1 -1 0 0 52 195 725 0 212 213 203 214 +.000718818366895219 0 0 1 0
 0 .00924502993287621 .86602540378444 .5 0 0 -1 40 255 2 196 0 1 2 .000714531179
816322 .281034901502812 ??-927340152397468e-33 489858719658941e-33 .008 .0007145
31179816321 .00461880215351701 .008 41 3 CI8 term_use0 0 1 cCZ1 197 L?-927340152
397468e-33 489858719658941e-33 .008 41 1 198 L?.000714531179816321 .004618802153
51701 .008 204 2 17 INTERSECTION_DATA17 Intersection data7 uv_type0 0 1 u6 value
s0 1 1 fT8 199 4 .0064 -.004618802153517 3.141592653589795 -.00071881836689522 .
00568546882018368 0 2.617993877991495 -4287187078897235e-21 14 212 716 215 1e-8
 216 217 218 5 195 +0 0 217 216 23 50 213 686 0 216 219 195 220 +.0064 -.0092376
0430703401 0 0 .866025403784438 -.5 0 .5 .866025403784438 52 203 754 0 217 195 2
21 222 +.000718818366895214 0 0 1 0 0 .00924502993287621 .86602540378444 .5 0 0
 -1 141 214 223 224 224 195 38 223 1036 0 225 202 226 0 +210 195 227 228 229 230
 141 224 190 214 214 195 16 225 513 0 ?231 232 233 223 0 0 1 38 202 1032 0 232 1
93 223 0 +210 221 234 235 236 237 38 226 1041 0 238 223 239 0 +240 241 242 243 2
44 245 50 210 522 0 246 194 240 247 +.0064 .00923760430703402 0 0 -.866025403784
438 -.5 0 .5 -.866025403784438 40 2 227 0 1 2 .00071453117981632 .28103490150281
15 ??.000714531179816321 .00461880215351701 .008 1006267044823186e-33 .006928203
23027551 .004 41 1 228 L?.000714531179816321 .00461880215351701 .008 41 1 229 L?
1006267044823186e-33 .00692820323027551 .004 204 8 230 4 -.00923760430703402 -.0
0568546882018368 2.617993877991495 -4287187078897235e-21 -.00461880215351702 -.0
064 2.094395102393195 -.000718818366895218 14 246 507 248 1e-8 208 249 250 5 210
 -0 0 249 208 23 50 240 563 0 249 210 251 252 +.0064 .004618802153517 -.008 0 -.
866025403784438 .5 0 -.5 -.866025403784438 141 247 202 253 253 210 141 253 223 2
47 247 210 14 249 548 254 1e-8 246 255 256 5 240 -0 0 255 246 23 50 251 602 0 25
5 240 219 257 +.0064 .004618802153517 -.008 0 0 1 1 0 0 141 252 226 258 258 240
 141 258 239 252 252 240 38 239 1045 0 259 226 260 0 +240 221 261 262 263 264 16
 259 554 0 ?265 238 266 239 0 0 1 38 260 1050 0 267 239 268 0 +251 269 270 271 2
72 273 52 221 787 0 274 203 241 275 +.000718818366895225 0 0 1 0 0 .009245029932
87622 .86602540378444 .5 0 0 -1 40 2 261 0 1 2 .000714531179816328 .281034901502
813 ??.000714531179816327 .00923760430703402 -3467290141419925e-34 -261011403820
9185e-34 .0069282032302755 -.004 41 1 262 L?.000714531179816327 .009237604307034
02 -3467290141419925e-34 41 1 263 L?-2610114038209185e-34 .0069282032302755 -.00
4 204 8 264 4 -.00923760430703402 -.00568546882018367 1.570796326794895 -4287187
078898235e-21 -.004618802153517 -.0064 1.047197551196596 -.000718818366895226 14
 274 778 276 1e-8 217 277 278 5 221 +0 0 277 217 23 52 241 822 0 277 221 269 279
 +.000718818366895218 0 0 1 0 0 .00924502993287621 .86602540378444 .5 0 0 -1 141
 275 239 280 280 221 141 280 202 275 275 221 14 277 813 281 1e-8 274 282 283 5 2
41 +0 0 282 274 23 52 269 857 0 282 241 19 284 +.000718818366895235 0 0 1 0 0 .0
0924502993287624 .86602540378444 .5 0 0 -1 141 279 268 285 285 241 38 268 1054 0
 286 260 287 0 +251 241 288 289 290 291 141 285 226 279 279 241 16 286 593 0 ?29
2 267 293 268 0 0 1 38 287 1059 0 294 268 295 0 +219 19 296 297 298 299 40 2 288
 0 1 2 .000714531179816321 .2810349015028115 ??.00071453117981632 .0046188021535
17 -.008 -244114509919599e-33 -471553610716058e-33 -.008 41 1 289 L?.00071453117
981632 .004618802153517 -.008 41 1 290 L?-244114509919599e-33 -471553610716058e-
33 -.008 204 8 291 4 -.00568546882018368 0 .523598775598298 -4287187078898235e-2
1 -.0064 -.004618802153517 0 -.000718818366895219 16 294 635 0 ?61 293 300 287 0
 0 1 38 295 1063 0 300 287 301 0 +219 269 302 303 304 305 50 219 645 0 306 251 2
13 307 +.0064 -.00461880215351701 -.008 0 .866025403784439 .5 0 -.5 .86602540378
4439 52 19 892 0 308 269 6 309 +.000718818366895222 0 0 1 0 0 .00924502993287622
 .86602540378444 .5 0 0 -1 40 2 296 0 1 2 .000714531179816321 .2810349015028115
 ??183079538930628e-32 -.00692820323027551 -.004 .000714531179816323 -.009237604
30703401 807865065415054e-33 41 1 297 L?183079538930628e-32 -.00692820323027551
 -.004 41 1 298 L?.000714531179816323 -.00923760430703401 807865065415054e-33 20
4 8 299 4 .00461880215351701 -.0064 5.23598775598299 -.000718818366895221 .00923
760430703401 -.00568546882018368 4.71238898038469 -4287187078899235e-21 14 308 8
83 310 1e-8 282 18 311 5 19 +0 0 18 282 23 141 309 312 313 313 19 38 312 1073 0
 314 301 315 0 +213 19 316 317 318 319 141 313 287 309 309 19 16 314 677 0 ?320
 321 322 312 0 0 1 38 301 1068 0 321 295 312 0 +213 203 323 324 325 326 31 315 1
076 0 322 312 327 0 +975781955236954e-33 0 0 1 0 0 0 0 -1 .008 40 2 316 0 1 2 .0
00714531179816329 .281034901502813 ??.000714531179816323 -.00923760430703401 194
7412439760805e-33 -471433088986196e-32 -.00692820323027549 .004 41 1 317 L?.0007
14531179816323 -.00923760430703401 1947412439760805e-33 41 1 318 L?-471433088986
196e-32 -.00692820323027549 .004 204 8 319 4 2553870382467095e-33 -.005685468820
18368 4.71238898038469 -4287187078899235e-21 .00461880215351703 -.0064 4.1887902
0478639 -.000718818366895227 16 322 719 0 ?328 314 329 315 0 0 1 31 327 1078 0 3
29 315 330 0 +-216840434497101e-33 0 0 1 0 0 0 0 -1 .008 16 329 749 0 ?331 322 3
32 327 0 0 1 31 330 1081 0 332 327 333 0 +-216840434497101e-33 0 0 1 0 0 0 0 -1
 .008 16 332 781 0 ?334 329 335 330 0 0 1 31 333 1084 0 335 330 336 0 +-21684043
4497101e-33 0 0 1 0 0 0 0 -1 .008 16 335 816 0 ?337 332 338 333 0 0 1 31 336 108
7 0 338 333 339 0 +-216840434497101e-33 0 0 1 0 0 0 0 -1 .008 16 338 852 0 ?340
 335 341 336 0 0 1 31 339 1090 0 341 336 118 0 +0 0 0 1 0 0 0 0 -1 .008 16 341 8
87 0 ?342 338 0 339 0 0 1 133 118 1095 0 110 339 21 0 +21 .0064 661309271539571e
-33 .0054 .0064 0 -.0054 0 1 137 21 1096 0 1 118 7 343 +133 344 0 ?141 343 118 3
43 343 21 134 344 0 0 0 0 0 0 +345 346 136 345 1 2 2 2 5 FFF1 347 348 349 135 34
6 2 0 45 4 347 1.57079632679489 3.141592653589795 1.57079632679489 6.28318530717
959 127 2 348 2 2 128 2 349 0 1 17 342 0 311 61 320 36 42 341 0 350 +15 311 885
 0 342 308 0 17 61 0 311 320 342 39 350 294 0 351 +17 320 0 311 342 61 40 351 31
4 0 331 +17 42 0 352 57 38 40 342 341 0 320 -17 350 0 353 354 355 36 61 294 0 0
 -15 353 632 0 355 306 0 17 354 0 353 97 350 46 356 300 0 357 -17 355 0 353 350
 358 39 94 293 0 0 -17 358 0 353 355 83 92 359 360 0 361 -17 94 0 362 75 351 92
 355 293 0 358 +16 293 634 0 ?94 286 294 170 0 0 1 133 170 650 0 293 363 168 0 +
168 .000714531179816323 -.00923760430703401 1357444589562364e-33 .0058 -.0092376
0430703401 1734723475976805e-33 -.00568546882018368 -6e-4 30 363 606 0 1 364 170
 365 +.0064 -.00461880215351726 -.008 1 0 0 133 364 607 0 266 366 363 0 +363 .00
0714531179816318 -.00461880215351711 -.008 .0058 -.00461880215351726 -.008 -.005
68546882018368 -6e-4 141 365 364 365 365 363 16 266 591 0 ?97 259 267 364 0 0 1
 30 366 567 0 1 367 364 368 +.0064 .004618802153517 -.008 1 0 0 133 367 568 0 23
3 369 366 0 +366 .00071453117981632 .004618802153517 -.008 .0058 .00461880215351
7 -.008 -.00568546882018368 -6e-4 141 368 367 368 368 366 16 233 552 0 ?100 225
 238 367 0 0 1 30 369 526 0 1 370 367 371 +.0064 .00923760430703402 -11948720791
73308e-34 1 0 0 133 370 527 0 372 373 369 0 +369 .000714531179816327 .0092376043
0703402 -2468773498604915e-34 .0058 .00923760430703402 -1045513069276644e-34 -.0
0568546882018367 -6e-4 141 371 370 371 371 369 16 372 511 0 ?103 374 232 370 0 0
 1 30 373 485 0 1 375 370 376 +.0064 -.00461880215351698 .008 -1 0 0 133 375 486
 0 374 377 373 0 +373 .0058 -.00461880215351698 .008 .000714531179816316 -.00461
880215351698 .008 6e-4 .00568546882018368 141 376 375 376 376 373 16 374 475 0 ?
378 201 372 375 0 0 1 30 377 487 0 1 379 375 380 -.0064 .00461880215351701 .008
 -1 0 0 133 379 488 0 200 381 377 0 +377 .000714531179816321 .00461880215351701
 .008 .0058 .00461880215351701 .008 .00568546882018368 6e-4 141 380 379 380 380
 377 16 200 472 0 ?106 382 192 379 0 0 1 30 381 453 0 1 383 379 384 -.0058 .008
 .008 0 1 0 133 383 454 0 382 385 381 0 +381 .0058 -979717439317882e-33 .008 .00
58 -.00461880215351698 .008 -.008 -.012618802153517 141 384 383 384 384 381 16 3
82 448 0 ?386 387 200 383 0 0 1 30 385 455 0 1 388 383 389 +.0058 -.004618802153
51699 .008 0 -.5 -.866025403784437 133 388 456 0 387 390 385 0 +385 .0058 -.0046
1880215351698 .008 .0058 -.0069282032302755 .004 -2369676336725565e-33 .00461880
2153517 141 389 388 389 389 385 16 387 447 0 ?391 392 382 388 0 0 1 30 390 428 0
 1 393 388 394 +.0058 -.0069282032302755 .004 0 -.5 -.866025403784439 133 393 42
9 0 392 395 390 0 +390 .0058 -.0069282032302755 .004 .0058 -.00923760430703401 1
517883041479705e-33 0 .00461880215351702 141 394 393 394 394 390 16 392 423 0 ?3
61 360 387 393 0 0 1 30 395 430 0 1 396 393 397 +.0058 -.00923760430703401 0 0 .
5 -.866025403784439 133 396 431 0 360 398 395 0 +395 .0058 -.00923760430703401 1
517883041479705e-33 .0058 -.00692820323027551 -.004 -1314525273895014e-33 .00461
8802153517 141 397 396 397 397 395 16 360 422 0 ?359 399 392 396 0 0 1 30 398 40
1 0 1 400 396 401 +.0058 -.00692820323027551 -.004 0 .5 -.866025403784439 133 40
0 402 0 399 402 398 0 +398 .0058 -.00692820323027551 -.004 .0058 -.0046188021535
1701 -.008 433680868994201e-33 .00461880215351701 141 401 400 401 401 398 16 399
 396 0 ?403 404 360 400 0 0 1 30 402 403 0 1 405 400 406 +.0058 .008 -.008 0 1 0
 133 405 404 0 404 407 402 0 +402 .0058 -.00461880215351701 -.008 .0058 67861022
8823672e-33 -.008 -.012618802153517 -.008 141 406 405 406 406 402 16 404 395 0 ?
408 409 399 405 0 0 1 30 407 372 0 1 410 405 411 +.0058 .004618802153517 -.008 0
 .5 .866025403784438 133 410 373 0 409 412 407 0 +407 .0058 .004618802153517 -.0
08 .0058 .0069282032302755 -.004 0 .004618802153517 141 411 410 411 411 407 16 4
09 367 0 ?413 414 404 410 0 0 1 30 412 374 0 1 415 410 416 +.0058 .008 -.008 0 1
 0 133 415 375 0 414 417 412 0 +412 .0058 678610228823672e-33 -.008 .0058 .00461
8802153517 -.008 -.008 -.003381197846483005 141 416 415 416 416 412 16 414 365 0
 ?418 419 409 415 0 0 1 30 417 345 0 1 420 415 421 +.0058 .0069282032302755 -.00
4 0 .5 .866025403784438 133 420 346 0 419 422 417 0 +417 .0058 .0069282032302755
 -.004 .0058 .00923760430703402 1517883041479705e-33 0 .00461880215351702 141 42
1 420 421 421 417 16 419 340 0 ?423 424 414 420 0 0 1 30 422 347 0 1 425 420 426
 +.0058 .00923760430703402 0 0 -.5 .866025403784438 133 425 348 0 424 427 422 0
 +422 .0058 .00923760430703402 1517883041479705e-33 .0058 .0069282032302755 .004
 1314525273895012e-33 .00461880215351702 141 426 425 426 426 422 16 424 339 0 ?4
28 429 419 425 0 0 1 30 427 318 0 1 430 425 431 +.0058 .00692820323027551 .004 0
 -.5 .866025403784438 133 430 319 0 429 136 427 0 +427 .0058 .0069282032302755 .
004 .0058 .00461880215351701 .008 -3174764303743775e-34 .004618802153517 141 431
 430 431 431 427 16 429 313 0 ?432 135 424 430 0 0 1 30 136 320 0 1 131 430 433
 -.0058 .008 .008 0 1 0 141 433 131 433 433 136 17 432 0 434 435 436 77 91 429 0
 0 +16 135 312 0 ?435 189 429 131 0 0 1 17 435 0 434 436 432 78 437 135 0 176 +1
5 434 310 0 435 438 0 17 436 0 434 432 435 81 176 174 0 179 -17 437 0 439 440 80
 77 435 135 0 432 -17 176 0 441 191 179 78 436 174 0 0 +15 441 1102 0 185 442 44
3 17 191 0 441 188 176 73 444 189 0 0 +17 179 0 441 176 182 81 445 177 0 0 +17 1
82 0 441 179 185 87 446 180 0 0 +17 445 0 447 423 428 87 179 177 0 182 -15 447 3
37 0 428 448 0 17 423 0 447 428 445 101 89 419 0 0 +17 428 0 447 445 423 81 449
 424 0 436 +17 449 0 250 450 91 101 428 424 0 423 -15 250 509 0 450 246 0 17 450
 0 250 451 449 54 103 372 0 0 -17 91 0 250 449 106 81 432 429 0 428 -17 106 0 25
0 91 452 77 440 200 0 437 +17 452 0 250 106 451 58 231 225 0 440 -17 440 0 439 4
53 437 58 106 200 0 0 -15 439 470 0 440 208 0 17 453 0 439 454 440 55 71 192 0 0
 -17 454 0 439 105 453 59 455 201 0 0 -17 71 0 218 231 328 58 453 192 0 452 +15
 218 718 0 231 212 0 17 231 0 218 328 71 51 452 225 0 334 +17 328 0 218 71 231 5
5 53 322 0 453 +17 53 0 352 49 57 51 328 322 0 231 -15 352 926 0 38 18 0 17 49 0
 352 45 53 47 334 332 0 265 -17 57 0 352 53 42 55 331 329 0 455 -17 331 0 456 63
 455 40 57 329 0 457 +17 455 0 456 331 63 55 454 201 0 328 +15 456 747 0 331 217
 0 17 63 0 456 455 331 59 457 321 0 378 +16 201 474 0 ?455 192 374 193 0 0 1 17
 457 0 362 351 378 40 63 321 0 0 -16 321 676 0 ?63 300 314 301 0 0 1 17 378 0 36
2 457 458 59 105 374 0 454 +15 362 673 0 378 216 0 17 458 0 362 378 75 72 391 38
7 0 386 -17 105 0 439 80 454 72 378 374 0 458 -17 80 0 439 437 105 78 386 382 0
 444 -17 386 0 459 391 444 72 80 382 0 0 +17 444 0 459 386 391 78 191 189 0 435
 -15 459 445 0 391 460 0 17 391 0 459 444 386 73 458 387 0 461 +17 461 0 462 361
 359 73 188 186 0 191 -15 462 420 0 359 463 0 17 361 0 462 359 461 92 75 392 0 0
 +17 359 0 462 461 361 76 358 360 0 464 +17 188 0 441 185 191 76 461 186 0 0 +17
 185 0 441 182 188 84 464 183 0 446 +17 464 0 465 403 408 76 185 183 0 188 -17 4
46 0 466 418 413 84 182 180 0 0 -15 466 364 0 446 467 0 17 418 0 466 413 446 98
 86 414 0 0 +17 413 0 466 446 418 87 468 409 0 445 +17 468 0 256 469 89 98 413 4
09 0 418 -15 256 550 0 469 249 0 17 469 0 256 470 468 50 100 233 0 0 -17 89 0 25
6 468 103 87 423 419 0 413 -17 103 0 256 89 471 101 450 372 0 449 +17 471 0 256
 103 470 54 265 259 0 450 -17 470 0 256 471 469 47 67 238 0 0 -17 265 0 278 334
 69 47 471 259 0 337 +15 278 780 0 265 274 0 17 334 0 278 69 265 51 49 332 0 451
 +17 69 0 278 265 334 54 451 232 0 471 +17 337 0 283 67 292 47 45 335 0 470 +15
 283 815 0 292 277 0 17 67 0 283 292 337 50 470 238 0 472 +17 292 0 283 337 67 4
3 472 286 0 340 +17 45 0 352 38 49 43 337 335 0 292 -17 38 0 352 42 45 36 340 33
8 0 356 -17 340 0 473 65 356 43 38 338 0 474 +17 356 0 473 340 65 36 354 300 0 3
42 +15 473 850 0 340 282 0 17 65 0 473 356 340 46 474 267 0 354 +16 300 636 0 ?3
56 294 321 295 0 0 1 17 474 0 475 472 357 43 65 267 0 0 -16 267 592 0 ?65 266 28
6 260 0 0 1 15 475 589 0 357 255 0 17 472 0 475 100 474 50 292 286 0 469 -17 357
 0 475 474 476 46 97 266 0 0 -17 476 0 475 357 86 95 408 404 0 403 -17 97 0 353
 83 354 95 357 266 0 476 +17 83 0 353 358 97 76 403 399 0 359 -17 403 0 465 408
 464 95 83 399 0 0 +15 465 393 0 408 477 0 17 408 0 465 464 403 84 476 404 0 185
 +14 477 391 478 1e-8 467 463 465 5 479 +0 0 463 467 23 81 1 478 1512 480 477 48
1 0 310 482 483 14 467 362 482 1e-8 448 477 466 5 484 +0 0 477 448 23 14 463 418
 485 1e-8 477 460 462 5 486 +0 0 460 477 23 50 479 400 0 477 484 486 0 +.0058 .0
08 0 1 0 0 0 0 -1 13 23 3 0 0 0 0 0 0 9 16 14 16 1361 487 ?18 0 156 5 137 +146 1
46 146 0 23 81 1 487 1515 480 16 488 0 485 489 490 14 18 924 489 1e-8 308 16 352
 5 6 -0 0 0 308 23 15 156 1094 0 155 16 31 81 1 489 1516 480 18 491 0 487 492 49
3 80 255 1 480 494 495 9000 1 1 1 1 1 1 1 1 0 FFFFTFTFFFFFFF1 81 1 491 1420 496
 18 497 489 488 498 499 81 1 492 1517 480 282 500 0 489 501 502 82 255 1 493 999
999 14 282 848 492 1e-8 277 308 473 5 269 +0 0 308 277 23 81 1 500 1422 496 282
 0 492 498 503 504 81 1 501 1518 480 217 505 0 492 506 507 82 1 502 999999 14 21
7 745 501 1e-8 212 274 456 5 203 +0 0 274 212 23 81 1 505 1425 496 217 0 501 508
 509 510 81 1 506 1519 480 216 511 0 501 512 513 82 1 507 999999 14 216 671 506
 1e-8 306 212 362 5 213 -0 0 212 306 23 81 1 511 1427 496 216 0 506 509 514 515
 81 1 512 1520 480 306 514 0 506 516 517 82 1 513 999999 14 306 630 512 1e-8 255
 216 353 5 219 -0 0 216 255 23 81 1 514 1428 496 306 0 512 511 518 519 81 1 516
 1521 480 255 518 0 512 520 521 82 1 517 999999 14 255 587 516 1e-8 249 306 475
 5 251 -0 0 306 249 23 81 1 518 1429 496 255 0 516 514 522 523 81 1 520 1522 480
 208 524 0 516 525 526 82 1 521 999999 14 208 468 520 1e-8 460 246 439 5 194 -0
 0 246 460 23 81 1 524 1432 496 208 0 520 527 528 529 81 1 525 1523 480 460 528
 0 520 530 531 82 1 526 999999 14 460 443 525 1e-8 463 208 459 5 209 +0 0 208 46
3 23 81 1 528 1433 496 460 0 525 524 532 533 81 1 530 1524 480 448 534 0 525 535
 536 82 1 531 999999 14 448 335 530 1e-8 438 467 447 5 537 +0 0 467 438 23 81 1
 534 1437 496 448 0 530 538 539 540 81 1 535 1525 480 438 539 0 530 541 542 82 1
 536 999999 14 438 308 535 1e-8 442 448 434 5 543 +0 0 448 442 23 81 1 539 1438
 496 438 0 535 534 544 545 81 1 541 1526 480 442 544 0 535 546 547 82 1 542 9999
99 14 442 226 541 1e-8 548 438 441 5 549 +0 0 438 548 23 81 1 544 1439 496 442 0
 541 539 550 551 81 1 546 1527 480 548 550 0 541 552 553 82 1 547 999999 14 548
 190 546 1e-8 114 442 166 5 554 -0 0 442 114 23 81 1 550 1440 496 548 0 546 544
 555 556 81 1 552 1528 480 114 555 0 546 0 557 82 1 553 999999 14 114 153 552 1e
-8 147 548 558 5 129 +0 0 548 147 23 81 1 555 1441 496 114 0 552 550 559 560 82
 1 557 999999 80 1 496 0 561 8001 0 0 0 0 3 5 0 0 0 FFFFTFTFFFFFFF2 81 1 559 144
2 496 147 0 163 555 562 563 83 255 3 560 .647058823529412 .619607843137255 .5882
35294117647 81 1 163 1505 480 147 559 0 159 215 564 81 1 562 1443 496 124 0 145
 559 565 566 83 3 563 .647058823529412 .619607843137255 .588235294117647 81 1 14
5 1503 480 124 562 0 0 159 567 81 1 565 1444 496 146 0 159 562 0 568 83 3 566 .6
47058823529412 .619607843137255 .588235294117647 81 1 159 1504 480 146 565 0 145
 163 569 83 3 568 .647058823529412 .619607843137255 .588235294117647 82 1 569 -8
13957010 82 1 567 999999 81 1 215 1506 480 212 509 0 163 248 570 82 1 564 999999
 81 1 509 1426 496 212 0 215 505 511 571 81 1 248 1507 480 246 527 0 215 254 572
 82 1 570 999999 81 1 527 1431 496 246 0 248 522 524 573 81 1 254 1508 480 249 5
22 0 248 276 574 82 1 572 999999 81 1 522 1430 496 249 0 254 518 527 575 81 1 27
6 1509 480 274 508 0 254 281 576 82 1 574 999999 81 1 508 1424 496 274 0 276 503
 505 577 81 1 281 1510 480 277 503 0 276 310 578 82 1 576 999999 81 1 503 1423 4
96 277 0 281 500 508 579 81 1 310 1511 480 308 498 0 281 478 580 82 1 578 999999
 81 1 498 1421 496 308 0 310 491 500 581 82 1 580 999999 83 3 581 .6470588235294
12 .619607843137255 .588235294117647 83 3 579 .647058823529412 .619607843137255
 .588235294117647 83 3 577 .647058823529412 .619607843137255 .588235294117647 83
 3 575 .647058823529412 .619607843137255 .588235294117647 83 3 573 .647058823529
412 .619607843137255 .588235294117647 83 3 571 .647058823529412 .619607843137255
 .588235294117647 79 255 15 561 SDL/TYSA_COLOUR15 558 155 0 173 114 109 50 129 1
65 0 114 138 554 582 +.0064 .00923760430703402 1301042606982604e-33 1 0 0 0 0 -1
 50 554 197 0 548 129 549 0 +.0414 0 0 -1 0 0 0 0 1 141 582 122 583 583 129 137
 122 172 0 1 112 116 584 +129 585 0 ?141 583 126 582 582 129 133 116 171 0 32 12
2 126 0 +126 .0064 0 .0054 .0064 0 -.0054 0 1 141 584 112 584 584 122 134 585 0
 0 0 0 0 0 +586 587 136 586 2 31 2 16 5 FFF1 588 589 590 135 587 2 0 45 62 588 .
0054 -.00923760430703402 .00539979762979055 -.01026786328623066 .005020856825737
13 -.01122531573866812 .00481958606579751 -.01173385739120806 .00451977576058072
 -.0121925369753138 .004214121712684425 -.01266015689741062 .00381837661840736 -
.01305598092544138 .00342338888795177 -.01345104743858986 .00295493266827977 -.0
1375738006761474 .002497190141701115 -.01405670680444728 .001987711431634115 -.0
1425846113277114 .001499718946401484 -.01445170688404552 .000982600483025583 -.0
1454745329648352 .000495965403733923 -.01463755559664986 1301042606982604e-33 -.
01463760430703402 -.000494906205731077 -.01463765291339088 -.00098260048302558 -
.01454745329648352 -.001498710048236126 -.0144519982394292 -.00198771143163411 -
.01425846113277114 -.002496253084175985 -.0140571903728315 -.00295493266827977 -
.01375738006761474 -.00342255259037957 -.01345172601971524 -.003818376618407355
 -.01305598092544138 -.00421344313155352 -.01266099319498832 -.00451977576058072
 -.0121925369753138 -.00481910249741298 -.01173479444873654 -.00502085682573712
 -.01122531573866812 -.00521410257701201 -.01073732325343358 -.0053098489894495
 -.0102202047900596 -.00539990252749948 -.00973383307092918 -.0054 -.00923760430
703402 127 16 589 3 2 2 2 2 2 2 2 2 2 2 2 2 2 2 3 128 16 590 0 .125 .1875 .25 .3
125 .375 .4375 .5 .5625 .625 .6875 .75 .8125 .875 .9375 1 51 549 241 0 442 554 5
43 0 +0 0 0 -1 0 0 .008 0 0 1 50 543 317 0 438 549 537 0 +.0058 .008 0 1 0 0 0 0
 -1 50 537 344 0 448 543 484 0 +.0058 .008 0 1 0 0 0 0 -1 50 484 371 0 467 537 4
79 0 +.0058 .008 0 1 0 0 0 0 -1 17 173 0 558 173 173 0 591 120 0 0 +17 591 0 443
 591 591 0 173 120 0 0 -15 443 228 0 591 442 0 83 3 556 .647058823529412 .619607
843137255 .588235294117647 15 166 192 0 165 548 0 83 3 551 .647058823529412 .619
607843137255 .588235294117647 83 3 545 .647058823529412 .619607843137255 .588235
294117647 81 1 538 1436 496 467 0 482 481 534 592 83 3 540 .647058823529412 .619
607843137255 .588235294117647 81 1 482 1513 480 467 538 0 478 485 593 81 1 481 1
435 496 477 0 478 532 538 594 83 3 592 .647058823529412 .619607843137255 .588235
294117647 81 1 532 1434 496 463 0 485 528 481 595 83 3 594 .647058823529412 .619
607843137255 .588235294117647 81 1 485 1514 480 463 532 0 482 487 596 83 3 595 .
647058823529412 .619607843137255 .588235294117647 82 1 596 999999 82 1 593 99999
9 83 3 533 .647058823529412 .619607843137255 .588235294117647 50 209 452 0 460 4
86 194 0 +.0058 .008 0 1 0 0 0 0 -1 50 486 427 0 463 479 209 0 +.0058 .008 0 1 0
 0 0 0 -1 83 3 529 .647058823529412 .619607843137255 .588235294117647 83 3 523 .
647058823529412 .619607843137255 .588235294117647 83 3 519 .647058823529412 .619
607843137255 .588235294117647 83 3 515 .647058823529412 .619607843137255 .588235
294117647 83 3 510 .647058823529412 .619607843137255 .588235294117647 83 3 504 .
647058823529412 .619607843137255 .588235294117647 81 1 497 1252 597 18 0 491 0 0
 598 81 1 488 1419 496 16 0 487 0 491 599 83 3 499 .647058823529412 .61960784313
7255 .588235294117647 83 3 599 .647058823529412 .619607843137255 .58823529411764
7 80 1 597 600 601 8017 0 0 0 0 0 0 0 0 0 TTTTTTTTTTTTTF3 84 255 4 598 NONE79 13
 601 SDL/TYSA_NAME79 14 495 SWEntUnchanged82 1 490 -778960786 82 1 483 999999 17
 86 0 475 476 100 84 418 414 0 408 -17 100 0 475 86 472 98 469 233 0 468 +16 238
 553 0 ?67 233 259 226 0 0 1 17 451 0 250 452 450 51 69 232 0 0 -16 232 512 0 ?6
9 372 225 202 0 0 1 17 75 0 362 458 94 73 361 392 0 391 -17 351 0 362 94 457 39
 320 314 0 355 -40 2 323 0 1 2 .000714531179816322 .2810349015028115 ??-56738050
753577e-31 -.00692820323027549 .004 .000714531179816317 -.00461880215351699 .008
 41 1 324 L?-56738050753577e-31 -.00692820323027549 .004 41 1 325 L?.00071453117
9816317 -.00461880215351699 .008 204 8 326 4 .00461880215351703 -.0064 4.1887902
0478639 -.00071881836689522 .00923760430703402 -.00568546882018368 3.66519142918
809 -4287187078897235e-21 141 307 287 602 602 219 141 602 295 307 307 219 40 2 3
02 0 1 2 .000714531179816278 .281034901502805 ??.000714531179816278 -.0046188021
5351709 -.00799999999999986 7896383685629e-31 -.00692820323027551 -.004 41 1 303
 L?.000714531179816278 -.00461880215351709 -.00799999999999986 41 1 304 L?789638
3685629e-31 -.00692820323027551 -.004 204 8 305 4 1600838078464395e-31 -.0056854
6882018372 5.75958653158127 -4287187078957325e-21 .00461880215351701 -.0064 5.23
598775598299 -.000718818366895235 141 284 295 603 603 269 141 603 260 284 284 26
9 40 2 270 0 1 2 .000714531179816358 .2810349015028175 ??-233613100476647e-33 -4
89858719658941e-33 -.008 .000714531179816358 -.00461880215351713 -.008 41 1 271
 L?-233613100476647e-33 -489858719658941e-33 -.008 41 1 272 L?.00071453117981635
8 -.00461880215351713 -.008 204 8 273 4 -.0064 -.004618802153517 0 -.00071881836
6895236 -.00568546882018364 -.00923760430703413 5.75958653158128 -42871870788772
05e-21 141 257 260 604 604 251 141 604 268 257 257 251 40 2 242 0 1 2 .000714531
179816321 .2810349015028115 ??-1235156166301418e-33 .0069282032302755 -.004 .000
71453117981632 .004618802153517 -.008 41 1 243 L?-1235156166301418e-33 .00692820
32302755 -.004 41 1 244 L?.00071453117981632 .004618802153517 -.008 204 8 245 4
 -.004618802153517 -.0064 1.047197551196596 -.00071881836689522 0 -.005685468820
18368 .523598775598298 -4287187078898235e-21 40 2 234 0 1 2 .000714531179816327
 .2810349015028125 ??827908379757194e-33 .00692820323027551 .004 .00071453117981
6327 .00923760430703402 -148741681433374e-34 41 1 235 L?827908379757194e-33 .006
92820323027551 .004 41 1 236 L?.000714531179816327 .00923760430703402 -148741681
433374e-34 204 8 237 4 -.00461880215351702 -.0064 2.094395102393195 -.0007188183
66895225 128814074722914e-34 -.00568546882018367 1.570796326794895 -428718707889
8235e-21 141 222 301 605 605 203 141 605 193 222 222 203 141 220 301 606 606 213
 141 606 312 220 220 213 141 211 190 607 607 194 141 607 193 211 211 194 40 2 20
4 0 1 2 .000714531179816317 .281034901502811 ??.000714531179816315 -.00461880215
351698 .008 -1186650421572924e-33 2992882834526275e-34 .008 41 1 205 L?.00071453
1179816315 -.00461880215351698 .008 41 1 206 L?-1186650421572924e-33 29928828345
26275e-34 .008 204 8 207 4 .00568546882018369 -.00923760430703399 3.665191429188
09 -428718707889924e-20 .0064 -.00461880215351701 3.141592653589795 -.0007188183
66895216 141 171 170 171 171 168 17 157 0 148 157 157 0 155 154 0 0 -15 148 1098
 0 157 124 117 141 149 21 139 139 133 141 128 116 128 128 126 134 130 0 0 0 0 0
 0 +608 609 136 608 2 31 2 16 5 FFF1 610 611 612 135 609 2 0 45 62 610 -.0054 -.
00923760430703402 -.00539979762979055 -.00820734532783864 -.00502085682573713 -.
00724989287539991 -.00481958606579676 -.00674135122285742 -.00451977576058072 -.
00628267163875425 -.004214121712681695 -.00581505171665468 -.003818376618407355
 -.00541922768862666 -.003423388887951915 -.00502416117547833 -.0029549326682797
7 -.0047178285464533 -.002497190141701675 -.00441850180962107 -.0019877114316341
15 -.004216747481296895 -.001499718946401794 -.00402350173002255 -.0009826004830
25582 -.00392775531758452 -.000495965403731638 -.00383765301741777 4336808689942
e-31 -.00383760430703402 .000494906205724393 -.003837555700677565 .0009826004830
25583 -.003927755317584515 .00149871004823455 -.00402321037463681 .0019877114316
34115 -.004216747481296895 .00249625308417823 -.00441801824123891 .0029549326682
7977 -.0047178285464533 .003422552590377595 -.00502348259435058 .003818376618407
36 -.00541922768862666 .00421344313155612 -.00581421541908253 .00451977576058072
 -.00628267163875425 .00481910249741341 -.00674041416533327 .00502085682573712 -
.0072498928753999 .00521410257701148 -.00773788536063245 .0053098489894495 -.008
25500382400844 .00539990252749948 -.00874137554313805 .0054 -.00923760430703402
 127 16 611 3 2 2 2 2 2 2 2 2 2 2 2 2 2 2 3 128 16 612 0 .125 .1875 .25 .3125 .3
75 .4375 .5 .5625 .625 .6875 .75 .8125 .875 .9375 1 19 17 989 0 1 0 9 5 S0 74 4
 CI16 index_map_offset0 0 1 dCCZ20 15 10 0 0 613 614 552 615 497 616 617 13 565
 2 0 0 0 0 0 0 0 0 0 0 81 2 613 1104 618 1 0 614 0 0 0 619 81 2 614 1105 620 1 6
13 615 0 0 0 621 81 2 615 1212 622 1 614 616 0 0 0 623 81 2 616 1282 624 1 615 6
17 0 0 625 0 81 1 617 1383 626 1 616 13 0 0 627 81 2 13 1417 628 1 617 2 0 0 0 0
 80 2 628 629 630 9000 0 0 0 0 3 5 0 0 0 FFTFFFFFFFFFFF9 1 79 16 630 BODY_RECIPE
_200180 1 626 631 632 9000 1 1 1 1 1 1 1 1 0 FFTFFFFFFFFFFF1 82 1 627 6082300 79
 10 632 BODY_MATCH80 2 624 633 634 8004 0 0 0 0 3 5 0 0 0 FFTFFFFFFFFFFF2 3 83 1
 625 79e2 79 16 634 SDL/TYSA_DENSITY80 2 622 635 636 9000 0 0 0 0 3 5 0 0 0 FFTF
FFFFFFFFFF9 1 82 1 623 1 79 24 636 BODY_IN_LIGHTWEIGHT_PERM80 2 620 637 638 9000
 0 0 0 0 3 5 0 0 0 FFTFFFFFFFFFFT9 1 82 1 621 104 79 19 638 ENT_TIME_STAMP_20018
0 2 618 639 640 9000 0 0 0 0 3 5 0 0 0 FFTFFFFFFFFFFF9 1 82 1 619 28 79 30 640 L
AST_BODY_MODIFYING_FEATURE_ID80 2 12 641 642 9000 0 0 0 0 3 5 0 0 0 FFTFFFFFFFFF
FF9 1 82 1 14 102 79 12 642 ATOM_ID_20011 0 
