**ABCDEFGHIJKLMNOPQRSTUVWXYZabcdefghijklmnopqrstuvwxyz**************************
**PARASOLID !"#$%&'()*+,-./:;<=>?@[\]^_`{|}~0123456789**************************
**PART1;
MC=AMD64;
MC_MODEL=Intel64 Family 6 Model 142 Stepping 10, GenuineIntel;
MC_ID=unknown;
OS=Windows_NT;
OS_RELEASE=unknown;
FRU=Parasolid Version 31.0, build 282,  2-25-2019;
APPL=SOLIDWORKS 2019-2019115;
SITE=;
USER=unknown;
FORMAT=text;
GUISE=transmit;
KEY=DIN 933 - M8 x 1.25  x 25_;
FILE=DIN 933 - M8 x 1.25  x 25_.x_t;
DATE=Tue Feb  4 09:11:22 2020;
**PART2;
SCH=SCH_3100282_31001;
USFLD_SIZE=0;
**PART3;
**END_OF_HEADER*****************************************************************
T51 : TRANSMIT FILE created by modeller version 310028223 SCH_3100282_31001_1300
6215 0 12 34 CCCCCCI4 mesh1006 0 I8 polyline1008 0 CCCCCCCDI5 owner1040 0 CCCCCC
I13 boundary_mesh1006 0 I17 boundary_polyline1008 0 CCCA16 index_map_offset0 0 1
 dA9 index_map82 0 A17 node_id_index_map82 0 A20 schema_embedding_map82 0 A5 chi
ld12 0 A14 lowest_node_id0 0 1 dA16 mesh_offset_data206 0 Z1 1401 2 3 0 0 0 0 0
 0 1e3 1e-8 0 4 0 1 0 1 1 5 6 7 8 0 0 9 10 11 0 0 0 0 0 0 0 81 255 2 2 1377 12 1
 13 0 0 0 0 14 70 11 CI9 list_type0 0 1 uI10 notransmit0 0 1 lCCCDCCDI12 finger_
index0 0 1 dI12 finger_block1012 0 CZ3 0 4 T1 0 0 9 20 1 15 15 13 255 5 970 0 1
 0 16 0 0 17 0 50 255 6 921 0 16 18 0 0 +1734723475976805e-32 .00750555349946547
 -4440892098500625e-31 1 2465190328815665e-46 -1479114197289396e-46 295822839457
8795e-46 -227595720048157e-29 -1 31 255 7 1078 0 19 20 0 0 +0 0 0 1 246519032881
5665e-46 -1479114197289396e-46 2958228394578795e-46 -227595720048157e-29 -1 .006
49999999995998 29 255 8 1080 0 21 22 0 1157407503171726e-29 -.005629165124581 -.
003249999999991315 19 8 CCCCCCCA5 owner12 0 Z9 5 0 1 17 0 23 V0 16 255 10 18 0 ?
24 0 25 26 0 0 1 18 255 11 184 0 27 0 28 29 ?1 17 255 27 0 30 31 32 11 33 34 0 3
5 -18 28 185 0 36 11 37 38 ?1 29 29 1007 0 11 39 40 .005075 -1332267629550188e-3
0 .00649999999999973 29 39 1004 0 41 42 29 .005075 -.00562916512459877 -.00325 2
9 40 1008 0 43 29 44 .005075 -.00562916512460099 .003250000000000195 18 43 223 0
 45 41 46 40 ?1 29 44 1025 0 47 40 48 .000580556583641187 .00375277674972807 .00
649999999999573 18 47 460 0 49 50 51 44 ?1 29 48 1034 0 52 44 53 .00058055658364
1246 .00750555349945836 666133814775094e-30 18 52 499 0 54 55 56 48 ?1 29 53 104
3 0 57 48 58 .000580556583641229 .003752776749730735 -.00649999999999529 18 57 5
40 0 59 56 60 53 ?1 29 58 1052 0 61 53 62 .000580556583641229 -.0037527767497294
05 -.00649999999999507 18 61 579 0 63 60 64 58 ?1 29 62 1057 0 55 58 65 .0005805
56583642894 -.00375277674973562 .0064999999999944 18 55 462 0 66 51 52 62 ?1 29
 65 1062 0 67 62 68 .000580556583641239 -.00750555349945836 -666133814775094e-30
 18 67 622 0 69 64 21 65 ?1 29 68 1067 0 51 65 70 1154631945610162e-29 0 .006499
99999997997 18 51 461 0 71 47 55 68 ?1 29 70 1070 0 56 68 72 1154631945610162e-2
9 .005629165124581 .00324999999999065 18 56 500 0 73 52 57 70 ?1 29 72 1073 0 60
 70 74 1154631945610162e-29 .00562916512458189 -.003249999999990205 18 60 541 0
 75 57 61 72 ?1 29 74 1076 0 64 72 22 1157407503171726e-29 4440892098500625e-31
 -.00649999999997974 18 64 580 0 76 61 67 74 ?1 29 22 1079 0 77 74 8 11546319456
10162e-29 -.00562916512458145 .00324999999998954 18 77 664 0 78 21 0 22 ?1 17 78
 0 79 71 80 77 81 19 0 82 -18 21 623 0 80 67 77 8 ?1 17 80 0 79 78 76 21 83 84 0
 85 -15 255 79 908 0 80 16 0 17 76 0 79 80 75 64 86 87 0 88 -17 83 0 89 63 85 64
 80 84 0 90 +16 84 834 0 ?83 87 19 20 0 0 1 17 85 0 89 83 63 21 91 92 0 81 +15 8
9 832 0 83 93 0 17 63 0 89 85 83 61 90 94 0 91 +17 91 0 95 96 97 61 85 92 0 98 -
16 92 618 0 ?85 99 100 101 0 0 1 17 81 0 102 69 82 21 78 19 0 97 +15 102 867 0 8
1 103 0 17 69 0 102 82 81 67 97 99 0 104 +17 82 0 102 81 69 77 104 105 0 106 +16
 19 869 0 ?81 84 0 7 0 0 1 17 97 0 95 91 107 21 69 99 0 0 -15 95 614 0 107 108 0
 17 107 0 95 97 109 67 110 111 0 0 -16 99 617 0 ?69 111 92 112 0 0 1 16 111 616
 0 ?110 113 99 114 0 0 1 38 12 CCCCCCCCCCCA17 intersection_data204 0 Z112 1047 0
 99 115 101 0 +116 18 117 118 119 120 38 115 1042 0 113 121 112 0 +122 123 124 1
25 126 127 38 101 1051 0 92 112 128 0 +116 129 130 131 132 133 50 116 627 0 108
 122 134 135 +.005675 -.00375277674973207 -.00649999999999973 1479114197289396e-
46 .866025403784442 .5 -542341872339446e-45 -.5 .866025403784438 52 255 18 874 0
 103 129 6 136 +.000584039923069213 0 0 1 2465190328815665e-46 -1479114197289396
e-46 .00751158682032838 .866025403776712 .500000000013383 2958228394578795e-46 -
227595720048157e-29 -1 40 255 2 117 0 1 2 .000580556583617393 .2810349015117015
 ??2384203945382525e-29 -.00562916512459832 -.00324999999999931 .000580556583641
239 -.00750555349945969 -1021405182655144e-29 41 3 CI8 term_use0 0 1 cCZ1 118 L?
2384203945382525e-29 -.00562916512459832 -.00324999999999931 41 1 119 L?.0005805
56583641239 -.00750555349945969 -1021405182655144e-29 204 2 17 INTERSECTION_DATA
17 Intersection data7 uv_type0 0 1 u6 values0 1 1 fT8 120 4 .003752776749732915
 -.00567499999997618 5.23598775598294 -.000584039923046572 .00750555349945358 -.
00509444341635878 4.71238898038605 -3483339427764885e-21 14 255 103 865 137 1e-8
 93 16 102 5 18 +0 0 16 93 23 52 129 839 0 93 123 18 138 +.000584039923069213 0
 0 1 2465190328815665e-46 -1479114197289396e-46 .00751158682032838 .866025403776
712 .500000000013383 2958228394578795e-46 -227595720048157e-29 -1 141 255 136 13
9 140 140 18 38 139 1061 0 105 128 141 0 +134 18 142 143 144 145 141 140 112 136
 136 18 16 105 659 0 ?82 100 146 139 0 0 1 38 128 1056 0 100 101 139 0 +134 147
 148 149 150 151 31 141 1064 0 146 139 152 0 +0 0 0 1 2465190328815665e-46 -1479
114197289396e-46 2958228394578795e-46 -227595720048157e-29 -1 .00649999999995998
 50 134 668 0 153 116 154 155 +.005675 -.00750555349946502 0 646557871909522e-45
 .866025403784439 -.5 0 .500000000000006 .86602540378444 40 2 142 0 1 2 .0005805
56583618051 .2810349015116845 ??.000580556583641239 -.00750555349946058 10214051
82655144e-29 2310651670001105e-29 -.0056291651246001 .00324999999999931 41 1 143
 L?.000580556583641239 -.00750555349946058 1021405182655144e-29 41 1 144 L?23106
51670001105e-29 -.0056291651246001 .00324999999999931 204 8 145 4 11066074406614
74e-29 -.00509444341635879 4.71238898038333 -3483339427252095e-21 .0037527767497
31305 -.00567499999997693 4.18879020478658 -.000584039923045684 14 153 653 156 1
e-8 108 157 158 5 134 -0 0 157 108 23 52 154 707 0 157 134 147 159 +.00058403992
3069213 0 0 1 2465190328815665e-46 -1479114197289396e-46 .00751158682032838 .866
025403776712 .500000000013383 2958228394578795e-46 -227595720048157e-29 -1 141 1
55 128 160 160 134 141 160 139 155 155 134 14 157 698 161 1e-8 153 162 163 5 154
 +0 0 162 153 23 52 147 736 0 162 154 164 165 +.000584039923069213 0 0 1 2465190
328815665e-46 -1479114197289396e-46 .00751158682032838 .866025403776712 .5000000
00013383 2958228394578795e-46 -227595720048157e-29 -1 141 159 166 167 167 154 38
 166 1024 0 168 169 170 0 +171 154 172 173 174 175 141 167 176 159 159 154 38 17
6 1012 0 177 178 179 0 +180 154 181 182 183 184 16 177 455 0 ?49 185 186 176 0 0
 1 31 178 1006 0 187 188 176 0 -.005075 0 0 -1 -2465190328815665e-46 14791141972
89396e-46 -2958228394578795e-46 227595720048157e-29 1 .0065 38 179 1016 0 186 17
6 169 0 +180 147 189 190 191 192 50 180 465 0 193 194 171 195 +.005675 .00375277
674973251 .0065 394430452610506e-45 -255351295663786e-29 -1 394430452610506e-45
 1 1665334536937735e-30 40 2 181 0 1 2 .000580556583617392 .2810349015117015 ??2
38142838782096e-28 1332267629550188e-30 .00649999999999773 .000580556583641187 .
003752776749720965 .00649999999999951 41 1 182 L?238142838782096e-28 13322676295
50188e-30 .00649999999999773 41 1 183 L?.000580556583641187 .003752776749720965
 .00649999999999951 204 8 184 4 -.00375277674973119 -.00567499999997617 3.141592
65358959 -.000584039923047419 -1154631945610166e-29 -.0050944434163588 2.6179938
77992805 -3483339428219585e-21 14 193 450 196 1e-8 197 198 30 5 180 -0 0 198 197
 23 50 194 434 0 197 199 180 0 +.005075 .0065 0 1 2465190328815665e-46 -14791141
97289396e-46 2958228394578795e-46 -227595720048157e-29 -1 50 171 504 0 198 180 2
00 201 +.005675 .00750555349946591 -2220446049250315e-31 -1479114197289396e-46 -
.866025403784442 -.5 542341872339446e-45 .5 -.866025403784438 141 195 176 202 20
2 180 141 202 179 195 195 180 14 198 489 203 1e-8 193 204 205 5 171 -0 0 204 193
 23 50 200 545 0 204 171 122 206 +.005675 .003752776749732955 -.0065 -4605594184
39167e-45 -.866025403784439 .5 986076131526265e-46 -.5 -.86602540378444 141 201
 169 207 207 171 38 169 1020 0 208 179 166 0 +171 164 209 210 211 212 141 207 16
6 201 201 171 16 208 494 0 ?54 213 168 169 0 0 1 52 164 769 0 214 147 123 215 +.
000584039923069213 0 0 1 2465190328815665e-46 -1479114197289396e-46 .00751158682
032838 .866025403776712 .500000000013383 2958228394578795e-46 -227595720048157e-
29 -1 40 2 209 0 1 2 .000580556583617393 .281034901511702 ??238142838782096e-28
 .00562916512459699 .003249999999999085 .000580556583641246 .00750555349946014 1
021405182655144e-29 41 1 210 L?238142838782096e-28 .00562916512459699 .003249999
999999085 41 1 211 L?.000580556583641246 .00750555349946014 1021405182655144e-29
 204 8 212 4 -.00375277674973329 -.00567499999997619 2.09439510239322 -.00058403
9923047302 -1192450449002816e-29 -.00509444341635876 1.57079632679626 -348333942
750849e-20 14 214 760 216 1e-8 162 217 218 5 164 +0 0 217 162 23 52 123 804 0 21
7 164 129 219 +.000584039923069213 0 0 1 2465190328815665e-46 -1479114197289396e
-46 .00751158682032838 .866025403776712 .500000000013383 2958228394578795e-46 -2
27595720048157e-29 -1 141 215 220 221 221 164 38 220 1033 0 222 170 121 0 +200 1
64 223 224 225 226 141 221 169 215 215 164 16 222 536 0 ?227 228 229 220 0 0 1 3
8 170 1029 0 228 166 220 0 +200 123 230 231 232 233 38 121 1038 0 94 220 115 0 +
122 129 234 235 236 237 40 2 223 0 1 2 .000580556583618047 .2810349015116835 ??.
000580556583641246 .00750555349945969 -1021405182655144e-29 2310651670001105e-29
 .00562916512459966 -.003250000000000195 41 1 224 L?.000580556583641246 .0075055
5349945969 -1021405182655144e-29 41 1 225 L?2310651670001105e-29 .00562916512459
966 -.003250000000000195 204 8 226 4 -.00750555349945336 -.0050944434163588 1.57
079632679354 -3483339427764885e-21 -.003752776749732575 -.00567499999997694 1.04
7197551196636 -.000584039923045649 16 94 574 0 ?63 229 113 121 0 0 1 50 122 584
 0 238 200 116 239 +.005675 .003752776749732955 -.0065 -3451266460341925e-46 199
840144432528e-29 1 -246519032881566e-45 -1 -233146835171283e-29 40 2 234 0 1 2 .
000580556583617394 .281034901511702 ??2384203945382525e-29 -4440892098500625e-31
 -.00649999999999906 .000580556583641229 -.003752776749720965 -.0064999999999997
3 41 1 235 L?2384203945382525e-29 -4440892098500625e-31 -.00649999999999906 41 1
 236 L?.000580556583641229 -.003752776749720965 -.00649999999999973 204 8 237 4
 .00375277674973341 -.0056749999999762 6.28318530717952 -.00058403992304665 .007
50555349945394 -.00509444341635881 5.75958653158261 -3483339428108415e-21 14 238
 569 240 1e-8 204 108 241 5 122 -0 0 108 204 23 141 239 121 242 242 122 141 242
 115 239 239 122 81 1 240 1384 243 238 244 0 216 245 246 14 204 530 245 1e-8 198
 238 247 5 200 -0 0 238 198 23 14 108 612 248 1e-8 238 153 95 5 116 -0 0 153 238
 23 15 241 571 0 98 238 0 13 23 3 0 0 0 0 0 0 9 249 14 249 2 250 1e-8 0 251 252
 5 253 +0 0 251 0 23 81 1 250 1387 243 249 254 0 248 255 256 14 251 67 255 1e-8
 249 257 258 5 259 +0 0 257 249 23 15 252 1082 0 24 249 260 51 255 253 12 0 249
 0 259 0 +0 0 0 -1 -2465190328815665e-46 1479114197289396e-46 .004 -295822839457
8795e-46 227595720048157e-29 1 50 259 79 0 251 253 261 0 +.005675 .0075055534994
6591 -2220446049250315e-31 1 2465190328815665e-46 -1479114197289396e-46 29582283
94578795e-46 -227595720048157e-29 -1 52 261 123 0 257 259 262 0 +.02998449999989
815 0 0 -1 -4336808689921325e-31 -690253292068385e-45 .0040000000000191 .7071067
81157442 .707106781215653 4336808689921305e-31 -1 -233146835171283e-29 14 257 11
2 263 1e-8 251 264 265 5 261 +0 0 264 251 23 51 262 190 0 264 261 266 0 +0 0 0 -
1 -2465190328815665e-46 1479114197289396e-46 .0065 -2958228394578795e-46 2275957
20048157e-29 1 14 264 175 267 1e-8 257 268 269 5 262 +0 0 268 257 23 50 266 266
 0 268 262 270 0 +.030675 0 0 -1 -2465190328815665e-46 1479114197289396e-46 -295
8228394578795e-46 227595720048157e-29 1 14 268 259 271 1e-8 264 272 273 5 266 -0
 0 272 264 23 50 270 299 0 272 266 274 0 +.005075 .0065 0 1 2465190328815665e-46
 -1479114197289396e-46 2958228394578795e-46 -227595720048157e-29 -1 14 272 290 2
75 1e-8 268 276 277 5 270 +0 0 276 268 23 50 274 326 0 276 270 278 0 +.005075 .0
065 0 1 2465190328815665e-46 -1479114197289396e-46 2958228394578795e-46 -2275957
20048157e-29 -1 14 276 317 279 1e-8 272 280 281 5 274 +0 0 280 272 23 50 278 353
 0 280 274 282 0 +.005075 .0065 0 1 2465190328815665e-46 -1479114197289396e-46 2
958228394578795e-46 -227595720048157e-29 -1 14 280 344 283 1e-8 276 284 285 5 27
8 +0 0 284 276 23 50 282 382 0 284 278 199 0 +.005075 .0065 0 1 2465190328815665
e-46 -1479114197289396e-46 2958228394578795e-46 -227595720048157e-29 -1 14 284 3
73 286 1e-8 280 287 288 5 282 +0 0 287 280 23 50 199 409 0 287 282 194 0 +.00507
5 .0065 0 1 2465190328815665e-46 -1479114197289396e-46 2958228394578795e-46 -227
595720048157e-29 -1 14 287 400 289 1e-8 284 197 290 5 199 +0 0 197 284 23 81 1 2
89 1396 243 287 291 0 286 292 293 14 197 425 292 1e-8 287 193 294 5 194 +0 0 193
 287 23 15 290 402 0 295 287 0 17 295 0 290 296 297 41 109 298 0 299 +17 296 0 2
90 297 295 43 300 301 0 302 -17 297 0 290 295 296 303 45 304 0 0 +18 41 222 0 30
5 306 43 39 ?1 17 109 0 95 107 305 303 295 298 0 297 -16 298 404 0 ?295 307 304
 308 0 0 1 17 299 0 288 309 310 41 311 312 0 300 -15 288 375 0 310 284 0 17 309
 0 288 310 299 313 305 307 0 0 +17 310 0 288 299 309 306 314 315 0 311 +17 311 0
 269 316 300 306 299 312 0 317 +16 312 216 0 ?311 318 301 319 0 0 1 17 300 0 269
 311 302 41 296 301 0 0 +15 269 1086 0 311 264 320 17 302 0 269 300 321 43 35 18
7 0 0 +16 301 217 0 ?300 312 187 188 0 0 1 16 187 218 0 ?302 301 322 178 0 0 1 3
1 188 1003 0 301 319 178 0 -.005075 0 0 -1 -2465190328815665e-46 147911419728939
6e-46 -2958228394578795e-46 227595720048157e-29 1 .0065 31 319 1000 0 312 323 18
8 0 -.005075 0 0 -1 -2465190328815665e-46 1479114197289396e-46 -2958228394578795
e-46 227595720048157e-29 1 .0065 31 323 997 0 318 324 319 0 -.005075 0 0 -1 -246
5190328815665e-46 1479114197289396e-46 -2958228394578795e-46 227595720048157e-29
 1 .0065 16 318 181 0 ?316 325 312 323 0 0 1 31 324 994 0 325 326 323 0 -.005075
 0 0 -1 -2465190328815665e-46 1479114197289396e-46 -2958228394578795e-46 2275957
20048157e-29 1 .0065 16 325 180 0 ?327 328 318 324 0 0 1 31 326 992 0 328 329 32
4 0 -.005075 0 0 -1 -2465190328815665e-46 1479114197289396e-46 -2958228394578795
e-46 227595720048157e-29 1 .0065 16 328 179 0 ?321 330 325 326 0 0 1 31 329 986
 0 330 331 326 0 +.0306749999999738 0 0 -1 -4336808689921325e-31 -69025329206838
5e-45 4336808689921305e-31 -1 -233146835171283e-29 .0033095000000003 16 330 118
 0 ?332 333 328 329 0 0 1 31 331 980 0 333 26 329 0 -.005675 0 0 -1 -24651903288
15665e-46 1479114197289396e-46 -2958228394578795e-46 227595720048157e-29 1 .0065
 16 333 71 0 ?334 25 330 331 0 0 1 31 26 974 0 10 335 331 0 -.005675 0 0 -1 -246
5190328815665e-46 1479114197289396e-46 -2958228394578795e-46 227595720048157e-29
 1 .004 30 255 335 631 0 1 114 26 336 +.005675 -.00750555349946502 0 1 246519032
8815665e-46 -1479114197289396e-46 133 255 114 632 0 111 337 335 0 +335 .00058055
6583641239 -.00750555349945836 -666133814775094e-30 .005075 -.00750555349946502
 0 -.00509444341635877 -6e-4 141 336 114 336 336 335 30 337 588 0 1 338 114 339
 +.005675 -.00375277674973207 -.00649999999999973 1 2465190328815665e-46 -147911
4197289396e-46 133 338 589 0 229 340 337 0 +337 .000580556583641229 -.0037527767
49729405 -.00649999999999507 .005075 -.00375277674973251 -.00649999999999973 -.0
0509444341635878 -6e-4 141 339 338 339 339 337 16 229 573 0 ?96 222 94 338 0 0 1
 30 340 549 0 1 341 338 342 +.005675 .003752776749732955 -.0065 1 24651903288156
65e-46 -1479114197289396e-46 133 341 550 0 343 344 340 0 +340 .00058055658364122
9 .003752776749730735 -.00649999999999529 .005075 .003752776749732955 -.0065 -.0
0509444341635879 -6e-4 141 342 341 342 342 340 16 343 534 0 ?345 168 228 341 0 0
 1 30 344 508 0 1 346 341 347 +.005675 .00750555349946591 -2220446049250315e-31
 1 2465190328815665e-46 -1479114197289396e-46 133 346 509 0 213 348 344 0 +344 .
000580556583641246 .00750555349945836 666133814775094e-30 .005075 .0075055534994
6591 -2220446049250315e-31 -.00509444341635878 -6e-4 141 347 346 347 347 344 16
 213 493 0 ?349 350 208 346 0 0 1 30 348 467 0 1 351 346 352 -.005675 -.00375277
674973429 .00649999999999973 1 2465190328815665e-46 -1479114197289396e-46 133 35
1 468 0 350 353 348 0 +348 .005075 -.00375277674973429 .00649999999999973 .00058
0556583642894 -.00375277674973562 .0064999999999944 -6e-4 -.0050944434163571 141
 352 351 352 352 348 16 350 457 0 ?354 186 213 351 0 0 1 30 353 469 0 1 355 351
 356 +.005675 .00375277674973251 .0065 1 2465190328815665e-46 -1479114197289396e
-46 133 355 470 0 185 357 353 0 +353 .000580556583641187 .00375277674972807 .006
49999999999573 .005075 .00375277674973251 .0065 -.00509444341635878 -6e-4 141 35
6 355 356 356 353 16 185 454 0 ?358 34 177 355 0 0 1 30 357 435 0 1 359 355 360
 -.005075 .00649999999999773 .0065 1479114197289396e-46 1 233146835171283e-29 13
3 359 436 0 34 361 357 0 +357 .005075 -1332267629550188e-30 .00649999999999973 .
005075 -.00375277674973429 .00649999999999973 -.0065 -.01025277674973256 141 360
 359 360 360 357 16 34 430 0 ?33 362 185 359 0 0 1 30 361 437 0 1 363 359 364 +.
005075 -.00375277674973429 .00649999999999973 -986076131526265e-46 -.5 -.8660254
0378444 133 363 438 0 362 365 361 0 +361 .005075 -.00375277674973429 .0064999999
9999973 .005075 -.00562916512460099 .003250000000000195 1068633729742956e-33 .00
375277674973256 141 364 363 364 364 361 16 362 429 0 ?366 304 34 363 0 0 1 30 36
5 410 0 1 367 363 368 +.005075 -.00562916512460099 .003250000000000195 -29582283
94578795e-46 -.500000000000006 -.866025403784438 133 367 411 0 304 369 365 0 +36
5 .005075 -.00562916512460099 .003250000000000195 .005075 -.00750555349946502 0
 0 .00375277674973259 141 368 367 368 368 365 16 304 405 0 ?297 298 362 367 0 0
 1 30 369 412 0 1 308 367 370 +.005075 -.00750555349946502 0 443734259186819e-45
 .5 -.866025403784437 133 308 413 0 298 371 369 0 +369 .005075 -.007505553499465
02 0 .005075 -.00562916512459877 -.00325 1151894948022184e-33 .00375277674973257
5 141 370 308 370 370 369 30 371 383 0 1 372 308 373 +.005075 -.0056291651245987
7 -.00325 739557098644699e-45 .5 -.866025403784439 133 372 384 0 307 374 371 0 +
371 .005075 -.00562916512459877 -.00325 .005075 -.00375277674973251 -.0064999999
9999973 -112673594905287e-32 .00375277674973256 141 373 372 373 373 371 16 307 3
78 0 ?309 315 298 372 0 0 1 30 374 385 0 1 375 372 376 +.005075 .0065 -.00649999
999999973 1479114197289396e-46 1 233146835171283e-29 133 375 386 0 315 377 374 0
 +374 .005075 -.00375277674973251 -.00649999999999973 .005075 0 -.0065 -.0102527
7674973258 -.0065 141 376 375 376 376 374 16 315 377 0 ?310 378 307 375 0 0 1 30
 377 354 0 1 379 375 380 +.005075 .003752776749732955 -.0065 -394430452610506e-4
5 .5 .866025403784439 133 379 355 0 378 381 377 0 +377 .005075 .0037527767497329
55 -.0065 .005075 .00562916512459966 -.003250000000000195 0 .00375277674973256 1
41 380 379 380 380 377 16 378 349 0 ?382 383 315 379 0 0 1 30 381 356 0 1 384 37
9 385 +.005075 .0065 -.00649999999999973 1479114197289396e-46 1 233146835171283e
-29 133 384 357 0 383 386 381 0 +381 .005075 0 -.0065 .005075 .00375277674973295
5 -.0065 -.0065 -.00274722325026744 141 385 384 385 385 381 16 383 347 0 ?387 38
8 378 384 0 0 1 30 386 327 0 1 389 384 390 +.005075 .00562916512459966 -.0032500
00000000195 -986076131526265e-46 .5 .86602540378444 133 389 328 0 388 391 386 0
 +386 .005075 .00562916512459966 -.003250000000000195 .005075 .00750555349946591
 -2220446049250315e-31 581022193099131e-34 .00375277674973258 141 390 389 390 39
0 386 16 388 322 0 ?392 393 383 389 0 0 1 30 391 329 0 1 394 389 395 +.005075 .0
0750555349946591 -2220446049250315e-31 -739557098644699e-45 -.5 .866025403784438
 133 394 330 0 393 396 391 0 +391 .005075 .00750555349946591 -2220446049250315e-
31 .005075 .00562916512459877 .003249999999998865 657262636947506e-33 .003752776
749732575 141 395 394 395 395 391 16 393 321 0 ?397 398 388 394 0 0 1 30 396 300
 0 1 399 394 400 +.005075 .00562916512459877 .003249999999998865 -29582283945787
95e-46 -.5 .866025403784439 133 399 301 0 398 401 396 0 +396 .005075 .0056291651
2459877 .003249999999998865 .005075 .00375277674973251 .0065 -37557864968429e-32
 .00375277674973256 141 400 399 400 400 396 16 398 295 0 ?402 322 393 399 0 0 1
 30 401 302 0 1 403 399 404 -.005075 .00649999999999773 .0065 1479114197289396e-
46 1 233146835171283e-29 133 403 303 0 322 405 401 0 +401 .005075 .0037527767497
3251 .0065 .005075 -1332267629550188e-30 .00649999999999973 -.00274722325026743
 -.0065 141 404 403 404 404 401 16 322 294 0 ?406 187 398 403 0 0 1 31 405 110 0
 25 0 403 0 +.0299845 0 0 -1 -2465190328815665e-46 1479114197289396e-46 -2958228
394578795e-46 227595720048157e-29 1 .004 16 25 9 0 ?407 10 333 405 0 0 1 17 407
 0 260 407 407 0 408 25 0 0 +15 260 7 0 407 249 0 17 408 0 265 408 408 0 407 25
 0 0 -15 265 1084 0 408 257 409 15 409 114 0 332 257 0 17 332 0 409 332 332 0 41
0 330 0 0 +17 410 0 273 410 410 0 332 330 0 0 -15 273 261 0 410 268 0 17 406 0 2
77 411 402 11 31 322 0 321 +15 277 292 0 406 272 0 17 411 0 277 402 406 28 321 3
28 0 327 -17 402 0 277 406 411 46 36 398 0 0 +17 31 0 30 412 27 46 406 322 0 402
 -17 321 0 269 302 327 11 411 328 0 0 +17 327 0 269 321 316 28 413 325 0 0 +17 3
16 0 269 327 311 37 317 318 0 0 +17 413 0 281 392 397 37 327 325 0 316 -15 281 3
19 0 397 276 0 17 392 0 281 397 413 414 415 388 0 0 +17 397 0 281 413 392 28 416
 393 0 411 +18 37 186 0 415 28 306 417 ?1 17 415 0 247 418 349 37 392 388 0 382
 -18 306 187 0 419 37 41 42 ?1 29 417 998 0 37 38 42 .005075 .00562916512459966
 -.003250000000000195 29 38 995 0 28 420 417 .005075 .00562916512459877 .0032499
99999998865 29 42 1001 0 306 417 39 .005075 0 -.0065 29 420 862 0 303 421 38 .00
5075 -.00750555349946502 0 18 303 407 0 110 313 50 420 2061552813048165e-23 1 29
 421 827 0 313 422 420 .005075 -.00375277674973251 -.00649999999999973 18 313 38
0 0 96 423 303 421 206155281299699e-22 1 29 422 792 0 423 424 421 .005075 .00375
2776749732955 -.0065 18 423 352 0 345 414 313 422 2061552812850905e-23 1 29 424
 757 0 414 425 422 .005075 .00750555349946591 -2220446049250315e-31 18 414 324 0
 349 46 423 424 2061552812908445e-23 1 29 425 756 0 50 426 424 .005075 -.0037527
7674973429 .00649999999999973 18 50 432 0 32 303 47 425 206155281292783e-22 1 29
 426 695 0 46 0 425 .005075 .00375277674973251 .0065 18 46 297 0 358 43 414 426
 2061552812892975e-23 1 17 358 0 205 36 427 46 412 185 0 31 +15 205 491 0 428 19
8 0 17 36 0 205 416 358 28 402 398 0 397 -17 427 0 205 358 429 47 430 168 0 412
 -17 412 0 30 431 31 47 358 185 0 0 -15 30 452 0 412 193 0 17 431 0 30 432 412 5
1 49 177 0 0 -17 432 0 30 32 431 55 433 186 0 0 -17 49 0 163 430 434 47 431 177
 0 427 +15 163 700 0 430 157 0 17 430 0 163 434 49 56 427 168 0 435 +17 434 0 16
3 49 430 51 73 146 0 431 +17 73 0 79 75 71 56 434 146 0 430 -16 146 701 0 ?434 1
05 436 141 0 0 1 16 436 731 0 ?106 146 437 152 0 0 1 17 106 0 438 66 433 77 71 4
36 0 439 +16 437 763 0 ?435 436 87 440 0 0 1 31 152 1066 0 436 141 440 0 +0 0 0
 1 2465190328815665e-46 -1479114197289396e-46 2958228394578795e-46 -227595720048
157e-29 -1 .00649999999995998 31 440 1069 0 437 152 441 0 +0 0 0 1 2465190328815
665e-46 -1479114197289396e-46 2958228394578795e-46 -227595720048157e-29 -1 .0064
9999999995998 31 441 1072 0 87 440 20 0 +0 0 0 1 2465190328815665e-46 -147911419
7289396e-46 2958228394578795e-46 -227595720048157e-29 -1 .00649999999995998 16 8
7 798 0 ?86 437 84 441 0 0 1 31 20 1075 0 84 441 7 0 +0 0 0 1 2465190328815665e-
46 -1479114197289396e-46 2958228394578795e-46 -227595720048157e-29 -1 .006499999
99995998 17 86 0 442 59 88 60 76 87 0 443 +15 442 797 0 88 217 0 17 59 0 442 88
 86 57 443 228 0 444 +17 88 0 442 86 59 64 444 113 0 83 +17 443 0 247 445 446 60
 59 228 0 0 -15 247 532 0 446 204 0 17 445 0 247 349 443 52 227 222 0 428 -17 44
6 0 247 443 418 57 345 343 0 0 -16 228 535 0 ?59 343 222 170 0 0 1 17 418 0 247
 446 415 423 382 378 0 387 -17 345 0 241 419 444 423 446 343 0 418 +17 419 0 241
 314 345 306 387 383 0 310 -17 444 0 241 345 90 57 88 113 0 446 -17 90 0 241 444
 98 64 63 94 0 0 -16 113 575 0 ?88 94 111 115 0 0 1 17 98 0 241 90 314 61 96 229
 0 0 -17 314 0 241 98 419 313 310 315 0 309 -17 96 0 95 305 91 313 98 229 0 314
 +17 305 0 95 109 96 41 309 307 0 295 -17 387 0 285 382 317 423 419 383 0 0 +15
 285 346 0 317 280 0 17 382 0 285 317 387 37 418 378 0 413 +17 317 0 285 387 382
 306 316 318 0 0 -17 349 0 247 415 445 414 428 213 0 416 +17 227 0 218 435 54 60
 445 222 0 86 +17 428 0 205 429 416 52 349 213 0 0 -17 429 0 205 427 428 56 54 2
08 0 0 -17 416 0 205 428 36 414 397 393 0 392 -17 54 0 218 227 435 52 429 208 0
 445 +15 218 762 0 227 214 0 17 435 0 218 54 227 56 75 437 0 429 +17 75 0 79 76
 73 60 435 437 0 227 -14 217 795 447 1e-8 214 93 442 5 123 +0 0 93 214 23 81 1 4
47 1398 243 217 448 0 292 449 450 14 93 830 449 1e-8 217 103 89 5 129 +0 0 103 2
17 23 81 1 449 1399 243 93 451 0 447 452 453 80 255 1 243 454 455 9000 1 1 1 1 1
 1 1 1 0 FFFFTFTFFFFFFF1 81 1 451 1298 456 93 0 449 457 448 458 81 1 452 1400 24
3 16 459 0 449 460 461 82 255 1 453 999999 14 16 906 452 1e-8 103 0 79 5 6 -0 0
 0 103 23 81 1 459 1296 456 16 462 452 0 457 463 81 1 460 1401 243 162 464 0 452
 0 465 82 1 461 999999 14 162 727 460 1e-8 157 214 438 5 147 +0 0 214 157 23 81
 1 464 1301 456 162 0 460 466 467 468 82 1 465 999999 80 1 456 0 469 8001 0 0 0
 0 3 5 0 0 0 FFFFTFTFFFFFFF2 81 1 466 1300 456 214 0 216 448 464 470 81 1 467 13
02 456 157 0 161 464 471 472 83 255 3 468 .647058823529412 .619607843137255 .588
235294117647 81 1 161 1380 243 157 467 0 156 196 473 81 1 471 1303 456 153 0 156
 467 474 475 83 3 472 .647058823529412 .619607843137255 .588235294117647 81 1 15
6 1379 243 153 471 0 137 161 476 81 1 474 1304 456 108 0 248 471 244 477 83 3 47
5 .647058823529412 .619607843137255 .588235294117647 81 1 248 1386 243 108 474 0
 245 250 478 81 1 244 1305 456 238 0 240 474 479 480 83 3 477 .647058823529412 .
619607843137255 .588235294117647 81 1 479 1306 456 204 0 245 244 481 482 83 3 48
0 .647058823529412 .619607843137255 .588235294117647 81 1 245 1385 243 204 479 0
 240 248 483 81 1 481 1307 456 198 0 203 479 484 485 83 3 482 .647058823529412 .
619607843137255 .588235294117647 81 1 203 1382 243 198 481 0 196 216 486 81 1 48
4 1308 456 193 0 196 481 487 488 83 3 485 .647058823529412 .619607843137255 .588
235294117647 81 1 196 1381 243 193 484 0 161 203 489 81 1 487 1309 456 197 0 292
 484 291 490 83 3 488 .647058823529412 .619607843137255 .588235294117647 81 1 29
2 1397 243 197 487 0 289 447 491 81 1 291 1310 456 287 0 289 487 492 493 83 3 49
0 .647058823529412 .619607843137255 .588235294117647 81 1 492 1311 456 284 0 286
 291 494 495 83 3 493 .647058823529412 .619607843137255 .588235294117647 81 1 28
6 1395 243 284 492 0 283 289 496 81 1 494 1312 456 280 0 283 492 497 498 83 3 49
5 .647058823529412 .619607843137255 .588235294117647 81 1 283 1394 243 280 494 0
 279 286 499 81 1 497 1313 456 276 0 279 494 500 501 83 3 498 .647058823529412 .
619607843137255 .588235294117647 81 1 279 1393 243 276 497 0 275 283 502 81 1 50
0 1314 456 272 0 275 497 503 504 83 3 501 .647058823529412 .619607843137255 .588
235294117647 81 1 275 1392 243 272 500 0 271 279 505 81 1 503 1315 456 268 0 271
 500 506 507 83 3 504 .647058823529412 .619607843137255 .588235294117647 81 1 27
1 1391 243 268 503 0 267 275 508 81 1 506 1316 456 264 0 267 503 509 510 83 3 50
7 .647058823529412 .619607843137255 .588235294117647 81 1 267 1390 243 264 506 0
 263 271 511 81 1 509 1317 456 257 0 263 506 512 513 83 3 510 .647058823529412 .
619607843137255 .588235294117647 81 1 263 1389 243 257 509 0 255 267 514 81 1 51
2 1318 456 251 0 255 509 254 515 83 3 513 .647058823529412 .619607843137255 .588
235294117647 81 1 255 1388 243 251 512 0 250 263 516 81 1 254 1319 456 249 0 250
 512 0 517 83 3 515 .647058823529412 .619607843137255 .588235294117647 83 3 517
 .647058823529412 .619607843137255 .588235294117647 82 1 516 999999 82 1 514 999
999 82 1 511 999999 82 1 508 999999 82 1 505 999999 82 1 502 999999 82 1 499 999
999 82 1 496 999999 82 1 491 999999 82 1 489 999999 81 1 216 1383 243 214 466 0
 203 240 518 82 1 486 999999 82 1 518 999999 82 1 483 999999 82 1 478 999999 81
 1 137 1378 243 103 457 0 0 156 519 82 1 476 999999 81 1 457 1297 456 103 0 137
 459 451 520 82 1 519 999999 83 3 520 .647058823529412 .619607843137255 .5882352
94117647 82 1 473 999999 81 1 448 1299 456 217 0 447 451 466 521 83 3 470 .64705
8823529412 .619607843137255 .588235294117647 83 3 521 .647058823529412 .61960784
3137255 .588235294117647 79 255 15 469 SDL/TYSA_COLOUR15 438 729 0 106 162 0 81
 1 462 1294 522 16 0 459 0 523 524 83 3 463 .647058823529412 .619607843137255 .5
88235294117647 80 1 522 525 526 8017 0 0 0 0 0 0 0 0 0 TTTTTTTTTTTTTF3 81 1 523
 1295 522 1 527 528 462 0 529 84 255 4 524 NONE81 2 527 1192 530 1 531 523 0 0 0
 532 81 2 528 1325 533 1 523 13 0 0 0 0 84 11 529 BearingFace80 2 533 534 535 90
00 0 0 0 0 3 5 0 0 0 FFTFFFFFFFFFFF9 1 81 2 13 1376 536 1 528 2 0 0 537 0 80 2 5
36 538 539 8004 0 0 0 0 3 5 0 0 0 FFTFFFFFFFFFFF2 3 83 1 537 79e2 79 16 539 SDL/
TYSA_DENSITY79 16 535 BODY_RECIPE_200180 2 530 540 541 9000 0 0 0 0 3 5 0 0 0 FF
TFFFFFFFFFFF9 1 81 2 531 1089 542 1 543 527 0 0 0 544 82 1 532 1 80 2 542 545 54
6 9000 0 0 0 0 3 5 0 0 0 FFTFFFFFFFFFFT9 1 81 2 543 1088 547 1 0 531 0 0 0 548 8
2 1 544 102 80 2 547 549 550 9000 0 0 0 0 3 5 0 0 0 FFTFFFFFFFFFFF9 1 82 1 548 1
7 79 30 550 LAST_BODY_MODIFYING_FEATURE_ID79 19 546 ENT_TIME_STAMP_200179 24 541
 BODY_IN_LIGHTWEIGHT_PERM79 13 526 SDL/TYSA_NAME83 3 458 .647058823529412 .61960
7843137255 .588235294117647 79 14 455 SWEntUnchanged82 1 450 999999 17 66 0 438
 433 106 55 439 100 0 354 +17 433 0 438 106 66 51 432 186 0 434 +17 71 0 79 73 7
8 51 106 436 0 433 -17 439 0 158 104 354 77 66 100 0 0 -15 158 655 0 354 153 0 1
7 104 0 158 110 439 67 82 105 0 107 -17 354 0 158 439 551 55 32 350 0 432 +16 10
0 658 0 ?66 92 105 128 0 0 1 17 551 0 158 354 45 50 366 362 0 33 -17 32 0 30 27
 432 50 354 350 0 551 -17 45 0 158 551 110 43 297 304 0 366 -17 366 0 294 35 33
 43 551 362 0 296 +17 33 0 294 366 35 50 27 34 0 0 +15 294 427 0 366 197 0 17 35
 0 294 33 366 11 302 187 0 406 -17 110 0 158 45 104 303 107 111 0 109 +16 186 45
6 0 ?433 177 350 179 0 0 1 16 168 495 0 ?430 208 343 166 0 0 1 17 334 0 258 334
 334 0 552 333 0 0 +15 258 69 0 334 251 553 17 552 0 320 552 552 0 334 333 0 0 -
15 320 177 0 552 264 0 15 553 70 0 554 251 0 17 554 0 553 554 554 0 24 10 0 0 -1
7 24 0 252 24 24 0 554 10 0 0 +82 1 293 999999 82 1 256 999999 82 1 246 999999 4
0 2 230 0 1 2 .00058055658361739 .2810349015117015 ??238281616660174e-28 .005629
16512459877 -.00324999999999953 .000580556583641229 .00375277674973873 -.0064999
9999999018 41 1 231 L?238281616660174e-28 .00562916512459877 -.00324999999999953
 41 1 232 L?.000580556583641229 .00375277674973873 -.00649999999999018 204 8 233
 4 -.00375277674973271 -.00567499999997622 1.047197551196656 -.00058403992304628
6 -1134761568411312e-29 -.00509444341635882 .523598775599666 -348333942775487e-2
0 141 219 115 555 555 123 141 555 170 219 219 123 141 206 170 556 556 200 141 55
6 220 206 206 200 40 2 189 0 1 2 .000580556583618043 .281034901511683 ??.0005805
56583641201 -.003752776749720965 .00649999999999951 2309263891220325e-29 -133226
7629550188e-30 .00649999999999973 41 1 190 L?.000580556583641201 -.0037527767497
20965 .00649999999999951 41 1 191 L?2309263891220325e-29 -1332267629550188e-30 .
00649999999999973 204 8 192 4 -.0075055534994535 -.00509444341635879 3.665191429
18679 -3483339428220085e-21 -.003752776749733855 -.00567499999997689 3.141592653
59 -.000584039923046266 40 2 172 0 1 2 .000580556583618041 .2810349015116825 ??.
000580556583641187 .00375277674973873 .00649999999998929 2309263891220325e-29 .0
056291651246001 .003250000000000195 41 1 173 L?.000580556583641187 .003752776749
73873 .00649999999998929 41 1 174 L?2309263891220325e-29 .0056291651246001 .0032
50000000000195 204 8 175 4 -.00750555349945336 -.00509444341635882 2.61799387799
0075 -3483339428199055e-21 -.003752776749732695 -.00567499999997692 2.0943951023
9313 -.000584039923045428 141 165 128 557 557 147 141 557 179 165 165 147 40 2 1
48 0 1 2 .000580556583617387 .2810349015117005 ??238281616660174e-28 -.005629165
12459744 .003249999999999085 .000580556583641201 -.003752776749739175 .006499999
99998929 41 1 149 L?238281616660174e-28 -.00562916512459744 .003249999999999085
 41 1 150 L?.000580556583641201 -.003752776749739175 .00649999999998929 204 8 15
1 4 .00375277674973244 -.00567499999997621 4.188790204786405 -.00058403992304708
 .00750555349945253 -.00509444341635883 3.66519142918957 -3483339428070855e-21 1
41 138 101 558 558 129 141 558 121 138 138 129 141 135 112 559 559 116 141 559 1
01 135 135 116 40 2 130 0 1 2 .000580556583618041 .2810349015116825 ??.000580556
583641229 -.00375277674973784 -.00649999999998996 231203944878189e-28 -.00562916
512459788 -.003250000000000865 41 1 131 L?.000580556583641229 -.0037527767497378
4 -.00649999999998996 41 1 132 L?231203944878189e-28 -.00562916512459788 -.00325
0000000000865 204 8 133 4 113476156841131e-28 -.00509444341635879 5.759586531580
01 -3483339428122435e-21 .00375277674973135 -.0056749999999769 5.23598775598318
 -.000584039923046346 40 2 124 0 1 2 .000580556583618042 .2810349015116825 ??.00
0580556583641229 .003752776749720965 -.00650000000000062 231203944878189e-28 0 -
.0065 41 1 125 L?.000580556583641229 .003752776749720965 -.00650000000000062 41
 1 126 L?231203944878189e-28 0 -.0065 204 8 127 4 1199040866595172e-29 -.0050944
4341635881 .523598775596921 -348333942766473e-20 .003752776749732965 -.005674999
99997692 227595720048157e-29 -.000584039923046137 19 17 971 0 1 0 9 5 S0 74 4 CI
16 index_map_offset0 0 1 dCCZ20 15 9 0 0 543 531 527 460 523 254 528 13 2 0 0 0
 0 0 0 0 0 0 0 0 80 2 12 560 561 9000 0 0 0 0 3 5 0 0 0 FFTFFFFFFFFFFF9 1 82 1 1
4 101 79 12 561 ATOM_ID_20011 0 
