**ABCDEFGHIJKLMNOPQRSTUVWXYZabcdefghijklmnopqrstuvwxyz**************************
**PARASOLID !"#$%&'()*+,-./:;<=>?@[\]^_`{|}~0123456789**************************
**PART1;
MC=AMD64;
MC_MODEL=Intel64 Family 6 Model 142 Stepping 10, GenuineIntel;
MC_ID=unknown;
OS=Windows_NT;
OS_RELEASE=unknown;
FRU=Parasolid Version 31.0, build 282,  2-25-2019;
APPL=SOLIDWORKS 2019-2019115;
SITE=;
USER=unknown;
FORMAT=text;
GUISE=transmit;
KEY=DIN 912 - M6 x 1 x 55_;
FILE=DIN 912 - M6 x 1 x 55_.x_t;
DATE=Tue Feb  4 09:10:53 2020;
**PART2;
SCH=SCH_3100282_31001;
USFLD_SIZE=0;
**PART3;
**END_OF_HEADER*****************************************************************
T51 : TRANSMIT FILE created by modeller version 310028223 SCH_3100282_31001_1300
6215 0 12 34 CCCCCCI4 mesh1006 0 I8 polyline1008 0 CCCCCCCDI5 owner1040 0 CCCCCC
I13 boundary_mesh1006 0 I17 boundary_polyline1008 0 CCCA16 index_map_offset0 0 1
 dA9 index_map82 0 A17 node_id_index_map82 0 A20 schema_embedding_map82 0 A5 chi
ld12 0 A14 lowest_node_id0 0 1 dA16 mesh_offset_data206 0 Z1 1122 2 3 0 0 0 0 0
 0 1e3 1e-8 0 4 0 1 0 1 1 5 6 7 8 0 0 9 10 11 0 0 0 0 0 0 0 81 255 2 2 1101 12 1
 13 0 0 0 0 14 70 11 CI9 list_type0 0 1 uI10 notransmit0 0 1 lCCCDCCDI12 finger_
index0 0 1 dI12 finger_block1012 0 CZ3 0 4 T1 0 0 10 20 1 15 15 13 255 5 857 0 1
 0 16 0 0 17 0 52 255 6 771 0 16 18 0 0 +.002999999999985905 0 0 -1 0 0 .0025100
0000002932 .866025403777204 .500000000012531 0 0 1 137 255 7 901 0 1 19 0 20 +21
 22 0 ?29 255 8 889 0 23 24 0 .00299999999999295 .002173723763511635 .0012550000
00007326 19 8 CCCCCCCA5 owner12 0 Z9 5 0 1 17 0 25 V0 16 255 10 18 0 ?26 0 27 28
 0 0 1 18 255 11 76 0 29 0 30 31 71425470475041e-20 1 17 255 29 0 32 33 33 11 34
 35 36 37 +18 30 77 0 33 11 38 39 71425470475041e-20 1 29 31 219 0 11 39 40 .006
 0 -.00325 29 39 218 0 30 0 31 .006 2388061258337335e-34 .00325 29 40 386 0 41 3
1 42 -3252606517456515e-34 .001449149175665952 -.00251 18 41 364 0 43 44 45 40 ?
1 29 42 385 0 45 40 46 0 -.001449149175665968 -.00251 18 45 365 0 47 41 48 42 ?1
 29 46 381 0 49 42 50 -1301042606982604e-33 .001449149175665958 .00251 18 49 368
 0 51 52 53 46 ?1 29 50 403 0 38 46 54 201661604082304e-32 0 .0044 18 38 293 0 5
5 30 44 50 641437382542616e-21 1 29 54 404 0 44 50 56 201661604082304e-32 553540
353214604e-33 -.0044 18 44 296 0 57 38 41 54 641437382542616e-21 1 29 56 614 0 5
3 54 58 -3469446951953615e-33 .002898298351331915 -585469173142172e-32 18 53 369
 0 59 49 60 56 206155281280883e-22 1 29 58 648 0 60 56 61 .003 .0014491491756659
5 -.00251 18 60 415 0 62 53 63 58 2061552812922115e-23 1 29 61 651 0 64 58 65 .0
03 -.001449149175665968 -.00251 18 64 440 0 66 67 68 61 206155281285587e-22 1 29
 65 682 0 48 61 69 0 -.002898298351331925 867361737988404e-33 18 48 366 0 70 45
 52 65 206155281280883e-22 1 29 69 689 0 71 65 72 .003 -.002898298351331925 8673
61737988404e-33 18 71 466 0 73 74 75 69 2061552812850905e-23 1 29 72 720 0 52 69
 76 0 -.001449149175665962 .00251 18 52 367 0 77 48 49 72 206155281285587e-22 1
 29 76 752 0 78 72 79 .003 -.001449149175665962 .00251 18 78 491 0 80 75 81 76 2
06155281285587e-22 1 29 79 753 0 81 76 82 .003 .00144914917566596 .00251 18 81 5
15 0 83 78 84 79 206155281287194e-22 1 29 82 756 0 67 79 85 .003 .00289829835133
1915 -585469173142172e-32 18 67 417 0 86 63 64 82 2061552812850905e-23 1 29 85 8
55 0 87 82 88 .004449149175655975 0 -56843418860808e-27 18 87 766 0 89 23 0 85 2
06155557011977e-22 1 29 88 876 0 63 85 90 .00299999999999295 .002173723763511635
 -.001255000000007334 18 63 416 0 91 60 67 88 ?1 29 90 879 0 68 88 92 .002999999
99999295 -2262013350388305e-33 -.00251000000001466 18 68 441 0 93 64 74 90 ?1 29
 92 882 0 74 90 94 .00299999999999295 -.00217372376351164 -.00125500000000733 18
 74 465 0 95 68 71 92 ?1 29 94 885 0 75 92 24 .00299999999999295 -.0021737237635
1164 .001255000000007334 18 75 490 0 96 71 78 94 ?1 29 24 888 0 84 94 8 .0029999
9999999295 142733712938723e-32 .00251000000001466 18 84 516 0 97 81 23 24 ?1 17
 97 0 98 99 96 84 100 101 0 102 +18 23 540 0 99 84 87 8 ?1 17 99 0 98 91 97 23 1
03 104 0 105 +15 255 98 760 0 97 16 0 17 91 0 98 93 99 63 105 106 0 107 +17 103
 0 108 83 109 84 99 104 0 110 -16 104 729 0 ?99 101 0 111 0 0 1 17 105 0 112 86
 107 23 91 106 0 109 -15 112 588 0 107 113 0 17 86 0 112 107 105 67 114 115 0 11
6 -17 107 0 112 105 86 63 117 118 0 119 +16 106 591 0 ?91 120 121 122 0 0 1 17 1
09 0 108 103 83 23 123 124 0 114 -15 108 726 0 109 125 0 17 83 0 108 109 103 81
 110 126 0 123 +17 123 0 127 51 114 81 109 124 0 128 +16 124 535 0 ?123 129 115
 130 0 0 1 17 114 0 127 123 116 23 86 115 0 0 +15 127 533 0 123 131 0 17 116 0 1
27 114 59 67 132 133 0 117 +16 115 536 0 ?114 124 120 134 0 0 1 16 120 561 0 ?93
 115 106 135 0 0 1 133 255 134 611 0 115 136 137 0 +137 .003 .002898298351331915
 -585469173142172e-32 .00299999999999295 .002173723763511635 .001255000000007326
 0 -.00144914917566596 30 255 136 608 0 1 138 134 139 +.003 .002898298351331915
 -585469173142172e-32 1 0 0 30 137 612 0 1 134 140 141 -.003 .002898298351331915
 -585469173142172e-32 0 .5 -.866025403784439 133 140 615 0 142 137 143 0 +143 0
 .002898298351331915 -585469173142172e-32 0 .001449149175665958 .00251 0 .002898
29835133192 141 255 141 134 141 141 137 16 142 361 0 ?144 145 146 140 0 0 1 30 1
43 616 0 1 140 147 148 +0 .002898298351331915 -585469173142172e-32 0 -.5 .866025
403784439 133 147 617 0 149 143 150 0 +150 0 .001449149175665952 -.00251 0 .0028
98298351331915 -607153216591882e-32 48399886693284e-32 .00289829835133192 141 14
8 140 148 148 143 16 149 356 0 ?151 152 153 147 0 0 1 30 150 618 0 1 147 154 155
 +0 .00144914917566595 -.00251 0 .5 .866025403784438 133 154 639 0 156 150 157 0
 +157 .00299999999999295 -2262013350388305e-33 -.00251000000001466 .003 -.001449
14917566597 -.00251 -.001449149175665954 -.00289829835133192 141 155 147 155 155
 150 16 156 436 0 ?66 158 159 154 0 0 1 30 157 640 0 1 154 160 161 -.003 .001449
14917566595 -.00251 0 1 -1047430497127502e-30 133 160 642 0 162 157 163 0 +163 .
00299999999999295 -.00217372376351164 -.00125500000000733 .003 -.001449149175665
968 -.00251 -.00144914917566596 -.00289829835133192 141 161 154 161 161 157 16 1
62 460 0 ?164 159 165 160 0 0 1 30 163 643 0 1 160 166 167 -.003 -.0028982983513
31925 867361737988404e-33 0 -.5 .866025403784439 133 166 644 0 158 163 168 0 +16
8 .003 -.00144914917566597 -.00251 0 -.00144914917566597 -.00251 0 -.003 141 167
 160 167 167 163 16 158 435 0 ?47 133 156 166 0 0 1 30 168 645 0 1 166 169 170 -
.003 -.00144914917566597 -.00251 1 0 0 133 169 649 0 165 168 171 0 +171 .003 -.0
02898298351331925 867361737988404e-33 .00299999999999295 -.00217372376351164 -.0
0125500000000733 0 -.00144914917566596 141 170 166 170 170 168 16 165 461 0 ?172
 162 173 169 0 0 1 30 171 650 0 1 169 174 175 -.003 -.002898298351331925 8673617
37988404e-33 0 -.5 .866025403784439 133 174 675 0 173 171 176 0 +176 0 -.0028982
98351331925 867361737988404e-33 .003 -.002898298351331925 867361737988404e-33 -.
003 0 141 175 169 175 175 171 16 173 462 0 ?177 165 178 174 0 0 1 30 176 676 0 1
 174 179 180 +.003 -.002898298351331925 867361737988404e-33 1 0 0 133 179 677 0
 178 176 181 0 +181 .00299999999999295 -.00217372376351164 .001255000000007334 .
003 -.002898298351331925 867361737988404e-33 -.001449149175665956 -.002898298351
33192 141 180 174 180 180 176 16 178 485 0 ?73 173 182 179 0 0 1 30 181 678 0 1
 179 183 184 -.003 -.001449149175665962 .00251 0 .5 .866025403784438 133 183 683
 0 185 181 186 0 +186 0 -.002898298351331925 867361737988404e-33 0 -.00144914917
5665968 -.00251 0 .00289829835133192 141 184 179 184 184 181 16 185 358 0 ?187 1
53 188 183 0 0 1 30 186 684 0 1 183 189 190 +0 -.002898298351331925 867361737988
404e-33 0 .5 -.866025403784439 133 189 685 0 188 186 191 0 +191 0 -.001449149175
665962 .00251 0 -.002898298351331925 867361737988404e-33 96799773386568e-32 .002
89829835133192 141 190 183 190 190 186 16 188 359 0 ?192 185 145 189 0 0 1 30 19
1 686 0 1 189 193 194 +0 -.001449149175665962 .00251 0 -.5 -.866025403784438 133
 193 687 0 182 191 195 0 +195 .003 -.001449149175665962 .00251 .0029999999999929
5 -.00217372376351164 .001255000000007334 0 -.001449149175665956 141 194 189 194
 194 191 16 182 486 0 ?196 178 197 193 0 0 1 30 195 688 0 1 193 198 199 -.003 -.
001449149175665962 .00251 0 .5 .866025403784438 133 198 713 0 197 195 200 0 +200
 0 -.001449149175665962 .00251 .003 -.001449149175665962 .00251 -.003 0 141 199
 193 199 199 195 16 197 487 0 ?201 182 202 198 0 0 1 30 200 714 0 1 198 203 204
 +.003 -.001449149175665962 .00251 1 0 0 133 203 717 0 129 200 205 0 +205 .003 -
.001449149175665962 .00251 .00299999999999295 142733712938723e-32 .0025100000000
1466 0 -.001449149175665962 141 204 198 204 204 200 16 129 512 0 ?102 126 124 20
3 0 0 1 30 205 718 0 1 203 206 207 -.003 -.001449149175665962 .00251 0 -1 134669
6353449644e-30 133 206 721 0 145 205 208 0 +208 0 .001449149175665958 .00251 0 -
.001449149175665962 .00251 .001449149175665958 -.001449149175665962 141 207 203
 207 207 205 16 145 360 0 ?209 188 142 206 0 0 1 30 208 722 0 1 206 210 211 -0 0
 .00251 0 1 0 133 210 743 0 126 208 212 0 +212 .00299999999999295 14273371293872
3e-32 .00251000000001466 .003 .001449149175665958 .00251 -.001449149175665962 -.
00289829835133192 141 211 206 211 211 208 16 126 511 0 ?83 202 129 210 0 0 1 30
 212 744 0 1 210 130 213 -.003 -.001449149175665962 .00251 0 -1 1346696353449644
e-30 133 130 746 0 124 212 214 0 +214 .00299999999999295 .002173723763511635 .00
1255000000007326 .003 .001449149175665958 .00251 -.00144914917566596 -.002898298
35133192 141 213 210 213 213 212 30 214 747 0 1 130 215 216 -.003 .0028982983513
31915 -585469173142172e-32 0 .5 -.866025403784439 133 215 748 0 202 214 217 0 +2
17 .003 .001449149175665958 .00251 -1301042606982604e-33 .001449149175665958 .00
251 0 -.003 141 216 130 216 216 214 16 202 510 0 ?51 197 126 215 0 0 1 30 217 74
9 0 1 215 218 219 -.003 .001449149175665958 .00251 1 0 0 31 255 218 861 0 220 21
7 221 0 +.0609999999999218 0 0 -1 0 0 0 0 1 .00244550000002164 141 219 215 219 2
19 217 16 220 95 0 ?222 35 223 218 0 0 1 31 221 867 0 224 218 135 0 -.006 0 0 -1
 0 0 0 0 1 .005 16 224 157 0 ?225 223 226 221 0 0 1 31 135 873 0 120 221 122 0 +
.002999999999985905 0 0 -1 0 0 0 0 1 .00251000000002932 31 122 875 0 106 135 227
 0 +.002999999999985905 0 0 -1 0 0 0 0 1 .00251000000002932 31 227 878 0 121 122
 228 0 +.002999999999985905 0 0 -1 0 0 0 0 1 .002510000000029325 16 121 625 0 ?9
5 106 229 227 0 0 1 31 228 881 0 229 227 230 0 +.002999999999985905 0 0 -1 0 0 0
 0 1 .00251000000002932 16 229 659 0 ?96 121 101 228 0 0 1 31 230 884 0 101 228
 111 0 +.002999999999985905 0 0 -1 0 0 0 0 1 .00251000000002932 16 101 697 0 ?97
 229 104 230 0 0 1 31 111 887 0 104 230 231 0 +.002999999999985905 0 0 -1 0 0 0
 0 1 .00251000000002932 133 231 892 0 37 111 232 0 +232 .006 3980102097228895e-3
4 .00325 .006 0 -.00325 0 1 17 37 0 233 34 34 11 33 223 231 0 -137 232 893 0 1 2
31 19 234 +235 236 0 ?133 19 900 0 55 232 7 0 +7 3361026734705065e-33 5388445916
24835e-33 -.0044 3361026734705065e-33 0 .0044 0 1 141 234 231 234 234 232 68 255
 235 78 0 237 238 239 240 +241 .00625 0 0 1 0 0 ????0 0 -1 ?134 255 236 0 0 0 0
 0 0 +242 243 136 255 242 1 2 2 2 5 FFF1 244 245 246 135 255 243 2 0 45 255 4 24
4 1.570796326794895 3.141592653589795 1.570796326794895 6.28318530717959 127 255
 2 245 2 2 128 255 2 246 0 1 14 255 237 67 247 1e-8 248 249 250 5 235 -0 0 249 2
48 25 51 255 238 12 0 248 0 235 0 +-.03175 0 0 -1 0 0 .003 0 0 1 52 239 100 0 24
9 235 251 0 +.0604455000000712 0 0 -1 0 0 .002999999999872215 .707106781186548 .
707106781186548 0 0 1 141 240 252 253 253 235 31 241 83 0 1 254 255 256 +.00625
 0 -.00325 0 1 0 0 0 -1 25e-5 31 254 39 0 27 28 241 0 +.0604455 0 0 -1 0 0 0 0 1
 .003 133 255 173 0 33 241 257 0 +257 .006 0 -.00325 .006 0 .00325 0 1 141 256 2
35 256 256 241 17 33 0 32 29 29 30 37 223 255 34 +137 257 172 0 1 255 36 258 +25
1 259 0 ?133 36 171 0 29 257 260 0 +260 .006 0 .00325 .006 0 -.00325 0 1 141 258
 255 258 258 257 50 255 251 165 0 261 239 262 263 +.006 .005 0 1 0 0 0 0 -1 134
 259 0 0 0 0 0 0 +264 265 136 264 2 17 2 9 5 FFF1 266 267 268 135 265 2 0 45 34
 266 .00325 -.005 .003249797592623625 -.00562016045325024 .003021811978452895 -.
00619630780607608 .00277434218169171 -.00682169405611172 .002298097038856275 -.0
0729809703885628 .001822596962840385 -.00777375470784695 .001196307806076084 -.0
0802181197845289 .000620439693283169 -.00824989875074579 0 -.00825 -.00061939350
7491147 -.00825010107852764 -.001196307806076084 -.00802181197845289 -.001821694
0561122 -.00777434218169096 -.002298097038856275 -.00729809703885628 -.002773754
707846865 -.00682259696284074 -.003021811978452895 -.00619630780607608 -.0032497
97417983875 -.00562069553585462 -.00325 -.005 127 9 267 3 2 2 2 2 2 2 2 3 128 9
 268 0 .125 .25 .375 .5 .625 .75 .875 1 14 261 153 269 1e-8 249 270 271 5 251 +0
 0 270 249 25 50 262 197 0 270 251 272 0 +.061 .0024455 0 1 0 0 0 0 -1 141 263 2
57 273 273 251 141 273 260 263 263 251 137 260 170 0 1 36 274 275 +251 276 0 ?13
3 274 178 0 34 260 252 0 +252 .006 0 -.00325 .006 3980102097228895e-34 .00325 0
 1 141 275 36 275 275 260 134 276 0 0 0 0 0 0 +277 278 136 277 2 17 2 9 5 FFF1 2
79 280 281 135 278 2 0 45 34 279 -.00325 -.005 -.003249797592623625 -.0043798395
46748455 -.003021811978452895 -.003803692193923915 -.00277434218169114 -.0031783
0594388825 -.002298097038856275 -.002701902961143725 -.001822596962841825 -.0022
2624529215395 -.001196307806076086 -.001978188021547105 -.000620439693285844 -.0
0175010124925497 -433680868994202e-33 -.00175 .00061939350749013 -.0017498989214
71595 .001196307806076084 -.001978188021547105 .001821694056112845 -.00222565781
830968 .002298097038856275 -.002701902961143725 .00277375470784735 -.00317740303
7159745 .003021811978452895 -.003803692193923915 .003249797417983875 -.004379304
464146055 .00325 -.005 127 9 280 3 2 2 2 2 2 2 2 3 128 9 281 0 .125 .25 .375 .5
 .625 .75 .875 1 17 34 0 233 37 37 30 29 35 274 0 -137 252 179 0 1 274 282 283 +
235 284 0 ?31 282 302 0 1 252 285 286 +6e-4 0 .0044 0 1 0 0 0 1 6e-4 141 283 274
 283 283 252 134 284 0 0 0 0 0 0 +287 288 136 287 1 2 2 2 5 FFF1 289 290 291 135
 288 2 0 45 4 289 1.570796326794895 0 1.570796326794895 3.141592653589795 127 2
 290 2 2 128 2 291 0 1 31 285 311 0 226 282 292 0 -6e-4 0 0 -1 0 0 0 0 1 .005 14
1 286 21 286 286 282 68 21 297 0 293 272 294 295 +282 6e-4 0 0 -1 0 0 ????0 0 1
 ?14 293 286 296 1e-8 297 298 299 5 21 +0 0 298 297 25 51 272 237 0 297 262 21 0
 +-.03175 0 0 -1 0 0 .005 0 0 1 50 294 370 0 298 21 300 301 +0 0 0 -1 0 0 0 0 1
 141 295 302 303 303 21 137 302 390 0 1 304 305 306 +21 307 0 ?141 303 7 295 295
 21 133 304 389 0 308 309 302 0 +302 3361026734705065e-33 0 .0044 33610267347050
65e-33 538844591624835e-33 -.0044 0 1 133 305 575 0 118 302 310 0 +310 .003 .002
898298351331915 -585469173142172e-32 .00299999999999295 .002173723763511635 -.00
1255000000007334 0 -.001449149175665958 141 306 304 306 306 302 134 307 0 0 0 0
 0 0 +311 312 136 311 1 2 2 2 5 FFF1 313 314 315 135 312 2 0 45 4 313 4.71238898
038469 6.28318530717959 4.71238898038469 3.141592653589795 127 2 314 2 2 128 2 3
15 0 1 16 118 412 0 ?107 316 133 305 0 0 1 30 310 576 0 1 305 317 318 -.003 .002
898298351331915 -585469173142172e-32 0 .5 .866025403784438 133 317 577 0 316 310
 319 0 +319 .00299999999999295 .002173723763511635 -.001255000000007334 .003 .00
144914917566595 -.00251 -.001449149175665958 -.00289829835133192 141 318 305 318
 318 310 16 316 411 0 ?62 146 118 317 0 0 1 30 319 578 0 1 317 320 321 -.003 .00
2898298351331915 -585469173142172e-32 0 .5 .866025403784438 133 320 580 0 159 31
9 322 0 +322 .003 .001449149175665952 -.00251 .00299999999999295 -22620133503883
05e-33 -.00251000000001466 867361737988404e-33 -.001449149175665954 141 321 317
 321 321 319 16 159 437 0 ?323 156 162 320 0 0 1 30 322 581 0 1 320 324 325 -.00
3 .00144914917566595 -.00251 0 1 -1047430497127502e-30 133 324 582 0 146 322 326
 0 +326 .003 .00144914917566595 -.00251 -216840434497101e-32 .00144914917566595
 -.00251 0 -.003 141 325 320 325 325 322 16 146 410 0 ?43 142 316 324 0 0 1 30 3
26 583 0 1 324 138 327 -.003 .00144914917566595 -.00251 1 0 0 133 138 607 0 133
 326 136 0 +136 -3469446951953615e-33 .002898298351331915 -585469173142172e-32 .
003 .002898298351331915 -585469173142172e-32 -.003 0 141 327 324 327 327 326 16
 133 413 0 ?116 118 158 138 0 0 1 17 43 0 328 329 330 41 331 146 0 332 +15 328 4
33 0 333 334 0 17 329 0 328 333 43 45 335 153 0 187 -17 330 0 328 43 336 60 323
 159 0 331 -17 331 0 337 338 332 60 43 146 0 0 -17 332 0 337 331 132 41 151 149
 0 335 -15 337 408 0 331 339 0 17 132 0 337 332 117 53 116 133 0 151 -17 151 0 3
40 144 335 53 332 149 0 0 +17 335 0 340 151 187 41 329 153 0 0 +15 340 353 0 335
 298 0 17 187 0 340 335 192 45 341 185 0 0 +16 153 357 0 ?335 149 185 309 0 0 1
 30 309 375 0 153 342 304 0 +0 0 -.00251 0 1 0 137 342 377 0 1 343 309 344 +294
 345 0 ?133 343 378 0 346 347 342 0 +342 0 575583995599256e-33 -.0044 0 0 .0044
 0 1 141 344 343 344 344 342 134 345 0 0 0 0 0 0 +348 349 136 348 2 25 2 13 5 FF
F1 350 351 352 135 349 2 0 45 50 350 -.0044 575583995599256e-33 -.00439979761702
658 -.000839515460604642 -.004091068524674695 -.00161961672207224 -.003927114883
681265 -.002033897220184155 -.003682780249362065 -.002407722914894625 -.00343379
1617316295 -.002788669106206675 -.00311126983722081 -.00311126983722081 -.002789
505403773215 -.00343311303619426 -.002407722914894625 -.003682780249362065 -.002
03483427770097 -.003926631315301565 -.001619616722072245 -.00409106852467469 -.0
00839794794487496 -.0043998987748452 -867361737988404e-33 -.0044 .00083874861770
5098 -.004400101099053275 .00161961672207224 -.004091068524674695 .0020338972201
8285 -.00392711488368212 .002407722914894625 -.003682780249362065 .0027886691062
06675 -.003433791617316295 .00311126983722081 -.00311126983722081 .0034331130361
9426 -.002789505403773215 .003682780249362065 -.002407722914894625 .003926631315
30166 -.00203483427770083 .00409106852467469 -.00161961672207224 .00439979748803
1455 -.000840050552070288 .0044 0 127 13 351 3 2 2 2 2 2 2 2 2 2 2 2 3 128 13 35
2 0 .125 .1875 .25 .3125 .375 .5 .625 .6875 .75 .8125 .875 1 17 346 0 353 57 57
 38 308 354 343 0 -137 347 379 0 1 292 343 355 +294 356 0 ?133 292 380 0 57 285
 347 0 +347 0 0 .0044 0 575583995599256e-33 -.0044 0 1 141 355 292 355 355 347 1
34 356 0 0 0 0 0 0 +357 358 136 357 2 25 2 13 5 FFF1 359 360 361 135 358 2 0 45
 50 359 .0044 0 .00439979761702658 .000839515460604642 .004091068524674695 .0016
1961672207224 .003927114883681445 .002033897220183695 .003682780249362065 .00240
7722914894625 .00343379161731595 .00278866910620738 .00311126983722081 .00311126
983722081 .002789505403772505 .003433113036194605 .00240772291489463 .0036827802
49362065 .00203483427770448 .003926631315299395 .00161961672207224 .004091068524
674695 .000839794794491235 .0043998987748452 0 .0044 -.000838748617706529 .00440
0101099053275 -.00161961672207224 .004091068524674695 -.00203389722018401 .00392
711488368136 -.002407722914894625 .003682780249362065 -.002788669106207205 .0034
33791617315945 -.00311126983722081 .00311126983722081 -.00343311303619461 .00278
9505403772685 -.003682780249362065 .002407722914894625 -.00392663131529967 .0020
34834277703875 -.004091068524674695 .00161961672207224 -.004399797488031455 .000
840050552074028 -.0044 575583995599256e-33 127 13 360 3 2 2 2 2 2 2 2 2 2 2 2 3
 128 13 361 0 .125 .1875 .25 .3125 .375 .5 .625 .6875 .75 .8125 .875 1 17 57 0 3
53 346 346 44 55 152 292 308 -15 353 352 0 57 298 340 17 55 0 362 308 308 38 57
 152 19 346 +16 152 324 0 641125506997687e-21 55 354 149 0 0 0 1 17 308 0 362 55
 55 44 346 354 304 0 +15 362 288 0 308 293 0 16 354 289 0 641125506595541e-21 30
8 226 152 0 0 0 1 16 226 229 0 ?363 224 354 285 0 0 1 17 363 0 364 363 363 0 365
 226 0 0 +15 364 228 0 363 297 0 17 365 0 299 365 365 0 363 226 0 0 -15 299 903
 0 365 293 362 14 297 226 366 1e-8 270 293 367 5 272 +0 0 293 270 25 81 1 366 11
05 368 297 369 0 296 370 371 14 270 190 370 1e-8 261 297 372 5 262 +0 0 297 261
 25 15 367 899 0 373 297 364 13 25 3 0 0 0 0 0 0 9 248 14 248 2 374 1e-8 0 237 3
75 5 238 +0 0 237 0 25 81 1 374 1107 368 248 376 0 370 377 378 15 375 891 0 26 2
48 379 17 26 0 375 26 26 0 380 10 0 0 +15 379 7 0 381 248 0 17 381 0 379 381 381
 0 382 27 0 0 +17 382 0 383 382 382 0 381 27 0 0 -16 27 9 0 ?381 10 35 254 0 0 1
 16 35 73 0 713974637589683e-21 29 27 220 0 0 0 1 15 383 897 0 382 249 384 14 24
9 89 377 1e-8 237 261 383 5 239 +0 0 261 237 25 15 384 91 0 222 249 0 17 222 0 3
84 222 222 0 385 220 0 0 +17 385 0 372 385 385 0 222 220 0 0 -15 372 192 0 385 2
70 0 81 1 377 1108 368 249 386 0 374 387 388 80 255 1 368 389 390 9000 1 1 1 1 1
 1 1 1 0 FFFFTFTFFFFFFF1 81 1 386 1050 391 249 0 377 392 393 394 81 1 387 1109 3
68 298 395 0 377 396 397 82 255 1 388 999999 14 298 350 387 1e-8 293 339 353 5 2
94 +0 0 339 293 25 81 1 395 1045 391 298 0 387 398 399 400 81 1 396 1110 368 339
 398 0 387 401 402 82 1 397 999999 14 339 406 396 1e-8 298 334 337 5 300 -0 0 33
4 298 25 81 1 398 1044 391 339 0 396 403 395 404 81 1 401 1111 368 334 403 0 396
 405 406 82 1 402 999999 14 334 431 401 1e-8 339 407 328 5 408 -0 0 407 339 25 8
1 1 403 1043 391 334 0 401 409 398 410 81 1 405 1112 368 407 409 0 401 411 412 8
2 1 406 999999 14 407 456 405 1e-8 334 413 414 5 415 +0 0 413 334 25 81 1 409 10
42 391 407 0 405 416 403 417 81 1 411 1113 368 413 416 0 405 418 419 82 1 412 99
9999 14 413 481 411 1e-8 407 420 421 5 422 +0 0 420 407 25 81 1 416 1041 391 413
 0 411 423 409 424 81 1 418 1114 368 420 423 0 411 425 426 82 1 419 999999 14 42
0 506 418 1e-8 413 131 427 5 428 -0 0 131 413 25 81 1 423 1040 391 420 0 418 429
 416 430 81 1 425 1115 368 131 429 0 418 431 432 82 1 426 999999 14 131 531 425
 1e-8 420 433 127 5 434 +0 0 433 420 25 81 1 429 1039 391 131 0 425 435 423 436
 81 1 431 1116 368 433 435 0 425 437 438 82 1 432 999999 14 433 556 431 1e-8 131
 113 439 5 440 -0 0 113 131 25 81 1 435 1038 391 433 0 431 441 429 442 81 1 437
 1117 368 113 441 0 431 443 444 82 1 438 999999 14 113 586 437 1e-8 433 445 112
 5 446 -0 0 445 433 25 81 1 441 1037 391 113 0 437 447 435 448 81 1 443 1118 368
 445 447 0 437 449 450 82 1 444 999999 14 445 620 443 1e-8 113 451 452 5 453 -0
 0 451 113 25 81 1 447 1036 391 445 0 443 454 441 455 81 1 449 1119 368 451 454
 0 443 456 457 82 1 450 999999 14 451 654 449 1e-8 445 458 459 5 460 -0 0 458 44
5 25 81 1 454 1035 391 451 0 449 461 447 462 81 1 456 1120 368 458 461 0 449 463
 464 82 1 457 999999 14 458 692 456 1e-8 451 125 465 5 466 -0 0 125 451 25 81 1
 461 1034 391 458 0 456 467 454 468 81 1 463 1121 368 125 467 0 456 469 470 82 1
 464 999999 14 125 724 463 1e-8 458 16 108 5 18 -0 0 16 458 25 81 1 467 1033 391
 125 0 463 471 461 472 81 1 469 1122 368 16 471 0 463 0 473 82 1 470 999999 14 1
6 758 469 1e-8 125 0 474 5 6 -0 0 0 125 25 81 1 471 1032 391 16 475 469 0 467 47
6 82 1 473 999999 80 1 391 0 477 8001 0 0 0 0 3 5 0 0 0 FFFFTFTFFFFFFF2 81 1 475
 1008 478 16 0 471 0 479 480 83 255 3 476 .647058823529412 .619607843137255 .588
235294117647 80 1 478 481 482 8017 0 0 0 0 0 0 0 0 0 TTTTTTTTTTTTTF3 81 1 479 10
31 478 1 483 484 475 0 485 84 255 4 480 NONE81 2 483 999 486 1 487 479 0 0 0 488
 81 2 484 1055 489 1 479 13 0 0 0 0 84 3 485 Hex80 2 489 490 491 9000 0 0 0 0 3
 5 0 0 0 FFTFFFFFFFFFFF9 1 81 2 13 1100 492 1 484 2 0 0 493 0 80 2 492 494 495 8
004 0 0 0 0 3 5 0 0 0 FFTFFFFFFFFFFF2 3 83 1 493 79e2 79 255 16 495 SDL/TYSA_DEN
SITY79 16 491 BODY_RECIPE_200180 2 486 496 497 9000 0 0 0 0 3 5 0 0 0 FFTFFFFFFF
FFFF9 1 81 1 487 953 498 1 499 483 0 0 500 82 1 488 1 80 1 498 501 502 9000 1 1
 1 1 1 1 1 1 0 FFTFFFFFFFFFFF1 81 2 499 908 503 1 504 487 0 0 0 505 82 1 500 388
9 80 2 503 506 507 9000 0 0 0 0 3 5 0 0 0 FFTFFFFFFFFFFT9 1 81 2 504 907 508 1 0
 499 0 0 0 509 82 1 505 102 80 2 508 510 511 9000 0 0 0 0 3 5 0 0 0 FFTFFFFFFFFF
FF9 1 82 1 509 17 79 30 511 LAST_BODY_MODIFYING_FEATURE_ID79 19 507 ENT_TIME_STA
MP_200179 10 502 BODY_MATCH79 24 497 BODY_IN_LIGHTWEIGHT_PERM79 13 482 SDL/TYSA_
NAME79 15 477 SDL/TYSA_COLOUR15 474 905 0 89 16 98 17 89 0 474 89 89 87 0 0 0 0
 ?83 3 472 .647058823529412 .619607843137255 .588235294117647 50 18 733 0 125 46
6 6 0 +.003 .002898298351331915 -585469173142172e-32 1 0 0 0 0 -1 50 466 701 0 4
58 460 18 0 +.003 .002898298351331915 -585469173142172e-32 1 0 0 0 0 -1 50 460 6
63 0 451 453 466 0 +.003 .002898298351331915 -585469173142172e-32 1 0 0 0 0 -1 5
0 453 629 0 445 446 460 0 +.003 .002898298351331915 -585469173142172e-32 1 0 0 0
 0 -1 50 446 595 0 113 440 453 0 +.003 .002898298351331915 -585469173142172e-32
 1 0 0 0 0 -1 50 440 565 0 433 434 446 0 +.003 .002898298351331915 -585469173142
172e-32 1 0 0 0 0 -1 50 434 544 0 131 428 440 0 +.003 .002898298351331915 -58546
9173142172e-32 0 -.866025403784439 -.5 0 .5 -.866025403784439 50 428 519 0 420 4
22 434 0 +.003 -.001449149175665962 .00251 0 1346696353449644e-30 1 0 -1 1346696
353449644e-30 50 422 494 0 413 415 428 0 +.003 -.001449149175665962 .00251 0 .86
6025403784438 -.5 0 .5 .866025403784438 50 415 469 0 407 408 422 0 +.003 -.00289
8298351331925 867361737988404e-33 0 .866025403784439 .5 0 -.5 .866025403784439 5
0 408 444 0 334 300 415 0 +.003 .00144914917566595 -.00251 0 -1047430497127502e-
30 -1 0 1 -1047430497127502e-30 50 300 419 0 339 294 408 0 +.003 .00289829835133
1915 -585469173142172e-32 0 .866025403784438 -.5 0 .5 .866025403784438 83 3 468
 .647058823529412 .619607843137255 .588235294117647 15 465 694 0 102 458 0 17 10
2 0 465 100 512 84 80 129 0 103 +17 100 0 465 512 102 75 97 101 0 513 -17 512 0
 465 102 100 78 196 182 0 201 -17 80 0 427 77 110 78 102 129 0 512 -15 427 508 0
 128 420 0 17 77 0 427 514 80 52 201 197 0 515 -17 110 0 427 80 128 84 83 126 0
 0 -17 128 0 427 110 514 81 51 202 0 0 -17 514 0 427 128 77 49 209 145 0 144 -17
 51 0 127 59 123 49 128 202 0 514 +17 59 0 127 116 51 53 144 142 0 132 -17 144 0
 340 209 151 49 59 142 0 0 +17 209 0 340 192 144 52 514 145 0 0 +17 192 0 340 18
7 209 48 515 188 0 0 +17 515 0 421 201 70 52 192 188 0 209 -15 421 483 0 73 413
 0 17 201 0 421 196 515 78 77 197 0 0 +17 70 0 421 515 73 48 177 173 0 341 -17 7
3 0 421 70 196 71 513 178 0 516 +17 177 0 414 172 341 71 70 173 0 0 +17 341 0 41
4 177 47 48 187 185 0 192 -15 414 458 0 164 407 0 17 47 0 414 341 164 45 333 158
 0 329 +17 164 0 414 47 172 64 517 162 0 333 +17 333 0 328 336 329 64 47 158 0 0
 -17 336 0 328 330 333 68 66 156 0 0 -17 66 0 452 517 518 64 336 156 0 164 +15 4
52 622 0 517 445 0 17 517 0 452 518 66 74 164 162 0 172 -17 518 0 452 66 517 68
 95 121 0 336 -17 95 0 98 96 93 74 518 121 0 519 +17 96 0 98 97 95 75 519 229 0
 100 +17 93 0 98 95 91 68 119 120 0 323 +17 519 0 459 516 513 74 96 229 0 517 -1
5 459 656 0 513 451 0 17 516 0 459 513 519 71 172 165 0 177 -17 513 0 459 519 51
6 75 73 178 0 196 -17 196 0 421 73 201 75 512 182 0 0 +17 172 0 414 164 177 74 5
16 165 0 0 +17 119 0 439 62 323 63 93 120 0 338 -17 323 0 439 119 62 68 330 159
 0 518 +15 439 558 0 323 433 0 17 62 0 439 323 119 60 338 316 0 330 +17 338 0 33
7 117 331 63 62 316 0 0 -17 117 0 337 132 338 67 107 118 0 0 -83 3 462 .64705882
3529412 .619607843137255 .588235294117647 83 3 455 .647058823529412 .61960784313
7255 .588235294117647 83 3 448 .647058823529412 .619607843137255 .58823529411764
7 83 3 442 .647058823529412 .619607843137255 .588235294117647 83 3 436 .64705882
3529412 .619607843137255 .588235294117647 83 3 430 .647058823529412 .61960784313
7255 .588235294117647 83 3 424 .647058823529412 .619607843137255 .58823529411764
7 83 3 417 .647058823529412 .619607843137255 .588235294117647 83 3 410 .64705882
3529412 .619607843137255 .588235294117647 83 3 404 .647058823529412 .61960784313
7255 .588235294117647 81 1 399 1046 391 293 0 296 395 369 520 83 3 400 .64705882
3529412 .619607843137255 .588235294117647 81 1 296 1104 368 293 399 0 269 366 52
1 81 1 369 1047 391 297 0 366 399 522 523 83 3 520 .647058823529412 .61960784313
7255 .588235294117647 81 1 522 1048 391 270 0 370 369 392 524 83 3 523 .64705882
3529412 .619607843137255 .588235294117647 81 1 370 1106 368 270 522 0 366 374 52
5 81 1 392 1049 391 261 0 269 522 386 526 83 3 524 .647058823529412 .61960784313
7255 .588235294117647 81 1 269 1103 368 261 392 0 247 296 527 83 3 526 .64705882
3529412 .619607843137255 .588235294117647 81 1 247 1102 368 237 393 0 0 269 528
 82 1 527 999999 81 1 393 1051 391 237 0 247 386 376 529 82 1 528 999999 81 1 37
6 1052 391 248 0 374 393 0 530 83 3 529 .647058823529412 .619607843137255 .58823
5294117647 83 3 530 .647058823529412 .619607843137255 .588235294117647 82 1 525
 999999 82 1 521 999999 83 3 394 .647058823529412 .619607843137255 .588235294117
647 79 14 390 SWEntUnchanged17 380 0 250 380 380 0 26 10 0 0 -15 250 895 0 380 2
37 233 15 233 69 0 37 237 0 82 1 378 999999 17 373 0 367 373 373 0 225 224 0 0 -
17 225 0 271 225 225 0 373 224 0 0 +15 271 155 0 225 261 32 15 32 156 0 33 261 0
 82 1 371 999999 141 301 342 531 531 294 141 531 347 301 301 294 16 223 115 0 71
3974637685444e-21 33 220 224 0 0 0 1 31 28 33 0 10 0 254 0 -.00625 0 0 -1 0 0 0
 0 1 .003 141 253 232 240 240 235 141 139 138 139 139 136 19 17 858 0 1 0 9 5 S0
 141 20 19 20 20 7 134 22 0 0 0 0 0 0 +532 533 136 532 1 2 2 2 5 FFF1 534 535 53
6 135 533 2 0 45 4 534 4.71238898038469 3.141592653589795 4.71238898038469 0 127
 2 535 2 2 128 2 536 0 1 74 4 CI16 index_map_offset0 0 1 dCCZ20 15 10 0 0 504 49
9 487 469 483 479 376 484 13 2 0 0 0 0 0 0 0 0 0 0 80 2 12 537 538 9000 0 0 0 0
 3 5 0 0 0 FFTFFFFFFFFFFF9 1 82 1 14 101 79 12 538 ATOM_ID_20011 0 
