**ABCDEFGHIJKLMNOPQRSTUVWXYZabcdefghijklmnopqrstuvwxyz**************************
**PARASOLID !"#$%&'()*+,-./:;<=>?@[\]^_`{|}~0123456789**************************
**PART1;
MC=AMD64;
MC_MODEL=Intel64 Family 6 Model 142 Stepping 10, GenuineIntel;
MC_ID=unknown;
OS=Windows_NT;
OS_RELEASE=unknown;
FRU=Parasolid Version 31.0, build 282,  2-25-2019;
APPL=SOLIDWORKS 2019-2019115;
SITE=;
USER=unknown;
FORMAT=text;
GUISE=transmit;
KEY=DIN 933 - M8 x 1.25  x 20_;
FILE=DIN 933 - M8 x 1.25  x 20_.x_t;
DATE=Tue Feb  4 09:11:18 2020;
**PART2;
SCH=SCH_3100282_31001;
USFLD_SIZE=0;
**PART3;
**END_OF_HEADER*****************************************************************
T51 : TRANSMIT FILE created by modeller version 310028223 SCH_3100282_31001_1300
6215 0 12 34 CCCCCCI4 mesh1006 0 I8 polyline1008 0 CCCCCCCDI5 owner1040 0 CCCCCC
I13 boundary_mesh1006 0 I17 boundary_polyline1008 0 CCCA16 index_map_offset0 0 1
 dA9 index_map82 0 A17 node_id_index_map82 0 A20 schema_embedding_map82 0 A5 chi
ld12 0 A14 lowest_node_id0 0 1 dA16 mesh_offset_data206 0 Z1 1311 2 3 0 0 0 0 0
 0 1e3 1e-8 0 4 0 1 0 1 1 5 6 7 8 0 0 9 10 11 0 0 0 0 0 0 0 81 255 2 2 1287 12 1
 13 0 0 0 0 14 70 11 CI9 list_type0 0 1 uI10 notransmit0 0 1 lCCCDCCDI12 finger_
index0 0 1 dI12 finger_block1012 0 CZ3 0 4 T1 0 0 10 20 1 15 15 13 255 5 970 0 1
 0 16 0 0 17 0 50 255 6 921 0 16 18 0 0 +0 .00750555349946514 -650521303491302e-
33 1 0 0 0 0 -1 31 255 7 1078 0 19 20 0 0 +542101086242752e-33 0 0 1 0 0 0 0 -1
 .00649999999995998 29 255 8 1080 0 21 22 0 1155478872865242e-29 -.0056291651245
8153 -.00324999999999 19 8 CCCCCCCA5 owner12 0 Z9 5 0 1 17 0 23 V0 16 255 10 18
 0 ?24 0 25 26 0 0 1 18 255 11 184 0 27 0 28 29 ?1 17 255 27 0 30 31 32 11 33 34
 0 35 -18 28 185 0 36 11 37 38 ?1 29 29 1007 0 11 39 40 .005075 -796020419445779
e-33 .0065 29 39 1004 0 41 42 29 .005075 -.00562916512459885 -.00325 29 40 1008
 0 43 29 44 .005075 -.00562916512459884 .00325 18 43 223 0 45 41 46 40 ?1 29 44
 1025 0 47 40 48 .000580556583641217 .00375277674972965 .00649999999999494 18 47
 460 0 49 50 51 44 ?1 29 48 1034 0 52 44 53 .00058055658364122 .0075055534994593
 -829484277387387e-34 18 52 499 0 54 55 56 48 ?1 29 53 1043 0 57 48 58 .00058055
6583641216 .00375277674972964 -.00649999999999494 18 57 540 0 59 56 60 53 ?1 29
 58 1052 0 61 53 62 .000580556583641221 -.00375277674972966 -.00649999999999494
 18 61 579 0 63 60 64 58 ?1 29 62 1057 0 55 58 65 .000580556583642902 -.00375277
674973548 .00649999999999494 18 55 462 0 66 51 52 62 ?1 29 65 1062 0 67 62 68 .0
00580556583641226 -.00750555349945931 508264780202841e-33 18 67 622 0 69 64 21 6
5 ?1 29 68 1067 0 51 65 70 115516716382324e-28 2997438924628e-30 .00649999999997
999 18 51 461 0 71 47 55 68 ?1 29 70 1070 0 56 68 72 1155304361984852e-29 .00562
916512458152 .00324999999999 18 56 500 0 73 52 57 70 ?1 29 72 1073 0 60 70 74 11
55184911351726e-29 .00562916512458152 -.003249999999990005 18 60 541 0 75 57 61
 72 ?1 29 74 1076 0 64 72 22 115519510751084e-28 178353294645214e-34 -.006499999
99997999 18 64 580 0 76 61 67 74 ?1 29 22 1079 0 77 74 8 1155325018083442e-29 -.
00562916512458152 .003249999999990015 18 77 664 0 78 21 0 22 ?1 17 78 0 79 71 80
 77 81 19 0 82 -18 21 623 0 80 67 77 8 ?1 17 80 0 79 78 76 21 83 84 0 85 -15 255
 79 908 0 80 16 0 17 76 0 79 80 75 64 86 87 0 88 -17 83 0 89 63 85 64 80 84 0 90
 +16 84 834 0 ?83 87 19 20 0 0 1 17 85 0 89 83 63 21 91 92 0 81 +15 89 832 0 83
 93 0 17 63 0 89 85 83 61 90 94 0 91 +17 91 0 95 96 97 61 85 92 0 98 -16 92 618
 0 ?85 99 100 101 0 0 1 17 81 0 102 69 82 21 78 19 0 97 +15 102 867 0 81 103 0 1
7 69 0 102 82 81 67 97 99 0 104 +17 82 0 102 81 69 77 104 105 0 106 +16 19 869 0
 ?81 84 0 7 0 0 1 17 97 0 95 91 107 21 69 99 0 0 -15 95 614 0 107 108 0 17 107 0
 95 97 109 67 110 111 0 0 -16 99 617 0 ?69 111 92 112 0 0 1 16 111 616 0 ?110 11
3 99 114 0 0 1 38 12 CCCCCCCCCCCA17 intersection_data204 0 Z112 1047 0 99 115 10
1 0 +116 18 117 118 119 120 38 115 1042 0 113 121 112 0 +122 123 124 125 126 127
 38 101 1051 0 92 112 128 0 +116 129 130 131 132 133 50 116 627 0 108 122 134 13
5 +.005675 -.003752776749732575 -.0065 0 .866025403784439 .5 0 -.5 .866025403784
439 52 255 18 874 0 103 129 6 136 +.000584039923069213 0 0 1 0 0 .00751158682032
838 .866025403776712 .500000000013383 0 0 -1 40 255 2 117 0 1 2 .000580556583617
393 .2810349015117015 ??2383327334170145e-29 -.00562916512459777 -.0032499999999
9938 .000580556583641226 -.00750555349945931 -101132532518746e-28 41 3 CI8 term_
use0 0 1 cCZ1 118 L?2383327334170145e-29 -.00562916512459777 -.00324999999999938
 41 1 119 L?.000580556583641226 -.00750555349945931 -101132532518746e-28 204 2 1
7 INTERSECTION_DATA17 Intersection data7 uv_type0 0 1 u6 values0 1 1 fT8 120 4 .
00375277674973256 -.00567499999997617 5.23598775598299 -.000584039923046826 .007
50555349945346 -.00509444341635877 4.71238898038604 -3483339427986725e-21 14 255
 103 865 137 1e-8 93 16 102 5 18 +0 0 16 93 23 52 129 839 0 93 123 18 138 +.0005
84039923069213 0 0 1 0 0 .00751158682032838 .866025403776712 .500000000013383 0
 0 -1 141 255 136 139 140 140 18 38 139 1061 0 105 128 141 0 +134 18 142 143 144
 145 141 140 112 136 136 18 16 105 659 0 ?82 100 146 139 0 0 1 38 128 1056 0 100
 101 139 0 +134 147 148 149 150 151 31 141 1064 0 146 139 152 0 +542101086242752
e-33 0 0 1 0 0 0 0 -1 .00649999999995998 50 134 668 0 153 116 154 155 +.005675 -
.00750555349946515 0 0 .866025403784438 -.5 0 .5 .866025403784438 40 2 142 0 1 2
 .000580556583618051 .2810349015116845 ??.000580556583641225 -.00750555349945931
 1011471339521624e-29 231059582605826e-28 -.00562916512459895 .00324999999999983
5 41 1 143 L?.000580556583641225 -.00750555349945931 1011471339521624e-29 41 1 1
44 L?231059582605826e-28 -.00562916512459895 .003249999999999835 204 8 145 4 116
7957204319398e-29 -.00509444341635878 4.71238898038334 -3483339427987725e-21 .00
3752776749732385 -.0056749999999769 4.18879020478642 -.000584039923046107 14 153
 653 156 1e-8 108 157 158 5 134 -0 0 157 108 23 52 154 707 0 157 134 147 159 +.0
00584039923069213 0 0 1 0 0 .00751158682032838 .866025403776712 .500000000013383
 0 0 -1 141 155 128 160 160 134 141 160 139 155 155 134 14 157 698 161 1e-8 153
 162 163 5 154 +0 0 162 153 23 52 147 736 0 162 154 164 165 +.000584039923069213
 0 0 1 0 0 .00751158682032838 .866025403776712 .500000000013383 0 0 -1 141 159 1
66 167 167 154 38 166 1024 0 168 169 170 0 +171 154 172 173 174 175 141 167 176
 159 159 154 38 176 1012 0 177 178 179 0 +180 154 181 182 183 184 16 177 455 0 ?
49 185 186 176 0 0 1 31 178 1006 0 187 188 176 0 -.005075 0 0 -1 0 0 0 0 1 .0065
 38 179 1016 0 186 176 169 0 +180 147 189 190 191 192 50 180 465 0 193 194 171 1
95 +.005675 .00375277674973257 .0065 0 -34668798432396e-29 -1 0 1 -3466879843239
6e-29 40 2 181 0 1 2 .000580556583617392 .2810349015117015 ??238253745137259e-28
 231227756546112e-32 .00649999999999875 .000580556583641217 .00375277674972089 .
0065 41 1 182 L?238253745137259e-28 231227756546112e-32 .00649999999999875 41 1
 183 L?.000580556583641217 .00375277674972089 .0065 204 8 184 4 -.00375277674973
257 -.00567499999997618 3.141592653589795 -.000584039923046831 -1167815844027586
e-29 -.00509444341635878 2.61799387799284 -348333942799574e-20 14 193 450 196 1e
-8 197 198 30 5 180 -0 0 198 197 23 50 194 434 0 197 199 180 0 +.005075 .0065 0
 1 0 0 0 0 -1 50 171 504 0 198 180 200 201 +.005675 .00750555349946514 0 0 -.866
025403784439 -.5 0 .5 -.866025403784439 141 195 176 202 202 180 141 202 179 195
 195 180 14 198 489 203 1e-8 193 204 205 5 171 -0 0 204 193 23 50 200 545 0 204
 171 122 206 +.005675 .00375277674973256 -.0065 0 -.866025403784438 .5 0 -.5 -.8
66025403784438 141 201 169 207 207 171 38 169 1020 0 208 179 166 0 +171 164 209
 210 211 212 141 207 166 201 201 171 16 208 494 0 ?54 213 168 169 0 0 1 52 164 7
69 0 214 147 123 215 +.000584039923069213 0 0 1 0 0 .00751158682032838 .86602540
3776712 .500000000013383 0 0 -1 40 2 209 0 1 2 .000580556583617393 .281034901511
702 ??238280074563844e-28 .00562916512459777 .00324999999999938 .000580556583641
221 .0075055534994593 1011351852040604e-29 41 1 210 L?238280074563844e-28 .00562
916512459777 .00324999999999938 41 1 211 L?.000580556583641221 .0075055534994593
 1011351852040604e-29 204 8 212 4 -.003752776749732575 -.00567499999997617 2.094
395102393195 -.00058403992304683 -11678103570385e-27 -.00509444341635878 1.57079
6326796245 -3483339427992235e-21 14 214 760 216 1e-8 162 217 218 5 164 +0 0 217
 162 23 52 123 804 0 217 164 129 219 +.000584039923069213 0 0 1 0 0 .00751158682
032838 .866025403776712 .500000000013383 0 0 -1 141 215 220 221 221 164 38 220 1
033 0 222 170 121 0 +200 164 223 224 225 226 141 221 169 215 215 164 16 222 536
 0 ?227 228 229 220 0 0 1 38 170 1029 0 228 166 220 0 +200 123 230 231 232 233 3
8 121 1038 0 94 220 115 0 +122 129 234 235 236 237 40 2 223 0 1 2 .0005805565836
18047 .2810349015116835 ??.00058055658364122 .0075055534994593 -1011389526258842
e-29 231038234199178e-28 .00562916512459895 -.003249999999999825 41 1 224 L?.000
58055658364122 .0075055534994593 -1011389526258842e-29 41 1 225 L?23103823419917
8e-28 .00562916512459895 -.003249999999999825 204 8 226 4 -.00750555349945346 -.
00509444341635878 1.57079632679355 -3483339427992735e-21 -.00375277674973277 -.0
056749999999769 1.04719755119663 -.000584039923046109 16 94 574 0 ?63 229 113 12
1 0 0 1 50 122 584 0 238 200 116 239 +.005675 .00375277674973256 -.0065 0 -11556
266144132e-29 1 0 -1 -11556266144132e-29 40 2 234 0 1 2 .000580556583617394 .281
034901511702 ??238261518030519e-28 3567065927538305e-35 -.00649999999999875 .000
580556583641221 -.0037527767497209 -.0065 41 1 235 L?238261518030519e-28 3567065
927538305e-35 -.00649999999999875 41 1 236 L?.000580556583641221 -.0037527767497
209 -.0065 204 8 237 4 .00375277674973256 -.00567499999997617 548779373467537e-3
2 -.000584039923046831 .00750555349945346 -.00509444341635878 5.75958653158263 -
3483339427992235e-21 14 238 569 240 1e-8 204 108 241 5 122 -0 0 108 204 23 141 2
39 121 242 242 122 141 242 115 239 239 122 81 1 240 1294 243 238 244 0 216 245 2
46 14 204 530 245 1e-8 198 238 247 5 200 -0 0 238 198 23 14 108 612 248 1e-8 238
 153 95 5 116 -0 0 153 238 23 15 241 571 0 98 238 0 13 23 3 0 0 0 0 0 0 9 249 14
 249 2 250 1e-8 0 251 252 5 253 +0 0 251 0 23 81 1 250 1297 243 249 254 0 248 25
5 256 14 251 67 255 1e-8 249 257 258 5 259 +0 0 257 249 23 15 252 1082 0 24 249
 260 51 255 253 12 0 249 0 259 0 +0 0 0 -1 0 0 .004 0 0 1 50 259 79 0 251 253 26
1 0 +.005675 .00750555349946514 -650521303491302e-33 1 0 0 0 0 -1 52 261 123 0 2
57 259 262 0 +.02498450000007325 0 0 -1 -433680869004457e-30 0 .0039999999999054
15 .707106781186548 .707106781186548 433680869004457e-30 -1 0 14 257 112 263 1e-
8 251 264 265 5 261 +0 0 264 251 23 51 262 190 0 264 261 266 0 +0 0 0 -1 0 0 .00
65 0 0 1 14 264 175 267 1e-8 257 268 269 5 262 +0 0 268 257 23 50 266 266 0 268
 262 270 0 +.025675 0 0 -1 0 0 0 0 1 14 268 259 271 1e-8 264 272 273 5 266 -0 0
 272 264 23 50 270 299 0 272 266 274 0 +.005075 .0065 0 1 0 0 0 0 -1 14 272 290
 275 1e-8 268 276 277 5 270 +0 0 276 268 23 50 274 326 0 276 270 278 0 +.005075
 .0065 0 1 0 0 0 0 -1 14 276 317 279 1e-8 272 280 281 5 274 +0 0 280 272 23 50 2
78 353 0 280 274 282 0 +.005075 .0065 0 1 0 0 0 0 -1 14 280 344 283 1e-8 276 284
 285 5 278 +0 0 284 276 23 50 282 382 0 284 278 199 0 +.005075 .0065 0 1 0 0 0 0
 -1 14 284 373 286 1e-8 280 287 288 5 282 +0 0 287 280 23 50 199 409 0 287 282 1
94 0 +.005075 .0065 0 1 0 0 0 0 -1 14 287 400 289 1e-8 284 197 290 5 199 +0 0 19
7 284 23 81 1 289 1306 243 287 291 0 286 292 293 14 197 425 292 1e-8 287 193 294
 5 194 +0 0 193 287 23 15 290 402 0 295 287 0 17 295 0 290 296 297 41 109 298 0
 299 +17 296 0 290 297 295 43 300 301 0 302 -17 297 0 290 295 296 303 45 304 0 0
 +18 41 222 0 305 306 43 39 ?1 17 109 0 95 107 305 303 295 298 0 297 -16 298 404
 0 ?295 307 304 308 0 0 1 17 299 0 288 309 310 41 311 312 0 300 -15 288 375 0 31
0 284 0 17 309 0 288 310 299 313 305 307 0 0 +17 310 0 288 299 309 306 314 315 0
 311 +17 311 0 269 316 300 306 299 312 0 317 +16 312 216 0 ?311 318 301 319 0 0
 1 17 300 0 269 311 302 41 296 301 0 0 +15 269 1086 0 311 264 320 17 302 0 269 3
00 321 43 35 187 0 0 +16 301 217 0 ?300 312 187 188 0 0 1 16 187 218 0 ?302 301
 322 178 0 0 1 31 188 1003 0 301 319 178 0 -.005075 0 0 -1 0 0 0 0 1 .0065 31 31
9 1000 0 312 323 188 0 -.005075 0 0 -1 0 0 0 0 1 .0065 31 323 997 0 318 324 319
 0 -.005075 0 0 -1 0 0 0 0 1 .0065 16 318 181 0 ?316 325 312 323 0 0 1 31 324 99
4 0 325 326 323 0 -.005075 0 0 -1 0 0 0 0 1 .0065 16 325 180 0 ?327 328 318 324
 0 0 1 31 326 992 0 328 329 324 0 -.005075 0 0 -1 0 0 0 0 1 .0065 16 328 179 0 ?
321 330 325 326 0 0 1 31 329 986 0 330 331 326 0 +.02567499999997835 29945664000
64275e-34 0 -1 -433680869004457e-30 0 433680869004457e-30 -1 0 .0033095000000003
 16 330 118 0 ?332 333 328 329 0 0 1 31 331 980 0 333 26 329 0 -.005675 0 0 -1 0
 0 0 0 1 .0065 16 333 71 0 ?334 25 330 331 0 0 1 31 26 974 0 10 335 331 0 -.0056
75 0 0 -1 0 0 0 0 1 .004 30 255 335 631 0 1 114 26 336 +.005675 -.00750555349946
515 867361737988404e-33 1 0 0 133 255 114 632 0 111 337 335 0 +335 .000580556583
641226 -.00750555349945931 508264780202841e-33 .005075 -.00750555349946515 13010
42606982604e-33 -.00509444341635877 -6e-4 141 336 114 336 336 335 30 337 588 0 1
 338 114 339 +.005675 -.003752776749732575 -.0065 1 0 0 133 338 589 0 229 340 33
7 0 +337 .000580556583641221 -.00375277674972966 -.00649999999999494 .005075 -.0
03752776749732575 -.0065 -.00509444341635878 -6e-4 141 339 338 339 339 337 16 22
9 573 0 ?96 222 94 338 0 0 1 30 340 549 0 1 341 338 342 +.005675 .00375277674973
256 -.0065 1 0 0 133 341 550 0 343 344 340 0 +340 .000580556583641216 .003752776
74972964 -.00649999999999494 .005075 .00375277674973256 -.0065 -.005094443416358
79 -6e-4 141 342 341 342 342 340 16 343 534 0 ?345 168 228 341 0 0 1 30 344 508
 0 1 346 341 347 +.005675 .00750555349946514 -747062539559006e-34 1 0 0 133 346
 509 0 213 348 344 0 +344 .00058055658364122 .0075055534994593 -829484277387387e
-34 .005075 .00750555349946514 -65367972211413e-33 -.00509444341635878 -6e-4 141
 347 346 347 347 344 16 213 493 0 ?349 350 208 346 0 0 1 30 348 467 0 1 351 346
 352 -.005675 -.00375277674973256 .0065 1 0 0 133 351 468 0 350 353 348 0 +348 .
005075 -.00375277674973256 .0065 .000580556583642902 -.00375277674973548 .006499
99999999494 -6e-4 -.0050944434163571 141 352 351 352 352 348 16 350 457 0 ?354 1
86 213 351 0 0 1 30 353 469 0 1 355 351 356 +.005675 .00375277674973257 .0065 1
 0 0 133 355 470 0 185 357 353 0 +353 .000580556583641217 .00375277674972965 .00
649999999999494 .005075 .00375277674973257 .0065 -.00509444341635878 -6e-4 141 3
56 355 356 356 353 16 185 454 0 ?358 34 177 355 0 0 1 30 357 435 0 1 359 355 360
 -.005075 .0065 .0065 0 1 0 133 359 436 0 34 361 357 0 +357 .005075 -79602041944
5779e-33 .0065 .005075 -.00375277674973256 .0065 -.0065 -.01025277674973256 141
 360 359 360 360 357 16 34 430 0 ?33 362 185 359 0 0 1 30 361 437 0 1 363 359 36
4 +.005075 -.00375277674973256 .0065 0 -.5 -.866025403784438 133 363 438 0 362 3
65 361 0 +361 .005075 -.00375277674973256 .0065 .005075 -.00562916512459884 .003
25 1068633729742956e-33 .00375277674973256 141 364 363 364 364 361 16 362 429 0
 ?366 304 34 363 0 0 1 30 365 410 0 1 367 363 368 +.005075 -.00562916512459884 .
00325 0 -.5 -.866025403784437 133 367 411 0 304 369 365 0 +365 .005075 -.0056291
6512459884 .00325 .005075 -.00750555349946515 -1330093716637558e-33 0 .003752776
74973259 141 368 367 368 368 365 16 304 405 0 ?297 298 362 367 0 0 1 30 369 412
 0 1 308 367 370 +.005075 -.00750555349946515 0 0 .5 -.866025403784437 133 308 4
13 0 298 371 369 0 +369 .005075 -.00750555349946515 -1330093716637558e-33 .00507
5 -.00562916512459885 -.00325 1151894948022184e-33 .003752776749732575 141 370 3
08 370 370 369 30 371 383 0 1 372 308 373 +.005075 -.00562916512459885 -.00325 0
 .5 -.86602540378444 133 372 384 0 307 374 371 0 +371 .005075 -.0056291651245988
5 -.00325 .005075 -.00375277674973258 -.0065 -112673594905287e-32 .0037527767497
3256 141 373 372 373 373 371 16 307 378 0 ?309 315 298 372 0 0 1 30 374 385 0 1
 375 372 376 +.005075 .0065 -.0065 0 1 0 133 375 386 0 315 377 374 0 +374 .00507
5 -.00375277674973258 -.0065 .005075 433680868994202e-33 -.0065 -.01025277674973
258 -.0065 141 376 375 376 376 374 16 315 377 0 ?310 378 307 375 0 0 1 30 377 35
4 0 1 379 375 380 +.005075 .00375277674973256 -.0065 0 .5 .866025403784438 133 3
79 355 0 378 381 377 0 +377 .005075 .00375277674973256 -.0065 .005075 .005629165
12459885 -.00325 0 .00375277674973256 141 380 379 380 380 377 16 378 349 0 ?382
 383 315 379 0 0 1 30 381 356 0 1 384 379 385 +.005075 .0065 -.0065 0 1 0 133 38
4 357 0 383 386 381 0 +381 .005075 433680868994202e-33 -.0065 .005075 .003752776
74973256 -.0065 -.0065 -.00274722325026744 141 385 384 385 385 381 16 383 347 0
 ?387 388 378 384 0 0 1 30 386 327 0 1 389 384 390 +.005075 .00562916512459885 -
.00325 0 .5 .866025403784438 133 389 328 0 388 391 386 0 +386 .005075 .005629165
12459885 -.00325 .005075 .00750555349946514 758941520739853e-33 581022193099131e
-34 .00375277674973258 141 390 389 390 390 386 16 388 322 0 ?392 393 383 389 0 0
 1 30 391 329 0 1 394 389 395 +.005075 .00750555349946514 0 0 -.5 .8660254037844
38 133 394 330 0 393 396 391 0 +391 .005075 .00750555349946514 758941520739853e-
33 .005075 .00562916512459885 .00325 657262636947506e-33 .003752776749732575 141
 395 394 395 395 391 16 393 321 0 ?397 398 388 394 0 0 1 30 396 300 0 1 399 394
 400 +.005075 .00562916512459885 .00325 0 -.5 .866025403784439 133 399 301 0 398
 401 396 0 +396 .005075 .00562916512459885 .00325 .005075 .00375277674973257 .00
65 -37557864968429e-32 .00375277674973256 141 400 399 400 400 396 16 398 295 0 ?
402 322 393 399 0 0 1 30 401 302 0 1 403 399 404 -.005075 .0065 .0065 0 1 0 133
 403 303 0 322 405 401 0 +401 .005075 .00375277674973257 .0065 .005075 -79602041
9445779e-33 .0065 -.00274722325026743 -.0065 141 404 403 404 404 401 16 322 294
 0 ?406 187 398 403 0 0 1 31 405 110 0 25 0 403 0 +.0249845 0 0 -1 0 0 0 0 1 .00
4 16 25 9 0 ?407 10 333 405 0 0 1 17 407 0 260 407 407 0 408 25 0 0 +15 260 7 0
 407 249 0 17 408 0 265 408 408 0 407 25 0 0 -15 265 1084 0 408 257 409 15 409 1
14 0 332 257 0 17 332 0 409 332 332 0 410 330 0 0 +17 410 0 273 410 410 0 332 33
0 0 0 -15 273 261 0 410 268 0 17 406 0 277 411 402 11 31 322 0 321 +15 277 292 0
 406 272 0 17 411 0 277 402 406 28 321 328 0 327 -17 402 0 277 406 411 46 36 398
 0 0 +17 31 0 30 412 27 46 406 322 0 402 -17 321 0 269 302 327 11 411 328 0 0 +1
7 327 0 269 321 316 28 413 325 0 0 +17 316 0 269 327 311 37 317 318 0 0 +17 413
 0 281 392 397 37 327 325 0 316 -15 281 319 0 397 276 0 17 392 0 281 397 413 414
 415 388 0 0 +17 397 0 281 413 392 28 416 393 0 411 +18 37 186 0 415 28 306 417
 ?1 17 415 0 247 418 349 37 392 388 0 382 -18 306 187 0 419 37 41 42 ?1 29 417 9
98 0 37 38 42 .005075 .00562916512459885 -.00325 29 38 995 0 28 420 417 .005075
 .00562916512459885 .00325 29 42 1001 0 306 417 39 .005075 433680868994202e-33 -
.0065 29 420 862 0 303 421 38 .005075 -.00750555349946515 -453048275430837e-33 1
8 303 407 0 110 313 50 420 2061552813048165e-23 1 29 421 827 0 313 422 420 .0050
75 -.00375277674973258 -.0065 18 313 380 0 96 423 303 421 206155281299699e-22 1
 29 422 792 0 423 424 421 .005075 .00375277674973256 -.0065 18 423 352 0 345 414
 313 422 2061552812850905e-23 1 29 424 757 0 414 425 422 .005075 .00750555349946
514 484171689756097e-33 18 414 324 0 349 46 423 424 2061552812908445e-23 1 29 42
5 756 0 50 426 424 .005075 -.00375277674973256 .0065 18 50 432 0 32 303 47 425 2
06155281292783e-22 1 29 426 695 0 46 0 425 .005075 .00375277674973257 .0065 18 4
6 297 0 358 43 414 426 2061552812892975e-23 1 17 358 0 205 36 427 46 412 185 0 3
1 +15 205 491 0 428 198 0 17 36 0 205 416 358 28 402 398 0 397 -17 427 0 205 358
 429 47 430 168 0 412 -17 412 0 30 431 31 47 358 185 0 0 -15 30 452 0 412 193 0
 17 431 0 30 432 412 51 49 177 0 0 -17 432 0 30 32 431 55 433 186 0 0 -17 49 0 1
63 430 434 47 431 177 0 427 +15 163 700 0 430 157 0 17 430 0 163 434 49 56 427 1
68 0 435 +17 434 0 163 49 430 51 73 146 0 431 +17 73 0 79 75 71 56 434 146 0 430
 -16 146 701 0 ?434 105 436 141 0 0 1 16 436 731 0 ?106 146 437 152 0 0 1 17 106
 0 438 66 433 77 71 436 0 439 +16 437 763 0 ?435 436 87 440 0 0 1 31 152 1066 0
 436 141 440 0 +0 0 0 1 0 0 0 0 -1 .00649999999995998 31 440 1069 0 437 152 441
 0 +0 0 0 1 0 0 0 0 -1 .00649999999995998 31 441 1072 0 87 440 20 0 +0 0 0 1 0 0
 0 0 -1 .00649999999995998 16 87 798 0 ?86 437 84 441 0 0 1 31 20 1075 0 84 441
 7 0 +0 0 0 1 0 0 0 0 -1 .00649999999995998 17 86 0 442 59 88 60 76 87 0 443 +15
 442 797 0 88 217 0 17 59 0 442 88 86 57 443 228 0 444 +17 88 0 442 86 59 64 444
 113 0 83 +17 443 0 247 445 446 60 59 228 0 0 -15 247 532 0 446 204 0 17 445 0 2
47 349 443 52 227 222 0 428 -17 446 0 247 443 418 57 345 343 0 0 -16 228 535 0 ?
59 343 222 170 0 0 1 17 418 0 247 446 415 423 382 378 0 387 -17 345 0 241 419 44
4 423 446 343 0 418 +17 419 0 241 314 345 306 387 383 0 310 -17 444 0 241 345 90
 57 88 113 0 446 -17 90 0 241 444 98 64 63 94 0 0 -16 113 575 0 ?88 94 111 115 0
 0 1 17 98 0 241 90 314 61 96 229 0 0 -17 314 0 241 98 419 313 310 315 0 309 -17
 96 0 95 305 91 313 98 229 0 314 +17 305 0 95 109 96 41 309 307 0 295 -17 387 0
 285 382 317 423 419 383 0 0 +15 285 346 0 317 280 0 17 382 0 285 317 387 37 418
 378 0 413 +17 317 0 285 387 382 306 316 318 0 0 -17 349 0 247 415 445 414 428 2
13 0 416 +17 227 0 218 435 54 60 445 222 0 86 +17 428 0 205 429 416 52 349 213 0
 0 -17 429 0 205 427 428 56 54 208 0 0 -17 416 0 205 428 36 414 397 393 0 392 -1
7 54 0 218 227 435 52 429 208 0 445 +15 218 762 0 227 214 0 17 435 0 218 54 227
 56 75 437 0 429 +17 75 0 79 76 73 60 435 437 0 227 -14 217 795 447 1e-8 214 93
 442 5 123 +0 0 93 214 23 81 1 447 1308 243 217 448 0 292 449 450 14 93 830 449
 1e-8 217 103 89 5 129 +0 0 103 217 23 81 1 449 1309 243 93 451 0 447 452 453 80
 255 1 243 454 455 9000 1 1 1 1 1 1 1 1 0 FFFFTFTFFFFFFF1 81 1 451 1205 456 93 0
 449 457 448 458 81 1 452 1310 243 16 459 0 449 460 461 82 255 1 453 999999 14 1
6 906 452 1e-8 103 0 79 5 6 -0 0 0 103 23 81 1 459 1203 456 16 462 452 0 457 463
 81 1 460 1311 243 162 464 0 452 0 465 82 1 461 999999 14 162 727 460 1e-8 157 2
14 438 5 147 +0 0 214 157 23 81 1 464 1208 456 162 0 460 466 467 468 82 1 465 99
9999 80 1 456 0 469 8001 0 0 0 0 3 5 0 0 0 FFFFTFTFFFFFFF2 81 1 466 1207 456 214
 0 216 448 464 470 81 1 467 1209 456 157 0 161 464 471 472 83 255 3 468 .6470588
23529412 .619607843137255 .588235294117647 81 1 161 1290 243 157 467 0 156 196 4
73 81 1 471 1210 456 153 0 156 467 474 475 83 3 472 .647058823529412 .6196078431
37255 .588235294117647 81 1 156 1289 243 153 471 0 137 161 476 81 1 474 1211 456
 108 0 248 471 244 477 83 3 475 .647058823529412 .619607843137255 .5882352941176
47 81 1 248 1296 243 108 474 0 245 250 478 81 1 244 1212 456 238 0 240 474 479 4
80 83 3 477 .647058823529412 .619607843137255 .588235294117647 81 1 479 1213 456
 204 0 245 244 481 482 83 3 480 .647058823529412 .619607843137255 .5882352941176
47 81 1 245 1295 243 204 479 0 240 248 483 81 1 481 1214 456 198 0 203 479 484 4
85 83 3 482 .647058823529412 .619607843137255 .588235294117647 81 1 203 1292 243
 198 481 0 196 216 486 81 1 484 1215 456 193 0 196 481 487 488 83 3 485 .6470588
23529412 .619607843137255 .588235294117647 81 1 196 1291 243 193 484 0 161 203 4
89 81 1 487 1216 456 197 0 292 484 291 490 83 3 488 .647058823529412 .6196078431
37255 .588235294117647 81 1 292 1307 243 197 487 0 289 447 491 81 1 291 1217 456
 287 0 289 487 492 493 83 3 490 .647058823529412 .619607843137255 .5882352941176
47 81 1 492 1218 456 284 0 286 291 494 495 83 3 493 .647058823529412 .6196078431
37255 .588235294117647 81 1 286 1305 243 284 492 0 283 289 496 81 1 494 1219 456
 280 0 283 492 497 498 83 3 495 .647058823529412 .619607843137255 .5882352941176
47 81 1 283 1304 243 280 494 0 279 286 499 81 1 497 1220 456 276 0 279 494 500 5
01 83 3 498 .647058823529412 .619607843137255 .588235294117647 81 1 279 1303 243
 276 497 0 275 283 502 81 1 500 1221 456 272 0 275 497 503 504 83 3 501 .6470588
23529412 .619607843137255 .588235294117647 81 1 275 1302 243 272 500 0 271 279 5
05 81 1 503 1222 456 268 0 271 500 506 507 83 3 504 .647058823529412 .6196078431
37255 .588235294117647 81 1 271 1301 243 268 503 0 267 275 508 81 1 506 1223 456
 264 0 267 503 509 510 83 3 507 .647058823529412 .619607843137255 .5882352941176
47 81 1 267 1300 243 264 506 0 263 271 511 81 1 509 1224 456 257 0 263 506 512 5
13 83 3 510 .647058823529412 .619607843137255 .588235294117647 81 1 263 1299 243
 257 509 0 255 267 514 81 1 512 1225 456 251 0 255 509 254 515 83 3 513 .6470588
23529412 .619607843137255 .588235294117647 81 1 255 1298 243 251 512 0 250 263 5
16 81 1 254 1226 456 249 0 250 512 0 517 83 3 515 .647058823529412 .619607843137
255 .588235294117647 83 3 517 .647058823529412 .619607843137255 .588235294117647
 82 1 516 999999 82 1 514 999999 82 1 511 999999 82 1 508 999999 82 1 505 999999
 82 1 502 999999 82 1 499 999999 82 1 496 999999 82 1 491 999999 82 1 489 999999
 81 1 216 1293 243 214 466 0 203 240 518 82 1 486 999999 82 1 518 999999 82 1 48
3 999999 82 1 478 999999 81 1 137 1288 243 103 457 0 0 156 519 82 1 476 999999 8
1 1 457 1204 456 103 0 137 459 451 520 82 1 519 999999 83 3 520 .647058823529412
 .619607843137255 .588235294117647 82 1 473 999999 81 1 448 1206 456 217 0 447 4
51 466 521 83 3 470 .647058823529412 .619607843137255 .588235294117647 83 3 521
 .647058823529412 .619607843137255 .588235294117647 79 255 15 469 SDL/TYSA_COLOU
R15 438 729 0 106 162 0 81 1 462 1201 522 16 0 459 0 523 524 83 3 463 .647058823
529412 .619607843137255 .588235294117647 80 1 522 525 526 8017 0 0 0 0 0 0 0 0 0
 TTTTTTTTTTTTTF3 81 1 523 1202 522 1 527 528 462 0 529 84 255 4 524 NONE81 2 527
 1192 530 1 531 523 0 0 0 532 81 2 528 1235 533 1 523 13 0 0 0 0 84 11 529 Beari
ngFace80 2 533 534 535 9000 0 0 0 0 3 5 0 0 0 FFTFFFFFFFFFFF9 1 81 2 13 1286 536
 1 528 2 0 0 537 0 80 2 536 538 539 8004 0 0 0 0 3 5 0 0 0 FFTFFFFFFFFFFF2 3 83
 1 537 79e2 79 16 539 SDL/TYSA_DENSITY79 16 535 BODY_RECIPE_200180 2 530 540 541
 9000 0 0 0 0 3 5 0 0 0 FFTFFFFFFFFFFF9 1 81 1 531 1140 542 1 543 527 0 0 544 82
 1 532 1 80 1 542 545 546 9000 1 1 1 1 1 1 1 1 0 FFTFFFFFFFFFFF1 81 2 543 1089 5
47 1 548 531 0 0 0 549 82 1 544 3975 80 2 547 550 551 9000 0 0 0 0 3 5 0 0 0 FFT
FFFFFFFFFFT9 1 81 2 548 1088 552 1 0 543 0 0 0 553 82 1 549 102 80 2 552 554 555
 9000 0 0 0 0 3 5 0 0 0 FFTFFFFFFFFFFF9 1 82 1 553 17 79 30 555 LAST_BODY_MODIFY
ING_FEATURE_ID79 19 551 ENT_TIME_STAMP_200179 10 546 BODY_MATCH79 24 541 BODY_IN
_LIGHTWEIGHT_PERM79 13 526 SDL/TYSA_NAME83 3 458 .647058823529412 .6196078431372
55 .588235294117647 79 14 455 SWEntUnchanged82 1 450 999999 17 66 0 438 433 106
 55 439 100 0 354 +17 433 0 438 106 66 51 432 186 0 434 +17 71 0 79 73 78 51 106
 436 0 433 -17 439 0 158 104 354 77 66 100 0 0 -15 158 655 0 354 153 0 17 104 0
 158 110 439 67 82 105 0 107 -17 354 0 158 439 556 55 32 350 0 432 +16 100 658 0
 ?66 92 105 128 0 0 1 17 556 0 158 354 45 50 366 362 0 33 -17 32 0 30 27 432 50
 354 350 0 556 -17 45 0 158 556 110 43 297 304 0 366 -17 366 0 294 35 33 43 556
 362 0 296 +17 33 0 294 366 35 50 27 34 0 0 +15 294 427 0 366 197 0 17 35 0 294
 33 366 11 302 187 0 406 -17 110 0 158 45 104 303 107 111 0 109 +16 186 456 0 ?4
33 177 350 179 0 0 1 16 168 495 0 ?430 208 343 166 0 0 1 17 334 0 258 334 334 0
 557 333 0 0 +15 258 69 0 334 251 558 17 557 0 320 557 557 0 334 333 0 0 -15 320
 177 0 557 264 0 15 558 70 0 559 251 0 17 559 0 558 559 559 0 24 10 0 0 -17 24 0
 252 24 24 0 559 10 0 0 +82 1 293 999999 82 1 256 999999 82 1 246 999999 40 2 23
0 0 1 2 .00058055658361739 .2810349015117015 ??238257345937931e-28 .005629165124
59776 -.00324999999999938 .000580556583641216 .0037527767497384 -.00649999999998
989 41 1 231 L?238257345937931e-28 .00562916512459776 -.00324999999999938 41 1 2
32 L?.000580556583641216 .0037527767497384 -.00649999999998989 204 8 233 4 -.003
75277674973256 -.00567499999997618 1.047197551196596 -.000584039923046831 -11678
0337207066e-28 -.00509444341635879 .523598775599646 -348333942799724e-20 141 219
 115 560 560 123 141 560 170 219 219 123 141 206 170 561 561 200 141 561 220 206
 206 200 40 2 189 0 1 2 .000580556583618043 .281034901511683 ??.0005805565836412
15 -.00375277674972088 .0065 2310334327646485e-29 -2051614126773355e-31 .0065 41
 1 190 L?.000580556583641215 -.00375277674972088 .0065 41 1 191 L?23103343276464
85e-29 -2051614126773355e-31 .0065 204 8 192 4 -.00750555349945345 -.00509444341
635879 3.665191429186745 -348333942799724e-20 -.003752776749732775 -.00567499999
99769 3.141592653589825 -.000584039923046109 40 2 172 0 1 2 .000580556583618041
 .2810349015116825 ??.000580556583641217 .00375277674973841 .00649999999998988 2
31055451386108e-28 .00562916512459875 .003250000000000185 41 1 173 L?.0005805565
83641217 .00375277674973841 .00649999999998988 41 1 174 L?231055451386108e-28 .0
0562916512459875 .003250000000000185 204 8 175 4 -.00750555349945346 -.005094443
41635878 2.617993877990145 -348333942799574e-20 -.003752776749732785 -.005674999
9999769 2.09439510239323 -.000584039923046108 141 165 128 562 562 147 141 562 17
9 165 165 147 40 2 148 0 1 2 .000580556583617387 .2810349015117005 ??23828738249
96295e-29 -.00562916512459776 .00324999999999939 .000580556583641217 -.003752776
7497384 .00649999999998989 41 1 149 L?2382873824996295e-29 -.00562916512459776 .
00324999999999939 41 1 150 L?.000580556583641217 -.0037527767497384 .00649999999
998989 204 8 151 4 .00375277674973259 -.00567499999997617 4.18879020478639 -.000
58403992304683 .00750555349945347 -.00509444341635878 3.66519142918944 -34833394
2799624e-20 141 138 101 563 563 129 141 563 121 138 138 129 141 135 112 564 564
 116 141 564 101 135 135 116 40 2 130 0 1 2 .000580556583618041 .281034901511682
5 ??.00058055658364122 -.003752776749738415 -.00649999999998989 2310957745730485
e-29 -.00562916512459875 -.00325000000000019 41 1 131 L?.00058055658364122 -.003
752776749738415 -.00649999999998989 41 1 132 L?2310957745730485e-29 -.0056291651
2459875 -.00325000000000019 204 8 133 4 1167996971617434e-29 -.00509444341635878
 5.75958653157994 -3483339427992235e-21 .00375277674973235 -.00567499999997689 5
.23598775598302 -.000584039923046103 40 2 124 0 1 2 .000580556583618042 .2810349
015116825 ??.000580556583641215 .003752776749720885 -.0065 2310390215021685e-29
 207808725921616e-30 -.0065 41 1 125 L?.000580556583641215 .003752776749720885 -
.0065 41 1 126 L?2310390215021685e-29 207808725921616e-30 -.0065 204 8 127 4 116
7815844027586e-29 -.00509444341635879 .523598775596951 -348333942799724e-20 .003
752776749732355 -.0056749999999769 3197057321871015e-29 -.000584039923046109 19
 17 971 0 1 0 9 5 S0 74 4 CI16 index_map_offset0 0 1 dCCZ20 15 10 0 0 548 543 53
1 460 527 523 254 528 13 2 0 0 0 0 0 0 0 0 0 0 80 2 12 565 566 9000 0 0 0 0 3 5
 0 0 0 FFTFFFFFFFFFFF9 1 82 1 14 101 79 12 566 ATOM_ID_20011 0 
