**ABCDEFGHIJKLMNOPQRSTUVWXYZabcdefghijklmnopqrstuvwxyz**************************
**PARASOLID !"#$%&'()*+,-./:;<=>?@[\]^_`{|}~0123456789**************************
**PART1;
MC=AMD64;
MC_MODEL=Intel64 Family 6 Model 142 Stepping 10, GenuineIntel;
MC_ID=unknown;
OS=Windows_NT;
OS_RELEASE=unknown;
FRU=Parasolid Version 31.0, build 282,  2-25-2019;
APPL=SOLIDWORKS 2019-2019115;
SITE=;
USER=unknown;
FORMAT=text;
GUISE=transmit;
KEY=DIN 985 - M6_;
FILE=DIN 985 - M6_.x_t;
DATE=Tue Feb  4 09:11:50 2020;
**PART2;
SCH=SCH_3100282_31001;
USFLD_SIZE=0;
**PART3;
**END_OF_HEADER*****************************************************************
T51 : TRANSMIT FILE created by modeller version 310028223 SCH_3100282_31001_1300
6215 0 12 34 CCCCCCI4 mesh1006 0 I8 polyline1008 0 CCCCCCCDI5 owner1040 0 CCCCCC
I13 boundary_mesh1006 0 I17 boundary_polyline1008 0 CCCA16 index_map_offset0 0 1
 dA9 index_map82 0 A17 node_id_index_map82 0 A20 schema_embedding_map82 0 A5 chi
ld12 0 A14 lowest_node_id0 0 1 dA16 mesh_offset_data206 0 Z1 1202 2 3 0 0 0 0 0
 0 1e3 1e-8 0 4 0 1 0 1 1 5 6 7 8 0 0 9 10 11 0 0 0 0 0 0 0 81 255 2 2 1179 12 1
 13 0 0 0 0 14 70 11 CI9 list_type0 0 1 uI10 notransmit0 0 1 lCCCDCCDI12 finger_
index0 0 1 dI12 finger_block1012 0 CZ3 0 4 T1 0 0 8 20 1 15 15 13 255 5 134 0 1
 0 16 0 0 17 0 50 255 6 127 0 16 18 0 19 +-.006 .002886751345948135 -.005 0 .866
025403784439 -.5 0 .5 .866025403784439 38 12 CCCCCCCCCCCA17 intersection_data204
 0 Z7 615 0 20 21 0 0 +18 22 23 24 25 26 29 255 8 608 0 11 27 0 -.00355341801261
48 .00288675134594813 .005 19 8 CCCCCCCA5 owner12 0 Z9 40 0 1 17 0 28 V0 16 255
 10 616 0 ?29 0 20 7 20 20 1 18 255 11 606 0 30 0 31 8 ?1 17 255 30 0 32 33 34 1
1 35 36 0 37 -18 31 549 0 38 11 39 27 ?1 17 38 0 40 41 42 31 43 44 0 45 +18 39 5
33 0 46 31 47 48 ?1 29 27 552 0 31 48 8 -1049509354823034e-34 .00433012701892219
5 -.0025 29 48 535 0 39 49 27 0 -1066439631471334e-33 -.005 29 49 220 0 47 50 48
 -.0004465819873851985 .00577350269189626 -1745709545147925e-33 18 47 218 0 51 3
9 52 49 ?1 29 50 514 0 52 53 49 -.0004465819873851985 -.002886751345948135 -.005
 18 52 387 0 54 47 55 50 ?1 29 53 515 0 55 56 50 -.0004465819873851985 .00288675
1345948135 -.005 18 55 392 0 57 52 58 53 ?1 29 56 517 0 58 59 53 -.0004465819873
851985 .00288675134594813 .005 18 58 390 0 60 55 61 56 ?1 29 59 518 0 61 62 56 -
.0004465819873851985 -.00288675134594813 .005 18 61 389 0 63 58 64 59 ?1 29 62 5
19 0 64 65 59 -.0004465819873851985 -.00577350269189626 0 18 64 388 0 66 61 67 6
2 ?1 29 65 520 0 67 68 62 1049509354823034e-34 -.004330127018922195 -.0025 18 67
 376 0 69 64 70 65 ?1 29 68 523 0 70 71 65 -1049509354823034e-34 .00433012701892
2195 .0025 18 70 386 0 72 67 73 68 ?1 29 71 524 0 73 74 68 0 145424282045786e-33
 .005 18 73 383 0 75 70 76 71 ?1 29 74 525 0 76 77 71 1049509354823034e-34 -.004
330127018922195 .0025 18 76 377 0 78 73 79 74 ?1 29 77 857 0 79 80 74 -.004 -.00
4330127018922195 -.0025 18 79 738 0 81 76 82 77 ?1 29 80 858 0 82 83 77 -.004 48
4747606819287e-34 -.005 18 82 736 0 84 79 85 80 ?1 29 83 859 0 85 86 80 -.004 .0
04330127018922195 -.0025 18 85 733 0 87 82 88 83 ?1 29 86 860 0 88 89 83 -.004 .
004330127018922195 .0025 18 88 756 0 33 85 90 86 ?1 29 89 861 0 90 91 86 -.004 4
84747606819287e-34 .005 18 90 742 0 92 88 93 89 ?1 29 91 862 0 93 94 89 -.004 -.
004330127018922195 .0025 18 93 740 0 95 90 96 91 ?1 29 94 869 0 96 97 91 -.00355
34180126148 -.002886751345948135 -.005 18 96 745 0 98 93 99 94 ?1 29 97 870 0 99
 100 94 -.0035534180126148 .002886751345948135 -.005 18 99 746 0 101 96 102 97 ?
1 29 100 871 0 102 103 97 -.0035534180126148 .00577350269189626 -173472347597680
5e-33 18 102 748 0 104 99 105 100 ?1 29 103 873 0 105 106 100 -.0035534180126148
 -.00288675134594813 .005 18 105 744 0 107 102 108 103 ?1 29 106 874 0 108 0 103
 -.0035534180126148 -.00577350269189626 0 18 108 743 0 109 105 0 106 ?1 17 109 0
 110 95 111 108 112 113 0 114 -15 255 110 777 0 95 115 0 17 95 0 110 111 109 93
 114 116 0 117 -17 111 0 110 109 95 79 117 118 0 119 -17 112 0 120 121 122 79 10
9 113 0 0 +16 113 699 0 ?112 123 124 125 124 124 1 17 114 0 126 66 127 108 95 11
6 0 122 +15 126 114 0 128 129 0 17 66 0 126 130 114 64 122 131 0 132 +17 127 0 1
26 114 128 93 107 133 0 0 +16 116 698 0 ?114 124 134 135 133 133 1 17 122 0 120
 112 136 108 66 131 0 0 -15 120 112 0 122 137 0 17 136 0 120 122 138 64 139 140
 0 0 +16 131 638 0 ?66 141 142 143 0 0 1 16 141 651 0 ?54 144 131 145 0 0 1 16 1
42 625 0 ?63 131 146 147 0 0 1 30 255 143 130 0 131 145 147 0 +-.006 -.005773502
69189626 976065432561386e-33 1 0 0 30 145 129 0 141 148 143 0 +-.006 -.002886751
34594813 -.005 1 0 0 30 147 131 0 142 143 149 0 +-.006 -.00288675134594813 .005
 1 0 0 30 149 132 0 146 147 150 0 +-.006 .00288675134594813 .005 1 0 0 16 146 60
7 0 ?60 142 151 149 0 0 1 30 150 133 0 151 149 21 0 +-.006 .00577350269189626 -1
745709545147925e-33 1 0 0 16 151 610 0 ?51 146 152 150 0 0 1 38 21 226 0 153 150
 7 0 +18 154 155 156 157 158 16 153 224 0 ?159 160 144 21 160 160 1 50 18 126 0
 161 162 6 163 +-.006 .00577350269189626 -1745709545147925e-33 0 .86602540378443
9 .5 0 -.5 .866025403784439 52 255 154 487 0 164 165 166 167 +-.0004465819873851
985 1346003045641072e-34 0 -1 -2423738034096435e-32 0 .00577350269189626 .866025
403784442 .5 2423738034096435e-32 -1 0 40 255 3 155 0 1 3 .000517280680965192 .3
047213331431325 ??-.000446648656051825 .002886635875894295 .0050002 -24300981179
52155e-21 .004432728493335695 .00232228903338434 -.000446648656051825 .005773618
1619501 -200000000001645e-21 41 3 CI8 term_use0 0 1 cCZ1 156 L?-.000446648656051
825 .002886635875894295 .0050002 41 1 157 L?-.000446648656051825 .00577361816195
01 -200000000001645e-21 204 2 17 INTERSECTION_DATA17 Intersection data7 uv_type0
 0 1 u6 values0 1 1 fT12 158 4 .00577373363200394 .00555335134394818 2.094360462
069865 666686666265544e-22 .00268154839712113 .00599756990188205 2.6590114490494
45 -.000444151889267251 -2309401076766935e-22 .00555335134394818 3.1416272939131
25 666686666275559e-22 14 255 164 480 168 ?169 170 171 5 154 +170 169 169 170 28
 54 255 165 832 0 172 173 154 0 +-.005 0 0 -1 -2423738034096435e-32 0 .004 .001
 2423738034096435e-32 -1 0 51 255 166 210 0 174 154 175 0 --.00812199341312805 -
514315614350057e-34 0 -1 -2423738034096435e-32 0 .003 2423738034096435e-32 -1 0
 141 255 167 21 176 177 154 141 176 178 179 167 154 141 177 180 167 181 154 38 1
80 504 0 182 183 184 0 +162 154 185 186 187 188 141 181 184 177 189 154 38 184 5
03 0 190 180 191 0 +192 154 193 194 195 196 141 189 191 181 179 154 38 191 502 0
 140 184 197 0 +198 154 199 200 201 202 141 179 197 189 176 154 38 197 501 0 203
 191 178 0 -154 204 205 206 207 208 16 203 358 0 ?209 210 211 197 210 210 1 38 1
78 500 0 212 197 213 0 +6 154 214 215 216 217 50 204 122 0 218 219 198 220 +-.00
6 -.00288675134594813 -.005 0 0 -1 -1 0 0 40 4 205 0 1 4 .000855618833131357 .31
422792189331 ??-.00239263352655076 -.00765608998744865 -.005 -.00025722947199834
55 -.00215727748582472 -.005 -35414980784984e-18 .000785600485793324 -.005 -.001
150386258177254 .00488829623733363 -.005 41 1 206 L?-.00239263352655076 -.007656
08998744865 -.005 41 1 207 L?-.001150386258177254 .00488829623733363 -.005 204 1
6 208 4 5.70465152457191 .001946051539165585 -.00360736647344924 -.0047693386415
0052 5.11971476091244 -.000189352515386855 -.00574277052800166 .0007294738601234
1 4.55654299056011 -.0004111670066002185 -.00596458501921502 .003672351831741455
 3.938286899624375 .000703804270792063 -.00484961374182275 .00777504758328176 14
 218 671 221 ?137 16 222 5 204 +0 0 137 16 28 50 219 91 0 223 175 204 0 +0 0 0 1
 0 0 0 0 -1 50 198 123 0 137 204 192 224 +-.006 -.00577350269189626 976065432561
386e-33 0 -.866025403784439 -.5 0 .5 -.866025403784439 141 220 197 225 225 204 1
41 225 226 220 220 204 38 226 841 0 227 135 125 0 +204 22 228 229 230 231 16 227
 705 0 ?232 134 133 226 134 134 1 38 135 842 0 133 233 226 0 +192 22 234 235 236
 237 38 125 840 0 124 226 183 0 +198 22 238 239 240 241 52 22 834 0 242 0 173 24
3 +-.004 484747606819287e-34 0 1 2423738034096435e-32 0 .005 .866025403784442 .5
 -2423738034096435e-32 1 0 40 4 228 0 1 4 .000855618833131357 .31422792189331 ??
-.00160736647344924 -.00765608998744865 -.005 -.003742770528001655 -.00215727748
582472 -.005 -.003964585019215015 .000785600485793324 -.005 -.00284961374182275
 .00488829623733363 -.005 41 1 229 L?-.00160736647344924 -.00765608998744865 -.0
05 41 1 230 L?-.00284961374182275 .00488829623733363 -.005 204 16 231 4 -.004392
63352655076 -.00476933864150052 3.72012643619747 .00239263352655079 -.0022572294
71998345 .00072947386012341 4.30506319985694 .000257229471998349 -.0020354149807
84985 .003672351831741455 4.86823497020927 354149807849853e-19 -.003150386258177
25 .00777504758328176 5.48649106114501 .001150386258177266 14 242 824 244 ?0 172
 32 5 22 +115 245 0 172 28 51 173 833 0 246 22 165 0 +-.00812199341312805 -51431
5614350057e-34 0 -1 -2423738034096435e-32 0 .005 2423738034096435e-32 -1 0 141 2
43 7 247 248 22 141 247 125 249 243 22 141 248 250 243 251 22 38 250 844 0 36 25
2 233 0 -22 162 253 254 255 256 141 251 233 248 257 22 38 233 843 0 258 250 135
 0 +6 22 259 260 261 262 141 257 135 251 249 22 141 249 226 257 247 22 16 258 71
1 0 ?263 264 36 233 264 264 1 40 3 259 0 1 3 .000517280680965192 .30472133314313
3 ??-.003553351343948175 .002886635875894295 -.0050002 -.003997569901882045 .004
4327284933357 -.00232228903338434 -.003553351343948175 .0057736181619501 1999999
999978685e-22 41 1 260 L?-.003553351343948175 .002886635875894295 -.0050002 41 1
 261 L?-.003553351343948175 .0057736181619501 1999999999978685e-22 204 12 262 4
 -2309401076767205e-22 .002446648656051825 5.23595311565966 .0004466486560518305
 .00309195429477513 .002002430098117955 5.80060410263924 2430098117955545e-21 .0
0577373363200393 .002446648656051825 3464032333068585e-20 .0004466486560518315 1
7 263 0 265 51 266 102 87 258 0 267 +16 264 706 0 ?266 268 258 233 258 258 1 16
 36 731 0 ?35 258 269 250 268 268 1 17 35 0 270 271 272 90 30 36 0 0 +16 269 727
 0 ?273 36 274 252 0 0 1 16 268 707 0 ?271 133 264 250 36 36 1 17 271 0 270 63 3
5 105 92 268 0 128 +16 133 708 0 ?127 227 268 135 116 116 1 15 270 116 0 272 275
 0 17 63 0 270 276 271 61 128 142 0 277 +17 92 0 278 279 107 90 271 268 0 34 -17
 128 0 126 127 280 105 63 142 0 0 -17 280 0 126 128 130 61 281 190 0 0 +17 130 0
 126 280 66 76 132 282 0 283 +17 281 0 284 75 277 76 280 190 0 130 -16 190 364 0
 ?280 282 285 184 282 282 1 16 282 362 0 ?130 140 190 184 190 190 1 16 285 365 0
 ?276 190 182 180 182 182 1 17 276 0 270 286 63 73 277 285 0 287 +16 182 373 0 ?
286 285 288 180 285 285 1 17 286 0 270 272 276 58 289 182 0 0 +16 288 338 0 ?75
 182 290 183 123 290 1 17 75 0 284 277 281 73 283 288 0 289 +16 290 369 0 ?72 28
8 44 183 288 44 1 31 255 183 507 0 288 125 180 0 +0 145424282045786e-33 0 -1 -24
23738034096435e-32 0 2423738034096435e-32 -1 0 .005 16 123 329 0 ?78 291 113 183
 291 288 1 17 78 0 292 132 139 76 293 123 0 281 +16 291 330 0 ?69 294 123 183 29
4 123 1 17 69 0 295 296 297 67 298 291 0 139 +16 294 333 0 ?299 44 291 183 44 29
1 1 17 299 0 300 301 45 39 302 294 0 298 +16 44 339 0 ?38 290 294 183 290 294 1
 15 300 452 0 299 303 0 17 301 0 300 45 299 55 46 210 0 304 -17 45 0 300 299 301
 31 304 212 0 305 -17 302 0 306 43 298 31 299 294 0 0 -17 298 0 306 302 293 39 6
9 291 0 0 -15 306 60 0 298 223 0 17 293 0 306 298 283 67 78 123 0 0 -17 283 0 30
6 293 287 76 75 288 0 0 -17 287 0 306 283 43 73 72 290 0 0 -17 43 0 306 287 302
 70 38 44 0 0 -17 72 0 171 307 289 70 287 290 0 42 +15 171 482 0 72 164 0 17 307
 0 171 289 72 58 308 160 0 286 -17 289 0 171 72 307 73 286 182 0 276 -17 42 0 40
 38 41 70 159 153 0 308 -15 40 446 0 42 170 0 17 41 0 40 42 38 47 305 309 0 159
 -17 159 0 310 267 308 47 42 153 0 0 +17 308 0 310 159 60 70 307 160 0 43 +15 31
0 118 0 267 161 0 17 60 0 310 308 37 58 272 146 0 307 +16 160 229 0 ?308 20 153
 21 153 153 1 16 20 613 0 ?37 10 160 7 10 10 1 17 37 0 310 60 29 11 33 20 0 272
 +17 29 0 310 37 267 88 104 10 0 0 +17 33 0 32 34 30 88 37 20 0 311 -17 272 0 27
0 35 286 11 60 146 0 0 -15 32 826 0 33 242 0 17 34 0 32 30 33 90 312 313 0 314 -
17 311 0 315 104 87 88 316 317 0 312 -15 315 801 0 311 245 0 17 104 0 315 87 311
 102 29 10 0 263 -17 87 0 315 311 104 85 263 258 0 318 -17 316 0 319 320 312 85
 311 317 0 266 +16 317 710 0 ?316 313 321 322 313 321 1 17 312 0 319 316 314 88
 34 313 0 29 +15 319 759 0 316 246 0 17 314 0 319 312 117 90 279 323 0 35 +16 31
3 732 0 ?312 323 317 322 323 317 1 16 323 709 0 ?314 274 313 322 118 313 1 31 32
2 855 0 323 0 324 0 +-.004 484747606819287e-34 0 -1 -2423738034096435e-32 0 2423
738034096435e-32 -1 0 .005 31 324 854 0 274 322 252 0 +-.005 2423738034096435e-3
5 0 -1 -2423738034096435e-32 0 2423738034096435e-32 -1 0 .005 16 274 689 0 ?325
 269 323 324 0 0 1 31 252 853 0 269 324 250 0 +-.006 -601853107621011e-50 0 -1 -
2423738034096435e-32 0 2423738034096435e-32 -1 0 .004 17 325 0 326 325 325 0 327
 274 0 0 +15 326 819 0 325 172 328 17 327 0 329 327 327 0 325 274 0 0 -15 329 88
8 0 327 246 319 14 246 757 330 ?115 303 329 5 173 +0 0 115 303 28 81 1 330 1183
 331 246 332 0 244 333 334 14 115 775 333 ?335 246 110 5 22 +335 242 335 246 28
 14 303 450 336 ?246 337 300 5 154 +337 170 246 337 28 13 28 41 0 0 0 0 0 0 9 16
 14 16 681 338 ?218 0 265 5 6 +0 0 218 0 28 81 1 338 1186 331 16 339 0 336 340 3
41 15 265 120 0 342 16 0 17 342 0 265 266 304 99 57 144 0 0 -17 266 0 265 263 34
2 85 101 264 0 0 +17 304 0 265 342 305 55 45 212 0 0 +17 57 0 222 46 232 55 342
 144 0 301 +16 144 664 0 ?57 153 141 148 0 0 1 30 148 128 0 144 343 145 0 +-.006
 .002886751345948135 -.005 1 0 0 31 343 212 0 152 213 148 0 +-.006 -601853107621
011e-50 0 -1 -2423738034096435e-32 0 2423738034096435e-32 -1 0 .003 16 152 195 0
 ?344 151 345 343 0 0 1 31 213 213 0 345 178 343 0 +0 145424282045786e-33 0 -1 -
2423738034096435e-32 0 2423738034096435e-32 -1 0 .003 16 345 196 0 ?346 152 309
 213 0 0 1 17 346 0 347 346 346 0 348 345 0 0 +16 309 353 0 ?305 345 212 178 212
 212 1 17 305 0 265 304 51 31 41 309 0 302 +16 212 355 0 ?304 309 210 178 309 30
9 1 16 210 356 0 ?46 212 203 197 203 203 1 17 46 0 222 209 57 39 301 210 0 297 +
15 222 110 0 349 218 0 17 209 0 222 349 46 52 297 203 0 0 +17 297 0 295 69 296 3
9 209 203 0 299 -15 295 458 0 69 337 0 17 296 0 295 297 69 52 138 211 0 209 -17
 138 0 120 136 54 67 296 211 0 293 +16 211 359 0 ?138 203 140 191 140 140 1 16 1
40 361 0 ?136 211 282 191 211 211 1 17 54 0 120 138 121 52 349 141 0 296 +17 121
 0 120 54 112 96 81 124 0 349 +17 349 0 222 350 209 96 54 141 0 0 -17 350 0 222
 232 349 82 98 134 0 0 +17 232 0 222 57 350 99 84 227 0 342 +17 98 0 351 81 352
 96 350 134 0 121 -16 134 703 0 ?350 116 227 226 227 227 1 15 351 786 0 352 335
 0 17 81 0 351 352 98 79 121 124 0 111 -17 352 0 351 98 81 82 119 353 0 320 -17
 119 0 319 117 320 79 352 353 0 112 +16 353 701 0 ?119 321 118 322 321 118 1 17
 320 0 319 119 316 82 318 321 0 350 +17 318 0 354 101 84 85 320 321 0 316 -16 32
1 704 0 ?320 317 353 322 317 353 1 15 354 789 0 318 355 0 17 101 0 354 84 318 99
 266 264 0 232 -17 84 0 354 318 101 82 232 227 0 352 -14 355 787 340 ?356 335 35
4 5 22 +356 335 356 335 28 81 1 340 1187 331 355 357 0 338 358 359 14 356 796 35
8 ?245 355 278 5 22 +245 355 245 355 28 14 335 784 360 ?355 115 351 5 22 +355 11
5 355 115 28 81 1 360 1189 331 335 361 0 358 362 363 80 255 1 331 364 365 9000 1
 1 1 1 1 1 1 1 0 FFFFTFTFFFFFFF1 81 1 361 1115 366 335 0 360 367 357 368 81 1 35
8 1188 331 356 369 0 340 360 370 81 1 362 1190 331 337 371 0 360 372 373 82 255
 1 363 1047920749 14 337 456 362 ?303 374 295 5 154 +374 303 303 374 28 81 1 371
 1111 366 337 0 362 375 376 377 81 1 372 1191 331 374 375 0 362 378 379 82 1 373
 1006174317 14 374 462 372 ?337 169 292 5 154 +169 337 337 169 28 81 1 375 1110
 366 374 0 372 380 371 381 81 1 378 1192 331 169 380 0 372 382 383 82 1 379 1005
322349 14 169 468 378 ?374 164 284 5 154 +164 374 374 164 28 81 1 380 1109 366 1
69 0 378 384 375 385 81 1 382 1193 331 170 386 0 378 387 388 82 1 383 1004470381
 14 170 444 382 ?164 174 40 5 154 +303 164 164 174 28 81 1 386 1107 366 170 0 38
2 389 384 390 81 1 387 1194 331 174 389 0 382 391 392 82 1 388 1007878253 14 174
 200 387 ?170 393 394 5 166 +0 0 170 393 28 81 1 389 1106 366 174 0 387 395 386
 396 81 1 391 1195 331 393 395 0 387 397 398 82 1 392 977469549 14 393 191 391 ?
174 223 399 5 175 -0 0 174 223 28 81 1 395 1105 366 393 0 391 400 389 401 81 1 3
97 1196 331 223 400 0 391 402 403 82 1 398 997982317 14 223 323 397 ?393 161 347
 5 219 +0 0 393 161 28 81 1 400 1104 366 223 0 397 404 395 405 81 1 402 1197 331
 161 404 0 397 406 407 82 1 403 1026818157 14 161 618 402 ?223 275 310 5 18 +0 0
 223 275 28 81 1 404 1103 366 161 0 402 408 400 409 81 1 406 1198 331 275 408 0
 402 410 411 82 1 407 1042546797 14 275 632 406 ?161 129 270 5 162 +0 0 161 129
 28 81 1 408 1102 366 275 0 406 412 404 413 81 1 410 1199 331 129 412 0 406 414
 415 82 1 411 1053098093 14 129 645 410 ?275 137 126 5 192 +0 0 275 137 28 81 1
 412 1101 366 129 0 410 416 408 417 81 1 414 1200 331 137 416 0 410 418 419 82 1
 415 1054474349 14 137 658 414 ?129 218 120 5 198 +0 0 129 218 28 81 1 416 1100
 366 137 0 414 420 412 421 81 1 418 1201 331 245 422 0 414 423 424 82 1 419 1055
850605 14 245 799 418 ?172 356 315 5 22 +242 356 172 356 28 81 1 422 1118 366 24
5 0 418 369 425 426 81 1 423 1202 331 172 425 0 418 0 427 82 1 424 1045758061 14
 172 817 423 ?242 245 326 5 165 +0 0 242 245 28 81 1 425 1119 366 172 0 423 422
 428 429 82 1 427 991625325 80 1 366 0 430 8001 0 0 0 0 3 5 0 0 0 FFFFTFTFFFFFFF
2 81 1 428 1120 366 242 0 244 425 0 431 83 255 3 429 .647058823529412 .619607843
137255 .588235294117647 81 1 244 1182 331 242 428 0 221 330 432 83 3 431 .647058
823529412 .619607843137255 .588235294117647 81 1 221 1181 331 218 420 0 168 244
 433 82 1 432 990445677 81 1 420 1099 366 218 0 221 339 416 434 81 1 168 1180 33
1 164 384 0 0 221 435 82 1 433 1057226861 81 1 384 1108 366 164 0 168 386 380 43
6 82 1 435 983302253 83 3 436 .647058823529412 .619607843137255 .588235294117647
 81 1 339 1098 366 16 0 338 0 420 437 83 3 434 .647058823529412 .619607843137255
 .588235294117647 83 3 437 .647058823529412 .619607843137255 .588235294117647 79
 255 15 430 SDL/TYSA_COLOUR81 1 369 1117 366 356 0 358 357 422 438 83 3 426 .647
058823529412 .619607843137255 .588235294117647 81 1 357 1116 366 355 0 340 361 3
69 439 83 3 438 .647058823529412 .619607843137255 .588235294117647 83 3 439 .647
058823529412 .619607843137255 .588235294117647 83 3 421 .647058823529412 .619607
843137255 .588235294117647 83 3 417 .647058823529412 .619607843137255 .588235294
117647 50 192 124 0 129 198 162 440 +-.006 -.00288675134594813 .005 0 -.86602540
3784439 .5 0 -.5 -.866025403784439 50 162 125 0 275 192 18 441 +-.006 .002886751
34594813 .005 0 0 1 1 0 0 141 440 184 442 442 192 141 442 135 440 440 192 141 44
1 180 443 443 162 141 443 250 441 441 162 83 3 413 .647058823529412 .61960784313
7255 .588235294117647 83 3 409 .647058823529412 .619607843137255 .58823529411764
7 83 3 405 .647058823529412 .619607843137255 .588235294117647 15 347 182 0 346 2
23 306 83 3 401 .647058823529412 .619607843137255 .588235294117647 15 399 601 0
 273 393 444 50 175 2 0 393 166 219 0 +-.006 0 0 1 0 0 0 0 -1 17 273 0 399 273 2
73 0 445 269 0 0 +15 444 189 0 446 393 0 17 446 0 444 446 446 0 344 152 0 0 -17
 344 0 394 344 344 0 446 152 0 0 +15 394 202 0 344 174 447 15 447 203 0 348 174
 0 17 348 0 447 348 348 0 346 345 0 0 -17 445 0 328 445 445 0 273 269 0 0 -15 32
8 820 0 445 172 0 83 3 396 .647058823529412 .619607843137255 .588235294117647 83
 3 390 .647058823529412 .619607843137255 .588235294117647 83 3 385 .647058823529
412 .619607843137255 .588235294117647 15 284 470 0 75 169 0 83 3 381 .6470588235
29412 .619607843137255 .588235294117647 15 292 464 0 78 374 0 81 1 376 1112 366
 303 0 336 371 332 448 83 3 377 .647058823529412 .619607843137255 .5882352941176
47 81 1 336 1185 331 303 376 0 333 338 449 81 1 332 1113 366 246 0 330 376 367 4
50 83 3 448 .647058823529412 .619607843137255 .588235294117647 81 1 367 1114 366
 115 0 333 332 361 451 83 3 450 .647058823529412 .619607843137255 .5882352941176
47 81 1 333 1184 331 115 367 0 330 336 452 83 3 451 .647058823529412 .6196078431
37255 .588235294117647 82 1 452 1049165933 82 1 449 1007026285 82 1 370 10462168
13 83 3 368 .647058823529412 .619607843137255 .588235294117647 79 14 365 SWEntUn
changed15 278 798 0 92 356 0 82 1 359 1047461997 16 118 700 0 ?117 353 0 322 353
 323 1 17 117 0 319 314 119 93 111 118 0 279 +17 279 0 278 107 92 93 314 323 0 1
27 -17 107 0 278 92 279 105 127 133 0 271 -16 124 702 0 ?121 113 116 125 113 113
 1 17 51 0 265 305 263 47 267 151 0 41 +17 267 0 310 29 159 102 51 151 0 0 -82 1
 341 1058275437 82 1 334 1052049517 17 139 0 292 78 132 67 136 140 0 138 -17 132
 0 292 139 78 64 130 282 0 136 -17 277 0 284 281 75 61 276 285 0 280 -40 4 253 0
 1 4 .000855618833131357 .31422792189331 ??-.00160736647344924 -.007656089987448
65 .005 -.003742770528001655 -.00215727748582472 .005 -.003964585019215015 .0007
85600485793327 .005 -.00284961374182274 .00488829623733364 .005 41 1 254 L?-.001
60736647344924 -.00765608998744865 .005 41 1 255 L?-.00284961374182274 .00488829
623733364 .005 204 16 256 4 2.56305887098212 .00239263352655079 .004392633526550
76 -.01054284133339678 1.978122107322645 .000257229471998349 .002257229471998345
 -.00504402883177285 1.41495033697032 354149807849858e-19 .002035414980784985 -.
002101150860154805 .796694246034579 .00115038625817727 .00315038625817726 .00200
154489138551 40 3 238 0 1 3 .000517280680965191 .304721333143133 ??-.00355335134
3948175 -.0057736181619501 2000000000009855e-22 -.00399756990188205 -.0042275255
44508695 -.00267771096661566 -.003553351343948175 -.002886635875894295 -.0050002
 41 1 239 L?-.003553351343948175 -.0057736181619501 2000000000009855e-22 41 1 24
0 L?-.003553351343948175 -.002886635875894295 -.0050002 204 12 241 4 -2309401076
76789e-21 .002446648656051825 3.14155801326646 .0004466486560518315 .00309195429
477513 .00200243009811795 3.706209000246045 243009811795254e-20 .005773733632003
94 .002446648656051825 4.18882484510972 .0004466486560518305 40 3 234 0 1 3 .000
517280680965192 .3047213331431325 ??-.003553351343948175 -.00288663587589429 .00
50002 -.00399756990188205 -.004432728493335695 .00232228903338434 -.003553351343
948175 -.0057736181619501 -199999999998647e-21 41 1 235 L?-.003553351343948175 -
.00288663587589429 .0050002 41 1 236 L?-.003553351343948175 -.0057736181619501 -
199999999998647e-21 204 12 237 4 -2309401076767205e-22 .002446648656051825 2.094
360462069865 .000446648656051829 .00309195429477513 .00200243009811795 2.6590114
49049445 2430098117953045e-21 .00577373363200394 .002446648656051825 3.141627293
913125 .0004466486560518315 141 224 191 453 453 198 141 453 125 224 224 198 40 3
 214 0 1 3 .000517280680965192 .304721333143133 ??-.000446648656051825 .00577361
81619501 1999999999982545e-22 -2430098117953175e-21 .004227525544508695 -.002677
710966615665 -.0004466486560518245 .002886635875894295 -.0050002 41 1 215 L?-.00
0446648656051825 .0057736181619501 1999999999982545e-22 41 1 216 L?-.00044664865
60518245 .002886635875894295 -.0050002 204 12 217 4 .00577373363200393 .00555335
134394818 3.141558013266465 666686666275559e-22 .002681548397121125 .00599756990
188205 3.706209000246045 -.00044415188926725 -2309401076767205e-22 .005553351343
94818 4.18882484510972 666686666265544e-22 40 3 199 0 1 3 .000517280680965192 .3
04721333143133 ??-.0004466486560518245 -.002886635875894295 -.0050002 -243009811
795182e-20 -.004432728493335695 -.00232228903338434 -.000446648656051824 -.00577
36181619501 200000000001688e-21 41 1 200 L?-.0004466486560518245 -.0028866358758
94295 -.0050002 41 1 201 L?-.000446648656051824 -.0057736181619501 2000000000016
88e-21 204 12 202 4 .00577373363200394 .00555335134394818 5.23595311565966 66668
6666265544e-22 .00268154839712113 .00599756990188205 5.80060410263924 -.00044415
1889267251 -2309401076773975e-22 .00555335134394818 346403233313474e-19 66668666
6275559e-22 40 3 193 0 1 3 .000517280680965192 .304721333143133 ??-.000446648656
051824 -.0057736181619501 -199999999999024e-21 -243009811795161e-20 -.0042275255
44508695 .00267771096661566 -.0004466486560518245 -.00288663587589429 .0050002 4
1 1 194 L?-.000446648656051824 -.0057736181619501 -199999999999024e-21 41 1 195
 L?-.0004466486560518245 -.00288663587589429 .0050002 204 12 196 4 .005773733632
00394 .00555335134394818 6.28315066685626 666686666275559e-22 .00268154839712113
 .00599756990188205 .564616346656251 -.0004441518892672515 -2309401076767205e-22
 .00555335134394818 1.04723219151993 66668666625052e-21 40 4 185 0 1 4 .00085561
8833131358 .31422792189331 ??-.00239263352655076 -.00765608998744865 .005 -.0002
57229471998346 -.00215727748582472 .005 -354149807849855e-19 .000785600485793327
 .005 -.001150386258177256 .00488829623733363 .005 41 1 186 L?-.0023926335265507
6 -.00765608998744865 .005 41 1 187 L?-.001150386258177256 .00488829623733363 .0
05 204 16 188 4 .00360736647344924 -.01054284133339678 .578533782607675 .0019460
51539165585 .00574277052800165 -.00504402883177285 1.163470546267146 -.000189352
515386855 .00596458501921502 -.002101150860154805 1.72664231661947 -.00041116700
6600218 .00484961374182274 .0020015448913855 2.344898407555215 .0007038042707920
63 141 163 21 454 454 18 141 454 7 163 163 18 19 17 135 0 1 0 9 5 S0 40 3 23 0 1
 3 .000517280680965191 .304721333143133 ??-.003553351343948175 .0057736181619501
 -2000000000017985e-22 -.00399756990188205 .004227525544508695 .0026777109666156
6 -.003553351343948175 .002886635875894295 .0050002 41 1 24 L?-.0035533513439481
75 .0057736181619501 -2000000000017985e-22 41 1 25 L?-.003553351343948175 .00288
6635875894295 .0050002 204 12 26 4 -2309401076768265e-22 .002446648656051825 6.2
8315066685626 .0004466486560518315 .00309195429477513 .00200243009811795 .564616
346656251 243009811795254e-20 .00577373363200394 .002446648656051825 1.047232191
519928 .0004466486560518305 141 19 178 455 455 6 141 455 233 19 19 6 74 4 CI16 i
ndex_map_offset0 0 1 dCCZ20 15 8 0 0 423 456 457 458 459 428 13 2 0 0 0 0 0 0 0
 0 0 0 0 0 81 2 456 1027 460 1 0 457 0 0 0 461 81 2 457 1028 462 1 456 458 0 0 0
 463 81 2 458 1096 464 1 457 459 0 0 465 0 81 2 459 1097 466 1 458 13 0 0 0 467
 81 2 13 1130 468 1 459 2 0 0 0 0 80 2 468 469 470 9000 0 0 0 0 3 5 0 0 0 FFTFFF
FFFFFFFF9 1 79 16 470 BODY_RECIPE_200180 2 466 471 472 9000 0 0 0 0 3 5 0 0 0 FF
TFFFFFFFFFFF9 1 82 1 467 1 79 24 472 BODY_IN_LIGHTWEIGHT_PERM80 2 464 473 474 80
04 0 0 0 0 3 5 0 0 0 FFTFFFFFFFFFFF2 3 83 1 465 79e2 79 16 474 SDL/TYSA_DENSITY8
0 2 462 475 476 9000 0 0 0 0 3 5 0 0 0 FFTFFFFFFFFFFT9 1 82 1 463 109 79 19 476
 ENT_TIME_STAMP_200180 2 460 477 478 9000 0 0 0 0 3 5 0 0 0 FFTFFFFFFFFFFF9 1 82
 1 461 60 79 30 478 LAST_BODY_MODIFYING_FEATURE_ID80 2 12 479 480 9000 0 0 0 0 3
 5 0 0 0 FFTFFFFFFFFFFF9 1 82 1 14 104 79 12 480 ATOM_ID_20011 0 
