**ABCDEFGHIJKLMNOPQRSTUVWXYZabcdefghijklmnopqrstuvwxyz**************************
**PARASOLID !"#$%&'()*+,-./:;<=>?@[\]^_`{|}~0123456789**************************
**PART1;
MC=AMD64;
MC_MODEL=Intel64 Family 6 Model 142 Stepping 10, GenuineIntel;
MC_ID=unknown;
OS=Windows_NT;
OS_RELEASE=unknown;
FRU=Parasolid Version 31.0, build 282,  2-25-2019;
APPL=SOLIDWORKS 2019-2019115;
SITE=;
USER=unknown;
FORMAT=text;
GUISE=transmit;
KEY=Grampo R - 20mm_;
FILE=Grampo R - 20mm_.x_t;
DATE=Tue Feb  4 09:12:19 2020;
**PART2;
SCH=SCH_3100282_31001;
USFLD_SIZE=0;
**PART3;
**END_OF_HEADER*****************************************************************
T51 : TRANSMIT FILE created by modeller version 310028223 SCH_3100282_31001_1300
6215 0 12 34 CCCCCCI4 mesh1006 0 I8 polyline1008 0 CCCCCCCDI5 owner1040 0 CCCCCC
I13 boundary_mesh1006 0 I17 boundary_polyline1008 0 CCCA16 index_map_offset0 0 1
 dA9 index_map82 0 A17 node_id_index_map82 0 A20 schema_embedding_map82 0 A5 chi
ld12 0 A14 lowest_node_id0 0 1 dA16 mesh_offset_data206 0 Z1 555 2 3 0 0 0 0 0 0
 1e3 1e-8 0 4 0 1 0 1 1 5 6 7 8 0 0 9 10 11 0 0 0 0 0 0 0 81 255 2 2 537 12 1 13
 0 0 0 0 14 70 11 CI9 list_type0 0 1 uI10 notransmit0 0 1 lCCCDCCDI12 finger_ind
ex0 0 1 dI12 finger_block1012 0 CZ3 0 4 T1 0 0 12 20 1 15 15 13 255 5 4 0 1 0 16
 0 0 17 0 50 255 6 110 0 18 19 0 0 +0 .01990162641391335 -.00507999999999984 0 -
.499999999999978 -.866025403784451 0 -.866025403784451 .499999999999978 31 255 7
 162 0 20 21 0 0 +0 .02518376146629555 -.0748960638395257 0 .646819678773357 -.7
62642972269155 1 0 0 .003175 29 255 8 128 0 22 23 0 3888253587292845e-34 .012225
27700723842 -.02472582718901245 19 8 CCCCCCCA5 owner12 0 Z9 2 0 1 17 0 24 V0 16
 255 10 10 25 ?26 0 27 28 0 0 1 18 255 11 8 29 30 0 31 32 ?1 81 1 29 282 33 11 3
4 0 35 36 37 17 255 30 0 38 26 39 11 40 41 0 42 -18 31 11 43 44 11 45 46 ?1 29 3
2 118 0 11 47 48 0 .0142875 -.1016 29 47 117 0 49 50 32 3888253587292845e-34 .02
2651257070929 -.00666749999999976 29 48 119 0 51 32 52 0 .00800099999999991 -.03
1975713225847 18 51 31 36 53 54 55 48 ?1 29 52 120 0 55 48 56 0 .006726015693207
15 -.0215508271890126 18 55 37 57 58 51 22 52 ?1 29 56 121 0 59 52 60 0 -.003175
 -.0841375 18 59 44 61 62 22 63 56 ?1 29 60 122 0 54 56 64 3888253587292845e-34
 .01257299999999984 -.02756897792633095 18 54 29 65 66 67 51 60 ?1 29 64 123 0 6
8 60 69 0 .0171519957568977 -.0034924999999999 18 68 70 70 71 49 0 64 ?1 29 69 1
24 0 67 64 72 3888253587292845e-34 .0124714564222839 -.0549987871710662 18 67 19
 73 74 75 54 69 ?1 29 72 125 0 76 69 77 -3888253587292845e-34 .00800100000000011
 -.0473992867741528 18 76 21 78 79 80 75 72 ?1 29 77 126 0 75 72 23 0 .012573000
00000018 -.0518060220736687 18 75 23 81 82 76 67 77 ?1 29 23 127 0 80 77 8 0 .00
762867354837475 -.059106092131277 18 80 18 83 84 85 76 23 ?1 81 1 83 300 33 80 8
6 0 81 87 88 17 84 0 89 90 91 80 74 92 0 93 -18 85 9 94 39 45 80 95 ?1 81 1 94 2
68 33 85 96 0 97 98 99 17 39 0 38 30 100 85 101 102 0 103 -18 45 13 98 101 31 85
 104 ?1 29 95 111 0 85 0 104 -388825358729285e-33 .0142875 -.09525 29 104 112 0
 45 95 105 0 .02276237002934095 -.0769497163196311 29 105 113 0 106 104 107 0 -.
003175 0 18 106 53 108 109 110 49 105 ?1 29 107 114 0 63 105 46 3888253587292855
e-34 .003175 -.0841375 18 63 45 111 112 59 110 107 ?1 29 46 115 0 31 107 50 3888
253587292845e-34 .0276051529032501 -.0728424113594203 29 50 116 0 110 46 47 3888
253587292845e-34 .003175 0 18 110 51 113 114 63 106 50 ?1 81 1 113 278 33 110 11
5 0 43 35 116 17 114 0 117 118 118 110 109 119 0 120 +15 255 117 92 0 114 121 0
 17 118 0 117 114 114 106 122 123 0 0 +17 109 0 124 62 120 106 114 119 0 125 -16
 119 52 126 ?114 127 123 128 0 0 1 17 120 0 124 109 129 110 130 131 0 122 +15 12
4 49 0 129 132 0 17 129 0 124 120 62 63 133 134 0 135 +17 130 0 136 137 122 63 1
20 131 0 129 -16 131 50 138 ?120 134 139 140 0 0 1 17 122 0 136 130 125 110 118
 123 0 0 -15 136 87 0 130 141 0 17 125 0 136 122 137 106 62 127 0 118 +16 123 88
 142 ?118 119 0 143 0 0 1 81 1 142 224 33 123 144 0 145 146 147 31 143 159 0 123
 148 149 0 +0 0 0 0 0 1 1 0 0 .003175 30 255 148 158 0 150 151 143 0 +0 .0227623
7002934095 -.0769497163196311 0 -.646819678773346 .762642972269165 31 149 160 0
 152 143 21 0 +0 .01005006498532932 -.0570524396511716 0 .646819678773357 -.7626
42972269155 1 0 0 .003175 16 152 62 146 ?93 153 154 149 0 0 1 31 21 161 0 155 14
9 7 0 +0 .00947564635022278 -.02313832718901255 0 -.499999999999978 -.8660254037
84451 1 0 0 .003175 16 155 38 156 ?157 158 159 21 0 0 1 81 1 156 228 33 155 160
 0 146 161 162 17 157 0 163 164 165 22 166 155 0 167 +16 158 36 168 ?165 169 155
 170 0 0 1 16 159 46 171 ?42 155 41 172 0 0 1 81 1 171 176 33 159 173 0 174 175
 176 17 42 0 177 40 133 11 178 159 0 179 +16 41 7 180 ?40 159 134 181 0 0 1 31 1
72 135 0 159 182 183 0 +0 .0142875 -.0841375 1 0 0 0 0 -1 .0174625 31 182 134 0
 184 185 172 0 +3888253587292845e-34 .0142875 -.02591645218901265 -1 0 0 0 0 1 .
00238125 31 183 136 0 186 172 187 0 +0 .01990162641391335 -.00507999999999984 0
 -.499999999999978 -.866025403784451 1 0 0 .003175 16 186 74 175 ?188 189 184 18
3 0 0 1 31 187 137 0 190 183 191 0 +0 0 -.0396875 1 0 0 0 0 -1 .0174625 16 190 2
8 192 ?193 194 169 187 0 0 1 31 191 138 0 102 187 195 0 +-3888253587292845e-34 .
0142875 -.0841375 1 0 0 0 0 -1 .0111125 16 102 14 196 ?101 92 20 191 0 0 1 31 19
5 139 0 92 191 197 0 +0 .01005006498532932 -.0570524396511716 0 .646819678773357
 -.762642972269155 1 0 0 .003175 16 92 17 198 ?74 150 102 195 0 0 1 31 197 140 0
 134 195 199 0 +0 104278584947432e-31 -.0841375 0 0 1 1 0 0 .003175 16 134 43 20
0 ?129 41 131 197 0 0 1 31 199 141 0 194 197 201 0 +0 .01028700000000014 -.04960
26544239108 0 -.693974062915887 -.720000000000011 1 0 0 .003175 16 194 22 202 ?2
03 204 190 199 0 0 1 30 201 142 0 154 199 205 0 +3888253587292845e-34 .012225277
0072384 -.0247258271890125 0 .499999999999991 .866025403784444 16 154 67 206 ?20
7 152 208 201 0 0 1 31 205 143 0 209 201 210 0 +0 .0142875 -.098425 0 -1 0 0 0 -
1 .003175 16 209 58 211 ?212 139 153 205 0 0 1 31 210 144 0 208 205 213 0 +0 .01
990162641391335 -.00507999999999984 0 -.499999999999978 -.866025403784451 1 0 0
 .003175 16 208 69 214 ?215 154 189 210 0 0 1 30 213 145 0 153 210 216 0 +388825
3587292845e-34 .02760515290325015 -.0728424113594203 0 -.646819678773346 .762642
972269165 16 153 61 217 ?218 209 152 213 0 0 1 31 216 146 0 219 213 220 0 +0 .01
028700000000014 -.0496026544239108 0 -.693974062915887 -.720000000000011 1 0 0 .
003175 16 219 27 221 ?79 222 150 216 0 0 1 30 220 147 0 189 216 223 0 +0 .006726
01569320717 -.02155082718901255 0 .499999999999991 .866025403784444 16 189 71 22
4 ?71 208 186 220 0 0 1 31 223 148 0 225 220 226 0 +0 .01028699999999986 -.02977
234557608895 0 .69397406291591 -.71999999999999 1 0 0 .003175 16 225 35 227 ?66
 228 222 223 0 0 1 31 226 149 0 229 223 28 0 +0 104278584947432e-31 -.0841375 0
 0 1 1 0 0 .003175 16 229 57 230 ?137 20 127 226 0 0 1 31 28 150 0 10 226 181 0
 +0 .0142875 -.0841375 1 0 0 0 0 -1 .0174625 31 181 151 0 41 28 140 0 +0 .014287
5 -.098425 0 -1 0 0 0 -1 .003175 30 140 152 0 131 181 231 0 +3888253587292845e-3
4 .003175 -.0841375 0 -1239382973673238e-31 1 30 231 153 0 127 140 232 0 +0 -.00
3175 -.0841375 0 -1239382973673238e-31 1 16 127 54 233 ?125 229 119 231 0 0 1 31
 232 154 0 139 231 234 0 +-3888253587292845e-34 .0142875 -.0841375 1 0 0 0 0 -1
 .0111125 16 139 47 235 ?103 131 209 232 0 0 1 31 234 155 0 222 232 170 0 +38882
53587292845e-34 .0142875 -.0534585478109874 -1 0 0 0 0 1 .00238125 16 222 24 236
 ?237 225 219 234 0 0 1 31 170 156 0 158 234 151 0 +0 .0142875 -.025916452189012
65 -1 0 0 0 0 1 .00873125 31 151 157 0 169 170 148 0 +0 .01028699999999986 -.029
77234557608895 0 .69397406291591 -.71999999999999 1 0 0 .003175 16 169 30 238 ?2
39 190 158 151 0 0 1 81 1 238 220 33 169 240 0 168 145 241 17 239 0 242 243 193
 51 244 169 0 245 +15 242 26 0 82 246 0 17 243 0 242 82 239 76 247 228 0 0 -17 1
93 0 242 239 82 54 248 190 0 164 +17 244 0 249 250 245 54 239 169 0 193 -17 245
 0 249 244 58 51 165 158 0 0 -15 249 76 0 245 251 0 17 58 0 249 245 250 55 252 2
53 0 166 +17 165 0 163 157 53 55 245 158 0 254 +15 163 34 0 53 255 0 17 53 0 163
 165 164 51 66 225 0 247 -17 254 0 256 252 215 55 71 189 0 0 -15 256 65 0 252 25
7 0 17 252 0 256 207 254 22 58 253 0 250 -17 215 0 256 254 207 68 258 208 0 259
 +17 71 0 260 188 166 68 254 189 0 215 +15 260 73 0 167 261 0 17 188 0 260 167 7
1 49 259 186 0 0 +17 166 0 260 71 167 55 157 155 0 165 -17 167 0 260 166 188 22
 207 154 0 0 -18 22 39 87 252 55 59 8 ?1 17 207 0 256 215 252 49 167 154 0 188 +
18 49 68 35 258 106 68 47 ?1 81 1 35 280 33 49 262 0 113 29 263 17 258 0 264 259
 259 49 215 208 0 207 -15 264 90 0 259 18 0 17 259 0 264 258 258 68 188 186 0 0
 -14 255 18 89 265 ?121 141 264 5 6 -0 0 121 141 24 81 1 265 538 266 18 267 0 0
 268 269 14 121 91 268 ?0 18 117 5 270 +0 0 0 18 24 14 141 86 271 ?18 272 136 5
 273 +0 0 18 272 24 13 24 3 0 0 0 0 0 0 9 16 14 16 5 274 ?275 0 38 5 276 +0 0 27
5 0 24 81 1 274 541 266 16 277 0 271 278 279 14 275 15 278 ?246 16 89 5 280 +0 0
 246 16 24 15 38 6 0 30 16 0 54 255 276 104 0 16 281 270 0 +0 .0142875 -.0841375
 1 0 0 .0142875 .003175 0 0 -1 54 281 103 0 251 273 276 0 +0 .0142875 -.02591645
218901265 -1 0 0 .00555625 .003175 0 0 1 50 270 105 0 121 276 282 0 +0 0 0 0 0 1
 1 0 0 51 255 282 106 0 283 270 284 0 +0 .02518376146629555 -.0748960638395257 0
 -.646819678773346 .762642972269164 .003175 0 -.762642972269164 -.64681967877334
6 14 283 81 285 ?272 286 287 5 282 +0 0 272 286 24 51 284 107 0 261 282 288 0 +0
 .00947564635022278 -.02313832718901255 0 .499999999999991 .866025403784444 .003
175 0 -.866025403784444 .499999999999991 14 261 72 289 ?251 257 260 5 284 +0 0 2
51 257 24 54 288 108 0 272 284 19 0 +0 .0142875 -.0841375 1 0 0 .0142875 .003175
 0 0 -1 14 272 84 290 ?141 283 291 5 288 +0 0 141 283 24 54 19 109 0 292 288 6 0
 +0 0 -.0396875 1 0 0 .0142875 .003175 0 0 -1 14 292 77 293 ?286 251 294 5 19 +0
 0 286 251 24 81 1 293 546 266 292 295 0 290 296 297 14 286 79 296 ?283 292 298
 5 299 +0 0 283 292 24 14 251 75 300 ?292 261 249 5 281 +0 0 292 261 24 15 294 7
8 0 248 292 0 17 248 0 294 301 66 75 193 190 0 0 -17 301 0 294 247 248 76 203 19
4 0 90 -17 66 0 294 248 247 54 53 225 0 244 +17 247 0 294 66 301 51 243 228 0 23
9 +16 228 32 302 ?247 253 225 303 0 0 1 81 1 302 170 33 228 304 0 126 305 306 16
 253 66 307 ?58 184 228 308 0 0 1 31 303 132 0 228 128 185 0 +-3888253587292845e
-34 0 -.0396875 1 0 0 0 0 -1 .0111125 31 128 131 0 119 309 303 0 +0 0 0 0 0 1 1
 0 0 .003175 31 185 133 0 204 303 182 0 +0 .0142875 -.0534585478109874 -1 0 0 0
 0 1 .00873125 16 204 20 305 ?90 27 194 185 0 0 1 81 1 305 172 33 204 310 0 302
 174 311 17 90 0 89 203 84 76 312 204 0 243 +16 27 12 313 ?100 10 204 309 0 0 1
 81 1 313 166 33 27 314 0 307 126 315 17 100 0 38 39 26 45 316 27 0 317 +31 309
 130 0 27 308 128 0 +0 .02518376146629555 -.0748960638395257 0 .646819678773357
 -.762642972269155 1 0 0 .003175 31 308 129 0 253 0 309 0 +0 .00947564635022278
 -.02313832718901255 0 -.499999999999978 -.866025403784451 1 0 0 .003175 17 26 0
 38 100 30 31 179 10 0 318 +17 316 0 319 218 320 31 100 27 0 26 -17 317 0 287 32
1 44 45 318 20 0 0 -15 287 82 0 44 283 0 17 321 0 287 74 317 80 320 150 0 0 +17
 44 0 287 317 74 31 218 153 0 316 -17 318 0 291 179 101 31 317 20 0 0 +16 20 83
 161 ?318 102 229 7 0 0 1 81 1 161 230 33 20 322 0 156 323 324 80 255 1 33 325 3
26 9000 0 0 0 0 3 6 0 0 0 TTTFTFTTTFFFFF3 81 1 322 229 327 20 0 161 160 328 329
 81 1 323 232 33 255 328 330 161 331 332 84 255 3 324 11714 255 33 333 ?334 246
 163 5 335 +0 0 334 246 24 81 1 328 231 327 255 0 323 322 336 337 81 1 330 371 3
38 255 323 333 339 340 341 81 1 331 234 33 275 336 342 323 343 344 84 2 332 2181
 1 336 233 327 275 0 331 328 345 346 81 1 342 369 338 275 331 278 277 339 347 81
 1 343 236 33 257 345 348 331 349 350 84 1 344 414 257 64 351 ?261 352 256 5 353
 +0 0 261 352 24 81 1 345 235 327 257 0 343 336 354 355 81 1 348 376 338 257 343
 351 356 357 358 81 1 349 238 33 352 354 356 343 359 360 84 2 350 1414 352 59 36
1 ?257 362 319 5 363 +0 0 257 362 24 81 1 354 237 327 352 0 349 345 364 365 81 1
 356 375 338 352 349 361 366 348 367 81 1 359 240 33 362 364 366 349 368 369 84
 2 360 1614 362 55 370 ?352 132 371 5 372 +0 0 352 132 24 81 1 364 239 327 362 0
 359 354 373 374 81 1 366 374 338 362 359 370 375 356 376 81 1 368 242 33 132 37
3 375 359 377 378 84 1 369 914 132 48 379 ?362 334 124 5 380 +0 0 362 334 24 81
 1 373 241 327 132 0 368 364 381 382 81 1 375 373 338 132 368 379 340 366 383 81
 1 377 244 33 246 381 339 368 384 385 84 2 378 1914 246 25 386 ?255 275 242 5 38
7 +0 0 255 275 24 81 1 381 243 327 246 0 377 373 388 389 81 1 339 370 338 246 37
7 386 342 330 390 81 1 384 246 33 286 388 391 377 392 393 84 2 385 2081 1 388 24
5 327 286 0 384 381 394 395 81 1 391 380 338 286 384 296 295 396 397 81 1 392 24
8 33 334 394 340 384 398 399 84 2 393 1714 334 41 400 ?132 255 177 5 401 +0 0 13
2 255 24 81 1 394 247 327 334 0 392 388 402 403 81 1 340 372 338 334 392 400 330
 375 404 81 1 398 250 33 141 402 405 392 406 407 84 2 399 1881 1 402 249 327 141
 0 398 394 408 409 81 1 405 383 338 141 398 271 410 267 411 81 1 406 252 33 251
 408 412 398 413 414 84 2 407 1581 1 408 251 327 251 0 406 402 415 416 81 1 412
 378 338 251 406 300 357 295 417 81 1 413 254 33 16 415 277 406 418 419 84 1 414
 781 1 415 253 327 16 0 413 408 420 421 81 1 277 368 338 16 413 274 0 342 422 81
 1 418 256 33 121 420 423 413 424 425 84 1 419 581 1 420 255 327 121 0 418 415 4
26 427 81 1 423 385 338 121 418 268 267 0 428 81 1 424 258 33 283 426 396 418 42
9 430 84 2 425 1381 1 426 257 327 283 0 424 420 431 432 81 1 396 381 338 283 424
 285 391 410 433 81 1 429 260 33 261 431 357 424 434 435 84 2 430 1181 1 431 259
 327 261 0 429 426 436 437 81 1 357 377 338 261 429 289 348 412 438 81 1 434 262
 33 272 436 410 429 439 440 84 2 435 1081 1 436 261 327 272 0 434 431 441 442 81
 1 410 382 338 272 434 290 396 405 443 81 1 439 264 33 292 441 295 434 97 444 84
 1 440 681 1 441 263 327 292 0 439 436 445 446 81 1 295 379 338 292 439 293 412
 391 447 81 1 97 266 33 18 445 267 439 94 448 84 2 444 1281 1 445 265 327 18 0 9
7 441 96 449 81 1 267 384 338 18 97 265 405 423 450 84 1 448 880 1 338 0 451 800
1 0 0 0 0 3 5 0 0 0 FFFFTFTFFFFFFF2 83 255 3 450 .647058823529412 .6196078431372
55 .588235294117647 79 255 15 451 SDL/TYSA_COLOUR80 1 327 452 453 8017 0 0 0 0 0
 0 0 0 0 TTTTTTTTTTTTTF3 81 1 96 267 327 85 0 94 445 454 455 84 4 449 NONE81 1 4
54 269 327 45 0 98 96 456 457 84 4 455 NONE81 1 98 270 33 45 454 0 94 108 458 81
 1 456 271 327 106 0 108 454 459 460 84 4 457 NONE81 1 108 272 33 106 456 0 98 1
11 461 81 1 459 273 327 63 0 111 456 462 463 84 4 460 NONE81 1 111 274 33 63 459
 0 108 43 464 81 1 462 275 327 31 0 43 459 115 465 84 4 463 NONE81 1 43 276 33 3
1 462 0 111 113 466 81 1 115 277 327 110 0 113 462 262 467 84 4 465 NONE81 1 262
 279 327 49 0 35 115 34 468 84 4 467 NONE81 1 34 281 327 11 0 29 262 469 470 84
 4 468 NONE81 1 469 283 327 51 0 36 34 471 472 84 4 470 NONE81 1 36 284 33 51 46
9 0 29 57 473 81 1 471 285 327 55 0 57 469 474 475 84 4 472 NONE81 1 57 286 33 5
5 471 0 36 61 476 81 1 474 287 327 59 0 61 471 477 478 84 4 475 NONE81 1 61 288
 33 59 474 0 57 65 479 81 1 477 289 327 54 0 65 474 480 481 84 4 478 NONE81 1 65
 290 33 54 477 0 61 70 482 81 1 480 291 327 68 0 70 477 483 484 84 4 481 NONE81
 1 70 292 33 68 480 0 65 73 485 81 1 483 293 327 67 0 73 480 486 487 84 4 484 NO
NE81 1 73 294 33 67 483 0 70 78 488 81 1 486 295 327 76 0 78 483 489 490 84 4 48
7 NONE81 1 78 296 33 76 486 0 73 81 491 81 1 489 297 327 75 0 81 486 86 492 84 4
 490 NONE81 1 81 298 33 75 489 0 78 83 493 81 1 86 299 327 80 0 83 489 494 495 8
4 4 492 NONE81 1 494 301 327 22 0 87 86 496 497 84 4 495 NONE81 1 87 302 33 22 4
94 0 83 498 499 81 1 496 303 327 1 0 500 494 0 501 84 4 497 NONE81 1 500 304 502
 1 496 498 0 0 503 84 6 501 Sweep180 1 502 504 505 9000 0 0 0 0 3 5 0 0 0 TFTFTF
TFFFFFFF3 81 1 498 305 33 1 500 506 87 0 507 84 9 503 98335A09581 2 506 423 508
 1 498 509 0 0 510 0 84 3 507 31980 2 508 511 512 8004 0 0 0 0 3 5 0 0 0 FFTFFFF
FFFFFFF2 3 81 2 509 444 513 1 506 514 0 0 0 515 83 1 510 1e3 80 2 513 516 517 90
00 0 0 0 0 3 5 0 0 0 FFTFFFFFFFFFFF9 1 81 2 514 445 518 1 509 519 0 0 0 520 82 2
55 1 515 84 80 2 518 521 522 9000 0 0 0 0 3 5 0 0 0 FFTFFFFFFFFFFT9 1 81 1 519 4
83 523 1 514 524 0 0 525 82 1 520 116 80 1 523 526 527 9000 1 1 1 1 1 1 1 1 0 FF
TFFFFFFFFFFF1 81 2 524 487 528 1 519 13 0 0 0 529 82 1 525 607509 80 2 528 530 5
31 9000 0 0 0 0 3 5 0 0 0 FFTFFFFFFFFFFF9 1 81 2 13 498 532 1 524 2 0 0 0 0 82 1
 529 1 80 2 532 533 534 9000 0 0 0 0 3 5 0 0 0 FFTFFFFFFFFFFF9 1 79 16 534 BODY_
RECIPE_200179 24 531 BODY_IN_LIGHTWEIGHT_PERM79 10 527 BODY_MATCH79 19 522 ENT_T
IME_STAMP_200179 30 517 LAST_BODY_MODIFYING_FEATURE_ID79 16 512 SDL/TYSA_DENSITY
79 22 505 ATTRIB_XPARASOLID_NAME84 3 499 43484 3 493 42584 3 491 43584 3 488 429
84 3 485 43684 3 482 43284 3 479 42484 3 476 43084 3 473 41884 3 466 44184 3 464
 44384 3 461 42384 3 458 42179 13 453 SDL/TYSA_NAME83 3 447 .647058823529412 .61
9607843137255 .588235294117647 84 4 446 NONE81 1 290 545 266 272 410 0 289 293 5
35 83 3 443 .647058823529412 .619607843137255 .588235294117647 80 1 266 536 537
 9000 1 1 1 1 1 1 1 1 0 FFFFTFTFFFFFFF1 81 1 289 544 266 261 357 0 285 290 538 8
2 1 535 536281409 81 1 285 543 266 283 396 0 278 289 539 82 1 538 536150337 81 1
 278 542 266 275 342 0 274 285 540 82 1 539 536019265 82 1 540 535626049 79 14 5
37 SWEntUnchanged84 4 442 NONE83 3 438 .647058823529412 .619607843137255 .588235
294117647 84 4 437 NONE83 3 433 .647058823529412 .619607843137255 .5882352941176
47 84 4 432 NONE81 1 268 539 266 121 423 0 265 271 541 83 3 428 .647058823529412
 .619607843137255 .588235294117647 81 1 271 540 266 141 405 0 268 274 542 82 1 5
41 535298369 82 1 542 535363905 84 4 427 NONE83 3 422 .647058823529412 .61960784
3137255 .588235294117647 84 4 421 NONE81 1 300 548 266 251 412 0 296 333 543 83
 3 417 .647058823529412 .619607843137255 .588235294117647 81 1 296 547 266 286 3
91 0 293 300 544 81 1 333 549 266 255 330 0 300 351 545 82 1 543 536609089 81 1
 351 550 266 257 348 0 333 361 546 82 1 545 538706241 81 1 361 551 266 352 356 0
 351 370 547 82 1 546 539033921 81 1 370 552 266 362 366 0 361 379 548 82 1 547
 539230529 81 1 379 553 266 132 375 0 370 386 549 82 1 548 539427137 81 1 386 55
4 266 246 339 0 379 400 550 82 1 549 539623745 81 1 400 555 266 334 340 0 386 0
 551 82 1 550 539820353 82 1 551 540148033 82 1 544 536543553 84 4 416 NONE83 3
 411 .647058823529412 .619607843137255 .588235294117647 84 4 409 NONE83 3 404 .6
47058823529412 .619607843137255 .588235294117647 84 4 403 NONE15 177 42 0 133 33
4 0 54 401 101 0 334 299 273 0 +0 .0142875 -.0841375 1 0 0 .0142875 .003175 0 0
 -1 54 299 100 0 286 387 401 0 +0 .0142875 -.0534585478109874 -1 0 0 .00555625 .
003175 0 0 1 51 273 102 0 141 401 281 0 +0 104278584947432e-31 -.0841375 0 0 1 .
003175 0 -1 0 54 387 99 0 246 380 299 0 +0 0 -.0396875 1 0 0 .0142875 .003175 0
 0 -1 51 380 98 0 132 372 387 0 +0 104278584947432e-31 -.0841375 0 0 1 .003175 0
 -1 0 54 372 97 0 362 363 380 0 +0 .0142875 -.0841375 1 0 0 .0142875 .003175 0 0
 -1 51 363 96 0 352 353 372 0 +0 .02518376146629555 -.0748960638395257 0 -.64681
9678773346 .762642972269164 .003175 0 -.762642972269164 -.646819678773346 51 353
 95 0 257 280 363 0 +0 .00947564635022278 -.02313832718901255 0 .499999999999991
 .866025403784444 .003175 0 -.866025403784444 .499999999999991 54 280 94 0 275 3
35 353 0 +0 .0142875 -.0534585478109874 -1 0 0 .00555625 .003175 0 0 1 54 335 93
 0 255 0 280 0 +0 .0142875 -.02591645218901265 -1 0 0 .00555625 .003175 0 0 1 17
 133 0 177 42 112 59 129 134 0 178 -17 112 0 177 133 40 63 103 139 0 130 -17 178
 0 371 135 212 59 42 159 0 137 -15 371 56 0 178 362 0 17 135 0 371 103 178 63 13
7 229 0 0 -17 212 0 371 178 103 11 552 209 0 0 +17 137 0 136 125 130 59 135 229
 0 0 +17 103 0 371 212 135 85 112 139 0 40 +17 552 0 291 101 179 85 212 209 0 0
 -15 291 85 0 179 272 0 17 101 0 291 318 552 45 39 102 0 320 +17 179 0 291 552 3
18 11 26 10 0 212 -17 320 0 319 316 93 45 321 150 0 100 -15 319 60 0 316 352 0 1
7 93 0 319 320 218 80 553 152 0 312 +16 150 63 145 ?321 219 92 148 0 0 1 81 1 14
5 222 33 150 554 0 238 142 555 81 1 554 221 327 150 0 145 240 144 556 84 3 555 1
0881 1 240 219 327 169 0 238 557 554 558 81 1 144 223 327 123 0 142 554 559 560
 84 4 556 NONE81 1 559 225 327 152 0 146 144 160 561 84 4 560 NONE81 1 146 226 3
3 152 559 0 142 156 562 81 1 160 227 327 155 0 156 559 322 563 84 4 561 NONE84 4
 563 NONE84 3 562 15181 1 557 217 327 158 0 168 564 240 565 84 4 558 NONE81 1 16
8 218 33 158 557 0 236 238 566 81 1 564 215 327 222 0 236 567 557 568 84 4 565 N
ONE81 1 236 216 33 222 564 0 235 168 569 81 1 567 213 327 139 0 235 570 564 571
 84 4 568 NONE81 1 235 214 33 139 567 0 233 236 572 81 1 570 211 327 127 0 233 5
73 567 574 84 4 571 NONE81 1 233 212 33 127 570 0 138 235 575 81 1 573 209 327 1
31 0 138 576 570 577 84 4 574 NONE81 1 138 210 33 131 573 0 180 233 578 81 1 576
 207 327 41 0 180 579 573 580 84 4 577 NONE81 1 180 208 33 41 576 0 25 138 581 8
1 1 579 205 327 10 0 25 582 576 583 84 4 580 NONE81 1 25 206 33 10 579 0 230 180
 584 81 1 582 203 327 229 0 230 585 579 586 84 4 583 NONE81 1 230 204 33 229 582
 0 227 25 587 81 1 585 201 327 225 0 227 588 582 589 84 4 586 NONE81 1 227 202 3
3 225 585 0 224 230 590 81 1 588 199 327 189 0 224 591 585 592 84 4 589 NONE81 1
 224 200 33 189 588 0 221 227 593 81 1 591 197 327 219 0 221 594 588 595 84 4 59
2 NONE81 1 221 198 33 219 591 0 217 224 596 81 1 594 195 327 153 0 217 597 591 5
98 84 4 595 NONE81 1 217 196 33 153 594 0 214 221 599 81 1 597 193 327 208 0 214
 600 594 601 84 4 598 NONE81 1 214 194 33 208 597 0 211 217 602 81 1 600 191 327
 209 0 211 603 597 604 84 4 601 NONE81 1 211 192 33 209 600 0 206 214 605 81 1 6
03 189 327 154 0 206 606 600 607 84 4 604 NONE81 1 206 190 33 154 603 0 202 211
 608 81 1 606 187 327 194 0 202 609 603 610 84 4 607 NONE81 1 202 188 33 194 606
 0 200 206 611 81 1 609 185 327 134 0 200 612 606 613 84 4 610 NONE81 1 200 186
 33 134 609 0 198 202 614 81 1 612 183 327 92 0 198 615 609 616 84 4 613 NONE81
 1 198 184 33 92 612 0 196 200 617 81 1 615 181 327 102 0 196 618 612 619 84 4 6
16 NONE81 1 196 182 33 102 615 0 192 198 620 81 1 618 179 327 190 0 192 621 615
 622 84 4 619 NONE81 1 192 180 33 190 618 0 175 196 623 81 1 621 177 327 186 0 1
75 173 618 624 84 4 622 NONE81 1 175 178 33 186 621 0 171 192 625 81 1 173 175 3
27 159 0 171 626 621 627 84 4 624 NONE81 1 626 173 327 184 0 174 310 173 628 84
 4 627 NONE16 184 40 174 ?250 186 253 182 0 0 1 81 1 174 174 33 184 626 0 305 17
1 629 81 1 310 171 327 204 0 305 304 626 630 84 4 628 NONE81 1 304 169 327 228 0
 302 631 310 632 84 4 630 NONE81 1 631 167 327 119 0 126 314 304 633 84 4 632 NO
NE81 1 126 168 33 119 631 0 313 302 634 81 1 314 165 327 27 0 313 635 631 636 84
 4 633 NONE81 1 635 163 327 253 0 307 0 314 637 84 4 636 NONE81 1 307 164 33 253
 635 0 0 313 638 84 4 637 NONE84 2 638 8384 3 634 11584 3 629 13217 250 0 249 58
 244 22 164 184 0 157 +17 164 0 163 53 157 54 250 184 0 0 -84 3 625 14984 3 623
 10984 3 620 12284 3 617 12884 3 614 10784 3 611 15984 3 608 16884 3 605 17884 3
 602 11284 3 599 14884 3 596 12684 3 593 14284 3 590 17184 3 587 15284 3 584 167
84 3 581 17284 3 578 13584 3 575 11384 3 572 11984 3 569 16284 3 566 12017 218 0
 319 93 316 67 44 153 0 553 +17 553 0 298 237 312 67 93 152 0 0 -17 312 0 298 55
3 79 80 90 204 0 321 -15 298 80 0 312 286 0 17 79 0 298 312 237 76 82 219 0 301
 +17 237 0 298 79 553 75 91 222 0 203 +17 82 0 242 193 243 75 79 219 0 237 -17 9
1 0 89 84 203 67 237 222 0 218 -17 203 0 89 91 90 75 301 194 0 248 +15 89 16 0 8
4 275 0 17 40 0 177 112 42 85 30 41 0 552 +83 3 397 .647058823529412 .6196078431
37255 .588235294117647 84 4 395 NONE83 3 390 .647058823529412 .619607843137255 .
588235294117647 84 4 389 NONE83 3 383 .647058823529412 .619607843137255 .5882352
94117647 84 4 382 NONE83 3 376 .647058823529412 .619607843137255 .58823529411764
7 84 4 374 NONE83 3 367 .647058823529412 .619607843137255 .588235294117647 84 4
 365 NONE83 3 358 .647058823529412 .619607843137255 .588235294117647 84 4 355 NO
NE83 3 347 .647058823529412 .619607843137255 .588235294117647 84 4 346 NONE83 3
 341 .647058823529412 .619607843137255 .588235294117647 84 4 337 NONE84 4 329 NO
NE79 20 326 ATTRIB_XPARASOLID_ID17 74 0 287 44 321 67 84 92 0 91 +84 3 315 12184
 3 311 16984 3 306 12482 1 297 536412481 82 1 279 535494977 82 1 269 535167297 8
4 3 263 43384 3 241 11884 3 176 11484 3 162 17484 2 147 8517 62 0 124 129 109 59
 125 127 0 133 -84 3 116 42884 3 99 44284 3 88 44084 3 37 43119 17 1 0 1 0 9 5 S
0 74 4 CI16 index_map_offset0 0 1 dCCZ20 15 12 0 0 496 498 500 400 423 506 509 5
14 519 524 13 2 0 0 0 0 0 0 0 0 80 2 12 639 640 9000 0 0 0 0 3 5 0 0 0 FFTFFFFFF
FFFFF9 1 82 1 14 104 79 12 640 ATOM_ID_20011 0 
