**ABCDEFGHIJKLMNOPQRSTUVWXYZabcdefghijklmnopqrstuvwxyz**************************
**PARASOLID !"#$%&'()*+,-./:;<=>?@[\]^_`{|}~0123456789**************************
**PART1;
MC=AMD64;
MC_MODEL=Intel64 Family 6 Model 142 Stepping 10, GenuineIntel;
MC_ID=unknown;
OS=Windows_NT;
OS_RELEASE=unknown;
FRU=Parasolid Version 31.0, build 282,  2-25-2019;
APPL=SOLIDWORKS 2019-2019115;
SITE=;
USER=unknown;
FORMAT=text;
GUISE=transmit;
KEY=LV(02)_;
FILE=LV(02)_.x_t;
DATE=Tue Feb  4 09:12:40 2020;
**PART2;
SCH=SCH_3100282_31001;
USFLD_SIZE=0;
**PART3;
**END_OF_HEADER*****************************************************************
T51 : TRANSMIT FILE created by modeller version 310028223 SCH_3100282_31001_1300
6215 0 12 34 CCCCCCI4 mesh1006 0 I8 polyline1008 0 CCCCCCCDI5 owner1040 0 CCCCCC
I13 boundary_mesh1006 0 I17 boundary_polyline1008 0 CCCA16 index_map_offset0 0 1
 dA9 index_map82 0 A17 node_id_index_map82 0 A20 schema_embedding_map82 0 A5 chi
ld12 0 A14 lowest_node_id0 0 1 dA16 mesh_offset_data206 0 Z1 198 2 3 0 0 0 0 0 0
 1e3 1e-8 0 4 0 1 0 1 1 5 6 7 0 0 0 8 9 0 0 0 0 0 0 0 0 81 255 2 2 193 10 1 11 0
 0 0 0 12 70 11 CI9 list_type0 0 1 uI10 notransmit0 0 1 lCCCDCCDI12 finger_index
0 0 1 dI12 finger_block1012 0 CZ3 0 4 T1 0 0 9 20 1 13 13 13 255 5 31 0 1 0 14 0
 0 15 0 52 255 6 121 0 16 17 0 0 +0 .002 0 0 1 0 .0145 .707106781186548 .7071067
81186547 0 0 1 31 255 7 105 0 9 18 0 0 -0 0 0 0 1 0 0 0 1 .0125 19 8 CCCCCCCA5 o
wner12 0 Z8 9 0 1 15 0 19 V0 16 255 9 102 0 ?20 0 21 7 0 0 1 17 255 20 0 22 20 2
0 0 23 9 0 0 +16 21 96 0 ?24 9 25 18 0 0 1 17 24 0 26 24 24 0 27 21 0 0 +16 25 5
 0 ?28 21 29 30 0 0 1 31 18 99 0 21 30 7 0 +0 .002 0 0 1 0 0 0 1 .0145 31 30 7 0
 25 31 18 0 +0 .03 0 0 1 0 0 0 1 .0145 31 31 73 0 32 33 30 0 +0 0 0 0 1 0 0 0 1
 .0095 16 32 51 0 ?34 29 0 31 0 0 1 31 33 74 0 29 0 31 0 +0 .03 0 0 1 0 0 0 1 .0
095 16 29 54 0 ?35 25 32 33 0 0 1 17 35 0 36 35 35 0 37 29 0 0 +15 255 36 60 0 3
5 38 39 17 37 0 40 37 37 0 35 29 0 0 -15 40 45 0 37 14 0 14 255 14 48 41 ?42 0 4
3 5 44 +0 0 42 0 19 81 1 41 194 45 14 46 0 0 47 48 14 42 42 47 ?49 14 22 5 50 -0
 0 49 14 19 15 43 4 0 28 14 40 50 255 44 3 0 14 51 50 0 +0 .03 0 0 1 0 0 0 1 13
 19 10 0 0 0 0 0 0 8 14 51 255 51 70 0 38 0 44 0 -0 .03 0 0 -1 0 .0095 0 0 -1 50
 50 24 0 42 44 17 0 +0 0 0 0 1 0 0 0 1 51 17 30 0 49 50 6 0 -0 .03 0 0 -1 0 .014
5 0 0 -1 14 49 27 52 ?38 42 26 5 17 -0 0 38 42 19 81 1 52 196 45 49 53 0 47 54 5
5 14 38 57 54 ?16 49 36 5 51 +0 0 16 49 19 15 26 97 0 24 49 56 15 56 26 0 57 49
 0 17 57 0 56 57 57 0 28 25 0 0 -17 28 0 43 28 28 0 57 25 0 0 +81 1 54 197 45 38
 58 0 52 59 60 14 16 114 59 ?0 38 61 5 6 +0 0 0 38 19 81 1 59 198 45 16 62 0 54
 0 63 15 61 115 0 23 16 64 17 23 0 61 23 23 0 20 9 0 0 -15 64 116 0 27 16 0 17 2
7 0 64 27 27 0 24 21 0 0 -80 255 1 45 65 66 9000 1 1 1 1 1 1 1 1 0 FFFFTFTFFFFFF
F1 81 1 62 177 67 16 0 59 58 0 68 82 255 1 63 960627012 80 1 67 0 69 8001 0 0 0
 0 3 5 0 0 0 FFFFTFTFFFFFFF2 81 1 58 176 67 38 0 54 53 62 70 83 255 3 68 .647058
823529412 .619607843137255 .588235294117647 81 1 53 175 67 49 0 52 71 58 72 83 3
 70 .647058823529412 .619607843137255 .588235294117647 81 1 71 174 67 42 0 47 46
 53 73 83 3 72 .647058823529412 .619607843137255 .588235294117647 81 1 47 195 45
 42 71 0 41 52 74 81 1 46 173 67 14 0 41 0 71 75 83 3 73 .647058823529412 .61960
7843137255 .588235294117647 83 3 75 .647058823529412 .619607843137255 .588235294
117647 82 1 74 653918532 79 255 15 69 SDL/TYSA_COLOUR79 14 66 SWEntUnchanged82 1
 60 652214594 82 1 55 648085828 15 22 103 0 20 42 76 15 76 40 0 34 42 0 17 34 0
 76 34 34 0 77 32 0 0 +17 77 0 39 77 77 0 34 32 0 0 -15 39 61 0 77 38 0 82 1 48
 654442818 19 15 32 0 1 0 8 5 S0 74 4 CI16 index_map_offset0 0 1 dCCZ20 13 9 0 0
 59 78 79 80 81 82 62 11 2 0 0 0 0 0 0 0 0 0 0 0 81 2 78 144 83 1 0 79 0 0 84 0
 81 2 79 152 85 1 78 80 0 0 0 86 81 2 80 153 87 1 79 81 0 0 0 88 81 1 81 165 89
 1 80 82 0 0 90 81 2 82 168 91 1 81 11 0 0 0 92 81 2 11 180 93 1 82 2 0 0 0 0 80
 2 93 94 95 9000 0 0 0 0 3 5 0 0 0 FFTFFFFFFFFFFF9 1 79 16 95 BODY_RECIPE_200180
 2 91 96 97 9000 0 0 0 0 3 5 0 0 0 FFTFFFFFFFFFFF9 1 82 1 92 1 79 24 97 BODY_IN_
LIGHTWEIGHT_PERM80 1 89 98 99 9000 1 1 1 1 1 1 1 1 0 FFTFFFFFFFFFFF1 82 1 90 744
946 79 10 99 BODY_MATCH80 2 87 100 101 9000 0 0 0 0 3 5 0 0 0 FFTFFFFFFFFFFT9 1
 82 1 88 116 79 19 101 ENT_TIME_STAMP_200180 2 85 102 103 9000 0 0 0 0 3 5 0 0 0
 FFTFFFFFFFFFFF9 1 82 1 86 84 79 30 103 LAST_BODY_MODIFYING_FEATURE_ID80 2 83 10
4 105 8004 0 0 0 0 3 5 0 0 0 FFTFFFFFFFFFFF2 3 83 1 84 79e2 79 16 105 SDL/TYSA_D
ENSITY80 2 10 106 107 9000 0 0 0 0 3 5 0 0 0 FFTFFFFFFFFFFF9 1 82 1 12 104 79 12
 107 ATOM_ID_20011 0 
