**ABCDEFGHIJKLMNOPQRSTUVWXYZabcdefghijklmnopqrstuvwxyz**************************
**PARASOLID !"#$%&'()*+,-./:;<=>?@[\]^_`{|}~0123456789**************************
**PART1;
MC=AMD64;
MC_MODEL=Intel64 Family 6 Model 142 Stepping 10, GenuineIntel;
MC_ID=unknown;
OS=Windows_NT;
OS_RELEASE=unknown;
FRU=Parasolid Version 31.0, build 282,  2-25-2019;
APPL=SOLIDWORKS 2019-2019115;
SITE=;
USER=unknown;
FORMAT=text;
GUISE=transmit;
KEY=LV(01)_;
FILE=LV(01)_.x_t;
DATE=Tue Feb  4 09:12:36 2020;
**PART2;
SCH=SCH_3100282_31001;
USFLD_SIZE=0;
**PART3;
**END_OF_HEADER*****************************************************************
T51 : TRANSMIT FILE created by modeller version 310028223 SCH_3100282_31001_1300
6215 0 12 34 CCCCCCI4 mesh1006 0 I8 polyline1008 0 CCCCCCCDI5 owner1040 0 CCCCCC
I13 boundary_mesh1006 0 I17 boundary_polyline1008 0 CCCA16 index_map_offset0 0 1
 dA9 index_map82 0 A17 node_id_index_map82 0 A20 schema_embedding_map82 0 A5 chi
ld12 0 A14 lowest_node_id0 0 1 dA16 mesh_offset_data206 0 Z1 240 2 3 0 0 0 0 0 0
 1e3 1e-8 0 4 0 1 0 1 1 5 6 7 0 0 0 8 9 0 0 0 0 0 0 0 0 81 255 2 2 234 10 1 11 0
 0 0 0 12 70 11 CI9 list_type0 0 1 uI10 notransmit0 0 1 lCCCDCCDI12 finger_index
0 0 1 dI12 finger_block1012 0 CZ3 0 4 T1 0 0 9 20 1 13 13 13 255 5 31 0 1 0 14 0
 0 15 0 52 255 6 148 0 16 17 0 0 +0 0 .02 0 0 -1 .0135 .707106781186546 .7071067
81186549 -1 0 0 31 255 7 118 0 9 18 0 0 +0 0 .02 0 0 1 1 0 0 .0135 19 8 CCCCCCCA
5 owner12 0 Z8 9 0 1 15 0 19 V0 16 255 9 115 0 ?20 0 21 7 0 0 1 17 255 20 0 22 2
0 20 0 23 9 0 0 +16 21 109 0 ?24 9 25 18 0 0 1 17 24 0 26 24 24 0 27 21 0 0 +16
 25 103 0 ?28 21 29 30 0 0 1 31 18 112 0 21 30 7 0 -0 0 -.02 0 0 1 1 0 0 .0135 3
1 30 106 0 25 31 18 0 +0 0 -.019 0 0 1 1 0 0 .0145 31 31 100 0 29 32 30 0 -0 0 .
019 0 0 1 1 0 0 .0145 16 29 97 0 ?33 25 34 31 0 0 1 31 32 73 0 35 36 31 0 +0 0 -
.02 0 0 1 1 0 0 .0095 16 35 51 0 ?37 34 0 32 0 0 1 31 36 74 0 34 0 32 0 +0 0 .02
 0 0 1 1 0 0 .0095 16 34 54 0 ?38 29 35 36 0 0 1 17 38 0 39 38 38 0 40 34 0 0 +1
5 255 39 60 0 38 41 42 17 40 0 43 40 40 0 38 34 0 0 -15 43 45 0 40 14 0 14 255 1
4 48 44 ?45 0 22 5 46 +0 0 45 0 19 81 1 44 235 47 14 48 0 0 49 50 14 45 42 49 ?5
1 14 26 5 52 -0 0 51 14 19 15 22 116 0 20 14 43 50 255 46 3 0 14 53 52 0 +0 0 .0
2 0 0 1 1 0 0 13 19 10 0 0 0 0 0 0 8 14 51 255 53 70 0 41 0 46 0 -0 0 .02 0 0 -1
 .0095 -1 0 0 50 52 24 0 45 46 54 0 +0 0 -.02 0 0 1 1 0 0 51 54 30 0 51 52 17 0
 -0 0 .02 0 0 -1 .0145 -1 0 0 14 51 27 55 ?41 45 56 5 54 -0 0 41 45 19 52 17 135
 0 57 54 6 0 +0 0 -.019 0 0 1 .0145 .707106781186548 .707106781186548 1 0 0 14 5
7 128 58 ?16 41 59 5 17 +0 0 16 41 19 81 1 58 238 47 57 60 0 55 61 62 14 16 141
 61 ?0 57 63 5 6 +0 0 0 57 19 14 41 57 64 ?57 51 39 5 53 +0 0 57 51 19 15 59 129
 0 27 57 65 17 27 0 59 27 27 0 24 21 0 0 -15 65 130 0 66 57 0 17 66 0 65 66 66 0
 28 25 0 0 -17 28 0 56 28 28 0 66 25 0 0 +15 56 104 0 28 51 67 15 67 98 0 33 51
 0 17 33 0 67 33 33 0 68 29 0 0 +17 68 0 63 68 68 0 33 29 0 0 -15 63 142 0 68 16
 69 15 69 143 0 23 16 0 17 23 0 69 23 23 0 20 9 0 0 -81 1 64 240 47 41 70 0 61 0
 71 80 255 1 47 72 73 9000 1 1 1 1 1 1 1 1 0 FFFFTFTFFFFFFF1 81 1 70 214 74 41 0
 64 75 60 76 81 1 61 239 47 16 77 0 58 64 78 82 255 1 71 2112291138 81 1 77 216
 74 16 0 61 60 0 79 82 1 78 -1552875193 80 1 74 0 80 8001 0 0 0 0 3 5 0 0 0 FFFF
TFTFFFFFFF2 81 1 60 215 74 57 0 58 70 77 81 83 255 3 79 .647058823529412 .619607
843137255 .588235294117647 83 3 81 .647058823529412 .619607843137255 .5882352941
17647 79 255 15 80 SDL/TYSA_COLOUR81 1 75 213 74 51 0 55 82 70 83 83 3 76 .64705
8823529412 .619607843137255 .588235294117647 81 1 55 237 47 51 75 0 49 58 84 81
 1 82 212 74 45 0 49 48 75 85 83 3 83 .647058823529412 .619607843137255 .5882352
94117647 81 1 49 236 47 45 82 0 44 55 86 81 1 48 211 74 14 0 44 0 82 87 83 3 85
 .647058823529412 .619607843137255 .588235294117647 83 3 87 .647058823529412 .61
9607843137255 .588235294117647 82 1 86 2113995079 82 1 84 2108162375 79 14 73 SW
EntUnchanged82 1 62 -1554120377 15 26 110 0 24 45 88 15 88 40 0 37 45 0 17 37 0
 88 37 37 0 89 35 0 0 +17 89 0 42 89 89 0 37 35 0 0 -15 42 61 0 89 41 0 82 1 50
 2114519367 19 15 32 0 1 0 8 5 S0 74 4 CI16 index_map_offset0 0 1 dCCZ20 13 9 0
 0 64 90 91 92 93 94 77 11 2 0 0 0 0 0 0 0 0 0 0 0 81 2 90 178 95 1 0 91 0 0 96
 0 81 2 91 187 97 1 90 92 0 0 0 98 81 2 92 188 99 1 91 93 0 0 0 100 81 1 93 202
 101 1 92 94 0 0 102 81 2 94 205 103 1 93 11 0 0 0 104 81 2 11 219 105 1 94 2 0
 0 0 0 80 2 105 106 107 9000 0 0 0 0 3 5 0 0 0 FFTFFFFFFFFFFF9 1 79 16 107 BODY_
RECIPE_200180 2 103 108 109 9000 0 0 0 0 3 5 0 0 0 FFTFFFFFFFFFFF9 1 82 1 104 1
 79 24 109 BODY_IN_LIGHTWEIGHT_PERM80 1 101 110 111 9000 1 1 1 1 1 1 1 1 0 FFTFF
FFFFFFFFF1 82 1 102 4832818 79 10 111 BODY_MATCH80 2 99 112 113 9000 0 0 0 0 3 5
 0 0 0 FFTFFFFFFFFFFT9 1 82 1 100 116 79 19 113 ENT_TIME_STAMP_200180 2 97 114 1
15 9000 0 0 0 0 3 5 0 0 0 FFTFFFFFFFFFFF9 1 82 1 98 84 79 30 115 LAST_BODY_MODIF
YING_FEATURE_ID80 2 95 116 117 8004 0 0 0 0 3 5 0 0 0 FFTFFFFFFFFFFF2 3 83 1 96
 1e3 79 16 117 SDL/TYSA_DENSITY80 2 10 118 119 9000 0 0 0 0 3 5 0 0 0 FFTFFFFFFF
FFFF9 1 82 1 12 104 79 12 119 ATOM_ID_20011 0 
